%
M48
M72
T01C0.01300
T02C0.01301
T03C0.01500
T04C0.05118
T05C0.12850
T06C0.13386
%
T01
X105714Y81523
X105714Y84257
X105714Y86990
X105714Y89723
X105714Y92457
X105714Y95189
X105714Y97923
X108448Y97923
X111181Y97923
X113914Y97923
X116647Y97923
X119380Y97923
X122114Y97923
X122114Y95189
X122114Y92457
X119380Y92457
X119380Y95189
X116647Y95189
X116647Y92457
X113914Y92457
X113914Y95189
X111181Y95189
X111181Y92457
X108448Y92457
X108448Y95189
X108448Y89723
X111181Y89723
X113914Y89723
X116647Y89723
X119380Y89723
X119380Y86990
X116647Y86990
X113914Y86990
X111181Y86990
X108448Y86990
X108448Y84257
X111181Y84257
X113914Y84257
X116647Y84257
X119380Y84257
X122114Y84257
X122114Y86990
X122114Y89723
X130214Y89723
X130214Y86990
X130214Y84257
X132948Y84257
X132948Y86990
X132948Y89723
X135681Y89723
X138414Y89723
X141147Y89723
X143880Y89723
X143880Y86990
X141147Y86990
X138414Y86990
X135681Y86990
X135681Y84257
X138414Y84257
X141147Y84257
X143880Y84257
X146614Y84257
X146614Y86990
X146614Y89723
X146614Y92457
X146614Y95189
X146614Y97923
X143880Y97923
X141147Y97923
X138414Y97923
X135681Y97923
X132948Y97923
X130214Y97923
X130214Y95189
X130214Y92457
X132948Y92457
X132948Y95189
X135681Y95189
X135681Y92457
X138414Y92457
X138414Y95189
X141147Y95189
X141147Y92457
X143880Y92457
X143880Y95189
X152714Y95189
X152714Y92457
X155448Y92457
X155448Y95189
X158181Y95189
X158181Y92457
X160914Y92457
X160914Y95189
X163647Y95189
X163647Y92457
X166380Y92457
X166380Y95189
X166380Y97923
X163647Y97923
X160914Y97923
X158181Y97923
X155448Y97923
X152714Y97923
X152714Y89723
X152714Y86990
X152714Y84257
X155448Y84257
X155448Y86990
X155448Y89723
X158181Y89723
X160914Y89723
X163647Y89723
X166380Y89723
X166380Y86990
X163647Y86990
X160914Y86990
X158181Y86990
X158181Y84257
X160914Y84257
X163647Y84257
X166380Y84257
X169114Y84257
X169114Y86990
X169114Y89723
X169114Y92457
X169114Y95189
X169114Y97923
X175414Y109323
X180414Y113823
X169114Y81523
X166380Y81523
X163647Y81523
X160914Y81523
X158181Y81523
X155448Y81523
X152714Y81523
X146614Y81523
X143880Y81523
X141147Y81523
X138414Y81523
X135681Y81523
X132948Y81523
X130214Y81523
X122114Y81523
X119380Y81523
X116647Y81523
X113914Y81523
X111181Y81523
X108448Y81523
X203414Y170323
X200114Y177223
X200114Y179957
X200114Y182689
X200114Y185423
X200114Y188156
X200114Y190889
X200114Y193623
X197380Y193623
X194647Y193623
X191914Y193623
X189181Y193623
X186448Y193623
X183714Y193623
X183714Y190889
X183714Y188156
X183714Y185423
X186448Y185423
X186448Y188156
X186448Y190889
X189181Y190889
X191914Y190889
X194647Y190889
X197380Y190889
X197380Y188156
X194647Y188156
X191914Y188156
X189181Y188156
X189181Y185423
X191914Y185423
X194647Y185423
X197380Y185423
X197380Y182689
X197380Y179957
X194647Y179957
X194647Y182689
X191914Y182689
X191914Y179957
X189181Y179957
X189181Y182689
X186448Y182689
X186448Y179957
X183714Y179957
X183714Y182689
X183714Y177223
X186448Y177223
X189181Y177223
X191914Y177223
X194647Y177223
X197380Y177223
X208714Y177223
X208714Y179957
X208714Y182689
X208714Y185423
X208714Y188156
X208714Y190889
X208714Y193623
X211448Y193623
X214181Y193623
X216914Y193623
X219647Y193623
X222380Y193623
X225114Y193623
X225114Y190889
X225114Y188156
X225114Y185423
X222380Y185423
X222380Y188156
X222380Y190889
X219647Y190889
X216914Y190889
X214181Y190889
X211448Y190889
X211448Y188156
X214181Y188156
X216914Y188156
X219647Y188156
X219647Y185423
X216914Y185423
X214181Y185423
X211448Y185423
X211448Y182689
X211448Y179957
X214181Y179957
X214181Y182689
X216914Y182689
X216914Y179957
X219647Y179957
X219647Y182689
X222380Y182689
X222380Y179957
X225114Y179957
X225114Y182689
X225114Y177223
X222380Y177223
X219647Y177223
X216914Y177223
X214181Y177223
X211448Y177223
X228914Y170323
X231664Y173823
X238714Y168623
X241448Y168623
X244181Y168623
X246914Y168623
X249647Y168623
X252380Y168623
X255114Y168623
X255114Y165889
X255114Y163156
X255114Y160423
X252380Y160423
X252380Y163156
X252380Y165889
X249647Y165889
X246914Y165889
X244181Y165889
X241448Y165889
X241448Y163156
X244181Y163156
X246914Y163156
X249647Y163156
X249647Y160423
X246914Y160423
X244181Y160423
X241448Y160423
X238714Y160423
X238714Y163156
X238714Y165889
X238714Y157689
X238714Y154957
X241448Y154957
X241448Y157689
X244181Y157689
X244181Y154957
X246914Y154957
X246914Y157689
X249647Y157689
X249647Y154957
X252380Y154957
X252380Y157689
X255114Y157689
X255114Y154957
X255114Y152223
X252380Y152223
X249647Y152223
X246914Y152223
X244181Y152223
X241448Y152223
X238714Y152223
X257414Y135323
X255914Y116323
X284414Y116823
X284414Y130323
X285114Y152223
X285114Y154957
X285114Y157689
X285114Y160423
X285114Y163156
X285114Y165889
X285114Y168623
X282380Y168623
X279647Y168623
X276914Y168623
X274181Y168623
X271448Y168623
X268714Y168623
X268714Y165889
X268714Y163156
X268714Y160423
X271448Y160423
X271448Y163156
X271448Y165889
X274181Y165889
X276914Y165889
X279647Y165889
X282380Y165889
X282380Y163156
X279647Y163156
X276914Y163156
X274181Y163156
X274181Y160423
X276914Y160423
X279647Y160423
X282380Y160423
X282380Y157689
X282380Y154957
X279647Y154957
X279647Y157689
X276914Y157689
X276914Y154957
X274181Y154957
X274181Y157689
X271448Y157689
X271448Y154957
X268714Y154957
X268714Y157689
X268714Y152223
X271448Y152223
X274181Y152223
X276914Y152223
X279647Y152223
X282380Y152223
X298714Y152223
X298714Y154957
X298714Y157689
X298714Y160423
X298714Y163156
X298714Y165889
X298714Y168623
X301448Y168623
X304181Y168623
X306914Y168623
X309647Y168623
X312380Y168623
X315114Y168623
X315114Y165889
X315114Y163156
X315114Y160423
X312380Y160423
X312380Y163156
X312380Y165889
X309647Y165889
X306914Y165889
X304181Y165889
X301448Y165889
X301448Y163156
X304181Y163156
X306914Y163156
X309647Y163156
X309647Y160423
X306914Y160423
X304181Y160423
X301448Y160423
X301448Y157689
X301448Y154957
X304181Y154957
X304181Y157689
X306914Y157689
X306914Y154957
X309647Y154957
X309647Y157689
X312380Y157689
X312380Y154957
X315114Y154957
X315114Y157689
X315114Y152223
X312380Y152223
X309647Y152223
X306914Y152223
X304181Y152223
X301448Y152223
X293914Y173323
X296414Y177323
X301914Y191323
X314414Y191323
X332414Y191823
X344414Y191323
X354914Y178823
X345114Y168623
X342380Y168623
X339647Y168623
X336914Y168623
X334181Y168623
X331448Y168623
X328714Y168623
X328714Y165889
X328714Y163156
X328714Y160423
X331448Y160423
X331448Y163156
X331448Y165889
X334181Y165889
X336914Y165889
X339647Y165889
X342380Y165889
X342380Y163156
X339647Y163156
X336914Y163156
X334181Y163156
X334181Y160423
X336914Y160423
X339647Y160423
X342380Y160423
X345114Y160423
X345114Y163156
X345114Y165889
X345114Y157689
X345114Y154957
X342380Y154957
X342380Y157689
X339647Y157689
X339647Y154957
X336914Y154957
X336914Y157689
X334181Y157689
X334181Y154957
X331448Y154957
X331448Y157689
X328714Y157689
X328714Y154957
X328714Y152223
X331448Y152223
X334181Y152223
X336914Y152223
X339647Y152223
X342380Y152223
X345114Y152223
X367914Y162323
X386414Y182823
X377414Y196823
X366414Y202823
X362914Y214823
X358414Y214823
X355414Y218323
X366914Y225323
X362914Y237323
X358914Y245323
X362914Y248323
X349914Y260823
X351914Y263823
X355414Y266823
X369914Y275323
X380414Y271323
X388414Y259823
X394414Y246323
X400414Y244823
X417914Y237823
X421414Y234323
X417914Y230823
X430914Y237323
X424414Y246823
X427414Y264323
X422914Y267323
X417414Y268823
X410414Y269323
X395414Y292823
X380914Y295323
X382414Y302323
X366914Y307823
X363914Y305823
X360914Y302823
X357914Y299823
X357914Y288823
X341914Y316323
X330414Y315823
X313914Y315823
X303414Y316323
X280414Y316323
X274414Y316823
X256164Y312823
X249414Y316073
X239914Y316323
X230114Y316757
X230114Y319490
X230114Y322223
X230114Y324957
X230114Y327689
X230114Y330423
X227380Y330423
X224647Y330423
X221914Y330423
X219181Y330423
X216448Y330423
X213714Y330423
X213714Y327689
X213714Y324957
X216448Y324957
X216448Y327689
X219181Y327689
X219181Y324957
X221914Y324957
X221914Y327689
X224647Y327689
X224647Y324957
X227380Y324957
X227380Y327689
X227380Y322223
X224647Y322223
X221914Y322223
X219181Y322223
X216448Y322223
X216448Y319490
X219181Y319490
X221914Y319490
X224647Y319490
X227380Y319490
X227380Y316757
X224647Y316757
X221914Y316757
X219181Y316757
X216448Y316757
X213714Y316757
X213714Y319490
X213714Y322223
X205114Y322223
X205114Y319490
X205114Y316757
X202380Y316757
X202380Y319490
X202380Y322223
X199647Y322223
X196914Y322223
X194181Y322223
X191448Y322223
X191448Y319490
X194181Y319490
X196914Y319490
X199647Y319490
X199647Y316757
X196914Y316757
X194181Y316757
X191448Y316757
X188714Y316757
X188714Y319490
X188714Y322223
X188714Y324957
X188714Y327689
X188714Y330423
X191448Y330423
X194181Y330423
X196914Y330423
X199647Y330423
X202380Y330423
X205114Y330423
X205114Y327689
X205114Y324957
X202380Y324957
X202380Y327689
X199647Y327689
X199647Y324957
X196914Y324957
X196914Y327689
X194181Y327689
X194181Y324957
X191448Y324957
X191448Y327689
X181914Y332323
X174414Y330323
X165114Y330423
X162380Y330423
X159647Y330423
X156914Y330423
X154181Y330423
X151448Y330423
X148714Y330423
X148714Y327689
X148714Y324957
X151448Y324957
X151448Y327689
X154181Y327689
X154181Y324957
X156914Y324957
X156914Y327689
X159647Y327689
X159647Y324957
X162380Y324957
X162380Y327689
X165114Y327689
X165114Y324957
X165114Y322223
X165114Y319490
X165114Y316757
X162380Y316757
X162380Y319490
X162380Y322223
X159647Y322223
X156914Y322223
X154181Y322223
X151448Y322223
X151448Y319490
X154181Y319490
X156914Y319490
X159647Y319490
X159647Y316757
X156914Y316757
X154181Y316757
X151448Y316757
X148714Y316757
X148714Y319490
X148714Y322223
X148714Y314023
X151448Y314023
X154181Y314023
X156914Y314023
X159647Y314023
X162380Y314023
X165114Y314023
X167414Y299323
X174414Y291323
X158414Y277323
X140114Y314023
X140114Y316757
X140114Y319490
X140114Y322223
X140114Y324957
X140114Y327689
X140114Y330423
X137380Y330423
X134647Y330423
X131914Y330423
X129181Y330423
X126448Y330423
X123714Y330423
X123714Y327689
X123714Y324957
X126448Y324957
X126448Y327689
X129181Y327689
X129181Y324957
X131914Y324957
X131914Y327689
X134647Y327689
X134647Y324957
X137380Y324957
X137380Y327689
X137380Y322223
X134647Y322223
X131914Y322223
X129181Y322223
X126448Y322223
X126448Y319490
X129181Y319490
X131914Y319490
X134647Y319490
X137380Y319490
X137380Y316757
X134647Y316757
X131914Y316757
X129181Y316757
X126448Y316757
X123714Y316757
X123714Y319490
X123714Y322223
X123714Y314023
X126448Y314023
X129181Y314023
X131914Y314023
X134647Y314023
X137380Y314023
X118414Y332323
X145414Y338323
X188714Y314023
X191448Y314023
X194181Y314023
X196914Y314023
X199647Y314023
X202380Y314023
X205114Y314023
X213714Y314023
X216448Y314023
X219181Y314023
X221914Y314023
X224647Y314023
X227380Y314023
X230114Y314023
X228914Y302823
X221914Y296823
X213414Y278323
X219414Y232323
X219414Y220323
X224914Y211323
X233664Y209573
X238414Y190823
X270414Y190823
X280414Y191323
X292414Y226823
X295914Y226823
X321914Y226823
X321914Y214323
X382414Y232823
X381414Y243323
X400414Y224323
X394414Y209323
X385414Y209323
X384914Y204323
X418914Y201823
X418914Y192323
X418914Y176823
X418914Y164323
X411414Y151823
X432414Y155323
X441414Y142823
X433914Y168323
X433914Y176823
X438914Y213823
X452914Y242323
X440914Y267323
X424914Y306323
X427914Y310823
X430914Y315823
X417914Y345823
X408414Y347323
X387914Y347323
X386914Y353323
X382414Y350823
X378414Y350823
X374414Y350823
X368414Y353823
X375914Y338823
X368414Y332323
X380414Y319323
X345114Y339023
X345114Y341757
X345114Y344490
X345114Y347223
X345114Y349957
X345114Y352689
X345114Y355423
X342380Y355423
X339647Y355423
X336914Y355423
X334181Y355423
X331448Y355423
X328714Y355423
X328714Y352689
X328714Y349957
X331448Y349957
X331448Y352689
X334181Y352689
X334181Y349957
X336914Y349957
X336914Y352689
X339647Y352689
X339647Y349957
X342380Y349957
X342380Y352689
X342380Y347223
X339647Y347223
X336914Y347223
X334181Y347223
X331448Y347223
X331448Y344490
X334181Y344490
X336914Y344490
X339647Y344490
X342380Y344490
X342380Y341757
X339647Y341757
X336914Y341757
X334181Y341757
X331448Y341757
X328714Y341757
X328714Y344490
X328714Y347223
X328714Y339023
X331448Y339023
X334181Y339023
X336914Y339023
X339647Y339023
X342380Y339023
X315114Y339023
X315114Y341757
X315114Y344490
X315114Y347223
X315114Y349957
X315114Y352689
X315114Y355423
X312380Y355423
X309647Y355423
X306914Y355423
X304181Y355423
X301448Y355423
X298714Y355423
X298714Y352689
X298714Y349957
X301448Y349957
X301448Y352689
X304181Y352689
X304181Y349957
X306914Y349957
X306914Y352689
X309647Y352689
X309647Y349957
X312380Y349957
X312380Y352689
X312380Y347223
X309647Y347223
X306914Y347223
X304181Y347223
X301448Y347223
X301448Y344490
X304181Y344490
X306914Y344490
X309647Y344490
X312380Y344490
X312380Y341757
X309647Y341757
X306914Y341757
X304181Y341757
X301448Y341757
X298714Y341757
X298714Y344490
X298714Y347223
X298714Y339023
X301448Y339023
X304181Y339023
X306914Y339023
X309647Y339023
X312380Y339023
X322914Y362823
X315414Y375823
X316414Y381323
X314414Y392823
X313414Y402823
X303914Y392823
X298164Y391823
X291664Y392573
X291914Y403573
X289664Y408823
X276664Y423073
X265914Y405073
X274414Y393323
X285414Y376823
X289914Y375823
X293914Y363823
X285114Y355423
X282380Y355423
X279647Y355423
X276914Y355423
X274181Y355423
X271448Y355423
X268714Y355423
X268714Y352689
X268714Y349957
X271448Y349957
X271448Y352689
X274181Y352689
X274181Y349957
X276914Y349957
X276914Y352689
X279647Y352689
X279647Y349957
X282380Y349957
X282380Y352689
X285114Y352689
X285114Y349957
X285114Y347223
X285114Y344490
X285114Y341757
X282380Y341757
X282380Y344490
X282380Y347223
X279647Y347223
X276914Y347223
X274181Y347223
X271448Y347223
X271448Y344490
X274181Y344490
X276914Y344490
X279647Y344490
X279647Y341757
X276914Y341757
X274181Y341757
X271448Y341757
X268714Y341757
X268714Y344490
X268714Y347223
X268714Y339023
X271448Y339023
X274181Y339023
X276914Y339023
X279647Y339023
X282380Y339023
X285114Y339023
X255114Y339023
X255114Y341757
X255114Y344490
X255114Y347223
X255114Y349957
X255114Y352689
X255114Y355423
X252380Y355423
X249647Y355423
X246914Y355423
X244181Y355423
X241448Y355423
X238714Y355423
X238714Y352689
X238714Y349957
X241448Y349957
X241448Y352689
X244181Y352689
X244181Y349957
X246914Y349957
X246914Y352689
X249647Y352689
X249647Y349957
X252380Y349957
X252380Y352689
X252380Y347223
X249647Y347223
X246914Y347223
X244181Y347223
X241448Y347223
X241448Y344490
X244181Y344490
X246914Y344490
X249647Y344490
X252380Y344490
X252380Y341757
X249647Y341757
X246914Y341757
X244181Y341757
X241448Y341757
X238714Y341757
X238714Y344490
X238714Y347223
X238714Y339023
X241448Y339023
X244181Y339023
X246914Y339023
X249647Y339023
X252380Y339023
X262914Y362823
X235914Y365823
X245914Y392823
X234914Y409323
X227414Y408823
X220914Y410323
X215914Y406073
X210914Y392823
X207414Y392823
X200414Y407323
X195414Y407323
X195414Y413823
X192414Y417823
X196914Y421323
X192414Y432823
X191914Y440823
X191414Y444323
X187414Y446823
X181914Y448823
X176914Y446323
X170914Y448323
X173914Y439323
X173414Y435323
X173414Y430323
X168914Y430323
X158414Y441823
X140664Y436323
X140414Y432323
X134914Y430323
X137414Y425823
X138164Y416323
X139414Y406323
X125564Y417373
X121414Y430323
X100914Y423823
X98914Y420323
X89914Y420323
X89914Y412823
X91914Y405323
X91414Y397823
X83414Y391323
X67914Y397823
X62914Y393823
X67414Y382823
X74414Y378823
X112414Y408323
X112914Y393323
X152664Y410823
X153414Y416823
X165914Y412323
X168414Y398823
X181914Y409823
X186414Y407323
X186914Y401823
X184914Y416323
X212914Y422823
X217664Y422323
X216164Y428323
X241414Y426823
X246414Y426823
X250914Y425823
X252164Y422323
X256164Y423323
X230914Y455323
X223914Y454823
X219414Y452823
X215414Y451823
X204914Y459823
X198914Y461823
X196914Y449323
X146914Y464823
X138414Y455823
X74664Y462323
X69914Y452823
X62164Y440573
X57664Y434573
X50914Y428823
X75414Y437823
X44414Y326323
X58914Y322323
X48914Y296823
X56414Y280823
X62414Y283823
X164914Y233823
X164414Y219323
X169914Y211323
X180414Y211323
X170114Y193623
X167380Y193623
X164647Y193623
X161914Y193623
X159181Y193623
X156448Y193623
X153714Y193623
X153714Y190889
X153714Y188156
X153714Y185423
X156448Y185423
X156448Y188156
X156448Y190889
X159181Y190889
X161914Y190889
X164647Y190889
X167380Y190889
X167380Y188156
X164647Y188156
X161914Y188156
X159181Y188156
X159181Y185423
X161914Y185423
X164647Y185423
X167380Y185423
X170114Y185423
X170114Y188156
X170114Y190889
X170114Y182689
X170114Y179957
X167380Y179957
X167380Y182689
X164647Y182689
X164647Y179957
X161914Y179957
X161914Y182689
X159181Y182689
X159181Y179957
X156448Y179957
X156448Y182689
X153714Y182689
X153714Y179957
X153714Y177223
X156448Y177223
X159181Y177223
X161914Y177223
X164647Y177223
X167380Y177223
X170114Y177223
X145114Y177223
X145114Y179957
X145114Y182689
X145114Y185423
X145114Y188156
X145114Y190889
X145114Y193623
X142380Y193623
X139647Y193623
X136914Y193623
X134181Y193623
X131448Y193623
X128714Y193623
X128714Y190889
X128714Y188156
X128714Y185423
X131448Y185423
X131448Y188156
X131448Y190889
X134181Y190889
X136914Y190889
X139647Y190889
X142380Y190889
X142380Y188156
X139647Y188156
X136914Y188156
X134181Y188156
X134181Y185423
X136914Y185423
X139647Y185423
X142380Y185423
X142380Y182689
X142380Y179957
X139647Y179957
X139647Y182689
X136914Y182689
X136914Y179957
X134181Y179957
X134181Y182689
X131448Y182689
X131448Y179957
X128714Y179957
X128714Y182689
X128714Y177223
X131448Y177223
X134181Y177223
X136914Y177223
X139647Y177223
X142380Y177223
X291414Y289323
X322414Y289823
X390914Y370323
X352914Y396823
X348414Y399823
X338914Y390823
X345414Y377323
X328664Y408823
X339914Y423323
X344414Y418823
X349414Y416323
X309664Y421823
X209414Y336823
X409914Y431323
X417914Y429823
X424414Y425823
X453164Y431823
X407414Y121823
X404414Y114823
X412414Y103323
X326414Y98323
T02
X347164Y139073
X352164Y139073
X400414Y161323
X400664Y172573
X400664Y182573
X409664Y181573
X400664Y193323
X412664Y206323
X450414Y177323
X451914Y172573
X457414Y177573
X442414Y173823
X438664Y165823
X441414Y161573
X436914Y156323
X425664Y160823
X449414Y160573
X449664Y153073
X348414Y197823
X347914Y202323
X348164Y206323
X399414Y269323
X385414Y275323
X261414Y299323
X252664Y301323
X178914Y219823
X169414Y219823
X123164Y194073
X123164Y187823
X123164Y181573
X123164Y176823
X196664Y140823
X201664Y146073
X207164Y146073
X209914Y140323
X203414Y140573
X217164Y140323
X223664Y140323
X230664Y140073
X224914Y164073
X232914Y178823
X236914Y180573
X236664Y184073
X237664Y197073
X238414Y208073
X226664Y206573
X222914Y204073
X226914Y201823
X259664Y203573
X259664Y199573
X264164Y199073
X263914Y203573
X263914Y207823
X259414Y207823
X121164Y305073
X49414Y358823
X111414Y401823
X148914Y395073
X175164Y400323
X200664Y423073
X212164Y413323
X214164Y402573
X232664Y426573
X237414Y426573
X238164Y437323
X233414Y437323
X228664Y437323
X223664Y437323
X217664Y439323
X212164Y436323
X197664Y440073
X203914Y464823
X171414Y469823
X163914Y469823
X155914Y469573
X156414Y460323
X164414Y460323
X171164Y460323
X146414Y469073
X243164Y437323
X247414Y437323
X336664Y437073
X359664Y437073
X386414Y464073
X392914Y457323
T03
X256914Y372823
X233414Y347823
X172914Y339323
X174914Y174323
X169914Y163823
X149414Y170823
X252414Y135823
X280914Y133823
X312414Y132323
X318914Y135323
X344914Y131823
X348914Y135323
T04
X105536Y146559
X95693Y152465
X105536Y158370
X95693Y164276
X105536Y170181
X95693Y176087
X105536Y181992
X95693Y187898
X105536Y193803
X95693Y199709
X105536Y205614
X95693Y211520
X105536Y217425
X83882Y211520
X74040Y217425
X74040Y205614
X83882Y199709
X74040Y193803
X83882Y187898
X74040Y181992
X83882Y176087
X74040Y170181
X83882Y164276
X74040Y158370
X83882Y152465
X74040Y146559
X74040Y274512
X83882Y280417
X74040Y286323
X83882Y292228
X74040Y298134
X83882Y304039
X74040Y309945
X83882Y315850
X74040Y321756
X83882Y327661
X74040Y333567
X83882Y339472
X74040Y345378
X83882Y351283
X74040Y357189
X83882Y363095
X74040Y369000
X95693Y363095
X105536Y369000
X105536Y357189
X95693Y351283
X105536Y345378
X95693Y339472
X105536Y333567
X95693Y327661
X105536Y321756
X95693Y315850
X105536Y309945
X95693Y304039
X105536Y298134
X95693Y292228
X105536Y286323
X95693Y280417
X105536Y274512
T05
X50914Y86323
X451914Y86323
X451914Y466323
X50914Y466323
T06
X48449Y397543
X48449Y245969
X48449Y118016
M30
