G75*
%MOIN*%
%OFA0B0*%
%FSLAX25Y25*%
%IPPOS*%
%LPD*%
%AMOC8*
5,1,8,0,0,1.08239X$1,22.5*
%
%ADD10R,0.05718X0.06506*%
%ADD11R,0.03750X0.05324*%
%ADD12R,0.06506X0.05718*%
%ADD13R,0.05324X0.03356*%
%ADD14R,0.06112X0.06112*%
%ADD15R,0.21466X0.08474*%
%ADD16C,0.25600*%
%ADD17R,0.05600X0.09183*%
%ADD18R,0.08600X0.03200*%
%ADD19R,0.05324X0.06899*%
%ADD20R,0.05324X0.05324*%
%ADD21R,0.03356X0.05128*%
%ADD22R,0.03300X0.03300*%
%ADD23R,0.19199X0.19200*%
%ADD24R,0.21600X0.08200*%
%ADD25R,0.04931X0.04537*%
%ADD26R,0.22600X0.10200*%
%ADD27R,0.04100X0.10200*%
%ADD28R,0.05600X0.03100*%
%ADD29R,0.06702X0.10639*%
%ADD30R,0.03000X0.01800*%
%ADD31R,0.03750X0.01800*%
%ADD32R,0.02962X0.09261*%
%ADD33R,0.09261X0.02962*%
%ADD34R,0.06112X0.04537*%
%ADD35C,0.08474*%
%ADD36C,0.13986*%
%ADD37R,0.08400X0.02700*%
%ADD38R,0.05400X0.02600*%
%ADD39R,0.06200X0.01800*%
%ADD40R,0.02700X0.08400*%
%ADD41R,0.13395X0.09065*%
%ADD42R,0.04340X0.09065*%
%ADD43R,0.04537X0.04931*%
%ADD44R,0.06702X0.02962*%
%ADD45C,0.03301*%
%ADD46C,0.03300*%
%ADD47C,0.03500*%
%ADD48C,0.03800*%
D10*
X0117924Y0295823D03*
X0125404Y0295823D03*
X0135674Y0396823D03*
X0143154Y0396823D03*
X0115154Y0428823D03*
X0107674Y0428823D03*
X0090154Y0428823D03*
X0082674Y0428823D03*
X0074154Y0428823D03*
X0066674Y0428823D03*
X0421174Y0415823D03*
X0428654Y0415823D03*
D11*
X0165457Y0406323D03*
X0158371Y0406323D03*
D12*
X0172414Y0417083D03*
X0172414Y0424563D03*
X0127914Y0428583D03*
X0127914Y0436063D03*
X0066414Y0420563D03*
X0066414Y0413083D03*
D13*
X0158630Y0411323D03*
X0173197Y0411323D03*
D14*
X0419914Y0371303D03*
X0419914Y0356343D03*
D15*
X0336914Y0289315D03*
X0306914Y0289315D03*
X0276914Y0289315D03*
X0276914Y0263331D03*
X0276914Y0244315D03*
X0306914Y0244315D03*
X0306914Y0263331D03*
X0336914Y0263331D03*
X0336914Y0244315D03*
X0336914Y0218331D03*
X0306914Y0218331D03*
X0276914Y0218331D03*
X0246914Y0218331D03*
X0246914Y0244315D03*
X0246914Y0263331D03*
X0246914Y0289315D03*
D16*
X0050914Y0086323D03*
X0451914Y0086323D03*
X0451914Y0466323D03*
X0050914Y0466323D03*
D17*
X0143414Y0449831D03*
X0153414Y0449831D03*
X0163414Y0449831D03*
X0163414Y0425815D03*
X0153414Y0425815D03*
X0143414Y0425815D03*
D18*
X0124014Y0410323D03*
X0124014Y0405323D03*
X0124014Y0400323D03*
X0124014Y0395323D03*
X0099814Y0395323D03*
X0099814Y0400323D03*
X0099814Y0405323D03*
X0099814Y0410323D03*
D19*
X0221508Y0401323D03*
X0233319Y0401323D03*
D20*
X0083548Y0412823D03*
X0075280Y0412823D03*
X0075280Y0420323D03*
X0083548Y0420323D03*
X0429914Y0407457D03*
X0429914Y0399189D03*
D21*
X0344414Y0362150D03*
X0339414Y0362150D03*
X0334414Y0362150D03*
X0329414Y0362150D03*
X0314414Y0362150D03*
X0309414Y0362150D03*
X0304414Y0362150D03*
X0299414Y0362150D03*
X0284414Y0362150D03*
X0279414Y0362150D03*
X0274414Y0362150D03*
X0269414Y0362150D03*
X0254414Y0362150D03*
X0249414Y0362150D03*
X0244414Y0362150D03*
X0239414Y0362150D03*
X0229414Y0337150D03*
X0224414Y0337150D03*
X0219414Y0337150D03*
X0214414Y0337150D03*
X0204414Y0337150D03*
X0199414Y0337150D03*
X0194414Y0337150D03*
X0189414Y0337150D03*
X0164414Y0337150D03*
X0159414Y0337150D03*
X0154414Y0337150D03*
X0149414Y0337150D03*
X0139414Y0337150D03*
X0134414Y0337150D03*
X0129414Y0337150D03*
X0124414Y0337150D03*
X0129414Y0170496D03*
X0134414Y0170496D03*
X0139414Y0170496D03*
X0144414Y0170496D03*
X0154414Y0170496D03*
X0159414Y0170496D03*
X0164414Y0170496D03*
X0169414Y0170496D03*
X0184414Y0170496D03*
X0189414Y0170496D03*
X0194414Y0170496D03*
X0199414Y0170496D03*
X0209414Y0170496D03*
X0214414Y0170496D03*
X0219414Y0170496D03*
X0224414Y0170496D03*
X0239414Y0145496D03*
X0244414Y0145496D03*
X0249414Y0145496D03*
X0254414Y0145496D03*
X0269414Y0145496D03*
X0274414Y0145496D03*
X0279414Y0145496D03*
X0284414Y0145496D03*
X0299414Y0145496D03*
X0304414Y0145496D03*
X0309414Y0145496D03*
X0314414Y0145496D03*
X0329414Y0145496D03*
X0334414Y0145496D03*
X0339414Y0145496D03*
X0344414Y0145496D03*
X0168414Y0104650D03*
X0163414Y0104650D03*
X0158414Y0104650D03*
X0153414Y0104650D03*
X0145914Y0104650D03*
X0140914Y0104650D03*
X0135914Y0104650D03*
X0130914Y0104650D03*
X0121414Y0104650D03*
X0116414Y0104650D03*
X0111414Y0104650D03*
X0106414Y0104650D03*
D22*
X0105714Y0097923D03*
X0108448Y0097923D03*
X0111181Y0097923D03*
X0113914Y0097923D03*
X0116647Y0097923D03*
X0119380Y0097923D03*
X0122114Y0097923D03*
X0122114Y0095189D03*
X0122114Y0092457D03*
X0119380Y0092457D03*
X0119380Y0095189D03*
X0116647Y0095189D03*
X0116647Y0092457D03*
X0113914Y0092457D03*
X0113914Y0095189D03*
X0111181Y0095189D03*
X0111181Y0092457D03*
X0108448Y0092457D03*
X0108448Y0095189D03*
X0105714Y0095189D03*
X0105714Y0092457D03*
X0105714Y0089723D03*
X0105714Y0086990D03*
X0105714Y0084257D03*
X0108448Y0084257D03*
X0108448Y0086990D03*
X0108448Y0089723D03*
X0111181Y0089723D03*
X0113914Y0089723D03*
X0116647Y0089723D03*
X0119380Y0089723D03*
X0119380Y0086990D03*
X0116647Y0086990D03*
X0113914Y0086990D03*
X0111181Y0086990D03*
X0111181Y0084257D03*
X0113914Y0084257D03*
X0116647Y0084257D03*
X0119380Y0084257D03*
X0122114Y0084257D03*
X0122114Y0086990D03*
X0122114Y0089723D03*
X0130214Y0089723D03*
X0130214Y0086990D03*
X0130214Y0084257D03*
X0132948Y0084257D03*
X0132948Y0086990D03*
X0132948Y0089723D03*
X0135681Y0089723D03*
X0138414Y0089723D03*
X0141147Y0089723D03*
X0143880Y0089723D03*
X0143880Y0086990D03*
X0141147Y0086990D03*
X0138414Y0086990D03*
X0135681Y0086990D03*
X0135681Y0084257D03*
X0138414Y0084257D03*
X0141147Y0084257D03*
X0143880Y0084257D03*
X0146614Y0084257D03*
X0146614Y0086990D03*
X0146614Y0089723D03*
X0146614Y0092457D03*
X0146614Y0095189D03*
X0146614Y0097923D03*
X0143880Y0097923D03*
X0141147Y0097923D03*
X0138414Y0097923D03*
X0135681Y0097923D03*
X0132948Y0097923D03*
X0130214Y0097923D03*
X0130214Y0095189D03*
X0130214Y0092457D03*
X0132948Y0092457D03*
X0132948Y0095189D03*
X0135681Y0095189D03*
X0135681Y0092457D03*
X0138414Y0092457D03*
X0138414Y0095189D03*
X0141147Y0095189D03*
X0141147Y0092457D03*
X0143880Y0092457D03*
X0143880Y0095189D03*
X0152714Y0095189D03*
X0152714Y0092457D03*
X0155448Y0092457D03*
X0155448Y0095189D03*
X0158181Y0095189D03*
X0158181Y0092457D03*
X0160914Y0092457D03*
X0160914Y0095189D03*
X0163647Y0095189D03*
X0163647Y0092457D03*
X0166380Y0092457D03*
X0166380Y0095189D03*
X0166380Y0097923D03*
X0163647Y0097923D03*
X0160914Y0097923D03*
X0158181Y0097923D03*
X0155448Y0097923D03*
X0152714Y0097923D03*
X0152714Y0089723D03*
X0152714Y0086990D03*
X0152714Y0084257D03*
X0155448Y0084257D03*
X0155448Y0086990D03*
X0155448Y0089723D03*
X0158181Y0089723D03*
X0160914Y0089723D03*
X0163647Y0089723D03*
X0166380Y0089723D03*
X0166380Y0086990D03*
X0163647Y0086990D03*
X0160914Y0086990D03*
X0158181Y0086990D03*
X0158181Y0084257D03*
X0160914Y0084257D03*
X0163647Y0084257D03*
X0166380Y0084257D03*
X0169114Y0084257D03*
X0169114Y0086990D03*
X0169114Y0089723D03*
X0169114Y0092457D03*
X0169114Y0095189D03*
X0169114Y0097923D03*
X0169114Y0081523D03*
X0166380Y0081523D03*
X0163647Y0081523D03*
X0160914Y0081523D03*
X0158181Y0081523D03*
X0155448Y0081523D03*
X0152714Y0081523D03*
X0146614Y0081523D03*
X0143880Y0081523D03*
X0141147Y0081523D03*
X0138414Y0081523D03*
X0135681Y0081523D03*
X0132948Y0081523D03*
X0130214Y0081523D03*
X0122114Y0081523D03*
X0119380Y0081523D03*
X0116647Y0081523D03*
X0113914Y0081523D03*
X0111181Y0081523D03*
X0108448Y0081523D03*
X0105714Y0081523D03*
X0128714Y0177223D03*
X0128714Y0179957D03*
X0128714Y0182689D03*
X0128714Y0185423D03*
X0128714Y0188156D03*
X0128714Y0190889D03*
X0128714Y0193623D03*
X0131448Y0193623D03*
X0134181Y0193623D03*
X0136914Y0193623D03*
X0139647Y0193623D03*
X0142380Y0193623D03*
X0145114Y0193623D03*
X0145114Y0190889D03*
X0145114Y0188156D03*
X0145114Y0185423D03*
X0142380Y0185423D03*
X0142380Y0188156D03*
X0142380Y0190889D03*
X0139647Y0190889D03*
X0136914Y0190889D03*
X0134181Y0190889D03*
X0131448Y0190889D03*
X0131448Y0188156D03*
X0134181Y0188156D03*
X0136914Y0188156D03*
X0139647Y0188156D03*
X0139647Y0185423D03*
X0136914Y0185423D03*
X0134181Y0185423D03*
X0131448Y0185423D03*
X0131448Y0182689D03*
X0131448Y0179957D03*
X0134181Y0179957D03*
X0134181Y0182689D03*
X0136914Y0182689D03*
X0136914Y0179957D03*
X0139647Y0179957D03*
X0139647Y0182689D03*
X0142380Y0182689D03*
X0142380Y0179957D03*
X0145114Y0179957D03*
X0145114Y0182689D03*
X0145114Y0177223D03*
X0142380Y0177223D03*
X0139647Y0177223D03*
X0136914Y0177223D03*
X0134181Y0177223D03*
X0131448Y0177223D03*
X0153714Y0177223D03*
X0153714Y0179957D03*
X0153714Y0182689D03*
X0153714Y0185423D03*
X0153714Y0188156D03*
X0153714Y0190889D03*
X0153714Y0193623D03*
X0156448Y0193623D03*
X0159181Y0193623D03*
X0161914Y0193623D03*
X0164647Y0193623D03*
X0167380Y0193623D03*
X0170114Y0193623D03*
X0170114Y0190889D03*
X0170114Y0188156D03*
X0170114Y0185423D03*
X0167380Y0185423D03*
X0167380Y0188156D03*
X0167380Y0190889D03*
X0164647Y0190889D03*
X0161914Y0190889D03*
X0159181Y0190889D03*
X0156448Y0190889D03*
X0156448Y0188156D03*
X0159181Y0188156D03*
X0161914Y0188156D03*
X0164647Y0188156D03*
X0164647Y0185423D03*
X0161914Y0185423D03*
X0159181Y0185423D03*
X0156448Y0185423D03*
X0156448Y0182689D03*
X0156448Y0179957D03*
X0159181Y0179957D03*
X0159181Y0182689D03*
X0161914Y0182689D03*
X0161914Y0179957D03*
X0164647Y0179957D03*
X0164647Y0182689D03*
X0167380Y0182689D03*
X0167380Y0179957D03*
X0170114Y0179957D03*
X0170114Y0182689D03*
X0170114Y0177223D03*
X0167380Y0177223D03*
X0164647Y0177223D03*
X0161914Y0177223D03*
X0159181Y0177223D03*
X0156448Y0177223D03*
X0183714Y0177223D03*
X0183714Y0179957D03*
X0183714Y0182689D03*
X0183714Y0185423D03*
X0183714Y0188156D03*
X0183714Y0190889D03*
X0183714Y0193623D03*
X0186448Y0193623D03*
X0189181Y0193623D03*
X0191914Y0193623D03*
X0194647Y0193623D03*
X0197380Y0193623D03*
X0200114Y0193623D03*
X0200114Y0190889D03*
X0200114Y0188156D03*
X0200114Y0185423D03*
X0197380Y0185423D03*
X0197380Y0188156D03*
X0197380Y0190889D03*
X0194647Y0190889D03*
X0191914Y0190889D03*
X0189181Y0190889D03*
X0186448Y0190889D03*
X0186448Y0188156D03*
X0189181Y0188156D03*
X0191914Y0188156D03*
X0194647Y0188156D03*
X0194647Y0185423D03*
X0191914Y0185423D03*
X0189181Y0185423D03*
X0186448Y0185423D03*
X0186448Y0182689D03*
X0186448Y0179957D03*
X0189181Y0179957D03*
X0189181Y0182689D03*
X0191914Y0182689D03*
X0191914Y0179957D03*
X0194647Y0179957D03*
X0194647Y0182689D03*
X0197380Y0182689D03*
X0197380Y0179957D03*
X0200114Y0179957D03*
X0200114Y0182689D03*
X0200114Y0177223D03*
X0197380Y0177223D03*
X0194647Y0177223D03*
X0191914Y0177223D03*
X0189181Y0177223D03*
X0186448Y0177223D03*
X0208714Y0177223D03*
X0208714Y0179957D03*
X0208714Y0182689D03*
X0208714Y0185423D03*
X0208714Y0188156D03*
X0208714Y0190889D03*
X0208714Y0193623D03*
X0211448Y0193623D03*
X0214181Y0193623D03*
X0216914Y0193623D03*
X0219647Y0193623D03*
X0222380Y0193623D03*
X0225114Y0193623D03*
X0225114Y0190889D03*
X0225114Y0188156D03*
X0225114Y0185423D03*
X0222380Y0185423D03*
X0222380Y0188156D03*
X0222380Y0190889D03*
X0219647Y0190889D03*
X0216914Y0190889D03*
X0214181Y0190889D03*
X0211448Y0190889D03*
X0211448Y0188156D03*
X0214181Y0188156D03*
X0216914Y0188156D03*
X0219647Y0188156D03*
X0219647Y0185423D03*
X0216914Y0185423D03*
X0214181Y0185423D03*
X0211448Y0185423D03*
X0211448Y0182689D03*
X0211448Y0179957D03*
X0214181Y0179957D03*
X0214181Y0182689D03*
X0216914Y0182689D03*
X0216914Y0179957D03*
X0219647Y0179957D03*
X0219647Y0182689D03*
X0222380Y0182689D03*
X0222380Y0179957D03*
X0225114Y0179957D03*
X0225114Y0182689D03*
X0225114Y0177223D03*
X0222380Y0177223D03*
X0219647Y0177223D03*
X0216914Y0177223D03*
X0214181Y0177223D03*
X0211448Y0177223D03*
X0238714Y0168623D03*
X0241448Y0168623D03*
X0244181Y0168623D03*
X0246914Y0168623D03*
X0249647Y0168623D03*
X0252380Y0168623D03*
X0255114Y0168623D03*
X0255114Y0165889D03*
X0255114Y0163156D03*
X0255114Y0160423D03*
X0252380Y0160423D03*
X0252380Y0163156D03*
X0252380Y0165889D03*
X0249647Y0165889D03*
X0246914Y0165889D03*
X0244181Y0165889D03*
X0241448Y0165889D03*
X0241448Y0163156D03*
X0244181Y0163156D03*
X0246914Y0163156D03*
X0249647Y0163156D03*
X0249647Y0160423D03*
X0246914Y0160423D03*
X0244181Y0160423D03*
X0241448Y0160423D03*
X0238714Y0160423D03*
X0238714Y0163156D03*
X0238714Y0165889D03*
X0238714Y0157689D03*
X0238714Y0154957D03*
X0241448Y0154957D03*
X0241448Y0157689D03*
X0244181Y0157689D03*
X0244181Y0154957D03*
X0246914Y0154957D03*
X0246914Y0157689D03*
X0249647Y0157689D03*
X0249647Y0154957D03*
X0252380Y0154957D03*
X0252380Y0157689D03*
X0255114Y0157689D03*
X0255114Y0154957D03*
X0255114Y0152223D03*
X0252380Y0152223D03*
X0249647Y0152223D03*
X0246914Y0152223D03*
X0244181Y0152223D03*
X0241448Y0152223D03*
X0238714Y0152223D03*
X0268714Y0152223D03*
X0268714Y0154957D03*
X0268714Y0157689D03*
X0268714Y0160423D03*
X0268714Y0163156D03*
X0268714Y0165889D03*
X0268714Y0168623D03*
X0271448Y0168623D03*
X0274181Y0168623D03*
X0276914Y0168623D03*
X0279647Y0168623D03*
X0282380Y0168623D03*
X0285114Y0168623D03*
X0285114Y0165889D03*
X0285114Y0163156D03*
X0285114Y0160423D03*
X0282380Y0160423D03*
X0282380Y0163156D03*
X0282380Y0165889D03*
X0279647Y0165889D03*
X0276914Y0165889D03*
X0274181Y0165889D03*
X0271448Y0165889D03*
X0271448Y0163156D03*
X0274181Y0163156D03*
X0276914Y0163156D03*
X0279647Y0163156D03*
X0279647Y0160423D03*
X0276914Y0160423D03*
X0274181Y0160423D03*
X0271448Y0160423D03*
X0271448Y0157689D03*
X0271448Y0154957D03*
X0274181Y0154957D03*
X0274181Y0157689D03*
X0276914Y0157689D03*
X0276914Y0154957D03*
X0279647Y0154957D03*
X0279647Y0157689D03*
X0282380Y0157689D03*
X0282380Y0154957D03*
X0285114Y0154957D03*
X0285114Y0157689D03*
X0285114Y0152223D03*
X0282380Y0152223D03*
X0279647Y0152223D03*
X0276914Y0152223D03*
X0274181Y0152223D03*
X0271448Y0152223D03*
X0298714Y0152223D03*
X0298714Y0154957D03*
X0298714Y0157689D03*
X0298714Y0160423D03*
X0298714Y0163156D03*
X0298714Y0165889D03*
X0298714Y0168623D03*
X0301448Y0168623D03*
X0304181Y0168623D03*
X0306914Y0168623D03*
X0309647Y0168623D03*
X0312380Y0168623D03*
X0315114Y0168623D03*
X0315114Y0165889D03*
X0315114Y0163156D03*
X0315114Y0160423D03*
X0312380Y0160423D03*
X0312380Y0163156D03*
X0312380Y0165889D03*
X0309647Y0165889D03*
X0306914Y0165889D03*
X0304181Y0165889D03*
X0301448Y0165889D03*
X0301448Y0163156D03*
X0304181Y0163156D03*
X0306914Y0163156D03*
X0309647Y0163156D03*
X0309647Y0160423D03*
X0306914Y0160423D03*
X0304181Y0160423D03*
X0301448Y0160423D03*
X0301448Y0157689D03*
X0301448Y0154957D03*
X0304181Y0154957D03*
X0304181Y0157689D03*
X0306914Y0157689D03*
X0306914Y0154957D03*
X0309647Y0154957D03*
X0309647Y0157689D03*
X0312380Y0157689D03*
X0312380Y0154957D03*
X0315114Y0154957D03*
X0315114Y0157689D03*
X0315114Y0152223D03*
X0312380Y0152223D03*
X0309647Y0152223D03*
X0306914Y0152223D03*
X0304181Y0152223D03*
X0301448Y0152223D03*
X0328714Y0152223D03*
X0328714Y0154957D03*
X0328714Y0157689D03*
X0328714Y0160423D03*
X0328714Y0163156D03*
X0328714Y0165889D03*
X0328714Y0168623D03*
X0331448Y0168623D03*
X0334181Y0168623D03*
X0336914Y0168623D03*
X0339647Y0168623D03*
X0342380Y0168623D03*
X0345114Y0168623D03*
X0345114Y0165889D03*
X0345114Y0163156D03*
X0345114Y0160423D03*
X0342380Y0160423D03*
X0342380Y0163156D03*
X0342380Y0165889D03*
X0339647Y0165889D03*
X0336914Y0165889D03*
X0334181Y0165889D03*
X0331448Y0165889D03*
X0331448Y0163156D03*
X0334181Y0163156D03*
X0336914Y0163156D03*
X0339647Y0163156D03*
X0339647Y0160423D03*
X0336914Y0160423D03*
X0334181Y0160423D03*
X0331448Y0160423D03*
X0331448Y0157689D03*
X0331448Y0154957D03*
X0334181Y0154957D03*
X0334181Y0157689D03*
X0336914Y0157689D03*
X0336914Y0154957D03*
X0339647Y0154957D03*
X0339647Y0157689D03*
X0342380Y0157689D03*
X0342380Y0154957D03*
X0345114Y0154957D03*
X0345114Y0157689D03*
X0345114Y0152223D03*
X0342380Y0152223D03*
X0339647Y0152223D03*
X0336914Y0152223D03*
X0334181Y0152223D03*
X0331448Y0152223D03*
X0230114Y0314023D03*
X0230114Y0316757D03*
X0230114Y0319490D03*
X0230114Y0322223D03*
X0230114Y0324957D03*
X0230114Y0327689D03*
X0230114Y0330423D03*
X0227380Y0330423D03*
X0224647Y0330423D03*
X0221914Y0330423D03*
X0219181Y0330423D03*
X0216448Y0330423D03*
X0213714Y0330423D03*
X0213714Y0327689D03*
X0213714Y0324957D03*
X0216448Y0324957D03*
X0216448Y0327689D03*
X0219181Y0327689D03*
X0219181Y0324957D03*
X0221914Y0324957D03*
X0221914Y0327689D03*
X0224647Y0327689D03*
X0224647Y0324957D03*
X0227380Y0324957D03*
X0227380Y0327689D03*
X0227380Y0322223D03*
X0224647Y0322223D03*
X0221914Y0322223D03*
X0219181Y0322223D03*
X0216448Y0322223D03*
X0216448Y0319490D03*
X0219181Y0319490D03*
X0221914Y0319490D03*
X0224647Y0319490D03*
X0227380Y0319490D03*
X0227380Y0316757D03*
X0224647Y0316757D03*
X0221914Y0316757D03*
X0219181Y0316757D03*
X0216448Y0316757D03*
X0213714Y0316757D03*
X0213714Y0319490D03*
X0213714Y0322223D03*
X0205114Y0322223D03*
X0205114Y0319490D03*
X0205114Y0316757D03*
X0202380Y0316757D03*
X0202380Y0319490D03*
X0202380Y0322223D03*
X0199647Y0322223D03*
X0196914Y0322223D03*
X0194181Y0322223D03*
X0191448Y0322223D03*
X0191448Y0319490D03*
X0194181Y0319490D03*
X0196914Y0319490D03*
X0199647Y0319490D03*
X0199647Y0316757D03*
X0196914Y0316757D03*
X0194181Y0316757D03*
X0191448Y0316757D03*
X0188714Y0316757D03*
X0188714Y0319490D03*
X0188714Y0322223D03*
X0188714Y0324957D03*
X0188714Y0327689D03*
X0188714Y0330423D03*
X0191448Y0330423D03*
X0194181Y0330423D03*
X0196914Y0330423D03*
X0199647Y0330423D03*
X0202380Y0330423D03*
X0205114Y0330423D03*
X0205114Y0327689D03*
X0205114Y0324957D03*
X0202380Y0324957D03*
X0202380Y0327689D03*
X0199647Y0327689D03*
X0199647Y0324957D03*
X0196914Y0324957D03*
X0196914Y0327689D03*
X0194181Y0327689D03*
X0194181Y0324957D03*
X0191448Y0324957D03*
X0191448Y0327689D03*
X0191448Y0314023D03*
X0194181Y0314023D03*
X0196914Y0314023D03*
X0199647Y0314023D03*
X0202380Y0314023D03*
X0205114Y0314023D03*
X0213714Y0314023D03*
X0216448Y0314023D03*
X0219181Y0314023D03*
X0221914Y0314023D03*
X0224647Y0314023D03*
X0227380Y0314023D03*
X0238714Y0339023D03*
X0238714Y0341757D03*
X0238714Y0344490D03*
X0238714Y0347223D03*
X0238714Y0349957D03*
X0238714Y0352689D03*
X0238714Y0355423D03*
X0241448Y0355423D03*
X0244181Y0355423D03*
X0246914Y0355423D03*
X0249647Y0355423D03*
X0252380Y0355423D03*
X0255114Y0355423D03*
X0255114Y0352689D03*
X0255114Y0349957D03*
X0252380Y0349957D03*
X0252380Y0352689D03*
X0249647Y0352689D03*
X0249647Y0349957D03*
X0246914Y0349957D03*
X0246914Y0352689D03*
X0244181Y0352689D03*
X0244181Y0349957D03*
X0241448Y0349957D03*
X0241448Y0352689D03*
X0241448Y0347223D03*
X0244181Y0347223D03*
X0246914Y0347223D03*
X0249647Y0347223D03*
X0252380Y0347223D03*
X0252380Y0344490D03*
X0249647Y0344490D03*
X0246914Y0344490D03*
X0244181Y0344490D03*
X0241448Y0344490D03*
X0241448Y0341757D03*
X0244181Y0341757D03*
X0246914Y0341757D03*
X0249647Y0341757D03*
X0252380Y0341757D03*
X0255114Y0341757D03*
X0255114Y0344490D03*
X0255114Y0347223D03*
X0255114Y0339023D03*
X0252380Y0339023D03*
X0249647Y0339023D03*
X0246914Y0339023D03*
X0244181Y0339023D03*
X0241448Y0339023D03*
X0268714Y0339023D03*
X0268714Y0341757D03*
X0268714Y0344490D03*
X0268714Y0347223D03*
X0268714Y0349957D03*
X0268714Y0352689D03*
X0268714Y0355423D03*
X0271448Y0355423D03*
X0274181Y0355423D03*
X0276914Y0355423D03*
X0279647Y0355423D03*
X0282380Y0355423D03*
X0285114Y0355423D03*
X0285114Y0352689D03*
X0285114Y0349957D03*
X0282380Y0349957D03*
X0282380Y0352689D03*
X0279647Y0352689D03*
X0279647Y0349957D03*
X0276914Y0349957D03*
X0276914Y0352689D03*
X0274181Y0352689D03*
X0274181Y0349957D03*
X0271448Y0349957D03*
X0271448Y0352689D03*
X0271448Y0347223D03*
X0274181Y0347223D03*
X0276914Y0347223D03*
X0279647Y0347223D03*
X0282380Y0347223D03*
X0282380Y0344490D03*
X0279647Y0344490D03*
X0276914Y0344490D03*
X0274181Y0344490D03*
X0271448Y0344490D03*
X0271448Y0341757D03*
X0274181Y0341757D03*
X0276914Y0341757D03*
X0279647Y0341757D03*
X0282380Y0341757D03*
X0285114Y0341757D03*
X0285114Y0344490D03*
X0285114Y0347223D03*
X0285114Y0339023D03*
X0282380Y0339023D03*
X0279647Y0339023D03*
X0276914Y0339023D03*
X0274181Y0339023D03*
X0271448Y0339023D03*
X0298714Y0339023D03*
X0298714Y0341757D03*
X0298714Y0344490D03*
X0298714Y0347223D03*
X0298714Y0349957D03*
X0298714Y0352689D03*
X0298714Y0355423D03*
X0301448Y0355423D03*
X0304181Y0355423D03*
X0306914Y0355423D03*
X0309647Y0355423D03*
X0312380Y0355423D03*
X0315114Y0355423D03*
X0315114Y0352689D03*
X0315114Y0349957D03*
X0312380Y0349957D03*
X0312380Y0352689D03*
X0309647Y0352689D03*
X0309647Y0349957D03*
X0306914Y0349957D03*
X0306914Y0352689D03*
X0304181Y0352689D03*
X0304181Y0349957D03*
X0301448Y0349957D03*
X0301448Y0352689D03*
X0301448Y0347223D03*
X0304181Y0347223D03*
X0306914Y0347223D03*
X0309647Y0347223D03*
X0312380Y0347223D03*
X0312380Y0344490D03*
X0309647Y0344490D03*
X0306914Y0344490D03*
X0304181Y0344490D03*
X0301448Y0344490D03*
X0301448Y0341757D03*
X0304181Y0341757D03*
X0306914Y0341757D03*
X0309647Y0341757D03*
X0312380Y0341757D03*
X0315114Y0341757D03*
X0315114Y0344490D03*
X0315114Y0347223D03*
X0315114Y0339023D03*
X0312380Y0339023D03*
X0309647Y0339023D03*
X0306914Y0339023D03*
X0304181Y0339023D03*
X0301448Y0339023D03*
X0328714Y0339023D03*
X0328714Y0341757D03*
X0328714Y0344490D03*
X0328714Y0347223D03*
X0328714Y0349957D03*
X0328714Y0352689D03*
X0328714Y0355423D03*
X0331448Y0355423D03*
X0334181Y0355423D03*
X0336914Y0355423D03*
X0339647Y0355423D03*
X0342380Y0355423D03*
X0345114Y0355423D03*
X0345114Y0352689D03*
X0345114Y0349957D03*
X0342380Y0349957D03*
X0342380Y0352689D03*
X0339647Y0352689D03*
X0339647Y0349957D03*
X0336914Y0349957D03*
X0336914Y0352689D03*
X0334181Y0352689D03*
X0334181Y0349957D03*
X0331448Y0349957D03*
X0331448Y0352689D03*
X0331448Y0347223D03*
X0334181Y0347223D03*
X0336914Y0347223D03*
X0339647Y0347223D03*
X0342380Y0347223D03*
X0342380Y0344490D03*
X0339647Y0344490D03*
X0336914Y0344490D03*
X0334181Y0344490D03*
X0331448Y0344490D03*
X0331448Y0341757D03*
X0334181Y0341757D03*
X0336914Y0341757D03*
X0339647Y0341757D03*
X0342380Y0341757D03*
X0345114Y0341757D03*
X0345114Y0344490D03*
X0345114Y0347223D03*
X0345114Y0339023D03*
X0342380Y0339023D03*
X0339647Y0339023D03*
X0336914Y0339023D03*
X0334181Y0339023D03*
X0331448Y0339023D03*
X0188714Y0314023D03*
X0165114Y0314023D03*
X0165114Y0316757D03*
X0165114Y0319490D03*
X0165114Y0322223D03*
X0165114Y0324957D03*
X0165114Y0327689D03*
X0165114Y0330423D03*
X0162380Y0330423D03*
X0159647Y0330423D03*
X0156914Y0330423D03*
X0154181Y0330423D03*
X0151448Y0330423D03*
X0148714Y0330423D03*
X0148714Y0327689D03*
X0148714Y0324957D03*
X0151448Y0324957D03*
X0151448Y0327689D03*
X0154181Y0327689D03*
X0154181Y0324957D03*
X0156914Y0324957D03*
X0156914Y0327689D03*
X0159647Y0327689D03*
X0159647Y0324957D03*
X0162380Y0324957D03*
X0162380Y0327689D03*
X0162380Y0322223D03*
X0159647Y0322223D03*
X0156914Y0322223D03*
X0154181Y0322223D03*
X0151448Y0322223D03*
X0151448Y0319490D03*
X0154181Y0319490D03*
X0156914Y0319490D03*
X0159647Y0319490D03*
X0162380Y0319490D03*
X0162380Y0316757D03*
X0159647Y0316757D03*
X0156914Y0316757D03*
X0154181Y0316757D03*
X0151448Y0316757D03*
X0148714Y0316757D03*
X0148714Y0319490D03*
X0148714Y0322223D03*
X0148714Y0314023D03*
X0151448Y0314023D03*
X0154181Y0314023D03*
X0156914Y0314023D03*
X0159647Y0314023D03*
X0162380Y0314023D03*
X0140114Y0314023D03*
X0140114Y0316757D03*
X0140114Y0319490D03*
X0140114Y0322223D03*
X0140114Y0324957D03*
X0140114Y0327689D03*
X0140114Y0330423D03*
X0137380Y0330423D03*
X0134647Y0330423D03*
X0131914Y0330423D03*
X0129181Y0330423D03*
X0126448Y0330423D03*
X0123714Y0330423D03*
X0123714Y0327689D03*
X0123714Y0324957D03*
X0126448Y0324957D03*
X0126448Y0327689D03*
X0129181Y0327689D03*
X0129181Y0324957D03*
X0131914Y0324957D03*
X0131914Y0327689D03*
X0134647Y0327689D03*
X0134647Y0324957D03*
X0137380Y0324957D03*
X0137380Y0327689D03*
X0137380Y0322223D03*
X0134647Y0322223D03*
X0131914Y0322223D03*
X0129181Y0322223D03*
X0126448Y0322223D03*
X0126448Y0319490D03*
X0129181Y0319490D03*
X0131914Y0319490D03*
X0134647Y0319490D03*
X0137380Y0319490D03*
X0137380Y0316757D03*
X0134647Y0316757D03*
X0131914Y0316757D03*
X0129181Y0316757D03*
X0126448Y0316757D03*
X0123714Y0316757D03*
X0123714Y0319490D03*
X0123714Y0322223D03*
X0123714Y0314023D03*
X0126448Y0314023D03*
X0129181Y0314023D03*
X0131914Y0314023D03*
X0134647Y0314023D03*
X0137380Y0314023D03*
D23*
X0131912Y0322221D03*
X0156912Y0322221D03*
X0196912Y0322221D03*
X0221912Y0322221D03*
X0246912Y0347221D03*
X0276912Y0347221D03*
X0306912Y0347221D03*
X0336912Y0347221D03*
X0216916Y0185424D03*
X0191916Y0185424D03*
X0161916Y0185424D03*
X0136916Y0185424D03*
X0246916Y0160424D03*
X0276916Y0160424D03*
X0306916Y0160424D03*
X0336916Y0160424D03*
X0160912Y0089721D03*
X0138412Y0089721D03*
X0113912Y0089721D03*
D24*
X0116414Y0445823D03*
X0078414Y0445823D03*
D25*
X0213414Y0153169D03*
X0213414Y0146476D03*
X0222914Y0146476D03*
X0222914Y0153169D03*
X0202914Y0096669D03*
X0202914Y0089976D03*
X0426414Y0130976D03*
X0426414Y0137669D03*
X0426414Y0142976D03*
X0426414Y0149669D03*
X0434414Y0149669D03*
X0434414Y0142976D03*
X0434414Y0137669D03*
X0434414Y0130976D03*
X0433914Y0207476D03*
X0433914Y0214169D03*
X0433914Y0219476D03*
X0433914Y0226169D03*
X0425914Y0226169D03*
X0425914Y0219476D03*
X0425914Y0214169D03*
X0425914Y0207476D03*
X0452914Y0223476D03*
X0452914Y0230169D03*
D26*
X0201914Y0240823D03*
X0201914Y0266823D03*
X0201914Y0295823D03*
X0146914Y0295823D03*
X0146914Y0266823D03*
X0146914Y0240823D03*
X0146914Y0211823D03*
X0201914Y0211823D03*
D27*
X0218164Y0211823D03*
X0218164Y0240823D03*
X0218164Y0266823D03*
X0218164Y0295823D03*
X0163164Y0295823D03*
X0163164Y0266823D03*
X0163164Y0240823D03*
X0163164Y0211823D03*
D28*
X0149914Y0403551D03*
X0149914Y0407095D03*
D29*
X0242878Y0324098D03*
X0250949Y0324098D03*
X0250949Y0308547D03*
X0242878Y0308547D03*
X0272878Y0308547D03*
X0280949Y0308547D03*
X0280949Y0324098D03*
X0272878Y0324098D03*
X0302878Y0324098D03*
X0310949Y0324098D03*
X0310949Y0308547D03*
X0302878Y0308547D03*
X0332878Y0308547D03*
X0340949Y0308547D03*
X0340949Y0324098D03*
X0332878Y0324098D03*
X0332878Y0199098D03*
X0340949Y0199098D03*
X0340949Y0183547D03*
X0332878Y0183547D03*
X0310949Y0183547D03*
X0302878Y0183547D03*
X0302878Y0199098D03*
X0310949Y0199098D03*
X0280949Y0199098D03*
X0272878Y0199098D03*
X0272878Y0183547D03*
X0280949Y0183547D03*
X0251199Y0184047D03*
X0243128Y0184047D03*
X0243128Y0199598D03*
X0251199Y0199598D03*
D30*
X0371890Y0196823D03*
X0371890Y0191823D03*
X0371890Y0186823D03*
X0371890Y0181823D03*
X0371890Y0176823D03*
X0371890Y0171823D03*
X0371890Y0166823D03*
X0393937Y0166823D03*
X0393937Y0171823D03*
X0393937Y0176823D03*
X0393937Y0181823D03*
X0393937Y0186823D03*
X0393937Y0191823D03*
X0393937Y0196823D03*
X0393937Y0201823D03*
D31*
X0371890Y0201823D03*
D32*
X0380414Y0283776D03*
X0385414Y0283776D03*
X0390414Y0283776D03*
X0395414Y0283776D03*
X0400414Y0283776D03*
X0405414Y0283776D03*
X0410414Y0283776D03*
X0410414Y0327870D03*
X0405414Y0327870D03*
X0400414Y0327870D03*
X0395414Y0327870D03*
X0390414Y0327870D03*
X0385414Y0327870D03*
X0380414Y0327870D03*
D33*
X0373367Y0320823D03*
X0373367Y0315823D03*
X0373367Y0310823D03*
X0373367Y0305823D03*
X0373367Y0300823D03*
X0373367Y0295823D03*
X0373367Y0290823D03*
X0417461Y0290823D03*
X0417461Y0295823D03*
X0417461Y0300823D03*
X0417461Y0305823D03*
X0417461Y0310823D03*
X0417461Y0315823D03*
X0417461Y0320823D03*
D34*
X0232245Y0420823D03*
X0223583Y0424563D03*
X0223583Y0417083D03*
D35*
X0105536Y0369000D03*
X0095693Y0363095D03*
X0105536Y0357189D03*
X0095693Y0351283D03*
X0105536Y0345378D03*
X0095693Y0339472D03*
X0105536Y0333567D03*
X0095693Y0327661D03*
X0105536Y0321756D03*
X0095693Y0315850D03*
X0105536Y0309945D03*
X0095693Y0304039D03*
X0105536Y0298134D03*
X0095693Y0292228D03*
X0105536Y0286323D03*
X0095693Y0280417D03*
X0105536Y0274512D03*
X0083882Y0280417D03*
X0074040Y0274512D03*
X0074040Y0286323D03*
X0083882Y0292228D03*
X0074040Y0298134D03*
X0083882Y0304039D03*
X0074040Y0309945D03*
X0083882Y0315850D03*
X0074040Y0321756D03*
X0083882Y0327661D03*
X0074040Y0333567D03*
X0083882Y0339472D03*
X0074040Y0345378D03*
X0083882Y0351283D03*
X0074040Y0357189D03*
X0083882Y0363095D03*
X0074040Y0369000D03*
X0074040Y0217425D03*
X0083882Y0211520D03*
X0074040Y0205614D03*
X0083882Y0199709D03*
X0074040Y0193803D03*
X0083882Y0187898D03*
X0074040Y0181992D03*
X0083882Y0176087D03*
X0074040Y0170181D03*
X0083882Y0164276D03*
X0074040Y0158370D03*
X0083882Y0152465D03*
X0074040Y0146559D03*
X0095693Y0152465D03*
X0105536Y0158370D03*
X0095693Y0164276D03*
X0105536Y0170181D03*
X0095693Y0176087D03*
X0105536Y0181992D03*
X0095693Y0187898D03*
X0105536Y0193803D03*
X0095693Y0199709D03*
X0105536Y0205614D03*
X0095693Y0211520D03*
X0105536Y0217425D03*
X0105536Y0146559D03*
D36*
X0048449Y0118016D03*
X0048449Y0245969D03*
X0048449Y0397543D03*
D37*
X0360414Y0149823D03*
X0360414Y0144823D03*
X0360414Y0139823D03*
X0360414Y0134823D03*
X0360414Y0129823D03*
X0360414Y0124823D03*
X0360414Y0119823D03*
X0360414Y0114823D03*
X0360414Y0109823D03*
X0360414Y0104823D03*
X0397414Y0104823D03*
X0397414Y0109823D03*
X0397414Y0114823D03*
X0397414Y0119823D03*
X0397414Y0124823D03*
X0397414Y0129823D03*
X0397414Y0134823D03*
X0397414Y0139823D03*
X0397414Y0144823D03*
X0397414Y0149823D03*
X0410914Y0216823D03*
X0410914Y0221823D03*
X0410914Y0226823D03*
X0410914Y0231823D03*
X0410914Y0236823D03*
X0410914Y0241823D03*
X0410914Y0246823D03*
X0410914Y0251823D03*
X0410914Y0256823D03*
X0410914Y0261823D03*
X0373914Y0261823D03*
X0373914Y0256823D03*
X0373914Y0251823D03*
X0373914Y0246823D03*
X0373914Y0241823D03*
X0373914Y0236823D03*
X0373914Y0231823D03*
X0373914Y0226823D03*
X0373914Y0221823D03*
X0373914Y0216823D03*
D38*
X0414114Y0202023D03*
X0414114Y0198323D03*
X0414114Y0194623D03*
X0414114Y0189023D03*
X0414114Y0185323D03*
X0414114Y0181623D03*
X0414114Y0176523D03*
X0414114Y0172823D03*
X0414114Y0169123D03*
X0414114Y0164523D03*
X0414114Y0160823D03*
X0414114Y0157123D03*
X0423714Y0157123D03*
X0423714Y0164523D03*
X0423714Y0169123D03*
X0423714Y0176523D03*
X0423714Y0181623D03*
X0423714Y0189023D03*
X0423714Y0194623D03*
X0423714Y0202023D03*
D39*
X0436314Y0188723D03*
X0436314Y0186823D03*
X0436314Y0184823D03*
X0436314Y0182823D03*
X0436314Y0180923D03*
X0453514Y0180923D03*
X0453514Y0182823D03*
X0453514Y0184823D03*
X0453514Y0186823D03*
X0453514Y0188723D03*
D40*
X0194414Y0103023D03*
X0189414Y0103023D03*
X0184414Y0103023D03*
X0179414Y0103023D03*
X0179414Y0083623D03*
X0184414Y0083623D03*
X0189414Y0083623D03*
X0194414Y0083623D03*
D41*
X0407414Y0408240D03*
D42*
X0408359Y0385406D03*
X0418359Y0385406D03*
X0398359Y0385406D03*
D43*
X0408914Y0374669D03*
X0408914Y0367976D03*
X0428914Y0375976D03*
X0428914Y0382669D03*
X0297414Y0399726D03*
X0297414Y0406419D03*
X0291510Y0425323D03*
X0284817Y0425323D03*
X0269010Y0425323D03*
X0262317Y0425323D03*
D44*
X0259034Y0407323D03*
X0259034Y0402323D03*
X0259034Y0397323D03*
X0259034Y0392323D03*
X0280294Y0392323D03*
X0280294Y0397323D03*
X0280294Y0402323D03*
X0280294Y0407323D03*
D45*
X0247414Y0437323D03*
X0243164Y0437323D03*
X0238164Y0437323D03*
X0233414Y0437323D03*
X0228664Y0437323D03*
X0223664Y0437323D03*
X0217664Y0439323D03*
X0212164Y0436323D03*
X0197664Y0440073D03*
X0200664Y0423073D03*
X0212164Y0413323D03*
X0214164Y0402573D03*
X0232664Y0426573D03*
X0237414Y0426573D03*
X0203914Y0464823D03*
X0171414Y0469823D03*
X0163914Y0469823D03*
X0155914Y0469573D03*
X0156414Y0460323D03*
X0164414Y0460323D03*
X0171164Y0460323D03*
X0146414Y0469073D03*
X0175164Y0400323D03*
X0148914Y0395073D03*
X0111414Y0401823D03*
X0049414Y0358823D03*
X0121164Y0305073D03*
X0169414Y0219823D03*
X0178914Y0219823D03*
X0222914Y0204073D03*
X0226664Y0206573D03*
X0226914Y0201823D03*
X0237664Y0197073D03*
X0238414Y0208073D03*
X0259414Y0207823D03*
X0259664Y0203573D03*
X0259664Y0199573D03*
X0264164Y0199073D03*
X0263914Y0203573D03*
X0263914Y0207823D03*
X0236664Y0184073D03*
X0236914Y0180573D03*
X0232914Y0178823D03*
X0224914Y0164073D03*
X0207164Y0146073D03*
X0201664Y0146073D03*
X0203414Y0140573D03*
X0209914Y0140323D03*
X0217164Y0140323D03*
X0223664Y0140323D03*
X0230664Y0140073D03*
X0196664Y0140823D03*
X0123164Y0176823D03*
X0123164Y0181573D03*
X0123164Y0187823D03*
X0123164Y0194073D03*
X0252664Y0301323D03*
X0261414Y0299323D03*
X0348164Y0206323D03*
X0347914Y0202323D03*
X0348414Y0197823D03*
X0400664Y0193323D03*
X0400664Y0182573D03*
X0409664Y0181573D03*
X0400664Y0172573D03*
X0400414Y0161323D03*
X0425664Y0160823D03*
X0436914Y0156323D03*
X0441414Y0161573D03*
X0438664Y0165823D03*
X0442414Y0173823D03*
X0450414Y0177323D03*
X0451914Y0172573D03*
X0457414Y0177573D03*
X0449414Y0160573D03*
X0449664Y0153073D03*
X0412664Y0206323D03*
X0399414Y0269323D03*
X0385414Y0275323D03*
X0352164Y0139073D03*
X0347164Y0139073D03*
X0336664Y0437073D03*
X0359664Y0437073D03*
X0386414Y0464073D03*
X0392914Y0457323D03*
D46*
X0409914Y0431323D03*
X0417914Y0429823D03*
X0424414Y0425823D03*
X0453164Y0431823D03*
X0390914Y0370323D03*
X0386914Y0353323D03*
X0387914Y0347323D03*
X0375914Y0338823D03*
X0368414Y0332323D03*
X0380414Y0319323D03*
X0366914Y0307823D03*
X0363914Y0305823D03*
X0360914Y0302823D03*
X0357914Y0299823D03*
X0357914Y0288823D03*
X0369914Y0275323D03*
X0355414Y0266823D03*
X0351914Y0263823D03*
X0349914Y0260823D03*
X0358914Y0245323D03*
X0362914Y0237323D03*
X0366914Y0225323D03*
X0355414Y0218323D03*
X0366414Y0202823D03*
X0377414Y0196823D03*
X0384914Y0204323D03*
X0385414Y0209323D03*
X0394414Y0209323D03*
X0400414Y0224323D03*
X0417914Y0230823D03*
X0421414Y0234323D03*
X0417914Y0237823D03*
X0424414Y0246823D03*
X0430914Y0237323D03*
X0452914Y0242323D03*
X0440914Y0267323D03*
X0400414Y0244823D03*
X0394414Y0246323D03*
X0381414Y0243323D03*
X0382414Y0232823D03*
X0388414Y0259823D03*
X0395414Y0292823D03*
X0380914Y0295323D03*
X0382414Y0302323D03*
X0341914Y0316323D03*
X0330414Y0315823D03*
X0313914Y0315823D03*
X0303414Y0316323D03*
X0280414Y0316323D03*
X0274414Y0316823D03*
X0256164Y0312823D03*
X0249414Y0316073D03*
X0239914Y0316323D03*
X0228914Y0302823D03*
X0221914Y0296823D03*
X0213414Y0278323D03*
X0174414Y0291323D03*
X0167414Y0299323D03*
X0158414Y0277323D03*
X0164914Y0233823D03*
X0164414Y0219323D03*
X0169914Y0211323D03*
X0180414Y0211323D03*
X0219414Y0220323D03*
X0224914Y0211323D03*
X0233664Y0209573D03*
X0238414Y0190823D03*
X0228914Y0170323D03*
X0203414Y0170323D03*
X0180414Y0113823D03*
X0270414Y0190823D03*
X0280414Y0191323D03*
X0296414Y0177323D03*
X0293914Y0173323D03*
X0301914Y0191323D03*
X0314414Y0191323D03*
X0332414Y0191823D03*
X0344414Y0191323D03*
X0354914Y0178823D03*
X0367914Y0162323D03*
X0386414Y0182823D03*
X0418914Y0176823D03*
X0418914Y0164323D03*
X0411414Y0151823D03*
X0432414Y0155323D03*
X0441414Y0142823D03*
X0433914Y0168323D03*
X0433914Y0176823D03*
X0418914Y0192323D03*
X0418914Y0201823D03*
X0438914Y0213823D03*
X0407414Y0121823D03*
X0404414Y0114823D03*
X0412414Y0103323D03*
X0326414Y0098323D03*
X0321914Y0214323D03*
X0321914Y0226823D03*
X0295914Y0226823D03*
X0292414Y0226823D03*
X0291414Y0289323D03*
X0322414Y0289823D03*
X0368414Y0353823D03*
X0345414Y0377323D03*
X0352914Y0396823D03*
X0348414Y0399823D03*
X0328664Y0408823D03*
X0313414Y0402823D03*
X0314414Y0392823D03*
X0316414Y0381323D03*
X0315414Y0375823D03*
X0322914Y0362823D03*
X0293914Y0363823D03*
X0289914Y0375823D03*
X0285414Y0376823D03*
X0291664Y0392573D03*
X0298164Y0391823D03*
X0291914Y0403573D03*
X0289664Y0408823D03*
X0276664Y0423073D03*
X0265914Y0405073D03*
X0256164Y0423323D03*
X0252164Y0422323D03*
X0250914Y0425823D03*
X0246414Y0426823D03*
X0241414Y0426823D03*
X0220914Y0410323D03*
X0215914Y0406073D03*
X0227414Y0408823D03*
X0234914Y0409323D03*
X0217664Y0422323D03*
X0212914Y0422823D03*
X0216164Y0428323D03*
X0196914Y0421323D03*
X0192414Y0417823D03*
X0195414Y0413823D03*
X0195414Y0407323D03*
X0200414Y0407323D03*
X0186414Y0407323D03*
X0181914Y0409823D03*
X0184914Y0416323D03*
X0186914Y0401823D03*
X0207414Y0392823D03*
X0210914Y0392823D03*
X0235914Y0365823D03*
X0262914Y0362823D03*
X0209414Y0336823D03*
X0181914Y0332323D03*
X0174414Y0330323D03*
X0145414Y0338323D03*
X0118414Y0332323D03*
X0074414Y0378823D03*
X0067414Y0382823D03*
X0062914Y0393823D03*
X0067914Y0397823D03*
X0083414Y0391323D03*
X0091414Y0397823D03*
X0091914Y0405323D03*
X0089914Y0412823D03*
X0089914Y0420323D03*
X0098914Y0420323D03*
X0100914Y0423823D03*
X0112414Y0408323D03*
X0112914Y0393323D03*
X0139414Y0406323D03*
X0138164Y0416323D03*
X0137414Y0425823D03*
X0134914Y0430323D03*
X0140414Y0432323D03*
X0140664Y0436323D03*
X0121414Y0430323D03*
X0125564Y0417373D03*
X0153414Y0416823D03*
X0152664Y0410823D03*
X0165914Y0412323D03*
X0168414Y0398823D03*
X0168914Y0430323D03*
X0173414Y0430323D03*
X0173414Y0435323D03*
X0173914Y0439323D03*
X0176914Y0446323D03*
X0181914Y0448823D03*
X0187414Y0446823D03*
X0191414Y0444323D03*
X0191914Y0440823D03*
X0192414Y0432823D03*
X0196914Y0449323D03*
X0198914Y0461823D03*
X0204914Y0459823D03*
X0215414Y0451823D03*
X0219414Y0452823D03*
X0223914Y0454823D03*
X0230914Y0455323D03*
X0170914Y0448323D03*
X0158414Y0441823D03*
X0138414Y0455823D03*
X0146914Y0464823D03*
X0074664Y0462323D03*
X0069914Y0452823D03*
X0062164Y0440573D03*
X0057664Y0434573D03*
X0050914Y0428823D03*
X0075414Y0437823D03*
X0044414Y0326323D03*
X0058914Y0322323D03*
X0048914Y0296823D03*
X0056414Y0280823D03*
X0062414Y0283823D03*
X0219414Y0232323D03*
X0408414Y0347323D03*
X0417914Y0345823D03*
X0349414Y0416323D03*
X0344414Y0418823D03*
X0339914Y0423323D03*
X0309664Y0421823D03*
D47*
X0256914Y0372823D03*
X0233414Y0347823D03*
X0172914Y0339323D03*
X0174914Y0174323D03*
X0169914Y0163823D03*
X0149414Y0170823D03*
X0175414Y0109323D03*
X0252414Y0135823D03*
X0280914Y0133823D03*
X0312414Y0132323D03*
X0318914Y0135323D03*
X0344914Y0131823D03*
X0348914Y0135323D03*
D48*
X0284414Y0130323D03*
X0284414Y0116823D03*
X0255914Y0116323D03*
X0257414Y0135323D03*
X0231664Y0173823D03*
X0358414Y0214823D03*
X0362914Y0214823D03*
X0362914Y0248323D03*
X0380414Y0271323D03*
X0410414Y0269323D03*
X0417414Y0268823D03*
X0422914Y0267323D03*
X0427414Y0264323D03*
X0424914Y0306323D03*
X0427914Y0310823D03*
X0430914Y0315823D03*
X0382414Y0350823D03*
X0378414Y0350823D03*
X0374414Y0350823D03*
X0338914Y0390823D03*
X0303914Y0392823D03*
X0274414Y0393323D03*
X0245914Y0392823D03*
M02*
