G75*
%MOIN*%
%OFA0B0*%
%FSLAX25Y25*%
%IPPOS*%
%LPD*%
%AMOC8*
5,1,8,0,0,1.08239X$1,22.5*
%
%ADD10C,0.00000*%
D10*
X0046164Y0066323D02*
X0457414Y0066323D01*
X0458006Y0066330D01*
X0458598Y0066352D01*
X0459189Y0066387D01*
X0459779Y0066437D01*
X0460367Y0066502D01*
X0460954Y0066580D01*
X0461539Y0066673D01*
X0462121Y0066779D01*
X0462701Y0066900D01*
X0463277Y0067035D01*
X0463850Y0067184D01*
X0464420Y0067346D01*
X0464985Y0067522D01*
X0465546Y0067712D01*
X0466102Y0067915D01*
X0466653Y0068132D01*
X0467198Y0068362D01*
X0467738Y0068605D01*
X0468272Y0068861D01*
X0468800Y0069129D01*
X0469321Y0069411D01*
X0469835Y0069705D01*
X0470341Y0070011D01*
X0470840Y0070329D01*
X0471332Y0070660D01*
X0471815Y0071002D01*
X0472289Y0071356D01*
X0472756Y0071721D01*
X0473213Y0072097D01*
X0473661Y0072484D01*
X0474099Y0072882D01*
X0474528Y0073291D01*
X0474946Y0073709D01*
X0475355Y0074138D01*
X0475753Y0074576D01*
X0476140Y0075024D01*
X0476516Y0075481D01*
X0476881Y0075948D01*
X0477235Y0076422D01*
X0477577Y0076905D01*
X0477908Y0077397D01*
X0478226Y0077896D01*
X0478532Y0078402D01*
X0478826Y0078916D01*
X0479108Y0079437D01*
X0479376Y0079965D01*
X0479632Y0080499D01*
X0479875Y0081039D01*
X0480105Y0081584D01*
X0480322Y0082135D01*
X0480525Y0082691D01*
X0480715Y0083252D01*
X0480891Y0083817D01*
X0481053Y0084387D01*
X0481202Y0084960D01*
X0481337Y0085536D01*
X0481458Y0086116D01*
X0481564Y0086698D01*
X0481657Y0087283D01*
X0481735Y0087870D01*
X0481800Y0088458D01*
X0481850Y0089048D01*
X0481885Y0089639D01*
X0481907Y0090231D01*
X0481914Y0090823D01*
X0481914Y0461823D01*
X0481907Y0462415D01*
X0481885Y0463007D01*
X0481850Y0463598D01*
X0481800Y0464188D01*
X0481735Y0464776D01*
X0481657Y0465363D01*
X0481564Y0465948D01*
X0481458Y0466530D01*
X0481337Y0467110D01*
X0481202Y0467686D01*
X0481053Y0468259D01*
X0480891Y0468829D01*
X0480715Y0469394D01*
X0480525Y0469955D01*
X0480322Y0470511D01*
X0480105Y0471062D01*
X0479875Y0471607D01*
X0479632Y0472147D01*
X0479376Y0472681D01*
X0479108Y0473209D01*
X0478826Y0473730D01*
X0478532Y0474244D01*
X0478226Y0474750D01*
X0477908Y0475249D01*
X0477577Y0475741D01*
X0477235Y0476224D01*
X0476881Y0476698D01*
X0476516Y0477165D01*
X0476140Y0477622D01*
X0475753Y0478070D01*
X0475355Y0478508D01*
X0474946Y0478937D01*
X0474528Y0479355D01*
X0474099Y0479764D01*
X0473661Y0480162D01*
X0473213Y0480549D01*
X0472756Y0480925D01*
X0472289Y0481290D01*
X0471815Y0481644D01*
X0471332Y0481986D01*
X0470840Y0482317D01*
X0470341Y0482635D01*
X0469835Y0482941D01*
X0469321Y0483235D01*
X0468800Y0483517D01*
X0468272Y0483785D01*
X0467738Y0484041D01*
X0467198Y0484284D01*
X0466653Y0484514D01*
X0466102Y0484731D01*
X0465546Y0484934D01*
X0464985Y0485124D01*
X0464420Y0485300D01*
X0463850Y0485462D01*
X0463277Y0485611D01*
X0462701Y0485746D01*
X0462121Y0485867D01*
X0461539Y0485973D01*
X0460954Y0486066D01*
X0460367Y0486144D01*
X0459779Y0486209D01*
X0459189Y0486259D01*
X0458598Y0486294D01*
X0458006Y0486316D01*
X0457414Y0486323D01*
X0045914Y0486323D01*
X0045322Y0486316D01*
X0044730Y0486294D01*
X0044139Y0486259D01*
X0043549Y0486209D01*
X0042961Y0486144D01*
X0042374Y0486066D01*
X0041789Y0485973D01*
X0041207Y0485867D01*
X0040627Y0485746D01*
X0040051Y0485611D01*
X0039478Y0485462D01*
X0038908Y0485300D01*
X0038343Y0485124D01*
X0037782Y0484934D01*
X0037226Y0484731D01*
X0036675Y0484514D01*
X0036130Y0484284D01*
X0035590Y0484041D01*
X0035056Y0483785D01*
X0034528Y0483517D01*
X0034007Y0483235D01*
X0033493Y0482941D01*
X0032987Y0482635D01*
X0032488Y0482317D01*
X0031996Y0481986D01*
X0031513Y0481644D01*
X0031039Y0481290D01*
X0030572Y0480925D01*
X0030115Y0480549D01*
X0029667Y0480162D01*
X0029229Y0479764D01*
X0028800Y0479355D01*
X0028382Y0478937D01*
X0027973Y0478508D01*
X0027575Y0478070D01*
X0027188Y0477622D01*
X0026812Y0477165D01*
X0026447Y0476698D01*
X0026093Y0476224D01*
X0025751Y0475741D01*
X0025420Y0475249D01*
X0025102Y0474750D01*
X0024796Y0474244D01*
X0024502Y0473730D01*
X0024220Y0473209D01*
X0023952Y0472681D01*
X0023696Y0472147D01*
X0023453Y0471607D01*
X0023223Y0471062D01*
X0023006Y0470511D01*
X0022803Y0469955D01*
X0022613Y0469394D01*
X0022437Y0468829D01*
X0022275Y0468259D01*
X0022126Y0467686D01*
X0021991Y0467110D01*
X0021870Y0466530D01*
X0021764Y0465948D01*
X0021671Y0465363D01*
X0021593Y0464776D01*
X0021528Y0464188D01*
X0021478Y0463598D01*
X0021443Y0463007D01*
X0021421Y0462415D01*
X0021414Y0461823D01*
X0021414Y0091073D01*
X0021421Y0090475D01*
X0021443Y0089877D01*
X0021479Y0089280D01*
X0021530Y0088684D01*
X0021594Y0088090D01*
X0021674Y0087497D01*
X0021767Y0086906D01*
X0021875Y0086318D01*
X0021997Y0085732D01*
X0022133Y0085150D01*
X0022283Y0084571D01*
X0022447Y0083996D01*
X0022625Y0083425D01*
X0022817Y0082858D01*
X0023022Y0082297D01*
X0023241Y0081740D01*
X0023473Y0081189D01*
X0023719Y0080643D01*
X0023977Y0080104D01*
X0024249Y0079571D01*
X0024533Y0079045D01*
X0024830Y0078526D01*
X0025140Y0078014D01*
X0025461Y0077510D01*
X0025795Y0077013D01*
X0026141Y0076525D01*
X0026498Y0076046D01*
X0026867Y0075575D01*
X0027247Y0075113D01*
X0027638Y0074661D01*
X0028040Y0074218D01*
X0028453Y0073785D01*
X0028876Y0073362D01*
X0029309Y0072949D01*
X0029752Y0072547D01*
X0030204Y0072156D01*
X0030666Y0071776D01*
X0031137Y0071407D01*
X0031616Y0071050D01*
X0032104Y0070704D01*
X0032601Y0070370D01*
X0033105Y0070049D01*
X0033617Y0069739D01*
X0034136Y0069442D01*
X0034662Y0069158D01*
X0035195Y0068886D01*
X0035734Y0068628D01*
X0036280Y0068382D01*
X0036831Y0068150D01*
X0037388Y0067931D01*
X0037949Y0067726D01*
X0038516Y0067534D01*
X0039087Y0067356D01*
X0039662Y0067192D01*
X0040241Y0067042D01*
X0040823Y0066906D01*
X0041409Y0066784D01*
X0041997Y0066676D01*
X0042588Y0066583D01*
X0043181Y0066503D01*
X0043775Y0066439D01*
X0044371Y0066388D01*
X0044968Y0066352D01*
X0045566Y0066330D01*
X0046164Y0066323D01*
X0041756Y0118016D02*
X0041758Y0118180D01*
X0041764Y0118344D01*
X0041774Y0118508D01*
X0041788Y0118672D01*
X0041806Y0118835D01*
X0041828Y0118998D01*
X0041855Y0119160D01*
X0041885Y0119322D01*
X0041919Y0119482D01*
X0041957Y0119642D01*
X0041998Y0119801D01*
X0042044Y0119959D01*
X0042094Y0120115D01*
X0042147Y0120271D01*
X0042204Y0120425D01*
X0042265Y0120577D01*
X0042330Y0120728D01*
X0042399Y0120878D01*
X0042471Y0121025D01*
X0042546Y0121171D01*
X0042626Y0121315D01*
X0042708Y0121457D01*
X0042794Y0121597D01*
X0042884Y0121734D01*
X0042977Y0121870D01*
X0043073Y0122003D01*
X0043173Y0122134D01*
X0043275Y0122262D01*
X0043381Y0122388D01*
X0043490Y0122511D01*
X0043602Y0122631D01*
X0043716Y0122749D01*
X0043834Y0122863D01*
X0043954Y0122975D01*
X0044077Y0123084D01*
X0044203Y0123190D01*
X0044331Y0123292D01*
X0044462Y0123392D01*
X0044595Y0123488D01*
X0044731Y0123581D01*
X0044868Y0123671D01*
X0045008Y0123757D01*
X0045150Y0123839D01*
X0045294Y0123919D01*
X0045440Y0123994D01*
X0045587Y0124066D01*
X0045737Y0124135D01*
X0045888Y0124200D01*
X0046040Y0124261D01*
X0046194Y0124318D01*
X0046350Y0124371D01*
X0046506Y0124421D01*
X0046664Y0124467D01*
X0046823Y0124508D01*
X0046983Y0124546D01*
X0047143Y0124580D01*
X0047305Y0124610D01*
X0047467Y0124637D01*
X0047630Y0124659D01*
X0047793Y0124677D01*
X0047957Y0124691D01*
X0048121Y0124701D01*
X0048285Y0124707D01*
X0048449Y0124709D01*
X0048613Y0124707D01*
X0048777Y0124701D01*
X0048941Y0124691D01*
X0049105Y0124677D01*
X0049268Y0124659D01*
X0049431Y0124637D01*
X0049593Y0124610D01*
X0049755Y0124580D01*
X0049915Y0124546D01*
X0050075Y0124508D01*
X0050234Y0124467D01*
X0050392Y0124421D01*
X0050548Y0124371D01*
X0050704Y0124318D01*
X0050858Y0124261D01*
X0051010Y0124200D01*
X0051161Y0124135D01*
X0051311Y0124066D01*
X0051458Y0123994D01*
X0051604Y0123919D01*
X0051748Y0123839D01*
X0051890Y0123757D01*
X0052030Y0123671D01*
X0052167Y0123581D01*
X0052303Y0123488D01*
X0052436Y0123392D01*
X0052567Y0123292D01*
X0052695Y0123190D01*
X0052821Y0123084D01*
X0052944Y0122975D01*
X0053064Y0122863D01*
X0053182Y0122749D01*
X0053296Y0122631D01*
X0053408Y0122511D01*
X0053517Y0122388D01*
X0053623Y0122262D01*
X0053725Y0122134D01*
X0053825Y0122003D01*
X0053921Y0121870D01*
X0054014Y0121734D01*
X0054104Y0121597D01*
X0054190Y0121457D01*
X0054272Y0121315D01*
X0054352Y0121171D01*
X0054427Y0121025D01*
X0054499Y0120878D01*
X0054568Y0120728D01*
X0054633Y0120577D01*
X0054694Y0120425D01*
X0054751Y0120271D01*
X0054804Y0120115D01*
X0054854Y0119959D01*
X0054900Y0119801D01*
X0054941Y0119642D01*
X0054979Y0119482D01*
X0055013Y0119322D01*
X0055043Y0119160D01*
X0055070Y0118998D01*
X0055092Y0118835D01*
X0055110Y0118672D01*
X0055124Y0118508D01*
X0055134Y0118344D01*
X0055140Y0118180D01*
X0055142Y0118016D01*
X0055140Y0117852D01*
X0055134Y0117688D01*
X0055124Y0117524D01*
X0055110Y0117360D01*
X0055092Y0117197D01*
X0055070Y0117034D01*
X0055043Y0116872D01*
X0055013Y0116710D01*
X0054979Y0116550D01*
X0054941Y0116390D01*
X0054900Y0116231D01*
X0054854Y0116073D01*
X0054804Y0115917D01*
X0054751Y0115761D01*
X0054694Y0115607D01*
X0054633Y0115455D01*
X0054568Y0115304D01*
X0054499Y0115154D01*
X0054427Y0115007D01*
X0054352Y0114861D01*
X0054272Y0114717D01*
X0054190Y0114575D01*
X0054104Y0114435D01*
X0054014Y0114298D01*
X0053921Y0114162D01*
X0053825Y0114029D01*
X0053725Y0113898D01*
X0053623Y0113770D01*
X0053517Y0113644D01*
X0053408Y0113521D01*
X0053296Y0113401D01*
X0053182Y0113283D01*
X0053064Y0113169D01*
X0052944Y0113057D01*
X0052821Y0112948D01*
X0052695Y0112842D01*
X0052567Y0112740D01*
X0052436Y0112640D01*
X0052303Y0112544D01*
X0052167Y0112451D01*
X0052030Y0112361D01*
X0051890Y0112275D01*
X0051748Y0112193D01*
X0051604Y0112113D01*
X0051458Y0112038D01*
X0051311Y0111966D01*
X0051161Y0111897D01*
X0051010Y0111832D01*
X0050858Y0111771D01*
X0050704Y0111714D01*
X0050548Y0111661D01*
X0050392Y0111611D01*
X0050234Y0111565D01*
X0050075Y0111524D01*
X0049915Y0111486D01*
X0049755Y0111452D01*
X0049593Y0111422D01*
X0049431Y0111395D01*
X0049268Y0111373D01*
X0049105Y0111355D01*
X0048941Y0111341D01*
X0048777Y0111331D01*
X0048613Y0111325D01*
X0048449Y0111323D01*
X0048285Y0111325D01*
X0048121Y0111331D01*
X0047957Y0111341D01*
X0047793Y0111355D01*
X0047630Y0111373D01*
X0047467Y0111395D01*
X0047305Y0111422D01*
X0047143Y0111452D01*
X0046983Y0111486D01*
X0046823Y0111524D01*
X0046664Y0111565D01*
X0046506Y0111611D01*
X0046350Y0111661D01*
X0046194Y0111714D01*
X0046040Y0111771D01*
X0045888Y0111832D01*
X0045737Y0111897D01*
X0045587Y0111966D01*
X0045440Y0112038D01*
X0045294Y0112113D01*
X0045150Y0112193D01*
X0045008Y0112275D01*
X0044868Y0112361D01*
X0044731Y0112451D01*
X0044595Y0112544D01*
X0044462Y0112640D01*
X0044331Y0112740D01*
X0044203Y0112842D01*
X0044077Y0112948D01*
X0043954Y0113057D01*
X0043834Y0113169D01*
X0043716Y0113283D01*
X0043602Y0113401D01*
X0043490Y0113521D01*
X0043381Y0113644D01*
X0043275Y0113770D01*
X0043173Y0113898D01*
X0043073Y0114029D01*
X0042977Y0114162D01*
X0042884Y0114298D01*
X0042794Y0114435D01*
X0042708Y0114575D01*
X0042626Y0114717D01*
X0042546Y0114861D01*
X0042471Y0115007D01*
X0042399Y0115154D01*
X0042330Y0115304D01*
X0042265Y0115455D01*
X0042204Y0115607D01*
X0042147Y0115761D01*
X0042094Y0115917D01*
X0042044Y0116073D01*
X0041998Y0116231D01*
X0041957Y0116390D01*
X0041919Y0116550D01*
X0041885Y0116710D01*
X0041855Y0116872D01*
X0041828Y0117034D01*
X0041806Y0117197D01*
X0041788Y0117360D01*
X0041774Y0117524D01*
X0041764Y0117688D01*
X0041758Y0117852D01*
X0041756Y0118016D01*
X0041756Y0245969D02*
X0041758Y0246133D01*
X0041764Y0246297D01*
X0041774Y0246461D01*
X0041788Y0246625D01*
X0041806Y0246788D01*
X0041828Y0246951D01*
X0041855Y0247113D01*
X0041885Y0247275D01*
X0041919Y0247435D01*
X0041957Y0247595D01*
X0041998Y0247754D01*
X0042044Y0247912D01*
X0042094Y0248068D01*
X0042147Y0248224D01*
X0042204Y0248378D01*
X0042265Y0248530D01*
X0042330Y0248681D01*
X0042399Y0248831D01*
X0042471Y0248978D01*
X0042546Y0249124D01*
X0042626Y0249268D01*
X0042708Y0249410D01*
X0042794Y0249550D01*
X0042884Y0249687D01*
X0042977Y0249823D01*
X0043073Y0249956D01*
X0043173Y0250087D01*
X0043275Y0250215D01*
X0043381Y0250341D01*
X0043490Y0250464D01*
X0043602Y0250584D01*
X0043716Y0250702D01*
X0043834Y0250816D01*
X0043954Y0250928D01*
X0044077Y0251037D01*
X0044203Y0251143D01*
X0044331Y0251245D01*
X0044462Y0251345D01*
X0044595Y0251441D01*
X0044731Y0251534D01*
X0044868Y0251624D01*
X0045008Y0251710D01*
X0045150Y0251792D01*
X0045294Y0251872D01*
X0045440Y0251947D01*
X0045587Y0252019D01*
X0045737Y0252088D01*
X0045888Y0252153D01*
X0046040Y0252214D01*
X0046194Y0252271D01*
X0046350Y0252324D01*
X0046506Y0252374D01*
X0046664Y0252420D01*
X0046823Y0252461D01*
X0046983Y0252499D01*
X0047143Y0252533D01*
X0047305Y0252563D01*
X0047467Y0252590D01*
X0047630Y0252612D01*
X0047793Y0252630D01*
X0047957Y0252644D01*
X0048121Y0252654D01*
X0048285Y0252660D01*
X0048449Y0252662D01*
X0048613Y0252660D01*
X0048777Y0252654D01*
X0048941Y0252644D01*
X0049105Y0252630D01*
X0049268Y0252612D01*
X0049431Y0252590D01*
X0049593Y0252563D01*
X0049755Y0252533D01*
X0049915Y0252499D01*
X0050075Y0252461D01*
X0050234Y0252420D01*
X0050392Y0252374D01*
X0050548Y0252324D01*
X0050704Y0252271D01*
X0050858Y0252214D01*
X0051010Y0252153D01*
X0051161Y0252088D01*
X0051311Y0252019D01*
X0051458Y0251947D01*
X0051604Y0251872D01*
X0051748Y0251792D01*
X0051890Y0251710D01*
X0052030Y0251624D01*
X0052167Y0251534D01*
X0052303Y0251441D01*
X0052436Y0251345D01*
X0052567Y0251245D01*
X0052695Y0251143D01*
X0052821Y0251037D01*
X0052944Y0250928D01*
X0053064Y0250816D01*
X0053182Y0250702D01*
X0053296Y0250584D01*
X0053408Y0250464D01*
X0053517Y0250341D01*
X0053623Y0250215D01*
X0053725Y0250087D01*
X0053825Y0249956D01*
X0053921Y0249823D01*
X0054014Y0249687D01*
X0054104Y0249550D01*
X0054190Y0249410D01*
X0054272Y0249268D01*
X0054352Y0249124D01*
X0054427Y0248978D01*
X0054499Y0248831D01*
X0054568Y0248681D01*
X0054633Y0248530D01*
X0054694Y0248378D01*
X0054751Y0248224D01*
X0054804Y0248068D01*
X0054854Y0247912D01*
X0054900Y0247754D01*
X0054941Y0247595D01*
X0054979Y0247435D01*
X0055013Y0247275D01*
X0055043Y0247113D01*
X0055070Y0246951D01*
X0055092Y0246788D01*
X0055110Y0246625D01*
X0055124Y0246461D01*
X0055134Y0246297D01*
X0055140Y0246133D01*
X0055142Y0245969D01*
X0055140Y0245805D01*
X0055134Y0245641D01*
X0055124Y0245477D01*
X0055110Y0245313D01*
X0055092Y0245150D01*
X0055070Y0244987D01*
X0055043Y0244825D01*
X0055013Y0244663D01*
X0054979Y0244503D01*
X0054941Y0244343D01*
X0054900Y0244184D01*
X0054854Y0244026D01*
X0054804Y0243870D01*
X0054751Y0243714D01*
X0054694Y0243560D01*
X0054633Y0243408D01*
X0054568Y0243257D01*
X0054499Y0243107D01*
X0054427Y0242960D01*
X0054352Y0242814D01*
X0054272Y0242670D01*
X0054190Y0242528D01*
X0054104Y0242388D01*
X0054014Y0242251D01*
X0053921Y0242115D01*
X0053825Y0241982D01*
X0053725Y0241851D01*
X0053623Y0241723D01*
X0053517Y0241597D01*
X0053408Y0241474D01*
X0053296Y0241354D01*
X0053182Y0241236D01*
X0053064Y0241122D01*
X0052944Y0241010D01*
X0052821Y0240901D01*
X0052695Y0240795D01*
X0052567Y0240693D01*
X0052436Y0240593D01*
X0052303Y0240497D01*
X0052167Y0240404D01*
X0052030Y0240314D01*
X0051890Y0240228D01*
X0051748Y0240146D01*
X0051604Y0240066D01*
X0051458Y0239991D01*
X0051311Y0239919D01*
X0051161Y0239850D01*
X0051010Y0239785D01*
X0050858Y0239724D01*
X0050704Y0239667D01*
X0050548Y0239614D01*
X0050392Y0239564D01*
X0050234Y0239518D01*
X0050075Y0239477D01*
X0049915Y0239439D01*
X0049755Y0239405D01*
X0049593Y0239375D01*
X0049431Y0239348D01*
X0049268Y0239326D01*
X0049105Y0239308D01*
X0048941Y0239294D01*
X0048777Y0239284D01*
X0048613Y0239278D01*
X0048449Y0239276D01*
X0048285Y0239278D01*
X0048121Y0239284D01*
X0047957Y0239294D01*
X0047793Y0239308D01*
X0047630Y0239326D01*
X0047467Y0239348D01*
X0047305Y0239375D01*
X0047143Y0239405D01*
X0046983Y0239439D01*
X0046823Y0239477D01*
X0046664Y0239518D01*
X0046506Y0239564D01*
X0046350Y0239614D01*
X0046194Y0239667D01*
X0046040Y0239724D01*
X0045888Y0239785D01*
X0045737Y0239850D01*
X0045587Y0239919D01*
X0045440Y0239991D01*
X0045294Y0240066D01*
X0045150Y0240146D01*
X0045008Y0240228D01*
X0044868Y0240314D01*
X0044731Y0240404D01*
X0044595Y0240497D01*
X0044462Y0240593D01*
X0044331Y0240693D01*
X0044203Y0240795D01*
X0044077Y0240901D01*
X0043954Y0241010D01*
X0043834Y0241122D01*
X0043716Y0241236D01*
X0043602Y0241354D01*
X0043490Y0241474D01*
X0043381Y0241597D01*
X0043275Y0241723D01*
X0043173Y0241851D01*
X0043073Y0241982D01*
X0042977Y0242115D01*
X0042884Y0242251D01*
X0042794Y0242388D01*
X0042708Y0242528D01*
X0042626Y0242670D01*
X0042546Y0242814D01*
X0042471Y0242960D01*
X0042399Y0243107D01*
X0042330Y0243257D01*
X0042265Y0243408D01*
X0042204Y0243560D01*
X0042147Y0243714D01*
X0042094Y0243870D01*
X0042044Y0244026D01*
X0041998Y0244184D01*
X0041957Y0244343D01*
X0041919Y0244503D01*
X0041885Y0244663D01*
X0041855Y0244825D01*
X0041828Y0244987D01*
X0041806Y0245150D01*
X0041788Y0245313D01*
X0041774Y0245477D01*
X0041764Y0245641D01*
X0041758Y0245805D01*
X0041756Y0245969D01*
X0041756Y0397543D02*
X0041758Y0397707D01*
X0041764Y0397871D01*
X0041774Y0398035D01*
X0041788Y0398199D01*
X0041806Y0398362D01*
X0041828Y0398525D01*
X0041855Y0398687D01*
X0041885Y0398849D01*
X0041919Y0399009D01*
X0041957Y0399169D01*
X0041998Y0399328D01*
X0042044Y0399486D01*
X0042094Y0399642D01*
X0042147Y0399798D01*
X0042204Y0399952D01*
X0042265Y0400104D01*
X0042330Y0400255D01*
X0042399Y0400405D01*
X0042471Y0400552D01*
X0042546Y0400698D01*
X0042626Y0400842D01*
X0042708Y0400984D01*
X0042794Y0401124D01*
X0042884Y0401261D01*
X0042977Y0401397D01*
X0043073Y0401530D01*
X0043173Y0401661D01*
X0043275Y0401789D01*
X0043381Y0401915D01*
X0043490Y0402038D01*
X0043602Y0402158D01*
X0043716Y0402276D01*
X0043834Y0402390D01*
X0043954Y0402502D01*
X0044077Y0402611D01*
X0044203Y0402717D01*
X0044331Y0402819D01*
X0044462Y0402919D01*
X0044595Y0403015D01*
X0044731Y0403108D01*
X0044868Y0403198D01*
X0045008Y0403284D01*
X0045150Y0403366D01*
X0045294Y0403446D01*
X0045440Y0403521D01*
X0045587Y0403593D01*
X0045737Y0403662D01*
X0045888Y0403727D01*
X0046040Y0403788D01*
X0046194Y0403845D01*
X0046350Y0403898D01*
X0046506Y0403948D01*
X0046664Y0403994D01*
X0046823Y0404035D01*
X0046983Y0404073D01*
X0047143Y0404107D01*
X0047305Y0404137D01*
X0047467Y0404164D01*
X0047630Y0404186D01*
X0047793Y0404204D01*
X0047957Y0404218D01*
X0048121Y0404228D01*
X0048285Y0404234D01*
X0048449Y0404236D01*
X0048613Y0404234D01*
X0048777Y0404228D01*
X0048941Y0404218D01*
X0049105Y0404204D01*
X0049268Y0404186D01*
X0049431Y0404164D01*
X0049593Y0404137D01*
X0049755Y0404107D01*
X0049915Y0404073D01*
X0050075Y0404035D01*
X0050234Y0403994D01*
X0050392Y0403948D01*
X0050548Y0403898D01*
X0050704Y0403845D01*
X0050858Y0403788D01*
X0051010Y0403727D01*
X0051161Y0403662D01*
X0051311Y0403593D01*
X0051458Y0403521D01*
X0051604Y0403446D01*
X0051748Y0403366D01*
X0051890Y0403284D01*
X0052030Y0403198D01*
X0052167Y0403108D01*
X0052303Y0403015D01*
X0052436Y0402919D01*
X0052567Y0402819D01*
X0052695Y0402717D01*
X0052821Y0402611D01*
X0052944Y0402502D01*
X0053064Y0402390D01*
X0053182Y0402276D01*
X0053296Y0402158D01*
X0053408Y0402038D01*
X0053517Y0401915D01*
X0053623Y0401789D01*
X0053725Y0401661D01*
X0053825Y0401530D01*
X0053921Y0401397D01*
X0054014Y0401261D01*
X0054104Y0401124D01*
X0054190Y0400984D01*
X0054272Y0400842D01*
X0054352Y0400698D01*
X0054427Y0400552D01*
X0054499Y0400405D01*
X0054568Y0400255D01*
X0054633Y0400104D01*
X0054694Y0399952D01*
X0054751Y0399798D01*
X0054804Y0399642D01*
X0054854Y0399486D01*
X0054900Y0399328D01*
X0054941Y0399169D01*
X0054979Y0399009D01*
X0055013Y0398849D01*
X0055043Y0398687D01*
X0055070Y0398525D01*
X0055092Y0398362D01*
X0055110Y0398199D01*
X0055124Y0398035D01*
X0055134Y0397871D01*
X0055140Y0397707D01*
X0055142Y0397543D01*
X0055140Y0397379D01*
X0055134Y0397215D01*
X0055124Y0397051D01*
X0055110Y0396887D01*
X0055092Y0396724D01*
X0055070Y0396561D01*
X0055043Y0396399D01*
X0055013Y0396237D01*
X0054979Y0396077D01*
X0054941Y0395917D01*
X0054900Y0395758D01*
X0054854Y0395600D01*
X0054804Y0395444D01*
X0054751Y0395288D01*
X0054694Y0395134D01*
X0054633Y0394982D01*
X0054568Y0394831D01*
X0054499Y0394681D01*
X0054427Y0394534D01*
X0054352Y0394388D01*
X0054272Y0394244D01*
X0054190Y0394102D01*
X0054104Y0393962D01*
X0054014Y0393825D01*
X0053921Y0393689D01*
X0053825Y0393556D01*
X0053725Y0393425D01*
X0053623Y0393297D01*
X0053517Y0393171D01*
X0053408Y0393048D01*
X0053296Y0392928D01*
X0053182Y0392810D01*
X0053064Y0392696D01*
X0052944Y0392584D01*
X0052821Y0392475D01*
X0052695Y0392369D01*
X0052567Y0392267D01*
X0052436Y0392167D01*
X0052303Y0392071D01*
X0052167Y0391978D01*
X0052030Y0391888D01*
X0051890Y0391802D01*
X0051748Y0391720D01*
X0051604Y0391640D01*
X0051458Y0391565D01*
X0051311Y0391493D01*
X0051161Y0391424D01*
X0051010Y0391359D01*
X0050858Y0391298D01*
X0050704Y0391241D01*
X0050548Y0391188D01*
X0050392Y0391138D01*
X0050234Y0391092D01*
X0050075Y0391051D01*
X0049915Y0391013D01*
X0049755Y0390979D01*
X0049593Y0390949D01*
X0049431Y0390922D01*
X0049268Y0390900D01*
X0049105Y0390882D01*
X0048941Y0390868D01*
X0048777Y0390858D01*
X0048613Y0390852D01*
X0048449Y0390850D01*
X0048285Y0390852D01*
X0048121Y0390858D01*
X0047957Y0390868D01*
X0047793Y0390882D01*
X0047630Y0390900D01*
X0047467Y0390922D01*
X0047305Y0390949D01*
X0047143Y0390979D01*
X0046983Y0391013D01*
X0046823Y0391051D01*
X0046664Y0391092D01*
X0046506Y0391138D01*
X0046350Y0391188D01*
X0046194Y0391241D01*
X0046040Y0391298D01*
X0045888Y0391359D01*
X0045737Y0391424D01*
X0045587Y0391493D01*
X0045440Y0391565D01*
X0045294Y0391640D01*
X0045150Y0391720D01*
X0045008Y0391802D01*
X0044868Y0391888D01*
X0044731Y0391978D01*
X0044595Y0392071D01*
X0044462Y0392167D01*
X0044331Y0392267D01*
X0044203Y0392369D01*
X0044077Y0392475D01*
X0043954Y0392584D01*
X0043834Y0392696D01*
X0043716Y0392810D01*
X0043602Y0392928D01*
X0043490Y0393048D01*
X0043381Y0393171D01*
X0043275Y0393297D01*
X0043173Y0393425D01*
X0043073Y0393556D01*
X0042977Y0393689D01*
X0042884Y0393825D01*
X0042794Y0393962D01*
X0042708Y0394102D01*
X0042626Y0394244D01*
X0042546Y0394388D01*
X0042471Y0394534D01*
X0042399Y0394681D01*
X0042330Y0394831D01*
X0042265Y0394982D01*
X0042204Y0395134D01*
X0042147Y0395288D01*
X0042094Y0395444D01*
X0042044Y0395600D01*
X0041998Y0395758D01*
X0041957Y0395917D01*
X0041919Y0396077D01*
X0041885Y0396237D01*
X0041855Y0396399D01*
X0041828Y0396561D01*
X0041806Y0396724D01*
X0041788Y0396887D01*
X0041774Y0397051D01*
X0041764Y0397215D01*
X0041758Y0397379D01*
X0041756Y0397543D01*
M02*
