G75*
%MOIN*%
%OFA0B0*%
%FSLAX25Y25*%
%IPPOS*%
%LPD*%
%AMOC8*
5,1,8,0,0,1.08239X$1,22.5*
%
%ADD10C,0.00400*%
%ADD11C,0.00100*%
%ADD12C,0.00500*%
%ADD13R,0.01575X0.01181*%
%ADD14C,0.00800*%
%ADD15C,0.00300*%
D10*
X0201881Y0213023D02*
X0201114Y0213790D01*
X0201114Y0215325D01*
X0201881Y0216092D01*
X0201881Y0217627D02*
X0202649Y0217627D01*
X0203416Y0218394D01*
X0203416Y0219929D01*
X0202649Y0220696D01*
X0201881Y0220696D01*
X0201114Y0219929D01*
X0201114Y0218394D01*
X0201881Y0217627D01*
X0203416Y0218394D02*
X0204183Y0217627D01*
X0204950Y0217627D01*
X0205718Y0218394D01*
X0205718Y0219929D01*
X0204950Y0220696D01*
X0204183Y0220696D01*
X0203416Y0219929D01*
X0204950Y0216092D02*
X0205718Y0215325D01*
X0205718Y0213790D01*
X0204950Y0213023D01*
X0201881Y0213023D01*
X0256614Y0183283D02*
X0261218Y0183283D01*
X0258916Y0180981D01*
X0258916Y0184050D01*
X0256614Y0179446D02*
X0256614Y0176377D01*
X0256614Y0177911D02*
X0261218Y0177911D01*
X0259683Y0176377D01*
X0260450Y0174842D02*
X0261218Y0174075D01*
X0261218Y0172540D01*
X0260450Y0171773D01*
X0257381Y0171773D01*
X0256614Y0172540D01*
X0256614Y0174075D01*
X0257381Y0174842D01*
X0261937Y0175359D02*
X0261937Y0176127D01*
X0265006Y0176127D01*
X0268075Y0176127D02*
X0268075Y0171523D01*
X0266541Y0171523D02*
X0269610Y0171523D01*
X0271145Y0172290D02*
X0271912Y0171523D01*
X0273447Y0171523D01*
X0274214Y0172290D01*
X0274214Y0175359D01*
X0273447Y0176127D01*
X0271912Y0176127D01*
X0271145Y0175359D01*
X0269610Y0174592D02*
X0268075Y0176127D01*
X0265006Y0172290D02*
X0261937Y0175359D01*
X0265006Y0172290D02*
X0265006Y0171523D01*
X0285687Y0179773D02*
X0288756Y0179773D01*
X0287221Y0179773D02*
X0287221Y0184377D01*
X0288756Y0182842D01*
X0290291Y0182842D02*
X0290291Y0183609D01*
X0291058Y0184377D01*
X0292593Y0184377D01*
X0293360Y0183609D01*
X0294895Y0183609D02*
X0295662Y0184377D01*
X0297197Y0184377D01*
X0297964Y0183609D01*
X0297964Y0180540D01*
X0297197Y0179773D01*
X0295662Y0179773D01*
X0294895Y0180540D01*
X0293360Y0179773D02*
X0290291Y0179773D01*
X0293360Y0179773D02*
X0290291Y0182842D01*
X0316937Y0180609D02*
X0316937Y0179842D01*
X0320006Y0176773D01*
X0316937Y0176773D01*
X0316937Y0180609D02*
X0317704Y0181377D01*
X0319239Y0181377D01*
X0320006Y0180609D01*
X0321541Y0180609D02*
X0321541Y0179842D01*
X0324610Y0176773D01*
X0321541Y0176773D01*
X0321541Y0180609D02*
X0322308Y0181377D01*
X0323843Y0181377D01*
X0324610Y0180609D01*
X0326145Y0180609D02*
X0326912Y0181377D01*
X0328447Y0181377D01*
X0329214Y0180609D01*
X0329214Y0177540D01*
X0328447Y0176773D01*
X0326912Y0176773D01*
X0326145Y0177540D01*
X0216218Y0273582D02*
X0215450Y0272815D01*
X0212381Y0272815D01*
X0211614Y0273582D01*
X0211614Y0275117D01*
X0212381Y0275884D01*
X0212381Y0277419D02*
X0211614Y0278186D01*
X0211614Y0279721D01*
X0212381Y0280488D01*
X0213149Y0280488D01*
X0213916Y0279721D01*
X0213916Y0277419D01*
X0212381Y0277419D01*
X0213916Y0277419D02*
X0215450Y0278954D01*
X0216218Y0280488D01*
X0215450Y0275884D02*
X0216218Y0275117D01*
X0216218Y0273582D01*
X0266499Y0297540D02*
X0267266Y0296773D01*
X0268801Y0296773D01*
X0269568Y0297540D01*
X0271102Y0297540D02*
X0271870Y0296773D01*
X0273404Y0296773D01*
X0274172Y0297540D01*
X0274172Y0300609D01*
X0273404Y0301377D01*
X0271870Y0301377D01*
X0271102Y0300609D01*
X0269568Y0300609D02*
X0269568Y0299842D01*
X0268801Y0299075D01*
X0266499Y0299075D01*
X0266499Y0300609D02*
X0267266Y0301377D01*
X0268801Y0301377D01*
X0269568Y0300609D01*
X0266499Y0300609D02*
X0266499Y0297540D01*
X0286249Y0306790D02*
X0287016Y0306023D01*
X0288551Y0306023D01*
X0289318Y0306790D01*
X0286249Y0309859D01*
X0286249Y0306790D01*
X0289318Y0306790D02*
X0289318Y0309859D01*
X0288551Y0310627D01*
X0287016Y0310627D01*
X0286249Y0309859D01*
X0290852Y0306023D02*
X0293922Y0306023D01*
X0292387Y0306023D02*
X0292387Y0310627D01*
X0293922Y0309092D01*
X0295456Y0309859D02*
X0296224Y0310627D01*
X0297758Y0310627D01*
X0298526Y0309859D01*
X0298526Y0306790D01*
X0297758Y0306023D01*
X0296224Y0306023D01*
X0295456Y0306790D01*
X0318114Y0307075D02*
X0318881Y0307842D01*
X0318114Y0307075D02*
X0318114Y0305540D01*
X0318881Y0304773D01*
X0321950Y0304773D01*
X0322718Y0305540D01*
X0322718Y0307075D01*
X0321950Y0307842D01*
X0321183Y0309377D02*
X0322718Y0310911D01*
X0318114Y0310911D01*
X0318114Y0309377D02*
X0318114Y0312446D01*
X0318114Y0313981D02*
X0318114Y0317050D01*
X0318114Y0315515D02*
X0322718Y0315515D01*
X0321183Y0313981D01*
X0356864Y0313978D02*
X0356864Y0315513D01*
X0357631Y0316280D01*
X0356864Y0317815D02*
X0356864Y0320884D01*
X0356864Y0319350D02*
X0361468Y0319350D01*
X0359933Y0317815D01*
X0360700Y0316280D02*
X0361468Y0315513D01*
X0361468Y0313978D01*
X0360700Y0313211D01*
X0357631Y0313211D01*
X0356864Y0313978D01*
X0357631Y0322419D02*
X0356864Y0323186D01*
X0356864Y0324721D01*
X0357631Y0325488D01*
X0358399Y0325488D01*
X0359166Y0324721D01*
X0359166Y0323954D01*
X0359166Y0324721D02*
X0359933Y0325488D01*
X0360700Y0325488D01*
X0361468Y0324721D01*
X0361468Y0323186D01*
X0360700Y0322419D01*
X0441182Y0234528D02*
X0441182Y0228389D01*
X0440415Y0229157D02*
X0439648Y0229924D01*
X0439648Y0230691D01*
X0440415Y0231459D01*
X0441950Y0231459D01*
X0442717Y0232226D01*
X0442717Y0232993D01*
X0441950Y0233761D01*
X0440415Y0233761D01*
X0439648Y0232993D01*
X0438113Y0232993D02*
X0437346Y0233761D01*
X0435811Y0233761D01*
X0435044Y0232993D01*
X0435044Y0232226D01*
X0435811Y0231459D01*
X0435044Y0230691D01*
X0435044Y0229924D01*
X0435811Y0229157D01*
X0437346Y0229157D01*
X0438113Y0229924D01*
X0436578Y0231459D02*
X0435811Y0231459D01*
X0440415Y0229157D02*
X0441950Y0229157D01*
X0442717Y0229924D01*
X0444252Y0229924D02*
X0444252Y0233761D01*
X0447321Y0233761D02*
X0447321Y0229924D01*
X0446554Y0229157D01*
X0445019Y0229157D01*
X0444252Y0229924D01*
X0249714Y0410790D02*
X0248947Y0410023D01*
X0247412Y0410023D01*
X0246645Y0410790D01*
X0245110Y0412325D02*
X0242041Y0412325D01*
X0242808Y0414627D02*
X0245110Y0412325D01*
X0246645Y0413859D02*
X0247412Y0414627D01*
X0248947Y0414627D01*
X0249714Y0413859D01*
X0249714Y0410790D01*
X0242808Y0410023D02*
X0242808Y0414627D01*
X0216010Y0411402D02*
X0211407Y0411402D01*
X0211407Y0409868D02*
X0211407Y0412937D01*
X0214476Y0409868D02*
X0216010Y0411402D01*
X0215243Y0408333D02*
X0216010Y0407566D01*
X0216010Y0406031D01*
X0215243Y0405264D01*
X0212174Y0405264D01*
X0211407Y0406031D01*
X0211407Y0407566D01*
X0212174Y0408333D01*
X0211407Y0403729D02*
X0211407Y0402194D01*
X0211407Y0402962D02*
X0216010Y0402962D01*
X0216010Y0403729D02*
X0216010Y0402194D01*
X0139276Y0369109D02*
X0139276Y0366040D01*
X0138508Y0365273D01*
X0136974Y0365273D01*
X0136206Y0366040D01*
X0134672Y0365273D02*
X0131602Y0365273D01*
X0133137Y0365273D02*
X0133137Y0369877D01*
X0134672Y0368342D01*
X0136206Y0369109D02*
X0136974Y0369877D01*
X0138508Y0369877D01*
X0139276Y0369109D01*
X0130068Y0369109D02*
X0130068Y0368342D01*
X0129301Y0367575D01*
X0127766Y0367575D01*
X0126999Y0366807D01*
X0126999Y0366040D01*
X0127766Y0365273D01*
X0129301Y0365273D01*
X0130068Y0366040D01*
X0130068Y0366807D01*
X0129301Y0367575D01*
X0127766Y0367575D02*
X0126999Y0368342D01*
X0126999Y0369109D01*
X0127766Y0369877D01*
X0129301Y0369877D01*
X0130068Y0369109D01*
X0128568Y0421582D02*
X0127033Y0421582D01*
X0127801Y0421582D02*
X0127801Y0426186D01*
X0128568Y0426186D02*
X0127033Y0426186D01*
X0125499Y0425419D02*
X0125499Y0422349D01*
X0124731Y0421582D01*
X0123197Y0421582D01*
X0122429Y0422349D01*
X0120895Y0422349D02*
X0120127Y0421582D01*
X0118593Y0421582D01*
X0117825Y0422349D01*
X0117825Y0423884D01*
X0118593Y0424651D01*
X0119360Y0424651D01*
X0120895Y0423884D01*
X0120895Y0426186D01*
X0117825Y0426186D01*
X0122429Y0425419D02*
X0123197Y0426186D01*
X0124731Y0426186D01*
X0125499Y0425419D01*
X0046968Y0364971D02*
X0044666Y0362669D01*
X0044666Y0365738D01*
X0042364Y0364971D02*
X0046968Y0364971D01*
X0046200Y0361134D02*
X0046968Y0360367D01*
X0046968Y0358832D01*
X0046200Y0358065D01*
X0046200Y0356530D02*
X0046968Y0355763D01*
X0046968Y0354228D01*
X0046200Y0353461D01*
X0045433Y0353461D01*
X0044666Y0354228D01*
X0044666Y0355763D01*
X0043899Y0356530D01*
X0043131Y0356530D01*
X0042364Y0355763D01*
X0042364Y0354228D01*
X0043131Y0353461D01*
X0043131Y0351926D02*
X0046968Y0351926D01*
X0046968Y0348857D02*
X0043131Y0348857D01*
X0042364Y0349624D01*
X0042364Y0351159D01*
X0043131Y0351926D01*
X0041597Y0354996D02*
X0047735Y0354996D01*
X0042364Y0358065D02*
X0045433Y0361134D01*
X0046200Y0361134D01*
X0042364Y0361134D02*
X0042364Y0358065D01*
X0041635Y0337377D02*
X0040100Y0337377D01*
X0039333Y0336609D01*
X0039333Y0335842D01*
X0040100Y0335075D01*
X0039333Y0334307D01*
X0039333Y0333540D01*
X0040100Y0332773D01*
X0041635Y0332773D01*
X0042402Y0333540D01*
X0043937Y0332773D02*
X0047006Y0332773D01*
X0043937Y0335842D01*
X0043937Y0336609D01*
X0044704Y0337377D01*
X0046239Y0337377D01*
X0047006Y0336609D01*
X0048541Y0336609D02*
X0049308Y0337377D01*
X0050843Y0337377D01*
X0051610Y0336609D01*
X0051610Y0335842D01*
X0050843Y0335075D01*
X0049308Y0335075D01*
X0048541Y0334307D01*
X0048541Y0333540D01*
X0049308Y0332773D01*
X0050843Y0332773D01*
X0051610Y0333540D01*
X0053145Y0333540D02*
X0053145Y0337377D01*
X0056214Y0337377D02*
X0056214Y0333540D01*
X0055447Y0332773D01*
X0053912Y0332773D01*
X0053145Y0333540D01*
X0050075Y0332006D02*
X0050075Y0338144D01*
X0042402Y0336609D02*
X0041635Y0337377D01*
X0040867Y0335075D02*
X0040100Y0335075D01*
X0053991Y0273394D02*
X0053991Y0267256D01*
X0053224Y0268023D02*
X0052456Y0268790D01*
X0052456Y0269557D01*
X0053224Y0270325D01*
X0054758Y0270325D01*
X0055526Y0271092D01*
X0055526Y0271859D01*
X0054758Y0272627D01*
X0053224Y0272627D01*
X0052456Y0271859D01*
X0050922Y0271859D02*
X0050154Y0272627D01*
X0048620Y0272627D01*
X0047852Y0271859D01*
X0047852Y0271092D01*
X0050922Y0268023D01*
X0047852Y0268023D01*
X0046318Y0268023D02*
X0043249Y0271092D01*
X0043249Y0271859D01*
X0044016Y0272627D01*
X0045551Y0272627D01*
X0046318Y0271859D01*
X0046318Y0268023D02*
X0043249Y0268023D01*
X0053224Y0268023D02*
X0054758Y0268023D01*
X0055526Y0268790D01*
X0057060Y0268790D02*
X0057828Y0268023D01*
X0059362Y0268023D01*
X0060130Y0268790D01*
X0060130Y0272627D01*
X0057060Y0272627D02*
X0057060Y0268790D01*
X0135114Y0223221D02*
X0135114Y0221686D01*
X0135881Y0220919D01*
X0135881Y0219384D02*
X0135114Y0218617D01*
X0135114Y0217082D01*
X0135881Y0216315D01*
X0138950Y0216315D01*
X0139718Y0217082D01*
X0139718Y0218617D01*
X0138950Y0219384D01*
X0139718Y0220919D02*
X0137416Y0220919D01*
X0138183Y0222454D01*
X0138183Y0223221D01*
X0137416Y0223988D01*
X0135881Y0223988D01*
X0135114Y0223221D01*
X0139718Y0223988D02*
X0139718Y0220919D01*
X0158381Y0271815D02*
X0157614Y0272582D01*
X0157614Y0274117D01*
X0158381Y0274884D01*
X0158381Y0276419D02*
X0157614Y0276419D01*
X0158381Y0276419D02*
X0161450Y0279488D01*
X0162218Y0279488D01*
X0162218Y0276419D01*
X0161450Y0274884D02*
X0162218Y0274117D01*
X0162218Y0272582D01*
X0161450Y0271815D01*
X0158381Y0271815D01*
D11*
X0159464Y0152873D02*
X0160965Y0152873D01*
X0160965Y0153623D01*
X0160715Y0153874D01*
X0160215Y0153874D01*
X0159964Y0153623D01*
X0159964Y0152873D01*
X0159964Y0153373D02*
X0159464Y0153874D01*
X0160215Y0154346D02*
X0160215Y0155347D01*
X0160715Y0155819D02*
X0160965Y0156070D01*
X0160965Y0156570D01*
X0160715Y0156820D01*
X0159714Y0155819D01*
X0159464Y0156070D01*
X0159464Y0156570D01*
X0159714Y0156820D01*
X0160715Y0156820D01*
X0160715Y0155819D02*
X0159714Y0155819D01*
X0159464Y0155097D02*
X0160965Y0155097D01*
X0160215Y0154346D01*
X0161864Y0154454D02*
X0162364Y0153953D01*
X0162364Y0154204D02*
X0162364Y0153453D01*
X0161864Y0153453D02*
X0163365Y0153453D01*
X0163365Y0154204D01*
X0163115Y0154454D01*
X0162615Y0154454D01*
X0162364Y0154204D01*
X0162114Y0154926D02*
X0161864Y0155177D01*
X0161864Y0155677D01*
X0162114Y0155927D01*
X0162364Y0155927D01*
X0162615Y0155677D01*
X0162615Y0155427D01*
X0162615Y0155677D02*
X0162865Y0155927D01*
X0163115Y0155927D01*
X0163365Y0155677D01*
X0163365Y0155177D01*
X0163115Y0154926D01*
X0163115Y0156400D02*
X0162865Y0156400D01*
X0162615Y0156650D01*
X0162615Y0157400D01*
X0163115Y0157400D02*
X0163365Y0157150D01*
X0163365Y0156650D01*
X0163115Y0156400D01*
X0163115Y0157400D02*
X0162114Y0157400D01*
X0161864Y0157150D01*
X0161864Y0156650D01*
X0162114Y0156400D01*
X0242464Y0129570D02*
X0242714Y0129820D01*
X0242964Y0129820D01*
X0243215Y0129570D01*
X0243215Y0128819D01*
X0242714Y0128819D01*
X0242464Y0129070D01*
X0242464Y0129570D01*
X0243215Y0128819D02*
X0243715Y0129320D01*
X0243965Y0129820D01*
X0244864Y0129650D02*
X0245114Y0129400D01*
X0244864Y0129650D02*
X0244864Y0130150D01*
X0245114Y0130400D01*
X0245615Y0130400D01*
X0245865Y0130150D01*
X0245865Y0129900D01*
X0245615Y0129400D01*
X0246365Y0129400D01*
X0246365Y0130400D01*
X0246115Y0128927D02*
X0246365Y0128677D01*
X0246365Y0128177D01*
X0246115Y0127926D01*
X0246115Y0127454D02*
X0245615Y0127454D01*
X0245364Y0127204D01*
X0245364Y0126453D01*
X0244864Y0126453D02*
X0246365Y0126453D01*
X0246365Y0127204D01*
X0246115Y0127454D01*
X0245364Y0126953D02*
X0244864Y0127454D01*
X0244864Y0127926D02*
X0245865Y0128927D01*
X0246115Y0128927D01*
X0244864Y0128927D02*
X0244864Y0127926D01*
X0243965Y0128097D02*
X0243965Y0127596D01*
X0243715Y0127346D01*
X0243715Y0126874D02*
X0243215Y0126874D01*
X0242964Y0126623D01*
X0242964Y0125873D01*
X0242464Y0125873D02*
X0243965Y0125873D01*
X0243965Y0126623D01*
X0243715Y0126874D01*
X0242964Y0126373D02*
X0242464Y0126874D01*
X0242464Y0127346D02*
X0243465Y0128347D01*
X0243715Y0128347D01*
X0243965Y0128097D01*
X0242464Y0128347D02*
X0242464Y0127346D01*
X0268964Y0127346D02*
X0269965Y0128347D01*
X0270215Y0128347D01*
X0270465Y0128097D01*
X0270465Y0127596D01*
X0270215Y0127346D01*
X0270215Y0126874D02*
X0269715Y0126874D01*
X0269464Y0126623D01*
X0269464Y0125873D01*
X0268964Y0125873D02*
X0270465Y0125873D01*
X0270465Y0126623D01*
X0270215Y0126874D01*
X0270864Y0126453D02*
X0272365Y0126453D01*
X0272365Y0127204D01*
X0272115Y0127454D01*
X0271615Y0127454D01*
X0271364Y0127204D01*
X0271364Y0126453D01*
X0271364Y0126953D02*
X0270864Y0127454D01*
X0270864Y0127926D02*
X0271865Y0128927D01*
X0272115Y0128927D01*
X0272365Y0128677D01*
X0272365Y0128177D01*
X0272115Y0127926D01*
X0270864Y0127926D02*
X0270864Y0128927D01*
X0270465Y0129070D02*
X0270465Y0129570D01*
X0270215Y0129820D01*
X0269965Y0129820D01*
X0269715Y0129570D01*
X0269715Y0129070D01*
X0269965Y0128819D01*
X0270215Y0128819D01*
X0270465Y0129070D01*
X0270864Y0129400D02*
X0271114Y0129400D01*
X0272115Y0130400D01*
X0272365Y0130400D01*
X0272365Y0129400D01*
X0269715Y0129570D02*
X0269464Y0129820D01*
X0269214Y0129820D01*
X0268964Y0129570D01*
X0268964Y0129070D01*
X0269214Y0128819D01*
X0269464Y0128819D01*
X0269715Y0129070D01*
X0268964Y0128347D02*
X0268964Y0127346D01*
X0268964Y0126874D02*
X0269464Y0126373D01*
X0297464Y0126874D02*
X0297964Y0126373D01*
X0297964Y0126623D02*
X0297964Y0125873D01*
X0297464Y0125873D02*
X0298965Y0125873D01*
X0298965Y0126623D01*
X0298715Y0126874D01*
X0298215Y0126874D01*
X0297964Y0126623D01*
X0297714Y0127346D02*
X0297464Y0127596D01*
X0297464Y0128097D01*
X0297714Y0128347D01*
X0297964Y0128347D01*
X0298215Y0128097D01*
X0298215Y0127847D01*
X0298215Y0128097D02*
X0298465Y0128347D01*
X0298715Y0128347D01*
X0298965Y0128097D01*
X0298965Y0127596D01*
X0298715Y0127346D01*
X0299864Y0127454D02*
X0300364Y0126953D01*
X0300364Y0127204D02*
X0300364Y0126453D01*
X0299864Y0126453D02*
X0301365Y0126453D01*
X0301365Y0127204D01*
X0301115Y0127454D01*
X0300615Y0127454D01*
X0300364Y0127204D01*
X0299864Y0127926D02*
X0300865Y0128927D01*
X0301115Y0128927D01*
X0301365Y0128677D01*
X0301365Y0128177D01*
X0301115Y0127926D01*
X0299864Y0127926D02*
X0299864Y0128927D01*
X0300114Y0129400D02*
X0299864Y0129650D01*
X0299864Y0130150D01*
X0300114Y0130400D01*
X0301115Y0130400D01*
X0301365Y0130150D01*
X0301365Y0129650D01*
X0301115Y0129400D01*
X0300865Y0129400D01*
X0300615Y0129650D01*
X0300615Y0130400D01*
X0298965Y0129570D02*
X0298715Y0129820D01*
X0297714Y0128819D01*
X0297464Y0129070D01*
X0297464Y0129570D01*
X0297714Y0129820D01*
X0298715Y0129820D01*
X0298965Y0129570D02*
X0298965Y0129070D01*
X0298715Y0128819D01*
X0297714Y0128819D01*
X0332964Y0128819D02*
X0333965Y0129820D01*
X0334215Y0129820D01*
X0334465Y0129570D01*
X0334465Y0129070D01*
X0334215Y0128819D01*
X0334215Y0128347D02*
X0333965Y0128347D01*
X0333715Y0128097D01*
X0333464Y0128347D01*
X0333214Y0128347D01*
X0332964Y0128097D01*
X0332964Y0127596D01*
X0333214Y0127346D01*
X0332964Y0126874D02*
X0333464Y0126373D01*
X0333464Y0126623D02*
X0333464Y0125873D01*
X0332964Y0125873D02*
X0334465Y0125873D01*
X0334465Y0126623D01*
X0334215Y0126874D01*
X0333715Y0126874D01*
X0333464Y0126623D01*
X0334215Y0127346D02*
X0334465Y0127596D01*
X0334465Y0128097D01*
X0334215Y0128347D01*
X0333715Y0128097D02*
X0333715Y0127847D01*
X0334864Y0128177D02*
X0335114Y0127926D01*
X0334864Y0128177D02*
X0334864Y0128677D01*
X0335114Y0128927D01*
X0335364Y0128927D01*
X0335615Y0128677D01*
X0335615Y0128427D01*
X0335615Y0128677D02*
X0335865Y0128927D01*
X0336115Y0128927D01*
X0336365Y0128677D01*
X0336365Y0128177D01*
X0336115Y0127926D01*
X0336115Y0127454D02*
X0335615Y0127454D01*
X0335364Y0127204D01*
X0335364Y0126453D01*
X0334864Y0126453D02*
X0336365Y0126453D01*
X0336365Y0127204D01*
X0336115Y0127454D01*
X0335364Y0126953D02*
X0334864Y0127454D01*
X0334864Y0129400D02*
X0334864Y0130400D01*
X0334864Y0129900D02*
X0336365Y0129900D01*
X0335865Y0129400D01*
X0332964Y0129820D02*
X0332964Y0128819D01*
X0122465Y0315873D02*
X0122465Y0316874D01*
X0121965Y0317346D02*
X0122465Y0317847D01*
X0120964Y0317847D01*
X0120964Y0318347D02*
X0120964Y0317346D01*
X0121715Y0316373D02*
X0121715Y0315873D01*
X0122465Y0315873D02*
X0120964Y0315873D01*
X0167464Y0349873D02*
X0168965Y0349873D01*
X0168965Y0350623D01*
X0168715Y0350874D01*
X0168215Y0350874D01*
X0167964Y0350623D01*
X0167964Y0349873D01*
X0167964Y0350373D02*
X0167464Y0350874D01*
X0167714Y0351346D02*
X0167464Y0351596D01*
X0167464Y0352097D01*
X0167714Y0352347D01*
X0167964Y0352347D01*
X0168215Y0352097D01*
X0168215Y0351847D01*
X0168215Y0352097D02*
X0168465Y0352347D01*
X0168715Y0352347D01*
X0168965Y0352097D01*
X0168965Y0351596D01*
X0168715Y0351346D01*
X0168965Y0352819D02*
X0168215Y0352819D01*
X0168465Y0353320D01*
X0168465Y0353570D01*
X0168215Y0353820D01*
X0167714Y0353820D01*
X0167464Y0353570D01*
X0167464Y0353070D01*
X0167714Y0352819D01*
X0168965Y0352819D02*
X0168965Y0353820D01*
X0159465Y0357373D02*
X0159465Y0358123D01*
X0159215Y0358374D01*
X0158715Y0358374D01*
X0158464Y0358123D01*
X0158464Y0357373D01*
X0157964Y0357373D02*
X0159465Y0357373D01*
X0158464Y0357873D02*
X0157964Y0358374D01*
X0158214Y0358846D02*
X0157964Y0359096D01*
X0157964Y0359597D01*
X0158214Y0359847D01*
X0158464Y0359847D01*
X0158715Y0359597D01*
X0158715Y0359347D01*
X0158715Y0359597D02*
X0158965Y0359847D01*
X0159215Y0359847D01*
X0159465Y0359597D01*
X0159465Y0359096D01*
X0159215Y0358846D01*
X0158715Y0360319D02*
X0158715Y0361070D01*
X0158464Y0361320D01*
X0158214Y0361320D01*
X0157964Y0361070D01*
X0157964Y0360570D01*
X0158214Y0360319D01*
X0158715Y0360319D01*
X0159215Y0360820D01*
X0159465Y0361320D01*
X0184714Y0377123D02*
X0186215Y0377123D01*
X0186215Y0377873D01*
X0185965Y0378124D01*
X0185465Y0378124D01*
X0185214Y0377873D01*
X0185214Y0377123D01*
X0185214Y0377623D02*
X0184714Y0378124D01*
X0184714Y0378596D02*
X0184964Y0378596D01*
X0185965Y0379597D01*
X0186215Y0379597D01*
X0186215Y0378596D01*
X0203964Y0378374D02*
X0204464Y0377873D01*
X0204464Y0378123D02*
X0204464Y0377373D01*
X0203964Y0377373D02*
X0205465Y0377373D01*
X0205465Y0378123D01*
X0205215Y0378374D01*
X0204715Y0378374D01*
X0204464Y0378123D01*
X0203964Y0378846D02*
X0204965Y0379847D01*
X0205215Y0379847D01*
X0205465Y0379597D01*
X0205465Y0379096D01*
X0205215Y0378846D01*
X0203964Y0378846D02*
X0203964Y0379847D01*
X0214114Y0354400D02*
X0213864Y0354150D01*
X0213864Y0353650D01*
X0214114Y0353400D01*
X0214364Y0353400D01*
X0214615Y0353650D01*
X0214615Y0354150D01*
X0214364Y0354400D01*
X0214114Y0354400D01*
X0214615Y0354150D02*
X0214865Y0354400D01*
X0215115Y0354400D01*
X0215365Y0354150D01*
X0215365Y0353650D01*
X0215115Y0353400D01*
X0214865Y0353400D01*
X0214615Y0353650D01*
X0214865Y0352927D02*
X0214615Y0352677D01*
X0214364Y0352927D01*
X0214114Y0352927D01*
X0213864Y0352677D01*
X0213864Y0352177D01*
X0214114Y0351926D01*
X0213864Y0351454D02*
X0214364Y0350953D01*
X0214364Y0351204D02*
X0214364Y0350453D01*
X0213864Y0350453D02*
X0215365Y0350453D01*
X0215365Y0351204D01*
X0215115Y0351454D01*
X0214615Y0351454D01*
X0214364Y0351204D01*
X0215115Y0351926D02*
X0215365Y0352177D01*
X0215365Y0352677D01*
X0215115Y0352927D01*
X0214865Y0352927D01*
X0214615Y0352677D02*
X0214615Y0352427D01*
X0229464Y0352097D02*
X0229464Y0351596D01*
X0229714Y0351346D01*
X0229464Y0350874D02*
X0229964Y0350373D01*
X0229964Y0350623D02*
X0229964Y0349873D01*
X0229464Y0349873D02*
X0230965Y0349873D01*
X0230965Y0350623D01*
X0230715Y0350874D01*
X0230215Y0350874D01*
X0229964Y0350623D01*
X0230715Y0351346D02*
X0230965Y0351596D01*
X0230965Y0352097D01*
X0230715Y0352347D01*
X0230465Y0352347D01*
X0230215Y0352097D01*
X0229964Y0352347D01*
X0229714Y0352347D01*
X0229464Y0352097D01*
X0229464Y0352819D02*
X0229714Y0352819D01*
X0230715Y0353820D01*
X0230965Y0353820D01*
X0230965Y0352819D01*
X0230215Y0352097D02*
X0230215Y0351847D01*
X0232864Y0378453D02*
X0234365Y0378453D01*
X0234365Y0379204D01*
X0234115Y0379454D01*
X0233615Y0379454D01*
X0233364Y0379204D01*
X0233364Y0378453D01*
X0233364Y0378953D02*
X0232864Y0379454D01*
X0232864Y0379926D02*
X0232864Y0380927D01*
X0232864Y0380427D02*
X0234365Y0380427D01*
X0233865Y0379926D01*
X0233865Y0381400D02*
X0234115Y0381400D01*
X0234365Y0381650D01*
X0234365Y0382150D01*
X0234115Y0382400D01*
X0233865Y0382400D01*
X0233615Y0382150D01*
X0233615Y0381650D01*
X0233865Y0381400D01*
X0233615Y0381650D02*
X0233364Y0381400D01*
X0233114Y0381400D01*
X0232864Y0381650D01*
X0232864Y0382150D01*
X0233114Y0382400D01*
X0233364Y0382400D01*
X0233615Y0382150D01*
X0248464Y0380819D02*
X0248714Y0380819D01*
X0249715Y0381820D01*
X0249965Y0381820D01*
X0249965Y0380819D01*
X0249965Y0379847D02*
X0248464Y0379847D01*
X0248464Y0380347D02*
X0248464Y0379346D01*
X0248464Y0378874D02*
X0248964Y0378373D01*
X0248964Y0378623D02*
X0248964Y0377873D01*
X0248464Y0377873D02*
X0249965Y0377873D01*
X0249965Y0378623D01*
X0249715Y0378874D01*
X0249215Y0378874D01*
X0248964Y0378623D01*
X0249465Y0379346D02*
X0249965Y0379847D01*
X0265364Y0379926D02*
X0266365Y0380927D01*
X0266615Y0380927D01*
X0266865Y0380677D01*
X0266865Y0380177D01*
X0266615Y0379926D01*
X0266615Y0379454D02*
X0266115Y0379454D01*
X0265864Y0379204D01*
X0265864Y0378453D01*
X0265364Y0378453D02*
X0266865Y0378453D01*
X0266865Y0379204D01*
X0266615Y0379454D01*
X0265864Y0378953D02*
X0265364Y0379454D01*
X0265364Y0379926D02*
X0265364Y0380927D01*
X0265614Y0381400D02*
X0266615Y0382400D01*
X0265614Y0382400D01*
X0265364Y0382150D01*
X0265364Y0381650D01*
X0265614Y0381400D01*
X0266615Y0381400D01*
X0266865Y0381650D01*
X0266865Y0382150D01*
X0266615Y0382400D01*
X0281464Y0381570D02*
X0281714Y0381820D01*
X0282715Y0381820D01*
X0282965Y0381570D01*
X0282965Y0381070D01*
X0282715Y0380819D01*
X0282465Y0380819D01*
X0282215Y0381070D01*
X0282215Y0381820D01*
X0281464Y0381570D02*
X0281464Y0381070D01*
X0281714Y0380819D01*
X0281464Y0380347D02*
X0281464Y0379346D01*
X0281464Y0378874D02*
X0281964Y0378373D01*
X0281964Y0378623D02*
X0281964Y0377873D01*
X0281464Y0377873D02*
X0282965Y0377873D01*
X0282965Y0378623D01*
X0282715Y0378874D01*
X0282215Y0378874D01*
X0281964Y0378623D01*
X0282465Y0379346D02*
X0282965Y0379847D01*
X0281464Y0379847D01*
X0295864Y0379927D02*
X0295864Y0378926D01*
X0296865Y0379927D01*
X0297115Y0379927D01*
X0297365Y0379677D01*
X0297365Y0379177D01*
X0297115Y0378926D01*
X0297115Y0378454D02*
X0296615Y0378454D01*
X0296364Y0378204D01*
X0296364Y0377453D01*
X0295864Y0377453D02*
X0297365Y0377453D01*
X0297365Y0378204D01*
X0297115Y0378454D01*
X0296364Y0377953D02*
X0295864Y0378454D01*
X0295864Y0380400D02*
X0296865Y0381400D01*
X0297115Y0381400D01*
X0297365Y0381150D01*
X0297365Y0380650D01*
X0297115Y0380400D01*
X0295864Y0380400D02*
X0295864Y0381400D01*
X0311464Y0380820D02*
X0311464Y0379819D01*
X0311464Y0379347D02*
X0311464Y0378346D01*
X0312465Y0379347D01*
X0312715Y0379347D01*
X0312965Y0379097D01*
X0312965Y0378596D01*
X0312715Y0378346D01*
X0312715Y0377874D02*
X0312215Y0377874D01*
X0311964Y0377623D01*
X0311964Y0376873D01*
X0311464Y0376873D02*
X0312965Y0376873D01*
X0312965Y0377623D01*
X0312715Y0377874D01*
X0311964Y0377373D02*
X0311464Y0377874D01*
X0312465Y0379819D02*
X0312965Y0380320D01*
X0311464Y0380320D01*
X0325864Y0379927D02*
X0325864Y0378926D01*
X0326865Y0379927D01*
X0327115Y0379927D01*
X0327365Y0379677D01*
X0327365Y0379177D01*
X0327115Y0378926D01*
X0327115Y0378454D02*
X0326615Y0378454D01*
X0326364Y0378204D01*
X0326364Y0377453D01*
X0325864Y0377453D02*
X0327365Y0377453D01*
X0327365Y0378204D01*
X0327115Y0378454D01*
X0326364Y0377953D02*
X0325864Y0378454D01*
X0326615Y0380400D02*
X0326615Y0381400D01*
X0327365Y0381150D02*
X0325864Y0381150D01*
X0326615Y0380400D02*
X0327365Y0381150D01*
X0341464Y0380570D02*
X0341464Y0380070D01*
X0341714Y0379819D01*
X0341464Y0379347D02*
X0341464Y0378346D01*
X0342465Y0379347D01*
X0342715Y0379347D01*
X0342965Y0379097D01*
X0342965Y0378596D01*
X0342715Y0378346D01*
X0342715Y0377874D02*
X0342215Y0377874D01*
X0341964Y0377623D01*
X0341964Y0376873D01*
X0341464Y0376873D02*
X0342965Y0376873D01*
X0342965Y0377623D01*
X0342715Y0377874D01*
X0341964Y0377373D02*
X0341464Y0377874D01*
X0342715Y0379819D02*
X0342965Y0380070D01*
X0342965Y0380570D01*
X0342715Y0380820D01*
X0342465Y0380820D01*
X0342215Y0380570D01*
X0341964Y0380820D01*
X0341714Y0380820D01*
X0341464Y0380570D01*
X0342215Y0380570D02*
X0342215Y0380320D01*
X0075364Y0396373D02*
X0075364Y0397874D01*
X0074613Y0397874D01*
X0074363Y0397624D01*
X0074363Y0397123D01*
X0074613Y0396873D01*
X0075364Y0396873D01*
X0074863Y0396873D02*
X0074363Y0396373D01*
X0073891Y0396623D02*
X0073640Y0396373D01*
X0073140Y0396373D01*
X0072890Y0396623D01*
X0072890Y0396873D01*
X0073140Y0397123D01*
X0073390Y0397123D01*
X0073140Y0397123D02*
X0072890Y0397374D01*
X0072890Y0397624D01*
X0073140Y0397874D01*
X0073640Y0397874D01*
X0073891Y0397624D01*
X0072365Y0400944D02*
X0072365Y0401445D01*
X0072365Y0401194D02*
X0070864Y0401194D01*
X0070864Y0400944D02*
X0070864Y0401445D01*
X0071114Y0401926D02*
X0070864Y0402177D01*
X0070864Y0402677D01*
X0071114Y0402927D01*
X0071114Y0403400D02*
X0070864Y0403650D01*
X0070864Y0404150D01*
X0071114Y0404400D01*
X0071364Y0404400D01*
X0071615Y0404150D01*
X0071615Y0403900D01*
X0071615Y0404150D02*
X0071865Y0404400D01*
X0072115Y0404400D01*
X0072365Y0404150D01*
X0072365Y0403650D01*
X0072115Y0403400D01*
X0072115Y0402927D02*
X0072365Y0402677D01*
X0072365Y0402177D01*
X0072115Y0401926D01*
X0071114Y0401926D01*
X0064284Y0336774D02*
X0063533Y0336774D01*
X0063283Y0336524D01*
X0063283Y0336023D01*
X0063533Y0335773D01*
X0064284Y0335773D01*
X0064284Y0335273D02*
X0064284Y0336774D01*
X0063783Y0335773D02*
X0063283Y0335273D01*
X0062810Y0336023D02*
X0061810Y0336023D01*
X0061337Y0336023D02*
X0060587Y0336023D01*
X0060336Y0335773D01*
X0060336Y0335523D01*
X0060587Y0335273D01*
X0061087Y0335273D01*
X0061337Y0335523D01*
X0061337Y0336023D01*
X0060837Y0336524D01*
X0060336Y0336774D01*
X0062060Y0336774D02*
X0062810Y0336023D01*
X0062060Y0335273D02*
X0062060Y0336774D01*
X0062560Y0325274D02*
X0063310Y0324523D01*
X0062310Y0324523D01*
X0061837Y0324523D02*
X0060836Y0324523D01*
X0061087Y0323773D02*
X0061087Y0325274D01*
X0061837Y0324523D01*
X0062560Y0323773D02*
X0062560Y0325274D01*
X0063783Y0325024D02*
X0063783Y0324523D01*
X0064033Y0324273D01*
X0064784Y0324273D01*
X0064784Y0323773D02*
X0064784Y0325274D01*
X0064033Y0325274D01*
X0063783Y0325024D01*
X0064283Y0324273D02*
X0063783Y0323773D01*
X0064033Y0313274D02*
X0063783Y0313024D01*
X0063783Y0312523D01*
X0064033Y0312273D01*
X0064784Y0312273D01*
X0064784Y0311773D02*
X0064784Y0313274D01*
X0064033Y0313274D01*
X0064283Y0312273D02*
X0063783Y0311773D01*
X0063310Y0312523D02*
X0062310Y0312523D01*
X0061837Y0312023D02*
X0061587Y0311773D01*
X0061087Y0311773D01*
X0060836Y0312023D01*
X0060836Y0312273D01*
X0061087Y0312523D01*
X0061337Y0312523D01*
X0061087Y0312523D02*
X0060836Y0312774D01*
X0060836Y0313024D01*
X0061087Y0313274D01*
X0061587Y0313274D01*
X0061837Y0313024D01*
X0062560Y0313274D02*
X0062560Y0311773D01*
X0063310Y0312523D02*
X0062560Y0313274D01*
X0063033Y0301274D02*
X0062783Y0301024D01*
X0062783Y0300523D01*
X0063033Y0300273D01*
X0063784Y0300273D01*
X0063784Y0299773D02*
X0063784Y0301274D01*
X0063033Y0301274D01*
X0063283Y0300273D02*
X0062783Y0299773D01*
X0062310Y0300523D02*
X0061310Y0300523D01*
X0060837Y0301024D02*
X0060587Y0301274D01*
X0060087Y0301274D01*
X0059836Y0301024D01*
X0059836Y0300774D01*
X0060837Y0299773D01*
X0059836Y0299773D01*
X0061560Y0299773D02*
X0061560Y0301274D01*
X0062310Y0300523D01*
X0062533Y0290774D02*
X0062283Y0290524D01*
X0062283Y0290023D01*
X0062533Y0289773D01*
X0063284Y0289773D01*
X0063284Y0289273D02*
X0063284Y0290774D01*
X0062533Y0290774D01*
X0062783Y0289773D02*
X0062283Y0289273D01*
X0061810Y0290023D02*
X0060810Y0290023D01*
X0060337Y0290274D02*
X0059837Y0290774D01*
X0059837Y0289273D01*
X0060337Y0289273D02*
X0059336Y0289273D01*
X0061060Y0289273D02*
X0061060Y0290774D01*
X0061810Y0290023D01*
X0046365Y0306453D02*
X0044864Y0306453D01*
X0045364Y0306453D02*
X0045364Y0307204D01*
X0045615Y0307454D01*
X0046115Y0307454D01*
X0046365Y0307204D01*
X0046365Y0306453D01*
X0045364Y0306953D02*
X0044864Y0307454D01*
X0045615Y0307926D02*
X0045615Y0308927D01*
X0045615Y0309400D02*
X0045865Y0309900D01*
X0045865Y0310150D01*
X0045615Y0310400D01*
X0045114Y0310400D01*
X0044864Y0310150D01*
X0044864Y0309650D01*
X0045114Y0309400D01*
X0045615Y0309400D02*
X0046365Y0309400D01*
X0046365Y0310400D01*
X0046365Y0308677D02*
X0045615Y0307926D01*
X0046365Y0308677D02*
X0044864Y0308677D01*
D12*
X0240410Y0307818D02*
X0244914Y0307818D01*
X0244914Y0309319D02*
X0244914Y0306316D01*
X0244163Y0304715D02*
X0241161Y0301712D01*
X0244163Y0301712D01*
X0244914Y0302463D01*
X0244914Y0303964D01*
X0244163Y0304715D01*
X0241161Y0304715D01*
X0240410Y0303964D01*
X0240410Y0302463D01*
X0241161Y0301712D01*
X0240410Y0307818D02*
X0241911Y0309319D01*
X0240410Y0310920D02*
X0244163Y0310920D01*
X0244914Y0311671D01*
X0244914Y0313172D01*
X0244163Y0313923D01*
X0240410Y0313923D01*
X0265410Y0313213D02*
X0266161Y0312462D01*
X0266911Y0312462D01*
X0267662Y0313213D01*
X0268413Y0312462D01*
X0269163Y0312462D01*
X0269914Y0313213D01*
X0269914Y0314714D01*
X0269163Y0315465D01*
X0269914Y0317066D02*
X0269914Y0320069D01*
X0269914Y0318568D02*
X0265410Y0318568D01*
X0266911Y0320069D01*
X0265410Y0321670D02*
X0269163Y0321670D01*
X0269914Y0322421D01*
X0269914Y0323922D01*
X0269163Y0324673D01*
X0265410Y0324673D01*
X0266161Y0315465D02*
X0265410Y0314714D01*
X0265410Y0313213D01*
X0267662Y0313213D02*
X0267662Y0313964D01*
X0295160Y0312963D02*
X0297412Y0315215D01*
X0297412Y0312212D01*
X0299664Y0312963D02*
X0295160Y0312963D01*
X0295160Y0318318D02*
X0299664Y0318318D01*
X0299664Y0319819D02*
X0299664Y0316816D01*
X0296661Y0319819D02*
X0295160Y0318318D01*
X0295160Y0321420D02*
X0298913Y0321420D01*
X0299664Y0322171D01*
X0299664Y0323672D01*
X0298913Y0324423D01*
X0295160Y0324423D01*
X0325410Y0312923D02*
X0329163Y0312923D01*
X0329914Y0312172D01*
X0329914Y0310671D01*
X0329163Y0309920D01*
X0325410Y0309920D01*
X0326911Y0308319D02*
X0325410Y0306818D01*
X0329914Y0306818D01*
X0329914Y0308319D02*
X0329914Y0305316D01*
X0329163Y0303715D02*
X0329914Y0302964D01*
X0329914Y0301463D01*
X0329163Y0300712D01*
X0327662Y0300712D01*
X0326911Y0301463D01*
X0326911Y0302214D01*
X0327662Y0303715D01*
X0325410Y0303715D01*
X0325410Y0300712D01*
X0289668Y0210433D02*
X0288917Y0210433D01*
X0285915Y0207431D01*
X0285164Y0207431D01*
X0285164Y0205829D02*
X0285164Y0202827D01*
X0285164Y0204328D02*
X0289668Y0204328D01*
X0288166Y0202827D01*
X0289668Y0201225D02*
X0285915Y0201225D01*
X0285164Y0200475D01*
X0285164Y0198973D01*
X0285915Y0198223D01*
X0289668Y0198223D01*
X0289668Y0207431D02*
X0289668Y0210433D01*
X0314414Y0204933D02*
X0314414Y0203431D01*
X0315165Y0202681D01*
X0315915Y0202681D01*
X0316666Y0203431D01*
X0316666Y0204933D01*
X0315915Y0205683D01*
X0315165Y0205683D01*
X0314414Y0204933D01*
X0316666Y0204933D02*
X0317416Y0205683D01*
X0318167Y0205683D01*
X0318918Y0204933D01*
X0318918Y0203431D01*
X0318167Y0202681D01*
X0317416Y0202681D01*
X0316666Y0203431D01*
X0314414Y0201079D02*
X0314414Y0198077D01*
X0314414Y0199578D02*
X0318918Y0199578D01*
X0317416Y0198077D01*
X0318918Y0196475D02*
X0315165Y0196475D01*
X0314414Y0195725D01*
X0314414Y0194223D01*
X0315165Y0193473D01*
X0318918Y0193473D01*
X0256918Y0197973D02*
X0253165Y0197973D01*
X0252414Y0198723D01*
X0252414Y0200225D01*
X0253165Y0200975D01*
X0256918Y0200975D01*
X0255416Y0202577D02*
X0256918Y0204078D01*
X0252414Y0204078D01*
X0252414Y0202577D02*
X0252414Y0205579D01*
X0253165Y0207181D02*
X0252414Y0207931D01*
X0252414Y0209433D01*
X0253165Y0210183D01*
X0253915Y0210183D01*
X0254666Y0209433D01*
X0254666Y0207181D01*
X0253165Y0207181D01*
X0254666Y0207181D02*
X0256167Y0208682D01*
X0256918Y0210183D01*
X0436859Y0235925D02*
X0454575Y0235925D01*
X0454575Y0273720D01*
X0436859Y0273720D01*
X0436859Y0235925D01*
D13*
X0439221Y0237697D03*
D14*
X0325752Y0222188D02*
X0325752Y0217251D01*
X0320815Y0222188D01*
X0322049Y0223423D01*
X0324518Y0223423D01*
X0325752Y0222188D01*
X0325752Y0217251D02*
X0324518Y0216017D01*
X0322049Y0216017D01*
X0320815Y0217251D01*
X0320815Y0222188D01*
X0318202Y0223423D02*
X0313264Y0223423D01*
X0318202Y0218485D01*
X0318202Y0217251D01*
X0316967Y0216017D01*
X0314499Y0216017D01*
X0313264Y0217251D01*
X0310651Y0216017D02*
X0310651Y0222188D01*
X0309417Y0223423D01*
X0306948Y0223423D01*
X0305714Y0222188D01*
X0305714Y0216017D01*
X0229720Y0218060D02*
X0223548Y0218060D01*
X0222314Y0216826D01*
X0222314Y0214357D01*
X0223548Y0213123D01*
X0229720Y0213123D01*
X0228486Y0220673D02*
X0227251Y0220673D01*
X0226017Y0221908D01*
X0226017Y0225611D01*
X0223548Y0225611D02*
X0228486Y0225611D01*
X0229720Y0224376D01*
X0229720Y0221908D01*
X0228486Y0220673D01*
X0223548Y0220673D02*
X0222314Y0221908D01*
X0222314Y0224376D01*
X0223548Y0225611D01*
X0174720Y0223142D02*
X0167314Y0223142D01*
X0167314Y0220673D02*
X0167314Y0225611D01*
X0172251Y0220673D02*
X0174720Y0223142D01*
X0174720Y0218060D02*
X0168548Y0218060D01*
X0167314Y0216826D01*
X0167314Y0214357D01*
X0168548Y0213123D01*
X0174720Y0213123D01*
X0189108Y0282035D02*
X0190342Y0282035D01*
X0195279Y0286972D01*
X0196514Y0286972D01*
X0195279Y0289585D02*
X0189108Y0289585D01*
X0189108Y0286972D02*
X0189108Y0282035D01*
X0195279Y0289585D02*
X0196514Y0290820D01*
X0196514Y0293288D01*
X0195279Y0294523D01*
X0189108Y0294523D01*
X0144014Y0291288D02*
X0144014Y0288820D01*
X0142779Y0287585D01*
X0136608Y0287585D01*
X0137842Y0284972D02*
X0139076Y0284972D01*
X0140311Y0283738D01*
X0140311Y0281269D01*
X0141545Y0280035D01*
X0142779Y0280035D01*
X0144014Y0281269D01*
X0144014Y0283738D01*
X0142779Y0284972D01*
X0141545Y0284972D01*
X0140311Y0283738D01*
X0140311Y0281269D02*
X0139076Y0280035D01*
X0137842Y0280035D01*
X0136608Y0281269D01*
X0136608Y0283738D01*
X0137842Y0284972D01*
X0136608Y0292523D02*
X0142779Y0292523D01*
X0144014Y0291288D01*
X0373075Y0414223D02*
X0378013Y0414223D01*
X0375544Y0414223D02*
X0375544Y0421629D01*
X0378013Y0419160D01*
X0380626Y0414223D02*
X0385563Y0414223D01*
X0383095Y0414223D02*
X0383095Y0421629D01*
X0385563Y0419160D01*
X0388176Y0421629D02*
X0388176Y0415457D01*
X0389411Y0414223D01*
X0391879Y0414223D01*
X0393114Y0415457D01*
X0393114Y0421629D01*
D15*
X0346280Y0187523D02*
X0346764Y0187039D01*
X0346764Y0186072D01*
X0346280Y0185588D01*
X0343861Y0185588D01*
X0344829Y0184576D02*
X0343861Y0183609D01*
X0346764Y0183609D01*
X0346764Y0184576D02*
X0346764Y0182641D01*
X0346280Y0181630D02*
X0346764Y0181146D01*
X0346764Y0180179D01*
X0346280Y0179695D01*
X0344345Y0179695D01*
X0343861Y0180179D01*
X0343861Y0181146D01*
X0344345Y0181630D01*
X0344829Y0181630D01*
X0345313Y0181146D01*
X0345313Y0179695D01*
X0346280Y0187523D02*
X0343861Y0187523D01*
M02*
