G75*
%MOIN*%
%OFA0B0*%
%FSLAX25Y25*%
%IPPOS*%
%LPD*%
%AMOC8*
5,1,8,0,0,1.08239X$1,22.5*
%
%ADD10R,0.05906X0.05118*%
%ADD11R,0.04331X0.03937*%
%ADD12R,0.04724X0.03150*%
%ADD13R,0.05118X0.05906*%
%ADD14R,0.03937X0.04331*%
%ADD15R,0.04724X0.02756*%
%ADD16R,0.07087X0.03937*%
%ADD17R,0.05000X0.08583*%
%ADD18R,0.04700X0.02200*%
%ADD19R,0.02200X0.04700*%
%ADD20R,0.08000X0.02600*%
%ADD21R,0.05512X0.03937*%
%ADD22C,0.00300*%
%ADD23R,0.06299X0.04724*%
%ADD24R,0.01200X0.05900*%
%ADD25R,0.07100X0.08700*%
%ADD26R,0.04724X0.04724*%
%ADD27R,0.21000X0.07600*%
%ADD28R,0.03150X0.03843*%
%ADD29R,0.01100X0.04900*%
%ADD30R,0.20300X0.20300*%
%ADD31R,0.02165X0.04724*%
%ADD32R,0.02200X0.06300*%
%ADD33R,0.06890X0.11811*%
%ADD34R,0.03150X0.04724*%
%ADD35R,0.02362X0.00984*%
%ADD36R,0.09843X0.09055*%
%ADD37R,0.05512X0.05512*%
%ADD38R,0.08465X0.12795*%
%ADD39R,0.08465X0.03740*%
%ADD40R,0.08858X0.01969*%
%ADD41R,0.15748X0.08071*%
%ADD42R,0.13780X0.08071*%
%ADD43R,0.05000X0.11496*%
%ADD44R,0.05906X0.03937*%
%ADD45R,0.02756X0.04724*%
D10*
X0365962Y0239549D03*
X0365962Y0247029D03*
X0410320Y0292167D03*
X0410320Y0299647D03*
X0440040Y0260569D03*
X0440040Y0253088D03*
X0365314Y0337619D03*
X0365314Y0345099D03*
X0365294Y0353885D03*
X0365294Y0361366D03*
D11*
X0213848Y0122712D03*
X0213848Y0129405D03*
X0212448Y0139012D03*
X0212448Y0145705D03*
X0211348Y0155012D03*
X0211348Y0161705D03*
X0226348Y0151205D03*
X0226348Y0144512D03*
X0226348Y0136205D03*
X0226348Y0129512D03*
X0310348Y0146012D03*
X0310348Y0152705D03*
X0311848Y0137705D03*
X0311848Y0131012D03*
X0367348Y0130205D03*
X0380848Y0131012D03*
X0380848Y0137705D03*
X0367348Y0141512D03*
X0367348Y0148205D03*
X0380848Y0146012D03*
X0380848Y0152705D03*
X0391348Y0152012D03*
X0391348Y0158705D03*
X0380848Y0122705D03*
X0380848Y0116012D03*
X0367348Y0123512D03*
X0458848Y0125012D03*
X0458848Y0131705D03*
X0470848Y0125705D03*
X0470848Y0119012D03*
X0466348Y0144512D03*
X0466348Y0151205D03*
X0517348Y0146705D03*
X0517348Y0140012D03*
X0515848Y0130205D03*
X0515848Y0123512D03*
X0532348Y0124205D03*
X0532348Y0117512D03*
X0532348Y0132512D03*
X0532348Y0139205D03*
X0532348Y0147512D03*
X0532348Y0154205D03*
X0611848Y0155205D03*
X0611848Y0148512D03*
X0611848Y0137705D03*
X0611848Y0131012D03*
X0616348Y0124205D03*
X0616348Y0117512D03*
X0627348Y0125012D03*
X0627348Y0131705D03*
X0607417Y0227176D03*
X0600724Y0227176D03*
X0600724Y0236176D03*
X0607417Y0236176D03*
X0605285Y0305514D03*
X0611978Y0305514D03*
X0594578Y0305627D03*
X0587885Y0305627D03*
X0577619Y0305761D03*
X0570926Y0305761D03*
X0571585Y0345714D03*
X0578278Y0345714D03*
X0588389Y0345714D03*
X0595082Y0345714D03*
X0606989Y0345214D03*
X0613682Y0345214D03*
X0558836Y0431330D03*
X0552143Y0431330D03*
X0552281Y0441530D03*
X0558974Y0441530D03*
X0431870Y0393244D03*
X0425177Y0393244D03*
X0192518Y0316896D03*
X0185825Y0316896D03*
D12*
X0399686Y0296254D03*
X0399686Y0289168D03*
X0604645Y0220142D03*
X0604645Y0213056D03*
X0616983Y0213008D03*
X0616983Y0220095D03*
X0650270Y0232283D03*
X0659970Y0232283D03*
X0659970Y0239370D03*
X0650270Y0239370D03*
X0626870Y0259033D03*
X0626870Y0266120D03*
X0625670Y0271333D03*
X0625670Y0278420D03*
X0636270Y0278420D03*
X0636270Y0271333D03*
X0651770Y0271233D03*
X0651770Y0278320D03*
X0661670Y0278420D03*
X0661670Y0271333D03*
X0508172Y0422453D03*
X0508172Y0429539D03*
D13*
X0350858Y0305636D03*
X0343377Y0305636D03*
X0343648Y0295761D03*
X0351129Y0295761D03*
X0374880Y0298881D03*
X0382361Y0298881D03*
X0409367Y0282587D03*
X0416848Y0282587D03*
X0417226Y0270407D03*
X0409746Y0270407D03*
X0310263Y0319281D03*
X0302783Y0319281D03*
X0281954Y0365635D03*
X0274473Y0365635D03*
D14*
X0224644Y0366452D03*
X0224644Y0359759D03*
X0234848Y0246705D03*
X0234848Y0240012D03*
X0234848Y0222705D03*
X0234848Y0216012D03*
X0234195Y0162858D03*
X0227502Y0162858D03*
X0232002Y0119358D03*
X0238695Y0119358D03*
X0310002Y0117858D03*
X0316695Y0117858D03*
X0349002Y0116358D03*
X0355695Y0116358D03*
X0331695Y0165858D03*
X0325002Y0165858D03*
X0452502Y0158358D03*
X0459195Y0158358D03*
X0539502Y0161358D03*
X0546195Y0161358D03*
X0597002Y0164358D03*
X0603695Y0164358D03*
X0642970Y0257330D03*
X0642970Y0264023D03*
X0525265Y0412603D03*
X0525265Y0419296D03*
X0516566Y0419503D03*
X0516566Y0412810D03*
D15*
X0386311Y0308407D03*
X0371744Y0308407D03*
D16*
X0575703Y0376287D03*
X0575703Y0387310D03*
X0592239Y0387239D03*
X0592239Y0376215D03*
X0611081Y0376510D03*
X0611081Y0387534D03*
D17*
X0450008Y0294862D03*
X0440008Y0294862D03*
X0430008Y0294862D03*
X0430008Y0270846D03*
X0440008Y0270846D03*
X0450008Y0270846D03*
D18*
X0438357Y0322865D03*
X0438357Y0326015D03*
X0438357Y0329165D03*
X0438357Y0332314D03*
X0438357Y0335464D03*
X0438357Y0338613D03*
X0438357Y0341763D03*
X0438357Y0344913D03*
X0438357Y0348062D03*
X0438357Y0351212D03*
X0438357Y0354361D03*
X0438357Y0357511D03*
X0438357Y0360661D03*
X0438357Y0363810D03*
X0438357Y0366960D03*
X0438357Y0370109D03*
X0377257Y0370109D03*
X0377257Y0366960D03*
X0377257Y0363810D03*
X0377257Y0360661D03*
X0377257Y0357511D03*
X0377257Y0354361D03*
X0377257Y0351212D03*
X0377257Y0348062D03*
X0377257Y0344913D03*
X0377257Y0341763D03*
X0377257Y0338613D03*
X0377257Y0335464D03*
X0377257Y0332314D03*
X0377257Y0329165D03*
X0377257Y0326015D03*
X0377257Y0322865D03*
D19*
X0384185Y0315937D03*
X0387335Y0315937D03*
X0390485Y0315937D03*
X0393634Y0315937D03*
X0396784Y0315937D03*
X0399933Y0315937D03*
X0403083Y0315937D03*
X0406233Y0315937D03*
X0409382Y0315937D03*
X0412532Y0315937D03*
X0415681Y0315937D03*
X0418831Y0315937D03*
X0421981Y0315937D03*
X0425130Y0315937D03*
X0428280Y0315937D03*
X0431429Y0315937D03*
X0431429Y0377037D03*
X0428280Y0377037D03*
X0425130Y0377037D03*
X0421981Y0377037D03*
X0418831Y0377037D03*
X0415681Y0377037D03*
X0412532Y0377037D03*
X0409382Y0377037D03*
X0406233Y0377037D03*
X0403083Y0377037D03*
X0399933Y0377037D03*
X0396784Y0377037D03*
X0393634Y0377037D03*
X0390485Y0377037D03*
X0387335Y0377037D03*
X0384185Y0377037D03*
D20*
X0338802Y0342976D03*
X0338802Y0337976D03*
X0338802Y0332976D03*
X0338802Y0327976D03*
X0314602Y0327976D03*
X0314602Y0332976D03*
X0314602Y0337976D03*
X0314602Y0342976D03*
D21*
X0297703Y0335688D03*
X0289041Y0331948D03*
X0289041Y0339428D03*
D22*
X0364923Y0289550D02*
X0364923Y0288350D01*
X0359323Y0288350D01*
X0359323Y0289550D01*
X0364923Y0289550D01*
X0364923Y0288649D02*
X0359323Y0288649D01*
X0359323Y0288948D02*
X0364923Y0288948D01*
X0364923Y0289247D02*
X0359323Y0289247D01*
X0359323Y0289546D02*
X0364923Y0289546D01*
X0364923Y0286991D02*
X0364923Y0285791D01*
X0359323Y0285791D01*
X0359323Y0286991D01*
X0364923Y0286991D01*
X0364923Y0286090D02*
X0359323Y0286090D01*
X0359323Y0286389D02*
X0364923Y0286389D01*
X0364923Y0286688D02*
X0359323Y0286688D01*
X0359323Y0286987D02*
X0364923Y0286987D01*
X0364923Y0284431D02*
X0364923Y0283231D01*
X0359323Y0283231D01*
X0359323Y0284431D01*
X0364923Y0284431D01*
X0364923Y0283530D02*
X0359323Y0283530D01*
X0359323Y0283829D02*
X0364923Y0283829D01*
X0364923Y0284128D02*
X0359323Y0284128D01*
X0359323Y0284427D02*
X0364923Y0284427D01*
X0364923Y0281872D02*
X0364923Y0280672D01*
X0359323Y0280672D01*
X0359323Y0281872D01*
X0364923Y0281872D01*
X0364923Y0280971D02*
X0359323Y0280971D01*
X0359323Y0281270D02*
X0364923Y0281270D01*
X0364923Y0281569D02*
X0359323Y0281569D01*
X0359323Y0281868D02*
X0364923Y0281868D01*
X0364923Y0279313D02*
X0364923Y0278113D01*
X0359323Y0278113D01*
X0359323Y0279313D01*
X0364923Y0279313D01*
X0364923Y0278412D02*
X0359323Y0278412D01*
X0359323Y0278711D02*
X0364923Y0278711D01*
X0364923Y0279010D02*
X0359323Y0279010D01*
X0359323Y0279309D02*
X0364923Y0279309D01*
X0364923Y0276754D02*
X0364923Y0275554D01*
X0359323Y0275554D01*
X0359323Y0276754D01*
X0364923Y0276754D01*
X0364923Y0275853D02*
X0359323Y0275853D01*
X0359323Y0276152D02*
X0364923Y0276152D01*
X0364923Y0276451D02*
X0359323Y0276451D01*
X0359323Y0276750D02*
X0364923Y0276750D01*
X0364923Y0274195D02*
X0364923Y0272995D01*
X0359323Y0272995D01*
X0359323Y0274195D01*
X0364923Y0274195D01*
X0364923Y0273294D02*
X0359323Y0273294D01*
X0359323Y0273593D02*
X0364923Y0273593D01*
X0364923Y0273892D02*
X0359323Y0273892D01*
X0359323Y0274191D02*
X0364923Y0274191D01*
X0364923Y0271636D02*
X0364923Y0270436D01*
X0359323Y0270436D01*
X0359323Y0271636D01*
X0364923Y0271636D01*
X0364923Y0270735D02*
X0359323Y0270735D01*
X0359323Y0271034D02*
X0364923Y0271034D01*
X0364923Y0271333D02*
X0359323Y0271333D01*
X0359323Y0271632D02*
X0364923Y0271632D01*
X0364923Y0269077D02*
X0364923Y0267877D01*
X0359323Y0267877D01*
X0359323Y0269077D01*
X0364923Y0269077D01*
X0364923Y0268176D02*
X0359323Y0268176D01*
X0359323Y0268475D02*
X0364923Y0268475D01*
X0364923Y0268774D02*
X0359323Y0268774D01*
X0359323Y0269073D02*
X0364923Y0269073D01*
X0364923Y0266518D02*
X0364923Y0265318D01*
X0359323Y0265318D01*
X0359323Y0266518D01*
X0364923Y0266518D01*
X0364923Y0265617D02*
X0359323Y0265617D01*
X0359323Y0265916D02*
X0364923Y0265916D01*
X0364923Y0266215D02*
X0359323Y0266215D01*
X0359323Y0266514D02*
X0364923Y0266514D01*
X0364923Y0263959D02*
X0364923Y0262759D01*
X0359323Y0262759D01*
X0359323Y0263959D01*
X0364923Y0263959D01*
X0364923Y0263058D02*
X0359323Y0263058D01*
X0359323Y0263357D02*
X0364923Y0263357D01*
X0364923Y0263656D02*
X0359323Y0263656D01*
X0359323Y0263955D02*
X0364923Y0263955D01*
X0364923Y0261400D02*
X0364923Y0260200D01*
X0359323Y0260200D01*
X0359323Y0261400D01*
X0364923Y0261400D01*
X0364923Y0260499D02*
X0359323Y0260499D01*
X0359323Y0260798D02*
X0364923Y0260798D01*
X0364923Y0261097D02*
X0359323Y0261097D01*
X0359323Y0261396D02*
X0364923Y0261396D01*
X0364923Y0258841D02*
X0364923Y0257641D01*
X0359323Y0257641D01*
X0359323Y0258841D01*
X0364923Y0258841D01*
X0364923Y0257940D02*
X0359323Y0257940D01*
X0359323Y0258239D02*
X0364923Y0258239D01*
X0364923Y0258538D02*
X0359323Y0258538D01*
X0359323Y0258837D02*
X0364923Y0258837D01*
X0364923Y0256282D02*
X0364923Y0255082D01*
X0359323Y0255082D01*
X0359323Y0256282D01*
X0364923Y0256282D01*
X0364923Y0255381D02*
X0359323Y0255381D01*
X0359323Y0255680D02*
X0364923Y0255680D01*
X0364923Y0255979D02*
X0359323Y0255979D01*
X0359323Y0256278D02*
X0364923Y0256278D01*
X0393466Y0256282D02*
X0393466Y0255082D01*
X0387866Y0255082D01*
X0387866Y0256282D01*
X0393466Y0256282D01*
X0393466Y0255381D02*
X0387866Y0255381D01*
X0387866Y0255680D02*
X0393466Y0255680D01*
X0393466Y0255979D02*
X0387866Y0255979D01*
X0387866Y0256278D02*
X0393466Y0256278D01*
X0393466Y0257641D02*
X0393466Y0258841D01*
X0393466Y0257641D02*
X0387866Y0257641D01*
X0387866Y0258841D01*
X0393466Y0258841D01*
X0393466Y0257940D02*
X0387866Y0257940D01*
X0387866Y0258239D02*
X0393466Y0258239D01*
X0393466Y0258538D02*
X0387866Y0258538D01*
X0387866Y0258837D02*
X0393466Y0258837D01*
X0393466Y0260200D02*
X0393466Y0261400D01*
X0393466Y0260200D02*
X0387866Y0260200D01*
X0387866Y0261400D01*
X0393466Y0261400D01*
X0393466Y0260499D02*
X0387866Y0260499D01*
X0387866Y0260798D02*
X0393466Y0260798D01*
X0393466Y0261097D02*
X0387866Y0261097D01*
X0387866Y0261396D02*
X0393466Y0261396D01*
X0393466Y0262759D02*
X0393466Y0263959D01*
X0393466Y0262759D02*
X0387866Y0262759D01*
X0387866Y0263959D01*
X0393466Y0263959D01*
X0393466Y0263058D02*
X0387866Y0263058D01*
X0387866Y0263357D02*
X0393466Y0263357D01*
X0393466Y0263656D02*
X0387866Y0263656D01*
X0387866Y0263955D02*
X0393466Y0263955D01*
X0393466Y0265318D02*
X0393466Y0266518D01*
X0393466Y0265318D02*
X0387866Y0265318D01*
X0387866Y0266518D01*
X0393466Y0266518D01*
X0393466Y0265617D02*
X0387866Y0265617D01*
X0387866Y0265916D02*
X0393466Y0265916D01*
X0393466Y0266215D02*
X0387866Y0266215D01*
X0387866Y0266514D02*
X0393466Y0266514D01*
X0393466Y0267877D02*
X0393466Y0269077D01*
X0393466Y0267877D02*
X0387866Y0267877D01*
X0387866Y0269077D01*
X0393466Y0269077D01*
X0393466Y0268176D02*
X0387866Y0268176D01*
X0387866Y0268475D02*
X0393466Y0268475D01*
X0393466Y0268774D02*
X0387866Y0268774D01*
X0387866Y0269073D02*
X0393466Y0269073D01*
X0393466Y0270436D02*
X0393466Y0271636D01*
X0393466Y0270436D02*
X0387866Y0270436D01*
X0387866Y0271636D01*
X0393466Y0271636D01*
X0393466Y0270735D02*
X0387866Y0270735D01*
X0387866Y0271034D02*
X0393466Y0271034D01*
X0393466Y0271333D02*
X0387866Y0271333D01*
X0387866Y0271632D02*
X0393466Y0271632D01*
X0393466Y0272995D02*
X0393466Y0274195D01*
X0393466Y0272995D02*
X0387866Y0272995D01*
X0387866Y0274195D01*
X0393466Y0274195D01*
X0393466Y0273294D02*
X0387866Y0273294D01*
X0387866Y0273593D02*
X0393466Y0273593D01*
X0393466Y0273892D02*
X0387866Y0273892D01*
X0387866Y0274191D02*
X0393466Y0274191D01*
X0393466Y0275554D02*
X0393466Y0276754D01*
X0393466Y0275554D02*
X0387866Y0275554D01*
X0387866Y0276754D01*
X0393466Y0276754D01*
X0393466Y0275853D02*
X0387866Y0275853D01*
X0387866Y0276152D02*
X0393466Y0276152D01*
X0393466Y0276451D02*
X0387866Y0276451D01*
X0387866Y0276750D02*
X0393466Y0276750D01*
X0393466Y0278113D02*
X0393466Y0279313D01*
X0393466Y0278113D02*
X0387866Y0278113D01*
X0387866Y0279313D01*
X0393466Y0279313D01*
X0393466Y0278412D02*
X0387866Y0278412D01*
X0387866Y0278711D02*
X0393466Y0278711D01*
X0393466Y0279010D02*
X0387866Y0279010D01*
X0387866Y0279309D02*
X0393466Y0279309D01*
X0393466Y0280672D02*
X0393466Y0281872D01*
X0393466Y0280672D02*
X0387866Y0280672D01*
X0387866Y0281872D01*
X0393466Y0281872D01*
X0393466Y0280971D02*
X0387866Y0280971D01*
X0387866Y0281270D02*
X0393466Y0281270D01*
X0393466Y0281569D02*
X0387866Y0281569D01*
X0387866Y0281868D02*
X0393466Y0281868D01*
X0393466Y0283231D02*
X0393466Y0284431D01*
X0393466Y0283231D02*
X0387866Y0283231D01*
X0387866Y0284431D01*
X0393466Y0284431D01*
X0393466Y0283530D02*
X0387866Y0283530D01*
X0387866Y0283829D02*
X0393466Y0283829D01*
X0393466Y0284128D02*
X0387866Y0284128D01*
X0387866Y0284427D02*
X0393466Y0284427D01*
X0393466Y0285791D02*
X0393466Y0286991D01*
X0393466Y0285791D02*
X0387866Y0285791D01*
X0387866Y0286991D01*
X0393466Y0286991D01*
X0393466Y0286090D02*
X0387866Y0286090D01*
X0387866Y0286389D02*
X0393466Y0286389D01*
X0393466Y0286688D02*
X0387866Y0286688D01*
X0387866Y0286987D02*
X0393466Y0286987D01*
X0393466Y0288350D02*
X0393466Y0289550D01*
X0393466Y0288350D02*
X0387866Y0288350D01*
X0387866Y0289550D01*
X0393466Y0289550D01*
X0393466Y0288649D02*
X0387866Y0288649D01*
X0387866Y0288948D02*
X0393466Y0288948D01*
X0393466Y0289247D02*
X0387866Y0289247D01*
X0387866Y0289546D02*
X0393466Y0289546D01*
D23*
X0462040Y0348354D03*
X0462040Y0360165D03*
D24*
X0476003Y0350161D03*
X0478003Y0350161D03*
X0480003Y0350161D03*
X0481903Y0350161D03*
X0483903Y0350161D03*
X0485903Y0350161D03*
X0487803Y0350161D03*
X0489803Y0350161D03*
X0491803Y0350161D03*
X0493703Y0350161D03*
X0495703Y0350161D03*
X0497703Y0350161D03*
X0499603Y0350161D03*
X0501603Y0350161D03*
X0503603Y0350161D03*
X0505503Y0350161D03*
X0507503Y0350161D03*
X0509503Y0350161D03*
X0511403Y0350161D03*
X0513403Y0350161D03*
X0515403Y0350161D03*
X0517403Y0350161D03*
X0519303Y0350161D03*
X0521303Y0350161D03*
X0523303Y0350161D03*
X0525203Y0350161D03*
X0527203Y0350161D03*
X0529203Y0350161D03*
X0531103Y0350161D03*
X0533103Y0350161D03*
X0535103Y0350161D03*
X0537003Y0350161D03*
X0539003Y0350161D03*
X0541003Y0350161D03*
X0542903Y0350161D03*
X0544903Y0350161D03*
X0546903Y0350161D03*
X0548803Y0350161D03*
X0550803Y0350161D03*
X0552803Y0350161D03*
D25*
X0560203Y0337361D03*
X0468603Y0337361D03*
D26*
X0356525Y0248954D03*
X0356525Y0240686D03*
X0347751Y0240728D03*
X0347751Y0248995D03*
X0300485Y0375470D03*
X0292218Y0375470D03*
D27*
X0305357Y0360201D03*
X0343357Y0360201D03*
D28*
X0571692Y0361177D03*
X0579172Y0361177D03*
X0588292Y0360777D03*
X0595772Y0360777D03*
X0592032Y0368651D03*
X0575432Y0369051D03*
X0606992Y0360677D03*
X0614472Y0360677D03*
X0610732Y0368551D03*
X0608932Y0328351D03*
X0612672Y0320477D03*
X0605192Y0320477D03*
X0595472Y0320777D03*
X0587992Y0320777D03*
X0578372Y0320677D03*
X0570892Y0320677D03*
X0574632Y0328551D03*
X0591732Y0328651D03*
D29*
G36*
X0535085Y0371761D02*
X0534307Y0370983D01*
X0530843Y0374447D01*
X0531621Y0375225D01*
X0535085Y0371761D01*
G37*
G36*
X0536429Y0373105D02*
X0535651Y0372327D01*
X0532187Y0375791D01*
X0532965Y0376569D01*
X0536429Y0373105D01*
G37*
G36*
X0537843Y0374519D02*
X0537065Y0373741D01*
X0533601Y0377205D01*
X0534379Y0377983D01*
X0537843Y0374519D01*
G37*
G36*
X0539257Y0375933D02*
X0538479Y0375155D01*
X0535015Y0378619D01*
X0535793Y0379397D01*
X0539257Y0375933D01*
G37*
G36*
X0540601Y0377277D02*
X0539823Y0376499D01*
X0536359Y0379963D01*
X0537137Y0380741D01*
X0540601Y0377277D01*
G37*
G36*
X0539823Y0385973D02*
X0540601Y0385195D01*
X0537137Y0381731D01*
X0536359Y0382509D01*
X0539823Y0385973D01*
G37*
G36*
X0538479Y0387317D02*
X0539257Y0386539D01*
X0535793Y0383075D01*
X0535015Y0383853D01*
X0538479Y0387317D01*
G37*
G36*
X0537065Y0388731D02*
X0537843Y0387953D01*
X0534379Y0384489D01*
X0533601Y0385267D01*
X0537065Y0388731D01*
G37*
G36*
X0535651Y0390145D02*
X0536429Y0389367D01*
X0532965Y0385903D01*
X0532187Y0386681D01*
X0535651Y0390145D01*
G37*
G36*
X0534307Y0391489D02*
X0535085Y0390711D01*
X0531621Y0387247D01*
X0530843Y0388025D01*
X0534307Y0391489D01*
G37*
G36*
X0532893Y0392903D02*
X0533671Y0392125D01*
X0530207Y0388661D01*
X0529429Y0389439D01*
X0532893Y0392903D01*
G37*
G36*
X0531479Y0394317D02*
X0532257Y0393539D01*
X0528793Y0390075D01*
X0528015Y0390853D01*
X0531479Y0394317D01*
G37*
G36*
X0530065Y0395732D02*
X0530843Y0394954D01*
X0527379Y0391490D01*
X0526601Y0392268D01*
X0530065Y0395732D01*
G37*
G36*
X0528721Y0397075D02*
X0529499Y0396297D01*
X0526035Y0392833D01*
X0525257Y0393611D01*
X0528721Y0397075D01*
G37*
G36*
X0527307Y0398489D02*
X0528085Y0397711D01*
X0524621Y0394247D01*
X0523843Y0395025D01*
X0527307Y0398489D01*
G37*
G36*
X0525893Y0399903D02*
X0526671Y0399125D01*
X0523207Y0395661D01*
X0522429Y0396439D01*
X0525893Y0399903D01*
G37*
G36*
X0524549Y0401247D02*
X0525327Y0400469D01*
X0521863Y0397005D01*
X0521085Y0397783D01*
X0524549Y0401247D01*
G37*
G36*
X0520095Y0397783D02*
X0519317Y0397005D01*
X0515853Y0400469D01*
X0516631Y0401247D01*
X0520095Y0397783D01*
G37*
G36*
X0518751Y0396439D02*
X0517973Y0395661D01*
X0514509Y0399125D01*
X0515287Y0399903D01*
X0518751Y0396439D01*
G37*
G36*
X0517337Y0395025D02*
X0516559Y0394247D01*
X0513095Y0397711D01*
X0513873Y0398489D01*
X0517337Y0395025D01*
G37*
G36*
X0515923Y0393611D02*
X0515145Y0392833D01*
X0511681Y0396297D01*
X0512459Y0397075D01*
X0515923Y0393611D01*
G37*
G36*
X0514579Y0392268D02*
X0513801Y0391490D01*
X0510337Y0394954D01*
X0511115Y0395732D01*
X0514579Y0392268D01*
G37*
G36*
X0513165Y0390853D02*
X0512387Y0390075D01*
X0508923Y0393539D01*
X0509701Y0394317D01*
X0513165Y0390853D01*
G37*
G36*
X0511751Y0389439D02*
X0510973Y0388661D01*
X0507509Y0392125D01*
X0508287Y0392903D01*
X0511751Y0389439D01*
G37*
G36*
X0510337Y0388025D02*
X0509559Y0387247D01*
X0506095Y0390711D01*
X0506873Y0391489D01*
X0510337Y0388025D01*
G37*
G36*
X0508993Y0386681D02*
X0508215Y0385903D01*
X0504751Y0389367D01*
X0505529Y0390145D01*
X0508993Y0386681D01*
G37*
G36*
X0507579Y0385267D02*
X0506801Y0384489D01*
X0503337Y0387953D01*
X0504115Y0388731D01*
X0507579Y0385267D01*
G37*
G36*
X0506165Y0383853D02*
X0505387Y0383075D01*
X0501923Y0386539D01*
X0502701Y0387317D01*
X0506165Y0383853D01*
G37*
G36*
X0504821Y0382509D02*
X0504043Y0381731D01*
X0500579Y0385195D01*
X0501357Y0385973D01*
X0504821Y0382509D01*
G37*
G36*
X0504043Y0380741D02*
X0504821Y0379963D01*
X0501357Y0376499D01*
X0500579Y0377277D01*
X0504043Y0380741D01*
G37*
G36*
X0505387Y0379397D02*
X0506165Y0378619D01*
X0502701Y0375155D01*
X0501923Y0375933D01*
X0505387Y0379397D01*
G37*
G36*
X0506801Y0377983D02*
X0507579Y0377205D01*
X0504115Y0373741D01*
X0503337Y0374519D01*
X0506801Y0377983D01*
G37*
G36*
X0508215Y0376569D02*
X0508993Y0375791D01*
X0505529Y0372327D01*
X0504751Y0373105D01*
X0508215Y0376569D01*
G37*
G36*
X0509559Y0375225D02*
X0510337Y0374447D01*
X0506873Y0370983D01*
X0506095Y0371761D01*
X0509559Y0375225D01*
G37*
G36*
X0510973Y0373811D02*
X0511751Y0373033D01*
X0508287Y0369569D01*
X0507509Y0370347D01*
X0510973Y0373811D01*
G37*
G36*
X0512387Y0372397D02*
X0513165Y0371619D01*
X0509701Y0368155D01*
X0508923Y0368933D01*
X0512387Y0372397D01*
G37*
G36*
X0513801Y0370983D02*
X0514579Y0370205D01*
X0511115Y0366741D01*
X0510337Y0367519D01*
X0513801Y0370983D01*
G37*
G36*
X0515145Y0369639D02*
X0515923Y0368861D01*
X0512459Y0365397D01*
X0511681Y0366175D01*
X0515145Y0369639D01*
G37*
G36*
X0516559Y0368225D02*
X0517337Y0367447D01*
X0513873Y0363983D01*
X0513095Y0364761D01*
X0516559Y0368225D01*
G37*
G36*
X0517973Y0366811D02*
X0518751Y0366033D01*
X0515287Y0362569D01*
X0514509Y0363347D01*
X0517973Y0366811D01*
G37*
G36*
X0519317Y0365467D02*
X0520095Y0364689D01*
X0516631Y0361225D01*
X0515853Y0362003D01*
X0519317Y0365467D01*
G37*
G36*
X0525327Y0362003D02*
X0524549Y0361225D01*
X0521085Y0364689D01*
X0521863Y0365467D01*
X0525327Y0362003D01*
G37*
G36*
X0526671Y0363347D02*
X0525893Y0362569D01*
X0522429Y0366033D01*
X0523207Y0366811D01*
X0526671Y0363347D01*
G37*
G36*
X0528085Y0364761D02*
X0527307Y0363983D01*
X0523843Y0367447D01*
X0524621Y0368225D01*
X0528085Y0364761D01*
G37*
G36*
X0529499Y0366175D02*
X0528721Y0365397D01*
X0525257Y0368861D01*
X0526035Y0369639D01*
X0529499Y0366175D01*
G37*
G36*
X0530843Y0367519D02*
X0530065Y0366741D01*
X0526601Y0370205D01*
X0527379Y0370983D01*
X0530843Y0367519D01*
G37*
G36*
X0532257Y0368933D02*
X0531479Y0368155D01*
X0528015Y0371619D01*
X0528793Y0372397D01*
X0532257Y0368933D01*
G37*
G36*
X0533671Y0370347D02*
X0532893Y0369569D01*
X0529429Y0373033D01*
X0530207Y0373811D01*
X0533671Y0370347D01*
G37*
D30*
G36*
X0506236Y0381236D02*
X0520590Y0395590D01*
X0534944Y0381236D01*
X0520590Y0366882D01*
X0506236Y0381236D01*
G37*
D31*
X0534636Y0431357D03*
X0542117Y0431357D03*
X0542117Y0441594D03*
X0538377Y0441594D03*
X0534636Y0441594D03*
D32*
X0478460Y0392324D03*
X0473460Y0392324D03*
X0468460Y0392324D03*
X0463460Y0392324D03*
X0458460Y0392324D03*
X0453460Y0392324D03*
X0448460Y0392324D03*
X0448460Y0372324D03*
X0453460Y0372324D03*
X0458460Y0372324D03*
X0463460Y0372324D03*
X0468460Y0372324D03*
X0473460Y0372324D03*
X0478460Y0372324D03*
D33*
X0625209Y0304142D03*
X0651685Y0304142D03*
D34*
X0600714Y0256476D03*
X0593627Y0256476D03*
X0593627Y0247476D03*
X0600714Y0247476D03*
X0630651Y0215213D03*
X0637737Y0215213D03*
D35*
X0642719Y0230687D03*
X0642719Y0232655D03*
X0642719Y0234624D03*
X0642719Y0236592D03*
X0642719Y0238561D03*
X0642719Y0240529D03*
X0642719Y0242498D03*
X0642719Y0244466D03*
X0623822Y0244466D03*
X0623822Y0242498D03*
X0623822Y0240529D03*
X0623822Y0238561D03*
X0623822Y0236592D03*
X0623822Y0234624D03*
X0623822Y0232655D03*
X0623822Y0230687D03*
D36*
X0591035Y0291676D03*
X0574106Y0291676D03*
D37*
X0252712Y0359302D03*
X0237751Y0359302D03*
D38*
X0185880Y0348786D03*
D39*
X0208714Y0349731D03*
X0208714Y0359731D03*
X0208714Y0339731D03*
D40*
X0197624Y0236098D03*
X0197624Y0232949D03*
X0197624Y0229799D03*
X0197624Y0226650D03*
X0197624Y0223500D03*
D41*
X0180990Y0210409D03*
X0180990Y0249189D03*
D42*
X0197722Y0249189D03*
X0197722Y0210409D03*
D43*
X0225132Y0405823D03*
X0236943Y0405823D03*
X0248754Y0405823D03*
X0260565Y0405823D03*
X0399132Y0407823D03*
X0410943Y0407823D03*
X0422754Y0407823D03*
X0434565Y0407823D03*
X0581132Y0407823D03*
X0592943Y0407823D03*
X0604754Y0407823D03*
X0616565Y0407823D03*
D44*
X0204833Y0296461D03*
X0204833Y0287799D03*
D45*
X0205730Y0303130D03*
X0205730Y0317697D03*
M02*
