G75*
%MOIN*%
%OFA0B0*%
%FSLAX25Y25*%
%IPPOS*%
%LPD*%
%AMOC8*
5,1,8,0,0,1.08239X$1,22.5*
%
%ADD10R,0.05906X0.05118*%
%ADD11R,0.04331X0.03937*%
%ADD12R,0.04724X0.03150*%
%ADD13R,0.05118X0.05906*%
%ADD14R,0.03937X0.04331*%
%ADD15R,0.04724X0.02756*%
%ADD16R,0.07087X0.03937*%
%ADD17R,0.05000X0.08583*%
%ADD18R,0.04700X0.02200*%
%ADD19R,0.02200X0.04700*%
%ADD20R,0.08000X0.02600*%
%ADD21R,0.05512X0.03937*%
%ADD22C,0.00300*%
%ADD23R,0.06299X0.04724*%
%ADD24R,0.01200X0.05900*%
%ADD25R,0.07100X0.08700*%
%ADD26R,0.04724X0.04724*%
%ADD27R,0.21000X0.07600*%
%ADD28R,0.02500X0.05000*%
%ADD29R,0.03150X0.03843*%
%ADD30R,0.01100X0.04900*%
%ADD31R,0.20300X0.20300*%
%ADD32C,0.03300*%
%ADD33R,0.02165X0.04724*%
%ADD34R,0.02200X0.06300*%
%ADD35C,0.06000*%
%ADD36R,0.06000X0.06000*%
%ADD37C,0.08000*%
%ADD38R,0.06890X0.11811*%
%ADD39R,0.03150X0.04724*%
%ADD40R,0.02362X0.00984*%
%ADD41R,0.09843X0.09055*%
%ADD42C,0.04559*%
%ADD43R,0.05512X0.05512*%
%ADD44R,0.08465X0.12795*%
%ADD45R,0.08465X0.03740*%
%ADD46R,0.08858X0.01969*%
%ADD47R,0.15748X0.08071*%
%ADD48R,0.13780X0.08071*%
%ADD49R,0.05000X0.11496*%
%ADD50C,0.06024*%
%ADD51R,0.05906X0.03937*%
%ADD52R,0.02756X0.04724*%
%ADD53C,0.02978*%
%ADD54C,0.01200*%
%ADD55C,0.02400*%
%ADD56C,0.01000*%
%ADD57C,0.29000*%
%ADD58C,0.00600*%
%ADD59C,0.00800*%
%ADD60C,0.00591*%
%ADD61C,0.01600*%
%ADD62C,0.02000*%
%ADD63C,0.03962*%
%ADD64C,0.02781*%
%ADD65C,0.03569*%
%ADD66C,0.03200*%
%ADD67C,0.04000*%
%ADD68C,0.04356*%
%ADD69C,0.03500*%
%ADD70C,0.01440*%
%ADD71C,0.05000*%
D10*
X0365962Y0239549D03*
X0365962Y0247029D03*
X0410320Y0292167D03*
X0410320Y0299647D03*
X0440040Y0260569D03*
X0440040Y0253088D03*
X0365314Y0337619D03*
X0365314Y0345099D03*
X0365294Y0353885D03*
X0365294Y0361366D03*
D11*
X0425177Y0393244D03*
X0431870Y0393244D03*
X0552143Y0431330D03*
X0558836Y0431330D03*
X0558974Y0441530D03*
X0552281Y0441530D03*
X0571585Y0345714D03*
X0578278Y0345714D03*
X0588389Y0345714D03*
X0595082Y0345714D03*
X0606989Y0345214D03*
X0613682Y0345214D03*
X0611978Y0305514D03*
X0605285Y0305514D03*
X0594578Y0305627D03*
X0587885Y0305627D03*
X0577619Y0305761D03*
X0570926Y0305761D03*
X0600724Y0236176D03*
X0607417Y0236176D03*
X0607417Y0227176D03*
X0600724Y0227176D03*
X0611848Y0155205D03*
X0611848Y0148512D03*
X0611848Y0137705D03*
X0611848Y0131012D03*
X0616348Y0124205D03*
X0616348Y0117512D03*
X0627348Y0125012D03*
X0627348Y0131705D03*
X0532348Y0132512D03*
X0532348Y0139205D03*
X0532348Y0147512D03*
X0532348Y0154205D03*
X0517348Y0146705D03*
X0517348Y0140012D03*
X0515848Y0130205D03*
X0515848Y0123512D03*
X0532348Y0124205D03*
X0532348Y0117512D03*
X0470848Y0119012D03*
X0470848Y0125705D03*
X0458848Y0125012D03*
X0458848Y0131705D03*
X0466348Y0144512D03*
X0466348Y0151205D03*
X0391348Y0152012D03*
X0391348Y0158705D03*
X0380848Y0152705D03*
X0380848Y0146012D03*
X0367348Y0148205D03*
X0367348Y0141512D03*
X0380848Y0137705D03*
X0380848Y0131012D03*
X0367348Y0130205D03*
X0367348Y0123512D03*
X0380848Y0122705D03*
X0380848Y0116012D03*
X0311848Y0131012D03*
X0311848Y0137705D03*
X0310348Y0146012D03*
X0310348Y0152705D03*
X0226348Y0151205D03*
X0226348Y0144512D03*
X0226348Y0136205D03*
X0226348Y0129512D03*
X0213848Y0129405D03*
X0213848Y0122712D03*
X0212448Y0139012D03*
X0212448Y0145705D03*
X0211348Y0155012D03*
X0211348Y0161705D03*
X0192518Y0316896D03*
X0185825Y0316896D03*
D12*
X0399686Y0296254D03*
X0399686Y0289168D03*
X0604645Y0220142D03*
X0604645Y0213056D03*
X0616983Y0213008D03*
X0616983Y0220095D03*
X0650270Y0232283D03*
X0659970Y0232283D03*
X0659970Y0239370D03*
X0650270Y0239370D03*
X0626870Y0259033D03*
X0626870Y0266120D03*
X0625670Y0271333D03*
X0625670Y0278420D03*
X0636270Y0278420D03*
X0636270Y0271333D03*
X0651770Y0271233D03*
X0651770Y0278320D03*
X0661670Y0278420D03*
X0661670Y0271333D03*
X0508172Y0422453D03*
X0508172Y0429539D03*
D13*
X0350858Y0305636D03*
X0343377Y0305636D03*
X0343648Y0295761D03*
X0351129Y0295761D03*
X0374880Y0298881D03*
X0382361Y0298881D03*
X0409367Y0282587D03*
X0416848Y0282587D03*
X0417226Y0270407D03*
X0409746Y0270407D03*
X0310263Y0319281D03*
X0302783Y0319281D03*
X0281954Y0365635D03*
X0274473Y0365635D03*
D14*
X0224644Y0366452D03*
X0224644Y0359759D03*
X0234848Y0246705D03*
X0234848Y0240012D03*
X0234848Y0222705D03*
X0234848Y0216012D03*
X0234195Y0162858D03*
X0227502Y0162858D03*
X0232002Y0119358D03*
X0238695Y0119358D03*
X0310002Y0117858D03*
X0316695Y0117858D03*
X0349002Y0116358D03*
X0355695Y0116358D03*
X0331695Y0165858D03*
X0325002Y0165858D03*
X0452502Y0158358D03*
X0459195Y0158358D03*
X0539502Y0161358D03*
X0546195Y0161358D03*
X0597002Y0164358D03*
X0603695Y0164358D03*
X0642970Y0257330D03*
X0642970Y0264023D03*
X0525265Y0412603D03*
X0525265Y0419296D03*
X0516566Y0419503D03*
X0516566Y0412810D03*
D15*
X0386311Y0308407D03*
X0371744Y0308407D03*
D16*
X0575703Y0376287D03*
X0575703Y0387310D03*
X0592239Y0387239D03*
X0592239Y0376215D03*
X0611081Y0376510D03*
X0611081Y0387534D03*
D17*
X0450008Y0294862D03*
X0440008Y0294862D03*
X0430008Y0294862D03*
X0430008Y0270846D03*
X0440008Y0270846D03*
X0450008Y0270846D03*
D18*
X0438357Y0322865D03*
X0438357Y0326015D03*
X0438357Y0329165D03*
X0438357Y0332314D03*
X0438357Y0335464D03*
X0438357Y0338613D03*
X0438357Y0341763D03*
X0438357Y0344913D03*
X0438357Y0348062D03*
X0438357Y0351212D03*
X0438357Y0354361D03*
X0438357Y0357511D03*
X0438357Y0360661D03*
X0438357Y0363810D03*
X0438357Y0366960D03*
X0438357Y0370109D03*
X0377257Y0370109D03*
X0377257Y0366960D03*
X0377257Y0363810D03*
X0377257Y0360661D03*
X0377257Y0357511D03*
X0377257Y0354361D03*
X0377257Y0351212D03*
X0377257Y0348062D03*
X0377257Y0344913D03*
X0377257Y0341763D03*
X0377257Y0338613D03*
X0377257Y0335464D03*
X0377257Y0332314D03*
X0377257Y0329165D03*
X0377257Y0326015D03*
X0377257Y0322865D03*
D19*
X0384185Y0315937D03*
X0387335Y0315937D03*
X0390485Y0315937D03*
X0393634Y0315937D03*
X0396784Y0315937D03*
X0399933Y0315937D03*
X0403083Y0315937D03*
X0406233Y0315937D03*
X0409382Y0315937D03*
X0412532Y0315937D03*
X0415681Y0315937D03*
X0418831Y0315937D03*
X0421981Y0315937D03*
X0425130Y0315937D03*
X0428280Y0315937D03*
X0431429Y0315937D03*
X0431429Y0377037D03*
X0428280Y0377037D03*
X0425130Y0377037D03*
X0421981Y0377037D03*
X0418831Y0377037D03*
X0415681Y0377037D03*
X0412532Y0377037D03*
X0409382Y0377037D03*
X0406233Y0377037D03*
X0403083Y0377037D03*
X0399933Y0377037D03*
X0396784Y0377037D03*
X0393634Y0377037D03*
X0390485Y0377037D03*
X0387335Y0377037D03*
X0384185Y0377037D03*
D20*
X0338802Y0342976D03*
X0338802Y0337976D03*
X0338802Y0332976D03*
X0338802Y0327976D03*
X0314602Y0327976D03*
X0314602Y0332976D03*
X0314602Y0337976D03*
X0314602Y0342976D03*
D21*
X0297703Y0335688D03*
X0289041Y0331948D03*
X0289041Y0339428D03*
D22*
X0364923Y0289550D02*
X0364923Y0288350D01*
X0359323Y0288350D01*
X0359323Y0289550D01*
X0364923Y0289550D01*
X0364923Y0288649D02*
X0359323Y0288649D01*
X0359323Y0288948D02*
X0364923Y0288948D01*
X0364923Y0289247D02*
X0359323Y0289247D01*
X0359323Y0289546D02*
X0364923Y0289546D01*
X0364923Y0286991D02*
X0364923Y0285791D01*
X0359323Y0285791D01*
X0359323Y0286991D01*
X0364923Y0286991D01*
X0364923Y0286090D02*
X0359323Y0286090D01*
X0359323Y0286389D02*
X0364923Y0286389D01*
X0364923Y0286688D02*
X0359323Y0286688D01*
X0359323Y0286987D02*
X0364923Y0286987D01*
X0364923Y0284431D02*
X0364923Y0283231D01*
X0359323Y0283231D01*
X0359323Y0284431D01*
X0364923Y0284431D01*
X0364923Y0283530D02*
X0359323Y0283530D01*
X0359323Y0283829D02*
X0364923Y0283829D01*
X0364923Y0284128D02*
X0359323Y0284128D01*
X0359323Y0284427D02*
X0364923Y0284427D01*
X0364923Y0281872D02*
X0364923Y0280672D01*
X0359323Y0280672D01*
X0359323Y0281872D01*
X0364923Y0281872D01*
X0364923Y0280971D02*
X0359323Y0280971D01*
X0359323Y0281270D02*
X0364923Y0281270D01*
X0364923Y0281569D02*
X0359323Y0281569D01*
X0359323Y0281868D02*
X0364923Y0281868D01*
X0364923Y0279313D02*
X0364923Y0278113D01*
X0359323Y0278113D01*
X0359323Y0279313D01*
X0364923Y0279313D01*
X0364923Y0278412D02*
X0359323Y0278412D01*
X0359323Y0278711D02*
X0364923Y0278711D01*
X0364923Y0279010D02*
X0359323Y0279010D01*
X0359323Y0279309D02*
X0364923Y0279309D01*
X0364923Y0276754D02*
X0364923Y0275554D01*
X0359323Y0275554D01*
X0359323Y0276754D01*
X0364923Y0276754D01*
X0364923Y0275853D02*
X0359323Y0275853D01*
X0359323Y0276152D02*
X0364923Y0276152D01*
X0364923Y0276451D02*
X0359323Y0276451D01*
X0359323Y0276750D02*
X0364923Y0276750D01*
X0364923Y0274195D02*
X0364923Y0272995D01*
X0359323Y0272995D01*
X0359323Y0274195D01*
X0364923Y0274195D01*
X0364923Y0273294D02*
X0359323Y0273294D01*
X0359323Y0273593D02*
X0364923Y0273593D01*
X0364923Y0273892D02*
X0359323Y0273892D01*
X0359323Y0274191D02*
X0364923Y0274191D01*
X0364923Y0271636D02*
X0364923Y0270436D01*
X0359323Y0270436D01*
X0359323Y0271636D01*
X0364923Y0271636D01*
X0364923Y0270735D02*
X0359323Y0270735D01*
X0359323Y0271034D02*
X0364923Y0271034D01*
X0364923Y0271333D02*
X0359323Y0271333D01*
X0359323Y0271632D02*
X0364923Y0271632D01*
X0364923Y0269077D02*
X0364923Y0267877D01*
X0359323Y0267877D01*
X0359323Y0269077D01*
X0364923Y0269077D01*
X0364923Y0268176D02*
X0359323Y0268176D01*
X0359323Y0268475D02*
X0364923Y0268475D01*
X0364923Y0268774D02*
X0359323Y0268774D01*
X0359323Y0269073D02*
X0364923Y0269073D01*
X0364923Y0266518D02*
X0364923Y0265318D01*
X0359323Y0265318D01*
X0359323Y0266518D01*
X0364923Y0266518D01*
X0364923Y0265617D02*
X0359323Y0265617D01*
X0359323Y0265916D02*
X0364923Y0265916D01*
X0364923Y0266215D02*
X0359323Y0266215D01*
X0359323Y0266514D02*
X0364923Y0266514D01*
X0364923Y0263959D02*
X0364923Y0262759D01*
X0359323Y0262759D01*
X0359323Y0263959D01*
X0364923Y0263959D01*
X0364923Y0263058D02*
X0359323Y0263058D01*
X0359323Y0263357D02*
X0364923Y0263357D01*
X0364923Y0263656D02*
X0359323Y0263656D01*
X0359323Y0263955D02*
X0364923Y0263955D01*
X0364923Y0261400D02*
X0364923Y0260200D01*
X0359323Y0260200D01*
X0359323Y0261400D01*
X0364923Y0261400D01*
X0364923Y0260499D02*
X0359323Y0260499D01*
X0359323Y0260798D02*
X0364923Y0260798D01*
X0364923Y0261097D02*
X0359323Y0261097D01*
X0359323Y0261396D02*
X0364923Y0261396D01*
X0364923Y0258841D02*
X0364923Y0257641D01*
X0359323Y0257641D01*
X0359323Y0258841D01*
X0364923Y0258841D01*
X0364923Y0257940D02*
X0359323Y0257940D01*
X0359323Y0258239D02*
X0364923Y0258239D01*
X0364923Y0258538D02*
X0359323Y0258538D01*
X0359323Y0258837D02*
X0364923Y0258837D01*
X0364923Y0256282D02*
X0364923Y0255082D01*
X0359323Y0255082D01*
X0359323Y0256282D01*
X0364923Y0256282D01*
X0364923Y0255381D02*
X0359323Y0255381D01*
X0359323Y0255680D02*
X0364923Y0255680D01*
X0364923Y0255979D02*
X0359323Y0255979D01*
X0359323Y0256278D02*
X0364923Y0256278D01*
X0393466Y0256282D02*
X0393466Y0255082D01*
X0387866Y0255082D01*
X0387866Y0256282D01*
X0393466Y0256282D01*
X0393466Y0255381D02*
X0387866Y0255381D01*
X0387866Y0255680D02*
X0393466Y0255680D01*
X0393466Y0255979D02*
X0387866Y0255979D01*
X0387866Y0256278D02*
X0393466Y0256278D01*
X0393466Y0257641D02*
X0393466Y0258841D01*
X0393466Y0257641D02*
X0387866Y0257641D01*
X0387866Y0258841D01*
X0393466Y0258841D01*
X0393466Y0257940D02*
X0387866Y0257940D01*
X0387866Y0258239D02*
X0393466Y0258239D01*
X0393466Y0258538D02*
X0387866Y0258538D01*
X0387866Y0258837D02*
X0393466Y0258837D01*
X0393466Y0260200D02*
X0393466Y0261400D01*
X0393466Y0260200D02*
X0387866Y0260200D01*
X0387866Y0261400D01*
X0393466Y0261400D01*
X0393466Y0260499D02*
X0387866Y0260499D01*
X0387866Y0260798D02*
X0393466Y0260798D01*
X0393466Y0261097D02*
X0387866Y0261097D01*
X0387866Y0261396D02*
X0393466Y0261396D01*
X0393466Y0262759D02*
X0393466Y0263959D01*
X0393466Y0262759D02*
X0387866Y0262759D01*
X0387866Y0263959D01*
X0393466Y0263959D01*
X0393466Y0263058D02*
X0387866Y0263058D01*
X0387866Y0263357D02*
X0393466Y0263357D01*
X0393466Y0263656D02*
X0387866Y0263656D01*
X0387866Y0263955D02*
X0393466Y0263955D01*
X0393466Y0265318D02*
X0393466Y0266518D01*
X0393466Y0265318D02*
X0387866Y0265318D01*
X0387866Y0266518D01*
X0393466Y0266518D01*
X0393466Y0265617D02*
X0387866Y0265617D01*
X0387866Y0265916D02*
X0393466Y0265916D01*
X0393466Y0266215D02*
X0387866Y0266215D01*
X0387866Y0266514D02*
X0393466Y0266514D01*
X0393466Y0267877D02*
X0393466Y0269077D01*
X0393466Y0267877D02*
X0387866Y0267877D01*
X0387866Y0269077D01*
X0393466Y0269077D01*
X0393466Y0268176D02*
X0387866Y0268176D01*
X0387866Y0268475D02*
X0393466Y0268475D01*
X0393466Y0268774D02*
X0387866Y0268774D01*
X0387866Y0269073D02*
X0393466Y0269073D01*
X0393466Y0270436D02*
X0393466Y0271636D01*
X0393466Y0270436D02*
X0387866Y0270436D01*
X0387866Y0271636D01*
X0393466Y0271636D01*
X0393466Y0270735D02*
X0387866Y0270735D01*
X0387866Y0271034D02*
X0393466Y0271034D01*
X0393466Y0271333D02*
X0387866Y0271333D01*
X0387866Y0271632D02*
X0393466Y0271632D01*
X0393466Y0272995D02*
X0393466Y0274195D01*
X0393466Y0272995D02*
X0387866Y0272995D01*
X0387866Y0274195D01*
X0393466Y0274195D01*
X0393466Y0273294D02*
X0387866Y0273294D01*
X0387866Y0273593D02*
X0393466Y0273593D01*
X0393466Y0273892D02*
X0387866Y0273892D01*
X0387866Y0274191D02*
X0393466Y0274191D01*
X0393466Y0275554D02*
X0393466Y0276754D01*
X0393466Y0275554D02*
X0387866Y0275554D01*
X0387866Y0276754D01*
X0393466Y0276754D01*
X0393466Y0275853D02*
X0387866Y0275853D01*
X0387866Y0276152D02*
X0393466Y0276152D01*
X0393466Y0276451D02*
X0387866Y0276451D01*
X0387866Y0276750D02*
X0393466Y0276750D01*
X0393466Y0278113D02*
X0393466Y0279313D01*
X0393466Y0278113D02*
X0387866Y0278113D01*
X0387866Y0279313D01*
X0393466Y0279313D01*
X0393466Y0278412D02*
X0387866Y0278412D01*
X0387866Y0278711D02*
X0393466Y0278711D01*
X0393466Y0279010D02*
X0387866Y0279010D01*
X0387866Y0279309D02*
X0393466Y0279309D01*
X0393466Y0280672D02*
X0393466Y0281872D01*
X0393466Y0280672D02*
X0387866Y0280672D01*
X0387866Y0281872D01*
X0393466Y0281872D01*
X0393466Y0280971D02*
X0387866Y0280971D01*
X0387866Y0281270D02*
X0393466Y0281270D01*
X0393466Y0281569D02*
X0387866Y0281569D01*
X0387866Y0281868D02*
X0393466Y0281868D01*
X0393466Y0283231D02*
X0393466Y0284431D01*
X0393466Y0283231D02*
X0387866Y0283231D01*
X0387866Y0284431D01*
X0393466Y0284431D01*
X0393466Y0283530D02*
X0387866Y0283530D01*
X0387866Y0283829D02*
X0393466Y0283829D01*
X0393466Y0284128D02*
X0387866Y0284128D01*
X0387866Y0284427D02*
X0393466Y0284427D01*
X0393466Y0285791D02*
X0393466Y0286991D01*
X0393466Y0285791D02*
X0387866Y0285791D01*
X0387866Y0286991D01*
X0393466Y0286991D01*
X0393466Y0286090D02*
X0387866Y0286090D01*
X0387866Y0286389D02*
X0393466Y0286389D01*
X0393466Y0286688D02*
X0387866Y0286688D01*
X0387866Y0286987D02*
X0393466Y0286987D01*
X0393466Y0288350D02*
X0393466Y0289550D01*
X0393466Y0288350D02*
X0387866Y0288350D01*
X0387866Y0289550D01*
X0393466Y0289550D01*
X0393466Y0288649D02*
X0387866Y0288649D01*
X0387866Y0288948D02*
X0393466Y0288948D01*
X0393466Y0289247D02*
X0387866Y0289247D01*
X0387866Y0289546D02*
X0393466Y0289546D01*
D23*
X0462040Y0348354D03*
X0462040Y0360165D03*
D24*
X0476003Y0350161D03*
X0478003Y0350161D03*
X0480003Y0350161D03*
X0481903Y0350161D03*
X0483903Y0350161D03*
X0485903Y0350161D03*
X0487803Y0350161D03*
X0489803Y0350161D03*
X0491803Y0350161D03*
X0493703Y0350161D03*
X0495703Y0350161D03*
X0497703Y0350161D03*
X0499603Y0350161D03*
X0501603Y0350161D03*
X0503603Y0350161D03*
X0505503Y0350161D03*
X0507503Y0350161D03*
X0509503Y0350161D03*
X0511403Y0350161D03*
X0513403Y0350161D03*
X0515403Y0350161D03*
X0517403Y0350161D03*
X0519303Y0350161D03*
X0521303Y0350161D03*
X0523303Y0350161D03*
X0525203Y0350161D03*
X0527203Y0350161D03*
X0529203Y0350161D03*
X0531103Y0350161D03*
X0533103Y0350161D03*
X0535103Y0350161D03*
X0537003Y0350161D03*
X0539003Y0350161D03*
X0541003Y0350161D03*
X0542903Y0350161D03*
X0544903Y0350161D03*
X0546903Y0350161D03*
X0548803Y0350161D03*
X0550803Y0350161D03*
X0552803Y0350161D03*
D25*
X0560203Y0337361D03*
X0468603Y0337361D03*
D26*
X0356525Y0248954D03*
X0356525Y0240686D03*
X0347751Y0240728D03*
X0347751Y0248995D03*
X0300485Y0375470D03*
X0292218Y0375470D03*
D27*
X0305357Y0360201D03*
X0343357Y0360201D03*
D28*
X0393617Y0308407D03*
X0397160Y0308407D03*
D29*
X0570892Y0320677D03*
X0578372Y0320677D03*
X0587992Y0320777D03*
X0595472Y0320777D03*
X0605192Y0320477D03*
X0612672Y0320477D03*
X0608932Y0328351D03*
X0591732Y0328651D03*
X0574632Y0328551D03*
X0571692Y0361177D03*
X0579172Y0361177D03*
X0588292Y0360777D03*
X0595772Y0360777D03*
X0592032Y0368651D03*
X0575432Y0369051D03*
X0606992Y0360677D03*
X0614472Y0360677D03*
X0610732Y0368551D03*
D30*
G36*
X0540601Y0377277D02*
X0539823Y0376499D01*
X0536359Y0379963D01*
X0537137Y0380741D01*
X0540601Y0377277D01*
G37*
G36*
X0539257Y0375933D02*
X0538479Y0375155D01*
X0535015Y0378619D01*
X0535793Y0379397D01*
X0539257Y0375933D01*
G37*
G36*
X0537843Y0374519D02*
X0537065Y0373741D01*
X0533601Y0377205D01*
X0534379Y0377983D01*
X0537843Y0374519D01*
G37*
G36*
X0536429Y0373105D02*
X0535651Y0372327D01*
X0532187Y0375791D01*
X0532965Y0376569D01*
X0536429Y0373105D01*
G37*
G36*
X0535085Y0371761D02*
X0534307Y0370983D01*
X0530843Y0374447D01*
X0531621Y0375225D01*
X0535085Y0371761D01*
G37*
G36*
X0533671Y0370347D02*
X0532893Y0369569D01*
X0529429Y0373033D01*
X0530207Y0373811D01*
X0533671Y0370347D01*
G37*
G36*
X0532257Y0368933D02*
X0531479Y0368155D01*
X0528015Y0371619D01*
X0528793Y0372397D01*
X0532257Y0368933D01*
G37*
G36*
X0530843Y0367519D02*
X0530065Y0366741D01*
X0526601Y0370205D01*
X0527379Y0370983D01*
X0530843Y0367519D01*
G37*
G36*
X0529499Y0366175D02*
X0528721Y0365397D01*
X0525257Y0368861D01*
X0526035Y0369639D01*
X0529499Y0366175D01*
G37*
G36*
X0528085Y0364761D02*
X0527307Y0363983D01*
X0523843Y0367447D01*
X0524621Y0368225D01*
X0528085Y0364761D01*
G37*
G36*
X0526671Y0363347D02*
X0525893Y0362569D01*
X0522429Y0366033D01*
X0523207Y0366811D01*
X0526671Y0363347D01*
G37*
G36*
X0525327Y0362003D02*
X0524549Y0361225D01*
X0521085Y0364689D01*
X0521863Y0365467D01*
X0525327Y0362003D01*
G37*
G36*
X0519317Y0365467D02*
X0520095Y0364689D01*
X0516631Y0361225D01*
X0515853Y0362003D01*
X0519317Y0365467D01*
G37*
G36*
X0517973Y0366811D02*
X0518751Y0366033D01*
X0515287Y0362569D01*
X0514509Y0363347D01*
X0517973Y0366811D01*
G37*
G36*
X0516559Y0368225D02*
X0517337Y0367447D01*
X0513873Y0363983D01*
X0513095Y0364761D01*
X0516559Y0368225D01*
G37*
G36*
X0515145Y0369639D02*
X0515923Y0368861D01*
X0512459Y0365397D01*
X0511681Y0366175D01*
X0515145Y0369639D01*
G37*
G36*
X0513801Y0370983D02*
X0514579Y0370205D01*
X0511115Y0366741D01*
X0510337Y0367519D01*
X0513801Y0370983D01*
G37*
G36*
X0512387Y0372397D02*
X0513165Y0371619D01*
X0509701Y0368155D01*
X0508923Y0368933D01*
X0512387Y0372397D01*
G37*
G36*
X0510973Y0373811D02*
X0511751Y0373033D01*
X0508287Y0369569D01*
X0507509Y0370347D01*
X0510973Y0373811D01*
G37*
G36*
X0509559Y0375225D02*
X0510337Y0374447D01*
X0506873Y0370983D01*
X0506095Y0371761D01*
X0509559Y0375225D01*
G37*
G36*
X0508215Y0376569D02*
X0508993Y0375791D01*
X0505529Y0372327D01*
X0504751Y0373105D01*
X0508215Y0376569D01*
G37*
G36*
X0506801Y0377983D02*
X0507579Y0377205D01*
X0504115Y0373741D01*
X0503337Y0374519D01*
X0506801Y0377983D01*
G37*
G36*
X0505387Y0379397D02*
X0506165Y0378619D01*
X0502701Y0375155D01*
X0501923Y0375933D01*
X0505387Y0379397D01*
G37*
G36*
X0504043Y0380741D02*
X0504821Y0379963D01*
X0501357Y0376499D01*
X0500579Y0377277D01*
X0504043Y0380741D01*
G37*
G36*
X0504821Y0382509D02*
X0504043Y0381731D01*
X0500579Y0385195D01*
X0501357Y0385973D01*
X0504821Y0382509D01*
G37*
G36*
X0506165Y0383853D02*
X0505387Y0383075D01*
X0501923Y0386539D01*
X0502701Y0387317D01*
X0506165Y0383853D01*
G37*
G36*
X0507579Y0385267D02*
X0506801Y0384489D01*
X0503337Y0387953D01*
X0504115Y0388731D01*
X0507579Y0385267D01*
G37*
G36*
X0508993Y0386681D02*
X0508215Y0385903D01*
X0504751Y0389367D01*
X0505529Y0390145D01*
X0508993Y0386681D01*
G37*
G36*
X0510337Y0388025D02*
X0509559Y0387247D01*
X0506095Y0390711D01*
X0506873Y0391489D01*
X0510337Y0388025D01*
G37*
G36*
X0511751Y0389439D02*
X0510973Y0388661D01*
X0507509Y0392125D01*
X0508287Y0392903D01*
X0511751Y0389439D01*
G37*
G36*
X0513165Y0390853D02*
X0512387Y0390075D01*
X0508923Y0393539D01*
X0509701Y0394317D01*
X0513165Y0390853D01*
G37*
G36*
X0514579Y0392268D02*
X0513801Y0391490D01*
X0510337Y0394954D01*
X0511115Y0395732D01*
X0514579Y0392268D01*
G37*
G36*
X0515923Y0393611D02*
X0515145Y0392833D01*
X0511681Y0396297D01*
X0512459Y0397075D01*
X0515923Y0393611D01*
G37*
G36*
X0517337Y0395025D02*
X0516559Y0394247D01*
X0513095Y0397711D01*
X0513873Y0398489D01*
X0517337Y0395025D01*
G37*
G36*
X0518751Y0396439D02*
X0517973Y0395661D01*
X0514509Y0399125D01*
X0515287Y0399903D01*
X0518751Y0396439D01*
G37*
G36*
X0520095Y0397783D02*
X0519317Y0397005D01*
X0515853Y0400469D01*
X0516631Y0401247D01*
X0520095Y0397783D01*
G37*
G36*
X0524549Y0401247D02*
X0525327Y0400469D01*
X0521863Y0397005D01*
X0521085Y0397783D01*
X0524549Y0401247D01*
G37*
G36*
X0525893Y0399903D02*
X0526671Y0399125D01*
X0523207Y0395661D01*
X0522429Y0396439D01*
X0525893Y0399903D01*
G37*
G36*
X0527307Y0398489D02*
X0528085Y0397711D01*
X0524621Y0394247D01*
X0523843Y0395025D01*
X0527307Y0398489D01*
G37*
G36*
X0528721Y0397075D02*
X0529499Y0396297D01*
X0526035Y0392833D01*
X0525257Y0393611D01*
X0528721Y0397075D01*
G37*
G36*
X0530065Y0395732D02*
X0530843Y0394954D01*
X0527379Y0391490D01*
X0526601Y0392268D01*
X0530065Y0395732D01*
G37*
G36*
X0531479Y0394317D02*
X0532257Y0393539D01*
X0528793Y0390075D01*
X0528015Y0390853D01*
X0531479Y0394317D01*
G37*
G36*
X0532893Y0392903D02*
X0533671Y0392125D01*
X0530207Y0388661D01*
X0529429Y0389439D01*
X0532893Y0392903D01*
G37*
G36*
X0534307Y0391489D02*
X0535085Y0390711D01*
X0531621Y0387247D01*
X0530843Y0388025D01*
X0534307Y0391489D01*
G37*
G36*
X0535651Y0390145D02*
X0536429Y0389367D01*
X0532965Y0385903D01*
X0532187Y0386681D01*
X0535651Y0390145D01*
G37*
G36*
X0537065Y0388731D02*
X0537843Y0387953D01*
X0534379Y0384489D01*
X0533601Y0385267D01*
X0537065Y0388731D01*
G37*
G36*
X0538479Y0387317D02*
X0539257Y0386539D01*
X0535793Y0383075D01*
X0535015Y0383853D01*
X0538479Y0387317D01*
G37*
G36*
X0539823Y0385973D02*
X0540601Y0385195D01*
X0537137Y0381731D01*
X0536359Y0382509D01*
X0539823Y0385973D01*
G37*
D31*
G36*
X0506236Y0381236D02*
X0520590Y0395590D01*
X0534944Y0381236D01*
X0520590Y0366882D01*
X0506236Y0381236D01*
G37*
D32*
X0509276Y0381236D03*
X0514933Y0386893D03*
X0520590Y0392550D03*
X0526954Y0386186D03*
X0531904Y0381236D03*
X0526247Y0375579D03*
X0521297Y0380529D03*
X0515640Y0374872D03*
X0520590Y0369922D03*
D33*
X0534636Y0431357D03*
X0542117Y0431357D03*
X0542117Y0441594D03*
X0538377Y0441594D03*
X0534636Y0441594D03*
D34*
X0478460Y0392324D03*
X0473460Y0392324D03*
X0468460Y0392324D03*
X0463460Y0392324D03*
X0458460Y0392324D03*
X0453460Y0392324D03*
X0448460Y0392324D03*
X0448460Y0372324D03*
X0453460Y0372324D03*
X0458460Y0372324D03*
X0463460Y0372324D03*
X0468460Y0372324D03*
X0473460Y0372324D03*
X0478460Y0372324D03*
D35*
X0425490Y0153302D03*
X0416018Y0153302D03*
X0407814Y0148566D03*
X0403078Y0140362D03*
X0403074Y0130890D03*
X0407814Y0122686D03*
X0416018Y0117946D03*
X0425490Y0117946D03*
X0433694Y0122686D03*
X0438430Y0130890D03*
X0433694Y0148566D03*
X0553078Y0140362D03*
X0557814Y0148566D03*
X0566018Y0153302D03*
X0575490Y0153302D03*
X0583694Y0148566D03*
X0588430Y0130890D03*
X0583694Y0122686D03*
X0575490Y0117946D03*
X0566018Y0117946D03*
X0557814Y0122686D03*
X0553074Y0130890D03*
X0288430Y0130890D03*
X0283694Y0122686D03*
X0275490Y0117946D03*
X0266018Y0117946D03*
X0257814Y0122686D03*
X0253074Y0130890D03*
X0253078Y0140362D03*
X0257814Y0148566D03*
X0266018Y0153302D03*
X0275490Y0153302D03*
X0283694Y0148566D03*
D36*
X0288430Y0140362D03*
X0438430Y0140362D03*
X0588430Y0140362D03*
D37*
X0570754Y0135626D03*
X0420754Y0135626D03*
X0270754Y0135626D03*
D38*
X0625209Y0304142D03*
X0651685Y0304142D03*
D39*
X0600714Y0256476D03*
X0593627Y0256476D03*
X0593627Y0247476D03*
X0600714Y0247476D03*
X0630651Y0215213D03*
X0637737Y0215213D03*
D40*
X0642719Y0230687D03*
X0642719Y0232655D03*
X0642719Y0234624D03*
X0642719Y0236592D03*
X0642719Y0238561D03*
X0642719Y0240529D03*
X0642719Y0242498D03*
X0642719Y0244466D03*
X0623822Y0244466D03*
X0623822Y0242498D03*
X0623822Y0240529D03*
X0623822Y0238561D03*
X0623822Y0236592D03*
X0623822Y0234624D03*
X0623822Y0232655D03*
X0623822Y0230687D03*
D41*
X0591035Y0291676D03*
X0574106Y0291676D03*
D42*
X0264258Y0297512D03*
X0258588Y0297512D03*
X0252919Y0297512D03*
X0247250Y0297512D03*
X0250085Y0302827D03*
X0255754Y0302827D03*
X0261423Y0302827D03*
X0261423Y0292197D03*
X0255754Y0292197D03*
X0250085Y0292197D03*
X0252919Y0286882D03*
X0258588Y0286882D03*
D43*
X0252712Y0359302D03*
X0237751Y0359302D03*
D44*
X0185880Y0348786D03*
D45*
X0208714Y0349731D03*
X0208714Y0359731D03*
X0208714Y0339731D03*
D46*
X0197624Y0236098D03*
X0197624Y0232949D03*
X0197624Y0229799D03*
X0197624Y0226650D03*
X0197624Y0223500D03*
D47*
X0180990Y0210409D03*
X0180990Y0249189D03*
D48*
X0197722Y0249189D03*
X0197722Y0210409D03*
D49*
X0225132Y0405823D03*
X0236943Y0405823D03*
X0248754Y0405823D03*
X0260565Y0405823D03*
X0399132Y0407823D03*
X0410943Y0407823D03*
X0422754Y0407823D03*
X0434565Y0407823D03*
X0581132Y0407823D03*
X0592943Y0407823D03*
X0604754Y0407823D03*
X0616565Y0407823D03*
D50*
X0631840Y0177264D03*
X0631840Y0165453D03*
X0209856Y0175453D03*
X0209856Y0187264D03*
D51*
X0204833Y0287799D03*
X0204833Y0296461D03*
D52*
X0205730Y0303130D03*
X0205730Y0317697D03*
D53*
X0199100Y0316807D03*
X0185714Y0300272D03*
X0212705Y0249291D03*
X0206974Y0240429D03*
X0211305Y0223106D03*
X0211699Y0210508D03*
X0234848Y0207358D03*
X0250848Y0199358D03*
X0222848Y0177358D03*
X0239848Y0125358D03*
X0318785Y0130587D03*
X0477691Y0144466D03*
X0596848Y0221358D03*
X0592848Y0227358D03*
X0586848Y0247358D03*
X0588581Y0256177D03*
X0618848Y0271358D03*
X0636848Y0265358D03*
X0651966Y0266413D03*
X0662009Y0264620D03*
X0629182Y0253798D03*
X0650848Y0225358D03*
X0660848Y0227358D03*
X0638848Y0221358D03*
X0628848Y0187358D03*
X0622848Y0145358D03*
X0456581Y0269563D03*
X0433903Y0279024D03*
X0412763Y0262764D03*
X0402848Y0265358D03*
X0397525Y0272713D03*
X0399494Y0284524D03*
X0372414Y0276154D03*
X0369963Y0281804D03*
X0372360Y0269925D03*
X0370008Y0262947D03*
X0372848Y0249358D03*
X0343982Y0255390D03*
X0343982Y0279406D03*
X0347919Y0288461D03*
X0364848Y0307813D03*
X0376848Y0317358D03*
X0384848Y0327358D03*
X0388848Y0331358D03*
X0396848Y0335358D03*
X0385714Y0352634D03*
X0386502Y0357358D03*
X0395163Y0365232D03*
X0406263Y0368884D03*
X0406187Y0360114D03*
X0400281Y0354209D03*
X0432565Y0346335D03*
X0447525Y0342791D03*
X0454612Y0340823D03*
X0452644Y0348303D03*
X0431818Y0368121D03*
X0440383Y0375584D03*
X0455771Y0385576D03*
X0463403Y0386764D03*
X0469463Y0382284D03*
X0473313Y0379012D03*
X0463982Y0378303D03*
X0482763Y0377164D03*
X0481643Y0367623D03*
X0498707Y0343579D03*
X0511305Y0342791D03*
X0526659Y0343579D03*
X0545089Y0341930D03*
X0555448Y0358458D03*
X0545917Y0391867D03*
X0545757Y0395787D03*
X0545237Y0401547D03*
X0538537Y0401547D03*
X0533187Y0396297D03*
X0539757Y0392407D03*
X0525437Y0405147D03*
X0542117Y0418879D03*
X0558848Y0425358D03*
X0582848Y0421358D03*
X0546738Y0447516D03*
X0501462Y0419169D03*
X0483563Y0397984D03*
X0468392Y0398157D03*
X0458876Y0397977D03*
X0417998Y0393185D03*
X0410848Y0423358D03*
X0422848Y0433358D03*
X0424848Y0441358D03*
X0360518Y0367201D03*
X0356848Y0339358D03*
X0351069Y0332949D03*
X0347919Y0337673D03*
X0342585Y0312692D03*
X0304612Y0335705D03*
X0302644Y0312083D03*
X0274297Y0356177D03*
X0307368Y0376052D03*
X0245588Y0392337D03*
X0239622Y0392219D03*
X0224848Y0417358D03*
X0222848Y0451358D03*
X0236848Y0451358D03*
X0249848Y0451358D03*
X0262848Y0451358D03*
X0219573Y0349484D03*
X0234848Y0253358D03*
X0405963Y0307964D03*
X0439003Y0308204D03*
X0450013Y0324484D03*
X0484140Y0341610D03*
X0577840Y0313264D03*
X0582848Y0317358D03*
X0594376Y0312476D03*
X0600848Y0315759D03*
X0612092Y0312870D03*
X0618848Y0317358D03*
D54*
X0591035Y0291676D02*
X0588401Y0291676D01*
X0626870Y0266120D02*
X0635414Y0257576D01*
X0642724Y0257576D01*
X0642970Y0257330D01*
X0639667Y0254027D01*
X0639667Y0240211D01*
X0641041Y0238837D01*
X0642443Y0238837D01*
X0642719Y0238561D01*
X0630081Y0239608D02*
X0630081Y0233063D01*
X0630651Y0232493D01*
X0630651Y0215213D01*
X0625769Y0220095D01*
X0616983Y0220095D01*
X0616651Y0220427D01*
X0616983Y0213008D02*
X0608693Y0213008D01*
X0604645Y0213056D01*
X0607417Y0227176D02*
X0607417Y0236176D01*
X0623822Y0244466D02*
X0625223Y0244466D01*
X0630081Y0239608D01*
X0628627Y0266120D02*
X0626870Y0266120D01*
X0550848Y0343358D02*
X0550803Y0343403D01*
X0550803Y0350161D01*
X0552803Y0350161D02*
X0552803Y0355813D01*
X0555448Y0358458D01*
X0546915Y0356638D02*
X0546915Y0350173D01*
X0546903Y0350161D01*
X0540871Y0389718D02*
X0542446Y0391293D01*
X0542446Y0398756D01*
X0545237Y0401547D01*
X0538537Y0401547D02*
X0536926Y0399936D01*
X0536926Y0394597D01*
X0530596Y0398172D02*
X0530596Y0400272D01*
X0530596Y0398172D02*
X0527378Y0394954D01*
X0525964Y0396368D02*
X0521506Y0391694D01*
X0519698Y0391774D02*
X0515304Y0396168D01*
X0517974Y0399126D02*
X0520000Y0396903D01*
X0519698Y0391774D01*
X0524550Y0397782D02*
X0524564Y0397782D01*
X0527053Y0400272D01*
X0527053Y0403531D01*
X0525437Y0405147D01*
X0525265Y0412603D02*
X0525058Y0412810D01*
X0516566Y0412810D01*
X0483563Y0397984D02*
X0483563Y0397428D01*
X0478460Y0392324D01*
X0473460Y0392324D02*
X0470760Y0389624D01*
X0470760Y0388677D01*
X0466158Y0384075D01*
X0460803Y0384075D01*
X0457723Y0380995D01*
X0454004Y0380995D01*
X0452612Y0382387D01*
X0449344Y0382387D01*
X0455760Y0375971D01*
X0455760Y0368990D01*
X0455847Y0368990D01*
X0456863Y0367974D01*
X0465673Y0367974D01*
X0470163Y0363484D01*
X0470163Y0348518D01*
X0463853Y0342208D01*
X0463853Y0338324D01*
X0450013Y0324484D01*
X0439003Y0308204D02*
X0439221Y0307987D01*
X0440008Y0294862D01*
X0450008Y0294862D02*
X0436159Y0282587D01*
X0416848Y0282587D01*
X0409367Y0282587D02*
X0409367Y0279768D01*
X0395517Y0265918D01*
X0390666Y0265918D01*
X0390666Y0255682D02*
X0393260Y0253088D01*
X0440040Y0253088D01*
X0440040Y0260569D02*
X0439959Y0260650D01*
X0439959Y0271712D01*
X0440008Y0270846D01*
X0439959Y0271712D02*
X0440923Y0271816D01*
X0450008Y0294862D02*
X0449221Y0304309D01*
X0425980Y0327550D01*
X0425980Y0376188D01*
X0425130Y0377037D01*
X0428280Y0377037D02*
X0429129Y0376188D01*
X0429129Y0326946D01*
X0393634Y0328572D02*
X0393634Y0315937D01*
X0390485Y0315937D02*
X0390485Y0323722D01*
X0384848Y0327358D01*
X0388848Y0331358D02*
X0393634Y0328572D01*
X0355008Y0301486D02*
X0355008Y0285199D01*
X0356375Y0283831D01*
X0362123Y0283831D01*
X0362123Y0271036D02*
X0358054Y0271036D01*
X0352250Y0265232D01*
X0352250Y0245226D01*
X0347751Y0240728D01*
X0347751Y0248995D02*
X0343982Y0252765D01*
X0343982Y0255390D01*
X0356525Y0248954D02*
X0356581Y0249009D01*
X0356581Y0265626D01*
X0357973Y0267018D01*
X0357973Y0267077D01*
X0359373Y0268477D01*
X0362123Y0268477D01*
X0343982Y0279406D02*
X0343648Y0279739D01*
X0343648Y0295761D01*
X0350858Y0305636D02*
X0355008Y0301486D01*
X0305357Y0360201D02*
X0305263Y0360294D01*
X0393634Y0377037D02*
X0394484Y0377887D01*
X0394484Y0379884D01*
X0400587Y0385987D01*
X0454103Y0385987D01*
X0454514Y0385576D01*
X0455771Y0385576D01*
X0453357Y0384187D02*
X0454749Y0382795D01*
X0456977Y0382795D01*
X0458552Y0384370D01*
X0458552Y0386598D01*
X0458460Y0386690D01*
X0458460Y0392324D01*
X0458460Y0389458D01*
X0463403Y0386764D02*
X0463460Y0386821D01*
X0463460Y0392324D01*
X0463664Y0382275D02*
X0466904Y0382275D01*
X0466913Y0382284D01*
X0469463Y0382284D01*
X0473313Y0379012D02*
X0473313Y0372571D01*
X0473510Y0372374D01*
X0473460Y0372324D01*
X0468460Y0372324D02*
X0468460Y0370187D01*
X0471163Y0367484D01*
X0481504Y0367484D01*
X0481643Y0367623D01*
X0462040Y0360165D02*
X0454231Y0367974D01*
X0446863Y0367974D01*
X0444728Y0370109D01*
X0438357Y0370109D01*
X0446144Y0380587D02*
X0450760Y0375971D01*
X0450760Y0375024D01*
X0453460Y0372324D01*
X0458460Y0372324D02*
X0458463Y0372328D01*
X0458463Y0377074D01*
X0463664Y0382275D01*
X0453357Y0384187D02*
X0401936Y0384187D01*
X0397633Y0379884D01*
X0397633Y0377887D01*
X0396784Y0377037D01*
X0399933Y0377037D02*
X0400783Y0377887D01*
X0400783Y0379884D01*
X0403286Y0382387D01*
X0449344Y0382387D01*
X0446144Y0380587D02*
X0404636Y0380587D01*
X0403933Y0379884D01*
X0403933Y0377887D01*
X0403083Y0377037D01*
X0406233Y0377037D02*
X0406263Y0377007D01*
X0406263Y0368884D01*
X0447810Y0392284D02*
X0447850Y0392324D01*
X0448460Y0392324D01*
X0365481Y0240686D02*
X0356525Y0240686D01*
X0365481Y0240686D02*
X0365962Y0239549D01*
X0268848Y0181358D02*
X0616848Y0181358D01*
X0631840Y0166366D01*
X0631840Y0165453D01*
X0576144Y0153563D02*
X0575490Y0153302D01*
X0553078Y0140362D02*
X0552314Y0139205D01*
X0551058Y0132512D02*
X0553074Y0130890D01*
X0534261Y0122292D02*
X0532348Y0124205D01*
X0532348Y0117512D02*
X0565971Y0117512D01*
X0566018Y0117558D01*
X0532348Y0132512D02*
X0530041Y0130205D01*
X0532348Y0139205D02*
X0531541Y0140012D01*
X0532348Y0147512D02*
X0533009Y0148172D01*
X0518155Y0147512D02*
X0517348Y0146705D01*
X0516541Y0124205D02*
X0515848Y0123512D01*
X0459541Y0125705D02*
X0458848Y0125012D01*
X0436413Y0125012D02*
X0433694Y0122686D01*
X0425490Y0117946D02*
X0419896Y0111958D01*
X0362748Y0111958D01*
X0358348Y0116358D01*
X0355695Y0116358D01*
X0349002Y0116358D02*
X0349002Y0117512D01*
X0380502Y0116358D02*
X0380848Y0116012D01*
X0380848Y0122705D02*
X0380041Y0123512D01*
X0380041Y0130205D02*
X0380848Y0131012D01*
X0380502Y0137358D02*
X0380848Y0137705D01*
X0367695Y0141512D02*
X0367348Y0141512D01*
X0369541Y0146012D02*
X0367348Y0148205D01*
X0400814Y0137705D02*
X0403078Y0140362D01*
X0405653Y0146012D02*
X0407814Y0148566D01*
X0415208Y0153718D02*
X0416018Y0153302D01*
X0425490Y0153302D02*
X0427940Y0155358D01*
X0403074Y0130890D02*
X0402558Y0131012D01*
X0407401Y0122705D02*
X0407814Y0122686D01*
X0414477Y0116012D02*
X0416018Y0117946D01*
X0325002Y0165858D02*
X0323502Y0164358D01*
X0310695Y0152358D02*
X0310348Y0152705D01*
X0310145Y0152908D01*
X0310348Y0139205D02*
X0311848Y0137705D01*
X0275490Y0117946D02*
X0271396Y0111958D01*
X0239402Y0111958D01*
X0232002Y0119358D01*
X0238695Y0119358D02*
X0239848Y0120512D01*
X0254914Y0122292D02*
X0257814Y0122686D01*
X0229002Y0129858D02*
X0226906Y0129585D01*
X0226348Y0129512D01*
X0226695Y0135858D02*
X0226348Y0136205D01*
X0226348Y0161705D02*
X0227502Y0162858D01*
X0228364Y0162858D01*
X0266018Y0153302D02*
X0267398Y0152908D01*
X0268848Y0181358D02*
X0250848Y0199358D01*
D55*
X0234848Y0207358D02*
X0234848Y0216012D01*
X0211699Y0210508D02*
X0211305Y0210508D01*
X0211207Y0210409D01*
X0197722Y0210409D01*
X0180990Y0210409D01*
X0197624Y0223500D02*
X0210911Y0223500D01*
X0211305Y0223106D01*
X0202644Y0236098D02*
X0197624Y0236098D01*
X0202644Y0236098D02*
X0206974Y0240429D01*
X0212705Y0249291D02*
X0197824Y0249291D01*
X0197722Y0249189D01*
X0180990Y0249189D01*
X0234848Y0246705D02*
X0234848Y0253358D01*
X0199100Y0316807D02*
X0199011Y0316896D01*
X0192518Y0316896D01*
X0207368Y0332949D02*
X0207368Y0338384D01*
X0208714Y0339731D01*
X0224644Y0366452D02*
X0224644Y0371531D01*
X0225431Y0372319D01*
X0300485Y0375470D02*
X0306786Y0375470D01*
X0307368Y0376052D01*
X0360518Y0367201D02*
X0360518Y0366142D01*
X0365294Y0361366D01*
X0356848Y0339358D02*
X0358588Y0337619D01*
X0365314Y0337619D01*
X0351069Y0332949D02*
X0335294Y0332976D01*
X0338802Y0332976D01*
X0342585Y0312692D02*
X0343377Y0311900D01*
X0343377Y0305636D01*
X0362123Y0281272D02*
X0369431Y0281272D01*
X0369963Y0281804D01*
X0390666Y0271036D02*
X0396243Y0271036D01*
X0397132Y0271925D01*
X0397132Y0272319D01*
X0397525Y0272713D01*
X0399494Y0284524D02*
X0399494Y0288976D01*
X0399686Y0289168D01*
X0417226Y0270407D02*
X0417226Y0267227D01*
X0412763Y0262764D01*
X0430008Y0270846D02*
X0430008Y0275129D01*
X0433903Y0279024D01*
X0405963Y0307964D02*
X0397603Y0307964D01*
X0397160Y0308407D01*
X0432565Y0335311D02*
X0432718Y0335464D01*
X0438357Y0335464D01*
X0438357Y0332314D02*
X0445710Y0332314D01*
X0463460Y0372324D02*
X0463982Y0372846D01*
X0463982Y0378303D01*
X0468460Y0392324D02*
X0468460Y0398089D01*
X0468392Y0398157D01*
X0434565Y0407823D02*
X0432848Y0409539D01*
X0432848Y0433358D01*
X0424848Y0441358D01*
X0422848Y0433358D02*
X0422754Y0433264D01*
X0422754Y0407823D01*
X0410943Y0407823D02*
X0410848Y0407917D01*
X0410848Y0423358D01*
X0508004Y0381236D02*
X0520590Y0381236D01*
X0520984Y0380842D01*
X0532192Y0380842D01*
X0520590Y0381236D02*
X0520590Y0392550D01*
X0519698Y0391774D02*
X0520590Y0381236D01*
X0579172Y0361177D02*
X0582508Y0361177D01*
X0585930Y0364599D01*
X0590653Y0364599D01*
X0594475Y0360777D01*
X0595772Y0360777D01*
X0600908Y0360777D01*
X0604630Y0364499D01*
X0609353Y0364499D01*
X0613175Y0360677D01*
X0614472Y0360677D01*
X0612672Y0320477D02*
X0615791Y0317358D01*
X0618848Y0317358D01*
X0600848Y0315759D02*
X0600490Y0315759D01*
X0595472Y0320777D01*
X0582848Y0317358D02*
X0581691Y0317358D01*
X0578372Y0320677D01*
X0618848Y0271358D02*
X0618873Y0271333D01*
X0625670Y0271333D01*
X0636270Y0271333D02*
X0636270Y0265936D01*
X0636848Y0265358D01*
X0626870Y0259033D02*
X0626870Y0256109D01*
X0629182Y0253798D01*
X0651770Y0266609D02*
X0651966Y0266413D01*
X0651770Y0266609D02*
X0651770Y0271233D01*
X0661670Y0271333D02*
X0661670Y0264958D01*
X0662009Y0264620D01*
X0659970Y0232283D02*
X0659970Y0228236D01*
X0660848Y0227358D01*
X0650848Y0225358D02*
X0650270Y0225936D01*
X0650270Y0232283D01*
X0638848Y0221358D02*
X0638848Y0216324D01*
X0637737Y0215213D01*
X0628848Y0187358D02*
X0631840Y0184366D01*
X0631840Y0177264D01*
X0622848Y0145358D02*
X0615848Y0144358D01*
X0611848Y0148512D01*
X0604645Y0220142D02*
X0598064Y0220142D01*
X0596848Y0221358D01*
X0600724Y0227176D02*
X0600542Y0227358D01*
X0592848Y0227358D01*
X0593627Y0247476D02*
X0586966Y0247476D01*
X0586848Y0247358D01*
X0588581Y0256177D02*
X0589368Y0256177D01*
X0589762Y0256571D01*
X0589856Y0256476D01*
X0593627Y0256476D01*
X0477691Y0144466D02*
X0466394Y0144466D01*
X0466348Y0144512D01*
X0318785Y0130587D02*
X0312273Y0130587D01*
X0311848Y0131012D01*
X0222848Y0177358D02*
X0220943Y0175453D01*
X0209856Y0175453D01*
X0362123Y0260800D02*
X0362123Y0263359D01*
X0369596Y0263359D01*
X0370008Y0262947D01*
D56*
X0362123Y0276154D02*
X0362123Y0278713D01*
X0390666Y0258241D02*
X0417760Y0258241D01*
X0422923Y0263404D01*
X0422923Y0274044D01*
X0420763Y0276204D01*
X0415563Y0276204D01*
X0413026Y0278741D01*
X0413026Y0285996D01*
X0410320Y0288702D01*
X0410320Y0292167D01*
X0439221Y0274490D02*
X0454726Y0289996D01*
X0454726Y0301349D01*
X0429129Y0326946D01*
X0377257Y0326015D02*
X0343697Y0326015D01*
X0343257Y0325576D01*
X0334346Y0325576D01*
X0332992Y0326929D01*
X0332992Y0339022D01*
X0334673Y0340703D01*
X0336529Y0340703D01*
X0338802Y0342976D01*
X0339991Y0329165D02*
X0338802Y0327976D01*
X0339991Y0329165D02*
X0377257Y0329165D01*
X0431818Y0368121D02*
X0435340Y0368121D01*
X0435552Y0367909D01*
X0437408Y0367909D01*
X0438357Y0366960D01*
X0443643Y0372324D02*
X0440383Y0375584D01*
X0443643Y0372324D02*
X0448460Y0372324D01*
X0425177Y0393244D02*
X0418057Y0393244D01*
X0417998Y0393185D01*
X0483903Y0350161D02*
X0483903Y0341846D01*
X0484140Y0341610D01*
X0497703Y0344976D02*
X0497703Y0350161D01*
X0497703Y0344976D02*
X0498707Y0343972D01*
X0498707Y0343579D01*
X0511305Y0342791D02*
X0511403Y0342890D01*
X0511403Y0345252D01*
X0511502Y0345154D01*
X0513273Y0345154D01*
X0513273Y0350031D01*
X0511403Y0350161D02*
X0511403Y0345252D01*
X0526659Y0343579D02*
X0529203Y0346123D01*
X0529203Y0350161D01*
X0527203Y0350161D02*
X0527203Y0344123D01*
X0526659Y0343579D01*
X0542903Y0350161D02*
X0544903Y0350161D01*
X0544903Y0342115D01*
X0545089Y0341930D01*
X0548803Y0345644D01*
X0548803Y0350161D01*
X0544770Y0342249D02*
X0545089Y0341930D01*
X0520393Y0365963D02*
X0520393Y0369726D01*
X0520590Y0369922D01*
X0520393Y0365963D02*
X0517974Y0363346D01*
X0532192Y0380842D02*
X0537136Y0385196D01*
X0535722Y0386610D02*
X0538830Y0389718D01*
X0540871Y0389718D01*
X0539757Y0392407D02*
X0538874Y0392407D01*
X0534491Y0388024D01*
X0534308Y0388024D01*
X0533078Y0389368D02*
X0536926Y0393216D01*
X0536926Y0394597D01*
X0533746Y0395739D02*
X0533746Y0392791D01*
X0531737Y0390782D01*
X0531550Y0390782D01*
X0532964Y0389368D02*
X0533078Y0389368D01*
X0532964Y0389368D01*
X0533746Y0395739D02*
X0533187Y0396297D01*
X0523206Y0399126D02*
X0523081Y0399126D01*
X0516423Y0405783D01*
X0516423Y0412668D01*
X0516566Y0412810D01*
X0508155Y0422436D02*
X0508172Y0422453D01*
X0508155Y0422436D02*
X0508155Y0397909D01*
X0512454Y0393611D01*
X0512458Y0393611D01*
X0625209Y0304142D02*
X0625209Y0283592D01*
X0616259Y0274643D01*
X0616259Y0270286D01*
X0622848Y0263697D01*
X0622848Y0253234D01*
X0641082Y0235000D01*
X0642343Y0235000D01*
X0642719Y0234624D01*
X0642719Y0232655D01*
X0642719Y0230687D01*
X0642719Y0240529D02*
X0649111Y0240529D01*
X0650270Y0239370D01*
X0623822Y0242498D02*
X0613738Y0242498D01*
X0607417Y0236176D01*
X0440008Y0270846D02*
X0439221Y0274490D01*
X0314602Y0327976D02*
X0310263Y0323637D01*
X0310263Y0319281D01*
X0302783Y0319281D02*
X0302783Y0312222D01*
X0302644Y0312083D01*
X0304596Y0335688D02*
X0297703Y0335688D01*
X0304596Y0335688D02*
X0304612Y0335705D01*
X0281954Y0365635D02*
X0291789Y0375470D01*
X0292218Y0375470D01*
D57*
X0192407Y0134917D03*
X0649100Y0134917D03*
X0649100Y0438067D03*
X0192407Y0438067D03*
D58*
X0487803Y0363723D02*
X0487803Y0350161D01*
X0489803Y0350161D02*
X0489803Y0363036D01*
X0504044Y0377276D01*
X0502700Y0378620D02*
X0487803Y0363723D01*
X0491803Y0362208D02*
X0505458Y0375862D01*
X0506872Y0374448D02*
X0493703Y0361279D01*
X0493703Y0350161D01*
X0491803Y0350161D02*
X0491803Y0362208D01*
X0495703Y0360592D02*
X0508216Y0373104D01*
X0509630Y0371690D02*
X0499603Y0361664D01*
X0499603Y0350161D01*
X0501603Y0350161D02*
X0501603Y0360835D01*
X0511044Y0370276D01*
X0512458Y0368862D02*
X0503603Y0360007D01*
X0503603Y0350161D01*
X0505503Y0350161D02*
X0505503Y0359220D01*
X0513802Y0367518D01*
X0515216Y0366104D02*
X0507503Y0358391D01*
X0507503Y0350161D01*
X0509503Y0350161D02*
X0509503Y0357563D01*
X0516630Y0364690D01*
X0523206Y0363346D02*
X0515403Y0355543D01*
X0515403Y0350161D01*
X0513403Y0350161D02*
X0513273Y0350031D01*
X0517403Y0350161D02*
X0517403Y0355846D01*
X0518594Y0357037D01*
X0518299Y0356742D01*
X0518594Y0357037D02*
X0521882Y0360325D01*
X0524923Y0360325D01*
X0525302Y0360705D01*
X0525321Y0360705D01*
X0526541Y0361925D01*
X0526541Y0362673D01*
X0524550Y0364665D01*
X0524550Y0364690D01*
X0525964Y0366104D02*
X0527741Y0364327D01*
X0527741Y0361428D01*
X0526521Y0360208D01*
X0526521Y0360208D01*
X0519303Y0352990D01*
X0519303Y0350161D01*
X0521303Y0350161D02*
X0521303Y0353293D01*
X0528941Y0360931D01*
X0528941Y0361925D01*
X0528941Y0363830D01*
X0528985Y0363874D01*
X0528985Y0365911D01*
X0527378Y0367518D01*
X0528722Y0368862D02*
X0530872Y0366712D01*
X0530872Y0361059D01*
X0523303Y0353491D01*
X0523303Y0350161D01*
X0525203Y0350161D02*
X0525203Y0353693D01*
X0532072Y0360562D01*
X0532072Y0365172D01*
X0532092Y0365193D01*
X0532092Y0368320D01*
X0530136Y0370276D01*
X0531550Y0371690D02*
X0533292Y0369948D01*
X0533292Y0360085D01*
X0531103Y0357896D01*
X0531103Y0350161D01*
X0533103Y0350161D02*
X0533103Y0358199D01*
X0534572Y0359667D01*
X0534572Y0371497D01*
X0532964Y0373104D01*
X0534308Y0374448D02*
X0535986Y0372770D01*
X0535986Y0359385D01*
X0535103Y0358502D01*
X0535103Y0350161D01*
X0537003Y0350161D02*
X0537003Y0358705D01*
X0537329Y0359031D01*
X0537329Y0374255D01*
X0535722Y0375862D01*
X0537136Y0377276D02*
X0539003Y0375409D01*
X0539003Y0350161D01*
X0541003Y0350161D02*
X0541003Y0376096D01*
X0538480Y0378620D01*
X0528941Y0361925D02*
X0528941Y0361925D01*
X0511403Y0345252D02*
X0511305Y0345154D01*
X0495703Y0350161D02*
X0495703Y0360592D01*
X0512651Y0390589D02*
X0514316Y0390589D01*
X0515480Y0391753D01*
X0515480Y0393341D01*
X0513867Y0394954D01*
X0511044Y0392196D02*
X0512651Y0390589D01*
X0655480Y0239370D02*
X0653005Y0236895D01*
X0643022Y0236895D01*
X0642719Y0236592D01*
X0655480Y0239370D02*
X0659970Y0239370D01*
X0566018Y0153302D02*
X0564721Y0154205D01*
X0611502Y0131358D02*
X0611848Y0131012D01*
X0612541Y0131705D01*
X0615195Y0125358D02*
X0616348Y0124205D01*
X0617155Y0125012D01*
X0566018Y0117946D02*
X0566018Y0117558D01*
X0566018Y0115489D01*
D59*
X0508004Y0381236D02*
X0504044Y0385196D01*
X0511044Y0392196D02*
X0511113Y0392196D01*
X0511044Y0392196D02*
X0508253Y0394987D01*
X0507259Y0394987D01*
D60*
X0513802Y0394954D02*
X0513867Y0394954D01*
X0515304Y0396168D02*
X0515216Y0396368D01*
D61*
X0458876Y0397977D02*
X0457774Y0396874D01*
X0456780Y0396874D01*
X0455960Y0396054D01*
X0455960Y0394824D01*
X0453460Y0392324D01*
X0406187Y0360114D02*
X0393014Y0373287D01*
X0388805Y0373287D01*
X0387985Y0374108D01*
X0387985Y0376388D01*
X0387335Y0377037D01*
X0384185Y0377037D02*
X0384185Y0374757D01*
X0387855Y0371087D01*
X0389308Y0371087D01*
X0395163Y0365232D01*
X0384381Y0370109D02*
X0400281Y0354209D01*
X0384381Y0370109D02*
X0377257Y0370109D01*
X0371082Y0353885D02*
X0365294Y0353885D01*
X0361724Y0353885D01*
X0358763Y0350924D01*
X0357332Y0350924D01*
X0357332Y0350924D01*
X0328923Y0350924D01*
X0327163Y0352684D01*
X0327163Y0356204D01*
X0331160Y0360201D01*
X0343357Y0360201D01*
X0358243Y0348724D02*
X0327612Y0348724D01*
X0324483Y0351853D01*
X0324483Y0356324D01*
X0320607Y0360201D01*
X0305357Y0360201D01*
X0305346Y0339057D02*
X0289413Y0339057D01*
X0289041Y0339428D01*
X0264805Y0315192D01*
X0264805Y0308897D01*
X0261423Y0305515D01*
X0261423Y0302827D01*
X0264258Y0300458D02*
X0267005Y0303205D01*
X0267005Y0314281D01*
X0284672Y0331948D01*
X0289041Y0331948D01*
X0290833Y0331948D01*
X0313574Y0331948D01*
X0314602Y0332976D01*
X0314602Y0337976D02*
X0306427Y0337976D01*
X0305346Y0339057D01*
X0358243Y0348724D02*
X0361868Y0345099D01*
X0365314Y0345099D01*
X0371258Y0345099D01*
X0374203Y0348044D01*
X0377239Y0348044D01*
X0377257Y0348062D01*
X0377257Y0351212D02*
X0377225Y0351244D01*
X0373723Y0351244D01*
X0371082Y0353885D01*
X0264258Y0300458D02*
X0264258Y0297512D01*
X0362123Y0276154D02*
X0372414Y0276154D01*
X0368690Y0273595D02*
X0362123Y0273595D01*
X0577619Y0305761D02*
X0577840Y0305983D01*
X0577840Y0313264D01*
X0594376Y0312476D02*
X0594578Y0312274D01*
X0594578Y0305627D01*
X0591035Y0291676D02*
X0612744Y0291676D01*
X0625209Y0304142D01*
X0612092Y0305628D02*
X0612092Y0312870D01*
X0612092Y0305628D02*
X0611978Y0305514D01*
X0642848Y0249358D02*
X0642848Y0244595D01*
X0642719Y0244466D01*
X0642719Y0242498D01*
X0623822Y0238561D02*
X0623822Y0236592D01*
X0623822Y0234624D01*
X0623822Y0232655D01*
X0623822Y0230687D01*
X0623822Y0226331D01*
X0622848Y0225358D01*
D62*
X0606695Y0164358D02*
X0603695Y0164358D01*
X0591509Y0148172D01*
X0583694Y0148566D01*
X0576144Y0153563D02*
X0586940Y0164358D01*
X0597002Y0164358D01*
X0606695Y0164358D02*
X0611848Y0155205D01*
X0612541Y0131705D02*
X0627348Y0131705D01*
X0627348Y0125012D02*
X0617155Y0125012D01*
X0615195Y0125358D02*
X0602848Y0125358D01*
X0595042Y0117552D01*
X0575490Y0117946D01*
X0569848Y0113158D02*
X0566018Y0115489D01*
X0569848Y0113158D02*
X0612932Y0113158D01*
X0616348Y0117512D01*
X0611502Y0131358D02*
X0598348Y0131358D01*
X0589282Y0122292D01*
X0583694Y0122686D01*
X0557814Y0122686D02*
X0534261Y0122292D01*
X0532348Y0124205D02*
X0516541Y0124205D01*
X0515848Y0130205D02*
X0530041Y0130205D01*
X0532348Y0132512D02*
X0551058Y0132512D01*
X0552314Y0139205D02*
X0532348Y0139205D01*
X0531541Y0140012D02*
X0517348Y0140012D01*
X0518155Y0147512D02*
X0532348Y0147512D01*
X0533009Y0148172D02*
X0557814Y0148566D01*
X0553348Y0154205D02*
X0546195Y0161358D01*
X0544002Y0165858D02*
X0562540Y0165858D01*
X0575490Y0153302D01*
X0564721Y0154205D02*
X0553348Y0154205D01*
X0532348Y0154205D01*
X0539502Y0161358D02*
X0544002Y0165858D01*
X0470848Y0125705D02*
X0459541Y0125705D01*
X0458848Y0125012D02*
X0436413Y0125012D01*
X0425490Y0117946D02*
X0428184Y0114858D01*
X0466695Y0114858D01*
X0470848Y0119012D01*
X0458848Y0131705D02*
X0457640Y0130496D01*
X0436726Y0151205D02*
X0433694Y0148566D01*
X0436726Y0151205D02*
X0466348Y0151205D01*
X0459195Y0158358D01*
X0452502Y0158358D02*
X0449502Y0155358D01*
X0427940Y0155358D01*
X0425490Y0153302D02*
X0423798Y0152908D01*
X0418348Y0158358D01*
X0391695Y0158358D01*
X0391348Y0158705D01*
X0391348Y0152012D02*
X0401502Y0152012D01*
X0403348Y0153858D01*
X0415068Y0153858D01*
X0415208Y0153718D01*
X0405653Y0146012D02*
X0380848Y0146012D01*
X0369541Y0146012D01*
X0367695Y0141512D02*
X0371848Y0137358D01*
X0380502Y0137358D01*
X0380848Y0137705D02*
X0400814Y0137705D01*
X0402558Y0131012D02*
X0380848Y0131012D01*
X0380041Y0130205D02*
X0367348Y0130205D01*
X0367348Y0123512D02*
X0380041Y0123512D01*
X0380848Y0122705D02*
X0407401Y0122705D01*
X0414477Y0116012D02*
X0380848Y0116012D01*
X0380502Y0116358D02*
X0364348Y0116358D01*
X0358348Y0122358D01*
X0353848Y0122358D01*
X0349002Y0117512D01*
X0310002Y0117858D02*
X0288128Y0117858D01*
X0283694Y0122686D01*
X0266018Y0117946D02*
X0250654Y0117552D01*
X0241348Y0129858D01*
X0229002Y0129858D01*
X0226906Y0129585D02*
X0226726Y0129405D01*
X0226348Y0129512D02*
X0213955Y0129512D01*
X0213848Y0129405D01*
X0213848Y0122712D02*
X0228648Y0122712D01*
X0232002Y0119358D01*
X0239848Y0120512D02*
X0239848Y0125358D01*
X0241348Y0135858D02*
X0254914Y0122292D01*
X0253074Y0130890D02*
X0239058Y0144512D01*
X0226348Y0144512D01*
X0225155Y0145705D01*
X0212448Y0145705D01*
X0215155Y0151205D02*
X0211348Y0155012D01*
X0215155Y0151205D02*
X0226348Y0151205D01*
X0241841Y0151205D01*
X0253078Y0140362D01*
X0257814Y0148566D02*
X0247993Y0156493D01*
X0233229Y0156493D01*
X0228364Y0162858D01*
X0226348Y0161705D02*
X0211348Y0161705D01*
X0234195Y0162858D02*
X0256068Y0162858D01*
X0266018Y0153302D01*
X0267398Y0152908D02*
X0278848Y0164358D01*
X0323502Y0164358D01*
X0331695Y0165858D02*
X0331695Y0160205D01*
X0323848Y0152358D01*
X0310695Y0152358D01*
X0310145Y0152908D02*
X0275490Y0153302D01*
X0283694Y0148566D02*
X0285854Y0146012D01*
X0310348Y0146012D01*
X0310348Y0139205D01*
X0241348Y0135858D02*
X0226695Y0135858D01*
X0226348Y0136205D02*
X0215255Y0136205D01*
X0212448Y0139012D01*
X0380848Y0152705D02*
X0381541Y0152012D01*
X0391348Y0152012D01*
X0372360Y0269925D02*
X0368690Y0273595D01*
X0351129Y0291670D02*
X0347919Y0288461D01*
X0351129Y0291670D02*
X0351129Y0295761D01*
X0374414Y0298414D02*
X0374880Y0298881D01*
X0374880Y0305271D01*
X0371744Y0308407D01*
X0378848Y0311358D02*
X0381799Y0308407D01*
X0386311Y0308407D01*
X0393616Y0308407D01*
X0393617Y0308407D01*
X0386311Y0308407D02*
X0386311Y0302831D01*
X0392895Y0296247D01*
X0399686Y0296254D01*
X0403079Y0299647D01*
X0410320Y0299647D01*
X0425222Y0299647D01*
X0430008Y0294862D01*
X0386311Y0302831D02*
X0382361Y0298881D01*
X0378848Y0311358D02*
X0378848Y0315358D01*
X0376848Y0317358D01*
X0396848Y0335358D02*
X0396848Y0351358D01*
X0389591Y0358616D01*
X0389591Y0358638D01*
X0387568Y0360661D01*
X0377257Y0360661D01*
X0377257Y0357511D02*
X0377407Y0357361D01*
X0380394Y0357361D01*
X0380398Y0357358D01*
X0386502Y0357358D01*
X0383987Y0354361D02*
X0385714Y0352634D01*
X0383987Y0354361D02*
X0377257Y0354361D01*
X0432565Y0359327D02*
X0432565Y0346335D01*
X0442307Y0348009D02*
X0442307Y0352975D01*
X0441370Y0353912D01*
X0438807Y0353912D01*
X0438357Y0354361D01*
X0438357Y0357511D02*
X0443436Y0357511D01*
X0452644Y0348303D01*
X0447525Y0342791D02*
X0442307Y0348009D01*
X0438357Y0360661D02*
X0433899Y0360661D01*
X0432565Y0359327D01*
X0520590Y0381236D02*
X0521506Y0382152D01*
X0521506Y0391694D01*
X0516566Y0419503D02*
X0516566Y0425326D01*
X0516423Y0425469D01*
X0508172Y0429539D02*
X0501329Y0429539D01*
X0501069Y0429799D01*
X0538377Y0441594D02*
X0538377Y0447216D01*
X0538077Y0447516D01*
X0558974Y0441530D02*
X0565322Y0441530D01*
X0565636Y0441217D01*
X0250085Y0292197D02*
X0245687Y0287799D01*
X0204833Y0287799D01*
D63*
X0207368Y0332949D03*
X0622848Y0225358D03*
X0642848Y0249358D03*
D64*
X0432565Y0335311D03*
X0225431Y0372319D03*
D65*
X0501069Y0429799D03*
X0516423Y0425469D03*
X0538077Y0447516D03*
X0565636Y0441217D03*
D66*
X0552281Y0441530D02*
X0552218Y0441594D01*
X0546738Y0441594D01*
X0542117Y0441594D01*
X0541759Y0441236D01*
X0541759Y0438279D01*
X0540412Y0436931D01*
X0536341Y0436931D01*
X0534994Y0438279D01*
X0534994Y0441236D01*
X0534636Y0441594D01*
X0546738Y0441594D02*
X0546738Y0447516D01*
X0542117Y0431357D02*
X0542117Y0418879D01*
X0541699Y0419296D01*
X0525265Y0419296D01*
X0542116Y0418878D02*
X0542116Y0411791D01*
X0543010Y0411791D01*
X0555892Y0398909D01*
X0555892Y0365614D01*
X0546915Y0356638D01*
X0550848Y0343358D02*
X0550848Y0314934D01*
X0574106Y0291676D01*
X0574106Y0283084D01*
X0600714Y0256476D01*
X0636270Y0278420D02*
X0642848Y0278420D01*
X0642948Y0278320D01*
X0651770Y0278320D01*
X0642970Y0278298D02*
X0642948Y0278320D01*
X0642970Y0278298D02*
X0642970Y0264023D01*
X0605285Y0305514D02*
X0605192Y0305608D01*
X0605192Y0320477D01*
X0608932Y0328351D02*
X0613682Y0333102D01*
X0613682Y0345214D01*
X0606992Y0345217D02*
X0606989Y0345214D01*
X0606992Y0345217D02*
X0606992Y0360677D01*
X0610732Y0368551D02*
X0611081Y0368901D01*
X0611081Y0376510D01*
X0611081Y0387534D02*
X0616565Y0393017D01*
X0616565Y0407823D01*
X0604754Y0407823D02*
X0604754Y0399754D01*
X0592239Y0387239D01*
X0592239Y0376215D02*
X0592239Y0368858D01*
X0592032Y0368651D01*
X0588292Y0360777D02*
X0588292Y0345812D01*
X0588389Y0345714D01*
X0595082Y0345714D02*
X0595082Y0332002D01*
X0591732Y0328651D01*
X0587992Y0320777D02*
X0587992Y0306520D01*
X0587885Y0305627D01*
X0570926Y0305761D02*
X0570892Y0305796D01*
X0570892Y0320677D01*
X0574632Y0328551D02*
X0578278Y0332198D01*
X0578278Y0345714D01*
X0571692Y0345820D02*
X0571585Y0345714D01*
X0571692Y0345820D02*
X0571692Y0361177D01*
X0575432Y0369051D02*
X0575703Y0369323D01*
X0575703Y0376287D01*
X0575703Y0387310D02*
X0592943Y0404550D01*
X0592943Y0407823D01*
X0581132Y0407823D02*
X0581132Y0419642D01*
X0582848Y0421358D01*
X0558848Y0425358D02*
X0558848Y0431317D01*
X0558836Y0431330D01*
X0542117Y0418879D02*
X0542116Y0418878D01*
X0542116Y0411791D02*
X0530596Y0400272D01*
X0507259Y0394987D02*
X0501151Y0401095D01*
X0500400Y0401846D01*
X0455399Y0401846D01*
X0448460Y0394907D01*
X0448460Y0392324D01*
X0443634Y0392284D02*
X0442674Y0393244D01*
X0431870Y0393244D01*
X0462040Y0348354D02*
X0462040Y0348250D01*
X0454612Y0340823D01*
X0446103Y0332314D01*
X0445710Y0332314D01*
X0351129Y0287339D02*
X0351069Y0287280D01*
X0347919Y0337673D02*
X0335806Y0337976D01*
X0338802Y0337976D01*
X0274473Y0356354D02*
X0274297Y0356177D01*
X0274473Y0356354D02*
X0274473Y0365635D01*
X0261305Y0359327D02*
X0261281Y0359302D01*
X0252712Y0359302D01*
X0237751Y0359302D02*
X0225100Y0359302D01*
X0224644Y0359759D01*
X0208743Y0359759D01*
X0208714Y0359731D01*
X0208714Y0349731D02*
X0219326Y0349731D01*
X0219573Y0349484D01*
X0208714Y0349731D02*
X0207770Y0348786D01*
X0185880Y0348786D01*
X0185880Y0316951D01*
X0185825Y0316896D01*
X0185825Y0300382D01*
X0185714Y0300272D01*
X0261305Y0377831D02*
X0261305Y0405083D01*
X0260565Y0405823D01*
X0248754Y0405823D02*
X0248754Y0395503D01*
X0245588Y0392337D01*
X0239622Y0392219D02*
X0236943Y0394898D01*
X0236943Y0405823D01*
X0225132Y0405823D02*
X0224848Y0405539D01*
X0224848Y0417358D01*
X0224848Y0405539D02*
X0224848Y0403358D01*
X0450008Y0270846D02*
X0454510Y0271633D01*
X0456581Y0269563D01*
X0595245Y0137705D02*
X0588430Y0130890D01*
X0595245Y0137705D02*
X0611848Y0137705D01*
X0458848Y0131705D02*
X0458034Y0130890D01*
X0438430Y0130890D01*
X0316695Y0120866D02*
X0316695Y0117858D01*
X0316695Y0120866D02*
X0314455Y0123106D01*
X0296213Y0123106D01*
X0288430Y0130890D01*
X0501151Y0401095D02*
X0501151Y0418858D01*
X0501462Y0419169D01*
D67*
X0580596Y0452240D02*
X0614222Y0418614D01*
X0626848Y0418614D01*
X0661670Y0383792D01*
X0661670Y0347479D01*
X0648472Y0360677D01*
X0614472Y0360677D01*
X0661670Y0347479D02*
X0661670Y0305358D01*
X0652902Y0305358D01*
X0651685Y0304142D01*
X0661670Y0305358D02*
X0661670Y0278420D01*
X0580596Y0452240D02*
X0335714Y0452240D01*
X0261305Y0377831D01*
X0261305Y0359327D01*
X0261305Y0316020D01*
X0259628Y0317697D01*
X0205730Y0317697D01*
X0205730Y0303130D02*
X0205730Y0297358D01*
X0204833Y0296461D01*
X0200155Y0296461D01*
X0196344Y0300272D01*
X0255754Y0302827D02*
X0255754Y0304795D01*
X0261305Y0310346D01*
X0261305Y0316020D01*
D68*
X0196344Y0300272D03*
D69*
X0274473Y0365635D02*
X0274733Y0365976D01*
X0443634Y0392284D02*
X0447810Y0392284D01*
X0542117Y0431357D02*
X0552115Y0431357D01*
X0552143Y0431330D01*
X0625670Y0278420D02*
X0636270Y0278420D01*
X0651770Y0278320D02*
X0651870Y0278420D01*
X0661670Y0278420D01*
X0661714Y0278376D01*
X0600714Y0256476D02*
X0600714Y0247476D01*
X0600724Y0242680D01*
X0600724Y0236176D01*
D70*
X0409746Y0270407D02*
X0407897Y0270407D01*
X0402848Y0265358D01*
X0400849Y0263359D01*
X0390666Y0263359D01*
X0381868Y0279781D02*
X0372699Y0288950D01*
X0362123Y0288950D01*
X0362123Y0286391D02*
X0362175Y0286338D01*
X0372426Y0286338D01*
X0379828Y0278936D01*
X0379828Y0237781D01*
X0374442Y0232394D01*
X0198179Y0232394D01*
X0197624Y0232949D01*
X0197626Y0232903D01*
X0197632Y0232858D01*
X0197641Y0232813D01*
X0197654Y0232769D01*
X0197671Y0232726D01*
X0197691Y0232685D01*
X0197714Y0232645D01*
X0197741Y0232608D01*
X0197771Y0232573D01*
X0197803Y0232541D01*
X0197838Y0232511D01*
X0197875Y0232484D01*
X0197915Y0232461D01*
X0197956Y0232441D01*
X0197999Y0232424D01*
X0198043Y0232411D01*
X0198088Y0232402D01*
X0198133Y0232396D01*
X0198179Y0232394D01*
X0234848Y0232394D01*
X0234848Y0240012D01*
X0234848Y0230354D02*
X0234848Y0222705D01*
X0234848Y0230354D02*
X0198179Y0230354D01*
X0198133Y0230352D01*
X0198088Y0230346D01*
X0198043Y0230337D01*
X0197999Y0230324D01*
X0197956Y0230307D01*
X0197915Y0230287D01*
X0197875Y0230264D01*
X0197838Y0230237D01*
X0197803Y0230207D01*
X0197771Y0230175D01*
X0197741Y0230140D01*
X0197714Y0230103D01*
X0197691Y0230063D01*
X0197671Y0230022D01*
X0197654Y0229979D01*
X0197641Y0229935D01*
X0197632Y0229890D01*
X0197626Y0229845D01*
X0197624Y0229799D01*
X0234848Y0230354D02*
X0375287Y0230354D01*
X0381868Y0236936D01*
X0381868Y0279781D01*
X0372848Y0249358D02*
X0370519Y0247029D01*
X0365962Y0247029D01*
X0350858Y0303410D02*
X0350858Y0305636D01*
X0364848Y0307813D02*
X0371149Y0307813D01*
X0371744Y0308407D01*
D71*
X0572262Y0291676D02*
X0574106Y0291676D01*
M02*
