G75*
%MOIN*%
%OFA0B0*%
%FSLAX25Y25*%
%IPPOS*%
%LPD*%
%AMOC8*
5,1,8,0,0,1.08239X$1,22.5*
%
%ADD10C,0.00000*%
%ADD11C,0.00300*%
%ADD12C,0.00600*%
%ADD13C,0.00001*%
%ADD14C,0.12000*%
D10*
X0164848Y0107358D02*
X0676659Y0107358D01*
X0642942Y0171358D02*
X0642944Y0171511D01*
X0642950Y0171665D01*
X0642960Y0171818D01*
X0642974Y0171970D01*
X0642992Y0172123D01*
X0643014Y0172274D01*
X0643039Y0172425D01*
X0643069Y0172576D01*
X0643103Y0172726D01*
X0643140Y0172874D01*
X0643181Y0173022D01*
X0643226Y0173168D01*
X0643275Y0173314D01*
X0643328Y0173458D01*
X0643384Y0173600D01*
X0643444Y0173741D01*
X0643508Y0173881D01*
X0643575Y0174019D01*
X0643646Y0174155D01*
X0643721Y0174289D01*
X0643798Y0174421D01*
X0643880Y0174551D01*
X0643964Y0174679D01*
X0644052Y0174805D01*
X0644143Y0174928D01*
X0644237Y0175049D01*
X0644335Y0175167D01*
X0644435Y0175283D01*
X0644539Y0175396D01*
X0644645Y0175507D01*
X0644754Y0175615D01*
X0644866Y0175720D01*
X0644980Y0175821D01*
X0645098Y0175920D01*
X0645217Y0176016D01*
X0645339Y0176109D01*
X0645464Y0176198D01*
X0645591Y0176285D01*
X0645720Y0176367D01*
X0645851Y0176447D01*
X0645984Y0176523D01*
X0646119Y0176596D01*
X0646256Y0176665D01*
X0646395Y0176730D01*
X0646535Y0176792D01*
X0646677Y0176850D01*
X0646820Y0176905D01*
X0646965Y0176956D01*
X0647111Y0177003D01*
X0647258Y0177046D01*
X0647406Y0177085D01*
X0647555Y0177121D01*
X0647705Y0177152D01*
X0647856Y0177180D01*
X0648007Y0177204D01*
X0648160Y0177224D01*
X0648312Y0177240D01*
X0648465Y0177252D01*
X0648618Y0177260D01*
X0648771Y0177264D01*
X0648925Y0177264D01*
X0649078Y0177260D01*
X0649231Y0177252D01*
X0649384Y0177240D01*
X0649536Y0177224D01*
X0649689Y0177204D01*
X0649840Y0177180D01*
X0649991Y0177152D01*
X0650141Y0177121D01*
X0650290Y0177085D01*
X0650438Y0177046D01*
X0650585Y0177003D01*
X0650731Y0176956D01*
X0650876Y0176905D01*
X0651019Y0176850D01*
X0651161Y0176792D01*
X0651301Y0176730D01*
X0651440Y0176665D01*
X0651577Y0176596D01*
X0651712Y0176523D01*
X0651845Y0176447D01*
X0651976Y0176367D01*
X0652105Y0176285D01*
X0652232Y0176198D01*
X0652357Y0176109D01*
X0652479Y0176016D01*
X0652598Y0175920D01*
X0652716Y0175821D01*
X0652830Y0175720D01*
X0652942Y0175615D01*
X0653051Y0175507D01*
X0653157Y0175396D01*
X0653261Y0175283D01*
X0653361Y0175167D01*
X0653459Y0175049D01*
X0653553Y0174928D01*
X0653644Y0174805D01*
X0653732Y0174679D01*
X0653816Y0174551D01*
X0653898Y0174421D01*
X0653975Y0174289D01*
X0654050Y0174155D01*
X0654121Y0174019D01*
X0654188Y0173881D01*
X0654252Y0173741D01*
X0654312Y0173600D01*
X0654368Y0173458D01*
X0654421Y0173314D01*
X0654470Y0173168D01*
X0654515Y0173022D01*
X0654556Y0172874D01*
X0654593Y0172726D01*
X0654627Y0172576D01*
X0654657Y0172425D01*
X0654682Y0172274D01*
X0654704Y0172123D01*
X0654722Y0171970D01*
X0654736Y0171818D01*
X0654746Y0171665D01*
X0654752Y0171511D01*
X0654754Y0171358D01*
X0654752Y0171205D01*
X0654746Y0171051D01*
X0654736Y0170898D01*
X0654722Y0170746D01*
X0654704Y0170593D01*
X0654682Y0170442D01*
X0654657Y0170291D01*
X0654627Y0170140D01*
X0654593Y0169990D01*
X0654556Y0169842D01*
X0654515Y0169694D01*
X0654470Y0169548D01*
X0654421Y0169402D01*
X0654368Y0169258D01*
X0654312Y0169116D01*
X0654252Y0168975D01*
X0654188Y0168835D01*
X0654121Y0168697D01*
X0654050Y0168561D01*
X0653975Y0168427D01*
X0653898Y0168295D01*
X0653816Y0168165D01*
X0653732Y0168037D01*
X0653644Y0167911D01*
X0653553Y0167788D01*
X0653459Y0167667D01*
X0653361Y0167549D01*
X0653261Y0167433D01*
X0653157Y0167320D01*
X0653051Y0167209D01*
X0652942Y0167101D01*
X0652830Y0166996D01*
X0652716Y0166895D01*
X0652598Y0166796D01*
X0652479Y0166700D01*
X0652357Y0166607D01*
X0652232Y0166518D01*
X0652105Y0166431D01*
X0651976Y0166349D01*
X0651845Y0166269D01*
X0651712Y0166193D01*
X0651577Y0166120D01*
X0651440Y0166051D01*
X0651301Y0165986D01*
X0651161Y0165924D01*
X0651019Y0165866D01*
X0650876Y0165811D01*
X0650731Y0165760D01*
X0650585Y0165713D01*
X0650438Y0165670D01*
X0650290Y0165631D01*
X0650141Y0165595D01*
X0649991Y0165564D01*
X0649840Y0165536D01*
X0649689Y0165512D01*
X0649536Y0165492D01*
X0649384Y0165476D01*
X0649231Y0165464D01*
X0649078Y0165456D01*
X0648925Y0165452D01*
X0648771Y0165452D01*
X0648618Y0165456D01*
X0648465Y0165464D01*
X0648312Y0165476D01*
X0648160Y0165492D01*
X0648007Y0165512D01*
X0647856Y0165536D01*
X0647705Y0165564D01*
X0647555Y0165595D01*
X0647406Y0165631D01*
X0647258Y0165670D01*
X0647111Y0165713D01*
X0646965Y0165760D01*
X0646820Y0165811D01*
X0646677Y0165866D01*
X0646535Y0165924D01*
X0646395Y0165986D01*
X0646256Y0166051D01*
X0646119Y0166120D01*
X0645984Y0166193D01*
X0645851Y0166269D01*
X0645720Y0166349D01*
X0645591Y0166431D01*
X0645464Y0166518D01*
X0645339Y0166607D01*
X0645217Y0166700D01*
X0645098Y0166796D01*
X0644980Y0166895D01*
X0644866Y0166996D01*
X0644754Y0167101D01*
X0644645Y0167209D01*
X0644539Y0167320D01*
X0644435Y0167433D01*
X0644335Y0167549D01*
X0644237Y0167667D01*
X0644143Y0167788D01*
X0644052Y0167911D01*
X0643964Y0168037D01*
X0643880Y0168165D01*
X0643798Y0168295D01*
X0643721Y0168427D01*
X0643646Y0168561D01*
X0643575Y0168697D01*
X0643508Y0168835D01*
X0643444Y0168975D01*
X0643384Y0169116D01*
X0643328Y0169258D01*
X0643275Y0169402D01*
X0643226Y0169548D01*
X0643181Y0169694D01*
X0643140Y0169842D01*
X0643103Y0169990D01*
X0643069Y0170140D01*
X0643039Y0170291D01*
X0643014Y0170442D01*
X0642992Y0170593D01*
X0642974Y0170746D01*
X0642960Y0170898D01*
X0642950Y0171051D01*
X0642944Y0171205D01*
X0642942Y0171358D01*
X0620285Y0429358D02*
X0620287Y0429495D01*
X0620293Y0429633D01*
X0620303Y0429770D01*
X0620317Y0429906D01*
X0620335Y0430042D01*
X0620356Y0430178D01*
X0620382Y0430313D01*
X0620412Y0430447D01*
X0620445Y0430580D01*
X0620482Y0430713D01*
X0620524Y0430844D01*
X0620568Y0430973D01*
X0620617Y0431102D01*
X0620669Y0431229D01*
X0620725Y0431354D01*
X0620785Y0431478D01*
X0620848Y0431600D01*
X0620915Y0431720D01*
X0620985Y0431838D01*
X0621058Y0431954D01*
X0621135Y0432068D01*
X0621215Y0432180D01*
X0621299Y0432289D01*
X0621385Y0432396D01*
X0621475Y0432500D01*
X0621567Y0432601D01*
X0621662Y0432700D01*
X0621761Y0432796D01*
X0621861Y0432890D01*
X0621965Y0432980D01*
X0622071Y0433067D01*
X0622180Y0433151D01*
X0622291Y0433232D01*
X0622404Y0433310D01*
X0622520Y0433384D01*
X0622637Y0433455D01*
X0622757Y0433522D01*
X0622878Y0433586D01*
X0623002Y0433647D01*
X0623127Y0433704D01*
X0623253Y0433757D01*
X0623381Y0433807D01*
X0623511Y0433853D01*
X0623642Y0433895D01*
X0623774Y0433933D01*
X0623907Y0433967D01*
X0624040Y0433998D01*
X0624175Y0434025D01*
X0624311Y0434047D01*
X0624447Y0434066D01*
X0624583Y0434081D01*
X0624720Y0434092D01*
X0624857Y0434099D01*
X0624995Y0434102D01*
X0625132Y0434101D01*
X0625269Y0434096D01*
X0625406Y0434087D01*
X0625543Y0434074D01*
X0625679Y0434057D01*
X0625815Y0434036D01*
X0625950Y0434012D01*
X0626085Y0433983D01*
X0626218Y0433951D01*
X0626351Y0433914D01*
X0626482Y0433874D01*
X0626612Y0433830D01*
X0626741Y0433782D01*
X0626868Y0433731D01*
X0626994Y0433676D01*
X0627118Y0433617D01*
X0627241Y0433555D01*
X0627361Y0433489D01*
X0627480Y0433420D01*
X0627596Y0433347D01*
X0627711Y0433271D01*
X0627823Y0433192D01*
X0627933Y0433109D01*
X0628040Y0433024D01*
X0628145Y0432935D01*
X0628247Y0432843D01*
X0628347Y0432749D01*
X0628444Y0432651D01*
X0628538Y0432551D01*
X0628629Y0432448D01*
X0628717Y0432343D01*
X0628801Y0432235D01*
X0628883Y0432124D01*
X0628962Y0432011D01*
X0629037Y0431896D01*
X0629109Y0431779D01*
X0629177Y0431660D01*
X0629242Y0431539D01*
X0629303Y0431416D01*
X0629361Y0431292D01*
X0629415Y0431166D01*
X0629466Y0431038D01*
X0629512Y0430909D01*
X0629555Y0430778D01*
X0629595Y0430647D01*
X0629630Y0430514D01*
X0629662Y0430380D01*
X0629689Y0430246D01*
X0629713Y0430110D01*
X0629733Y0429974D01*
X0629749Y0429838D01*
X0629761Y0429701D01*
X0629769Y0429564D01*
X0629773Y0429427D01*
X0629773Y0429289D01*
X0629769Y0429152D01*
X0629761Y0429015D01*
X0629749Y0428878D01*
X0629733Y0428742D01*
X0629713Y0428606D01*
X0629689Y0428470D01*
X0629662Y0428336D01*
X0629630Y0428202D01*
X0629595Y0428069D01*
X0629555Y0427938D01*
X0629512Y0427807D01*
X0629466Y0427678D01*
X0629415Y0427550D01*
X0629361Y0427424D01*
X0629303Y0427300D01*
X0629242Y0427177D01*
X0629177Y0427056D01*
X0629109Y0426937D01*
X0629037Y0426820D01*
X0628962Y0426705D01*
X0628883Y0426592D01*
X0628801Y0426481D01*
X0628717Y0426373D01*
X0628629Y0426268D01*
X0628538Y0426165D01*
X0628444Y0426065D01*
X0628347Y0425967D01*
X0628247Y0425873D01*
X0628145Y0425781D01*
X0628040Y0425692D01*
X0627933Y0425607D01*
X0627823Y0425524D01*
X0627711Y0425445D01*
X0627596Y0425369D01*
X0627480Y0425296D01*
X0627361Y0425227D01*
X0627241Y0425161D01*
X0627118Y0425099D01*
X0626994Y0425040D01*
X0626868Y0424985D01*
X0626741Y0424934D01*
X0626612Y0424886D01*
X0626482Y0424842D01*
X0626351Y0424802D01*
X0626218Y0424765D01*
X0626085Y0424733D01*
X0625950Y0424704D01*
X0625815Y0424680D01*
X0625679Y0424659D01*
X0625543Y0424642D01*
X0625406Y0424629D01*
X0625269Y0424620D01*
X0625132Y0424615D01*
X0624995Y0424614D01*
X0624857Y0424617D01*
X0624720Y0424624D01*
X0624583Y0424635D01*
X0624447Y0424650D01*
X0624311Y0424669D01*
X0624175Y0424691D01*
X0624040Y0424718D01*
X0623907Y0424749D01*
X0623774Y0424783D01*
X0623642Y0424821D01*
X0623511Y0424863D01*
X0623381Y0424909D01*
X0623253Y0424959D01*
X0623127Y0425012D01*
X0623002Y0425069D01*
X0622878Y0425130D01*
X0622757Y0425194D01*
X0622637Y0425261D01*
X0622520Y0425332D01*
X0622404Y0425406D01*
X0622291Y0425484D01*
X0622180Y0425565D01*
X0622071Y0425649D01*
X0621965Y0425736D01*
X0621861Y0425826D01*
X0621761Y0425920D01*
X0621662Y0426016D01*
X0621567Y0426115D01*
X0621475Y0426216D01*
X0621385Y0426320D01*
X0621299Y0426427D01*
X0621215Y0426536D01*
X0621135Y0426648D01*
X0621058Y0426762D01*
X0620985Y0426878D01*
X0620915Y0426996D01*
X0620848Y0427116D01*
X0620785Y0427238D01*
X0620725Y0427362D01*
X0620669Y0427487D01*
X0620617Y0427614D01*
X0620568Y0427743D01*
X0620524Y0427872D01*
X0620482Y0428003D01*
X0620445Y0428136D01*
X0620412Y0428269D01*
X0620382Y0428403D01*
X0620356Y0428538D01*
X0620335Y0428674D01*
X0620317Y0428810D01*
X0620303Y0428946D01*
X0620293Y0429083D01*
X0620287Y0429221D01*
X0620285Y0429358D01*
X0567923Y0429358D02*
X0567925Y0429495D01*
X0567931Y0429633D01*
X0567941Y0429770D01*
X0567955Y0429906D01*
X0567973Y0430042D01*
X0567994Y0430178D01*
X0568020Y0430313D01*
X0568050Y0430447D01*
X0568083Y0430580D01*
X0568120Y0430713D01*
X0568162Y0430844D01*
X0568206Y0430973D01*
X0568255Y0431102D01*
X0568307Y0431229D01*
X0568363Y0431354D01*
X0568423Y0431478D01*
X0568486Y0431600D01*
X0568553Y0431720D01*
X0568623Y0431838D01*
X0568696Y0431954D01*
X0568773Y0432068D01*
X0568853Y0432180D01*
X0568937Y0432289D01*
X0569023Y0432396D01*
X0569113Y0432500D01*
X0569205Y0432601D01*
X0569300Y0432700D01*
X0569399Y0432796D01*
X0569499Y0432890D01*
X0569603Y0432980D01*
X0569709Y0433067D01*
X0569818Y0433151D01*
X0569929Y0433232D01*
X0570042Y0433310D01*
X0570158Y0433384D01*
X0570275Y0433455D01*
X0570395Y0433522D01*
X0570516Y0433586D01*
X0570640Y0433647D01*
X0570765Y0433704D01*
X0570891Y0433757D01*
X0571019Y0433807D01*
X0571149Y0433853D01*
X0571280Y0433895D01*
X0571412Y0433933D01*
X0571545Y0433967D01*
X0571678Y0433998D01*
X0571813Y0434025D01*
X0571949Y0434047D01*
X0572085Y0434066D01*
X0572221Y0434081D01*
X0572358Y0434092D01*
X0572495Y0434099D01*
X0572633Y0434102D01*
X0572770Y0434101D01*
X0572907Y0434096D01*
X0573044Y0434087D01*
X0573181Y0434074D01*
X0573317Y0434057D01*
X0573453Y0434036D01*
X0573588Y0434012D01*
X0573723Y0433983D01*
X0573856Y0433951D01*
X0573989Y0433914D01*
X0574120Y0433874D01*
X0574250Y0433830D01*
X0574379Y0433782D01*
X0574506Y0433731D01*
X0574632Y0433676D01*
X0574756Y0433617D01*
X0574879Y0433555D01*
X0574999Y0433489D01*
X0575118Y0433420D01*
X0575234Y0433347D01*
X0575349Y0433271D01*
X0575461Y0433192D01*
X0575571Y0433109D01*
X0575678Y0433024D01*
X0575783Y0432935D01*
X0575885Y0432843D01*
X0575985Y0432749D01*
X0576082Y0432651D01*
X0576176Y0432551D01*
X0576267Y0432448D01*
X0576355Y0432343D01*
X0576439Y0432235D01*
X0576521Y0432124D01*
X0576600Y0432011D01*
X0576675Y0431896D01*
X0576747Y0431779D01*
X0576815Y0431660D01*
X0576880Y0431539D01*
X0576941Y0431416D01*
X0576999Y0431292D01*
X0577053Y0431166D01*
X0577104Y0431038D01*
X0577150Y0430909D01*
X0577193Y0430778D01*
X0577233Y0430647D01*
X0577268Y0430514D01*
X0577300Y0430380D01*
X0577327Y0430246D01*
X0577351Y0430110D01*
X0577371Y0429974D01*
X0577387Y0429838D01*
X0577399Y0429701D01*
X0577407Y0429564D01*
X0577411Y0429427D01*
X0577411Y0429289D01*
X0577407Y0429152D01*
X0577399Y0429015D01*
X0577387Y0428878D01*
X0577371Y0428742D01*
X0577351Y0428606D01*
X0577327Y0428470D01*
X0577300Y0428336D01*
X0577268Y0428202D01*
X0577233Y0428069D01*
X0577193Y0427938D01*
X0577150Y0427807D01*
X0577104Y0427678D01*
X0577053Y0427550D01*
X0576999Y0427424D01*
X0576941Y0427300D01*
X0576880Y0427177D01*
X0576815Y0427056D01*
X0576747Y0426937D01*
X0576675Y0426820D01*
X0576600Y0426705D01*
X0576521Y0426592D01*
X0576439Y0426481D01*
X0576355Y0426373D01*
X0576267Y0426268D01*
X0576176Y0426165D01*
X0576082Y0426065D01*
X0575985Y0425967D01*
X0575885Y0425873D01*
X0575783Y0425781D01*
X0575678Y0425692D01*
X0575571Y0425607D01*
X0575461Y0425524D01*
X0575349Y0425445D01*
X0575234Y0425369D01*
X0575118Y0425296D01*
X0574999Y0425227D01*
X0574879Y0425161D01*
X0574756Y0425099D01*
X0574632Y0425040D01*
X0574506Y0424985D01*
X0574379Y0424934D01*
X0574250Y0424886D01*
X0574120Y0424842D01*
X0573989Y0424802D01*
X0573856Y0424765D01*
X0573723Y0424733D01*
X0573588Y0424704D01*
X0573453Y0424680D01*
X0573317Y0424659D01*
X0573181Y0424642D01*
X0573044Y0424629D01*
X0572907Y0424620D01*
X0572770Y0424615D01*
X0572633Y0424614D01*
X0572495Y0424617D01*
X0572358Y0424624D01*
X0572221Y0424635D01*
X0572085Y0424650D01*
X0571949Y0424669D01*
X0571813Y0424691D01*
X0571678Y0424718D01*
X0571545Y0424749D01*
X0571412Y0424783D01*
X0571280Y0424821D01*
X0571149Y0424863D01*
X0571019Y0424909D01*
X0570891Y0424959D01*
X0570765Y0425012D01*
X0570640Y0425069D01*
X0570516Y0425130D01*
X0570395Y0425194D01*
X0570275Y0425261D01*
X0570158Y0425332D01*
X0570042Y0425406D01*
X0569929Y0425484D01*
X0569818Y0425565D01*
X0569709Y0425649D01*
X0569603Y0425736D01*
X0569499Y0425826D01*
X0569399Y0425920D01*
X0569300Y0426016D01*
X0569205Y0426115D01*
X0569113Y0426216D01*
X0569023Y0426320D01*
X0568937Y0426427D01*
X0568853Y0426536D01*
X0568773Y0426648D01*
X0568696Y0426762D01*
X0568623Y0426878D01*
X0568553Y0426996D01*
X0568486Y0427116D01*
X0568423Y0427238D01*
X0568363Y0427362D01*
X0568307Y0427487D01*
X0568255Y0427614D01*
X0568206Y0427743D01*
X0568162Y0427872D01*
X0568120Y0428003D01*
X0568083Y0428136D01*
X0568050Y0428269D01*
X0568020Y0428403D01*
X0567994Y0428538D01*
X0567973Y0428674D01*
X0567955Y0428810D01*
X0567941Y0428946D01*
X0567931Y0429083D01*
X0567925Y0429221D01*
X0567923Y0429358D01*
X0676659Y0465626D02*
X0164848Y0465626D01*
X0211923Y0427358D02*
X0211925Y0427495D01*
X0211931Y0427633D01*
X0211941Y0427770D01*
X0211955Y0427906D01*
X0211973Y0428042D01*
X0211994Y0428178D01*
X0212020Y0428313D01*
X0212050Y0428447D01*
X0212083Y0428580D01*
X0212120Y0428713D01*
X0212162Y0428844D01*
X0212206Y0428973D01*
X0212255Y0429102D01*
X0212307Y0429229D01*
X0212363Y0429354D01*
X0212423Y0429478D01*
X0212486Y0429600D01*
X0212553Y0429720D01*
X0212623Y0429838D01*
X0212696Y0429954D01*
X0212773Y0430068D01*
X0212853Y0430180D01*
X0212937Y0430289D01*
X0213023Y0430396D01*
X0213113Y0430500D01*
X0213205Y0430601D01*
X0213300Y0430700D01*
X0213399Y0430796D01*
X0213499Y0430890D01*
X0213603Y0430980D01*
X0213709Y0431067D01*
X0213818Y0431151D01*
X0213929Y0431232D01*
X0214042Y0431310D01*
X0214158Y0431384D01*
X0214275Y0431455D01*
X0214395Y0431522D01*
X0214516Y0431586D01*
X0214640Y0431647D01*
X0214765Y0431704D01*
X0214891Y0431757D01*
X0215019Y0431807D01*
X0215149Y0431853D01*
X0215280Y0431895D01*
X0215412Y0431933D01*
X0215545Y0431967D01*
X0215678Y0431998D01*
X0215813Y0432025D01*
X0215949Y0432047D01*
X0216085Y0432066D01*
X0216221Y0432081D01*
X0216358Y0432092D01*
X0216495Y0432099D01*
X0216633Y0432102D01*
X0216770Y0432101D01*
X0216907Y0432096D01*
X0217044Y0432087D01*
X0217181Y0432074D01*
X0217317Y0432057D01*
X0217453Y0432036D01*
X0217588Y0432012D01*
X0217723Y0431983D01*
X0217856Y0431951D01*
X0217989Y0431914D01*
X0218120Y0431874D01*
X0218250Y0431830D01*
X0218379Y0431782D01*
X0218506Y0431731D01*
X0218632Y0431676D01*
X0218756Y0431617D01*
X0218879Y0431555D01*
X0218999Y0431489D01*
X0219118Y0431420D01*
X0219234Y0431347D01*
X0219349Y0431271D01*
X0219461Y0431192D01*
X0219571Y0431109D01*
X0219678Y0431024D01*
X0219783Y0430935D01*
X0219885Y0430843D01*
X0219985Y0430749D01*
X0220082Y0430651D01*
X0220176Y0430551D01*
X0220267Y0430448D01*
X0220355Y0430343D01*
X0220439Y0430235D01*
X0220521Y0430124D01*
X0220600Y0430011D01*
X0220675Y0429896D01*
X0220747Y0429779D01*
X0220815Y0429660D01*
X0220880Y0429539D01*
X0220941Y0429416D01*
X0220999Y0429292D01*
X0221053Y0429166D01*
X0221104Y0429038D01*
X0221150Y0428909D01*
X0221193Y0428778D01*
X0221233Y0428647D01*
X0221268Y0428514D01*
X0221300Y0428380D01*
X0221327Y0428246D01*
X0221351Y0428110D01*
X0221371Y0427974D01*
X0221387Y0427838D01*
X0221399Y0427701D01*
X0221407Y0427564D01*
X0221411Y0427427D01*
X0221411Y0427289D01*
X0221407Y0427152D01*
X0221399Y0427015D01*
X0221387Y0426878D01*
X0221371Y0426742D01*
X0221351Y0426606D01*
X0221327Y0426470D01*
X0221300Y0426336D01*
X0221268Y0426202D01*
X0221233Y0426069D01*
X0221193Y0425938D01*
X0221150Y0425807D01*
X0221104Y0425678D01*
X0221053Y0425550D01*
X0220999Y0425424D01*
X0220941Y0425300D01*
X0220880Y0425177D01*
X0220815Y0425056D01*
X0220747Y0424937D01*
X0220675Y0424820D01*
X0220600Y0424705D01*
X0220521Y0424592D01*
X0220439Y0424481D01*
X0220355Y0424373D01*
X0220267Y0424268D01*
X0220176Y0424165D01*
X0220082Y0424065D01*
X0219985Y0423967D01*
X0219885Y0423873D01*
X0219783Y0423781D01*
X0219678Y0423692D01*
X0219571Y0423607D01*
X0219461Y0423524D01*
X0219349Y0423445D01*
X0219234Y0423369D01*
X0219118Y0423296D01*
X0218999Y0423227D01*
X0218879Y0423161D01*
X0218756Y0423099D01*
X0218632Y0423040D01*
X0218506Y0422985D01*
X0218379Y0422934D01*
X0218250Y0422886D01*
X0218120Y0422842D01*
X0217989Y0422802D01*
X0217856Y0422765D01*
X0217723Y0422733D01*
X0217588Y0422704D01*
X0217453Y0422680D01*
X0217317Y0422659D01*
X0217181Y0422642D01*
X0217044Y0422629D01*
X0216907Y0422620D01*
X0216770Y0422615D01*
X0216633Y0422614D01*
X0216495Y0422617D01*
X0216358Y0422624D01*
X0216221Y0422635D01*
X0216085Y0422650D01*
X0215949Y0422669D01*
X0215813Y0422691D01*
X0215678Y0422718D01*
X0215545Y0422749D01*
X0215412Y0422783D01*
X0215280Y0422821D01*
X0215149Y0422863D01*
X0215019Y0422909D01*
X0214891Y0422959D01*
X0214765Y0423012D01*
X0214640Y0423069D01*
X0214516Y0423130D01*
X0214395Y0423194D01*
X0214275Y0423261D01*
X0214158Y0423332D01*
X0214042Y0423406D01*
X0213929Y0423484D01*
X0213818Y0423565D01*
X0213709Y0423649D01*
X0213603Y0423736D01*
X0213499Y0423826D01*
X0213399Y0423920D01*
X0213300Y0424016D01*
X0213205Y0424115D01*
X0213113Y0424216D01*
X0213023Y0424320D01*
X0212937Y0424427D01*
X0212853Y0424536D01*
X0212773Y0424648D01*
X0212696Y0424762D01*
X0212623Y0424878D01*
X0212553Y0424996D01*
X0212486Y0425116D01*
X0212423Y0425238D01*
X0212363Y0425362D01*
X0212307Y0425487D01*
X0212255Y0425614D01*
X0212206Y0425743D01*
X0212162Y0425872D01*
X0212120Y0426003D01*
X0212083Y0426136D01*
X0212050Y0426269D01*
X0212020Y0426403D01*
X0211994Y0426538D01*
X0211973Y0426674D01*
X0211955Y0426810D01*
X0211941Y0426946D01*
X0211931Y0427083D01*
X0211925Y0427221D01*
X0211923Y0427358D01*
X0264285Y0427358D02*
X0264287Y0427495D01*
X0264293Y0427633D01*
X0264303Y0427770D01*
X0264317Y0427906D01*
X0264335Y0428042D01*
X0264356Y0428178D01*
X0264382Y0428313D01*
X0264412Y0428447D01*
X0264445Y0428580D01*
X0264482Y0428713D01*
X0264524Y0428844D01*
X0264568Y0428973D01*
X0264617Y0429102D01*
X0264669Y0429229D01*
X0264725Y0429354D01*
X0264785Y0429478D01*
X0264848Y0429600D01*
X0264915Y0429720D01*
X0264985Y0429838D01*
X0265058Y0429954D01*
X0265135Y0430068D01*
X0265215Y0430180D01*
X0265299Y0430289D01*
X0265385Y0430396D01*
X0265475Y0430500D01*
X0265567Y0430601D01*
X0265662Y0430700D01*
X0265761Y0430796D01*
X0265861Y0430890D01*
X0265965Y0430980D01*
X0266071Y0431067D01*
X0266180Y0431151D01*
X0266291Y0431232D01*
X0266404Y0431310D01*
X0266520Y0431384D01*
X0266637Y0431455D01*
X0266757Y0431522D01*
X0266878Y0431586D01*
X0267002Y0431647D01*
X0267127Y0431704D01*
X0267253Y0431757D01*
X0267381Y0431807D01*
X0267511Y0431853D01*
X0267642Y0431895D01*
X0267774Y0431933D01*
X0267907Y0431967D01*
X0268040Y0431998D01*
X0268175Y0432025D01*
X0268311Y0432047D01*
X0268447Y0432066D01*
X0268583Y0432081D01*
X0268720Y0432092D01*
X0268857Y0432099D01*
X0268995Y0432102D01*
X0269132Y0432101D01*
X0269269Y0432096D01*
X0269406Y0432087D01*
X0269543Y0432074D01*
X0269679Y0432057D01*
X0269815Y0432036D01*
X0269950Y0432012D01*
X0270085Y0431983D01*
X0270218Y0431951D01*
X0270351Y0431914D01*
X0270482Y0431874D01*
X0270612Y0431830D01*
X0270741Y0431782D01*
X0270868Y0431731D01*
X0270994Y0431676D01*
X0271118Y0431617D01*
X0271241Y0431555D01*
X0271361Y0431489D01*
X0271480Y0431420D01*
X0271596Y0431347D01*
X0271711Y0431271D01*
X0271823Y0431192D01*
X0271933Y0431109D01*
X0272040Y0431024D01*
X0272145Y0430935D01*
X0272247Y0430843D01*
X0272347Y0430749D01*
X0272444Y0430651D01*
X0272538Y0430551D01*
X0272629Y0430448D01*
X0272717Y0430343D01*
X0272801Y0430235D01*
X0272883Y0430124D01*
X0272962Y0430011D01*
X0273037Y0429896D01*
X0273109Y0429779D01*
X0273177Y0429660D01*
X0273242Y0429539D01*
X0273303Y0429416D01*
X0273361Y0429292D01*
X0273415Y0429166D01*
X0273466Y0429038D01*
X0273512Y0428909D01*
X0273555Y0428778D01*
X0273595Y0428647D01*
X0273630Y0428514D01*
X0273662Y0428380D01*
X0273689Y0428246D01*
X0273713Y0428110D01*
X0273733Y0427974D01*
X0273749Y0427838D01*
X0273761Y0427701D01*
X0273769Y0427564D01*
X0273773Y0427427D01*
X0273773Y0427289D01*
X0273769Y0427152D01*
X0273761Y0427015D01*
X0273749Y0426878D01*
X0273733Y0426742D01*
X0273713Y0426606D01*
X0273689Y0426470D01*
X0273662Y0426336D01*
X0273630Y0426202D01*
X0273595Y0426069D01*
X0273555Y0425938D01*
X0273512Y0425807D01*
X0273466Y0425678D01*
X0273415Y0425550D01*
X0273361Y0425424D01*
X0273303Y0425300D01*
X0273242Y0425177D01*
X0273177Y0425056D01*
X0273109Y0424937D01*
X0273037Y0424820D01*
X0272962Y0424705D01*
X0272883Y0424592D01*
X0272801Y0424481D01*
X0272717Y0424373D01*
X0272629Y0424268D01*
X0272538Y0424165D01*
X0272444Y0424065D01*
X0272347Y0423967D01*
X0272247Y0423873D01*
X0272145Y0423781D01*
X0272040Y0423692D01*
X0271933Y0423607D01*
X0271823Y0423524D01*
X0271711Y0423445D01*
X0271596Y0423369D01*
X0271480Y0423296D01*
X0271361Y0423227D01*
X0271241Y0423161D01*
X0271118Y0423099D01*
X0270994Y0423040D01*
X0270868Y0422985D01*
X0270741Y0422934D01*
X0270612Y0422886D01*
X0270482Y0422842D01*
X0270351Y0422802D01*
X0270218Y0422765D01*
X0270085Y0422733D01*
X0269950Y0422704D01*
X0269815Y0422680D01*
X0269679Y0422659D01*
X0269543Y0422642D01*
X0269406Y0422629D01*
X0269269Y0422620D01*
X0269132Y0422615D01*
X0268995Y0422614D01*
X0268857Y0422617D01*
X0268720Y0422624D01*
X0268583Y0422635D01*
X0268447Y0422650D01*
X0268311Y0422669D01*
X0268175Y0422691D01*
X0268040Y0422718D01*
X0267907Y0422749D01*
X0267774Y0422783D01*
X0267642Y0422821D01*
X0267511Y0422863D01*
X0267381Y0422909D01*
X0267253Y0422959D01*
X0267127Y0423012D01*
X0267002Y0423069D01*
X0266878Y0423130D01*
X0266757Y0423194D01*
X0266637Y0423261D01*
X0266520Y0423332D01*
X0266404Y0423406D01*
X0266291Y0423484D01*
X0266180Y0423565D01*
X0266071Y0423649D01*
X0265965Y0423736D01*
X0265861Y0423826D01*
X0265761Y0423920D01*
X0265662Y0424016D01*
X0265567Y0424115D01*
X0265475Y0424216D01*
X0265385Y0424320D01*
X0265299Y0424427D01*
X0265215Y0424536D01*
X0265135Y0424648D01*
X0265058Y0424762D01*
X0264985Y0424878D01*
X0264915Y0424996D01*
X0264848Y0425116D01*
X0264785Y0425238D01*
X0264725Y0425362D01*
X0264669Y0425487D01*
X0264617Y0425614D01*
X0264568Y0425743D01*
X0264524Y0425872D01*
X0264482Y0426003D01*
X0264445Y0426136D01*
X0264412Y0426269D01*
X0264382Y0426403D01*
X0264356Y0426538D01*
X0264335Y0426674D01*
X0264317Y0426810D01*
X0264303Y0426946D01*
X0264293Y0427083D01*
X0264287Y0427221D01*
X0264285Y0427358D01*
X0385923Y0429358D02*
X0385925Y0429495D01*
X0385931Y0429633D01*
X0385941Y0429770D01*
X0385955Y0429906D01*
X0385973Y0430042D01*
X0385994Y0430178D01*
X0386020Y0430313D01*
X0386050Y0430447D01*
X0386083Y0430580D01*
X0386120Y0430713D01*
X0386162Y0430844D01*
X0386206Y0430973D01*
X0386255Y0431102D01*
X0386307Y0431229D01*
X0386363Y0431354D01*
X0386423Y0431478D01*
X0386486Y0431600D01*
X0386553Y0431720D01*
X0386623Y0431838D01*
X0386696Y0431954D01*
X0386773Y0432068D01*
X0386853Y0432180D01*
X0386937Y0432289D01*
X0387023Y0432396D01*
X0387113Y0432500D01*
X0387205Y0432601D01*
X0387300Y0432700D01*
X0387399Y0432796D01*
X0387499Y0432890D01*
X0387603Y0432980D01*
X0387709Y0433067D01*
X0387818Y0433151D01*
X0387929Y0433232D01*
X0388042Y0433310D01*
X0388158Y0433384D01*
X0388275Y0433455D01*
X0388395Y0433522D01*
X0388516Y0433586D01*
X0388640Y0433647D01*
X0388765Y0433704D01*
X0388891Y0433757D01*
X0389019Y0433807D01*
X0389149Y0433853D01*
X0389280Y0433895D01*
X0389412Y0433933D01*
X0389545Y0433967D01*
X0389678Y0433998D01*
X0389813Y0434025D01*
X0389949Y0434047D01*
X0390085Y0434066D01*
X0390221Y0434081D01*
X0390358Y0434092D01*
X0390495Y0434099D01*
X0390633Y0434102D01*
X0390770Y0434101D01*
X0390907Y0434096D01*
X0391044Y0434087D01*
X0391181Y0434074D01*
X0391317Y0434057D01*
X0391453Y0434036D01*
X0391588Y0434012D01*
X0391723Y0433983D01*
X0391856Y0433951D01*
X0391989Y0433914D01*
X0392120Y0433874D01*
X0392250Y0433830D01*
X0392379Y0433782D01*
X0392506Y0433731D01*
X0392632Y0433676D01*
X0392756Y0433617D01*
X0392879Y0433555D01*
X0392999Y0433489D01*
X0393118Y0433420D01*
X0393234Y0433347D01*
X0393349Y0433271D01*
X0393461Y0433192D01*
X0393571Y0433109D01*
X0393678Y0433024D01*
X0393783Y0432935D01*
X0393885Y0432843D01*
X0393985Y0432749D01*
X0394082Y0432651D01*
X0394176Y0432551D01*
X0394267Y0432448D01*
X0394355Y0432343D01*
X0394439Y0432235D01*
X0394521Y0432124D01*
X0394600Y0432011D01*
X0394675Y0431896D01*
X0394747Y0431779D01*
X0394815Y0431660D01*
X0394880Y0431539D01*
X0394941Y0431416D01*
X0394999Y0431292D01*
X0395053Y0431166D01*
X0395104Y0431038D01*
X0395150Y0430909D01*
X0395193Y0430778D01*
X0395233Y0430647D01*
X0395268Y0430514D01*
X0395300Y0430380D01*
X0395327Y0430246D01*
X0395351Y0430110D01*
X0395371Y0429974D01*
X0395387Y0429838D01*
X0395399Y0429701D01*
X0395407Y0429564D01*
X0395411Y0429427D01*
X0395411Y0429289D01*
X0395407Y0429152D01*
X0395399Y0429015D01*
X0395387Y0428878D01*
X0395371Y0428742D01*
X0395351Y0428606D01*
X0395327Y0428470D01*
X0395300Y0428336D01*
X0395268Y0428202D01*
X0395233Y0428069D01*
X0395193Y0427938D01*
X0395150Y0427807D01*
X0395104Y0427678D01*
X0395053Y0427550D01*
X0394999Y0427424D01*
X0394941Y0427300D01*
X0394880Y0427177D01*
X0394815Y0427056D01*
X0394747Y0426937D01*
X0394675Y0426820D01*
X0394600Y0426705D01*
X0394521Y0426592D01*
X0394439Y0426481D01*
X0394355Y0426373D01*
X0394267Y0426268D01*
X0394176Y0426165D01*
X0394082Y0426065D01*
X0393985Y0425967D01*
X0393885Y0425873D01*
X0393783Y0425781D01*
X0393678Y0425692D01*
X0393571Y0425607D01*
X0393461Y0425524D01*
X0393349Y0425445D01*
X0393234Y0425369D01*
X0393118Y0425296D01*
X0392999Y0425227D01*
X0392879Y0425161D01*
X0392756Y0425099D01*
X0392632Y0425040D01*
X0392506Y0424985D01*
X0392379Y0424934D01*
X0392250Y0424886D01*
X0392120Y0424842D01*
X0391989Y0424802D01*
X0391856Y0424765D01*
X0391723Y0424733D01*
X0391588Y0424704D01*
X0391453Y0424680D01*
X0391317Y0424659D01*
X0391181Y0424642D01*
X0391044Y0424629D01*
X0390907Y0424620D01*
X0390770Y0424615D01*
X0390633Y0424614D01*
X0390495Y0424617D01*
X0390358Y0424624D01*
X0390221Y0424635D01*
X0390085Y0424650D01*
X0389949Y0424669D01*
X0389813Y0424691D01*
X0389678Y0424718D01*
X0389545Y0424749D01*
X0389412Y0424783D01*
X0389280Y0424821D01*
X0389149Y0424863D01*
X0389019Y0424909D01*
X0388891Y0424959D01*
X0388765Y0425012D01*
X0388640Y0425069D01*
X0388516Y0425130D01*
X0388395Y0425194D01*
X0388275Y0425261D01*
X0388158Y0425332D01*
X0388042Y0425406D01*
X0387929Y0425484D01*
X0387818Y0425565D01*
X0387709Y0425649D01*
X0387603Y0425736D01*
X0387499Y0425826D01*
X0387399Y0425920D01*
X0387300Y0426016D01*
X0387205Y0426115D01*
X0387113Y0426216D01*
X0387023Y0426320D01*
X0386937Y0426427D01*
X0386853Y0426536D01*
X0386773Y0426648D01*
X0386696Y0426762D01*
X0386623Y0426878D01*
X0386553Y0426996D01*
X0386486Y0427116D01*
X0386423Y0427238D01*
X0386363Y0427362D01*
X0386307Y0427487D01*
X0386255Y0427614D01*
X0386206Y0427743D01*
X0386162Y0427872D01*
X0386120Y0428003D01*
X0386083Y0428136D01*
X0386050Y0428269D01*
X0386020Y0428403D01*
X0385994Y0428538D01*
X0385973Y0428674D01*
X0385955Y0428810D01*
X0385941Y0428946D01*
X0385931Y0429083D01*
X0385925Y0429221D01*
X0385923Y0429358D01*
X0438285Y0429358D02*
X0438287Y0429495D01*
X0438293Y0429633D01*
X0438303Y0429770D01*
X0438317Y0429906D01*
X0438335Y0430042D01*
X0438356Y0430178D01*
X0438382Y0430313D01*
X0438412Y0430447D01*
X0438445Y0430580D01*
X0438482Y0430713D01*
X0438524Y0430844D01*
X0438568Y0430973D01*
X0438617Y0431102D01*
X0438669Y0431229D01*
X0438725Y0431354D01*
X0438785Y0431478D01*
X0438848Y0431600D01*
X0438915Y0431720D01*
X0438985Y0431838D01*
X0439058Y0431954D01*
X0439135Y0432068D01*
X0439215Y0432180D01*
X0439299Y0432289D01*
X0439385Y0432396D01*
X0439475Y0432500D01*
X0439567Y0432601D01*
X0439662Y0432700D01*
X0439761Y0432796D01*
X0439861Y0432890D01*
X0439965Y0432980D01*
X0440071Y0433067D01*
X0440180Y0433151D01*
X0440291Y0433232D01*
X0440404Y0433310D01*
X0440520Y0433384D01*
X0440637Y0433455D01*
X0440757Y0433522D01*
X0440878Y0433586D01*
X0441002Y0433647D01*
X0441127Y0433704D01*
X0441253Y0433757D01*
X0441381Y0433807D01*
X0441511Y0433853D01*
X0441642Y0433895D01*
X0441774Y0433933D01*
X0441907Y0433967D01*
X0442040Y0433998D01*
X0442175Y0434025D01*
X0442311Y0434047D01*
X0442447Y0434066D01*
X0442583Y0434081D01*
X0442720Y0434092D01*
X0442857Y0434099D01*
X0442995Y0434102D01*
X0443132Y0434101D01*
X0443269Y0434096D01*
X0443406Y0434087D01*
X0443543Y0434074D01*
X0443679Y0434057D01*
X0443815Y0434036D01*
X0443950Y0434012D01*
X0444085Y0433983D01*
X0444218Y0433951D01*
X0444351Y0433914D01*
X0444482Y0433874D01*
X0444612Y0433830D01*
X0444741Y0433782D01*
X0444868Y0433731D01*
X0444994Y0433676D01*
X0445118Y0433617D01*
X0445241Y0433555D01*
X0445361Y0433489D01*
X0445480Y0433420D01*
X0445596Y0433347D01*
X0445711Y0433271D01*
X0445823Y0433192D01*
X0445933Y0433109D01*
X0446040Y0433024D01*
X0446145Y0432935D01*
X0446247Y0432843D01*
X0446347Y0432749D01*
X0446444Y0432651D01*
X0446538Y0432551D01*
X0446629Y0432448D01*
X0446717Y0432343D01*
X0446801Y0432235D01*
X0446883Y0432124D01*
X0446962Y0432011D01*
X0447037Y0431896D01*
X0447109Y0431779D01*
X0447177Y0431660D01*
X0447242Y0431539D01*
X0447303Y0431416D01*
X0447361Y0431292D01*
X0447415Y0431166D01*
X0447466Y0431038D01*
X0447512Y0430909D01*
X0447555Y0430778D01*
X0447595Y0430647D01*
X0447630Y0430514D01*
X0447662Y0430380D01*
X0447689Y0430246D01*
X0447713Y0430110D01*
X0447733Y0429974D01*
X0447749Y0429838D01*
X0447761Y0429701D01*
X0447769Y0429564D01*
X0447773Y0429427D01*
X0447773Y0429289D01*
X0447769Y0429152D01*
X0447761Y0429015D01*
X0447749Y0428878D01*
X0447733Y0428742D01*
X0447713Y0428606D01*
X0447689Y0428470D01*
X0447662Y0428336D01*
X0447630Y0428202D01*
X0447595Y0428069D01*
X0447555Y0427938D01*
X0447512Y0427807D01*
X0447466Y0427678D01*
X0447415Y0427550D01*
X0447361Y0427424D01*
X0447303Y0427300D01*
X0447242Y0427177D01*
X0447177Y0427056D01*
X0447109Y0426937D01*
X0447037Y0426820D01*
X0446962Y0426705D01*
X0446883Y0426592D01*
X0446801Y0426481D01*
X0446717Y0426373D01*
X0446629Y0426268D01*
X0446538Y0426165D01*
X0446444Y0426065D01*
X0446347Y0425967D01*
X0446247Y0425873D01*
X0446145Y0425781D01*
X0446040Y0425692D01*
X0445933Y0425607D01*
X0445823Y0425524D01*
X0445711Y0425445D01*
X0445596Y0425369D01*
X0445480Y0425296D01*
X0445361Y0425227D01*
X0445241Y0425161D01*
X0445118Y0425099D01*
X0444994Y0425040D01*
X0444868Y0424985D01*
X0444741Y0424934D01*
X0444612Y0424886D01*
X0444482Y0424842D01*
X0444351Y0424802D01*
X0444218Y0424765D01*
X0444085Y0424733D01*
X0443950Y0424704D01*
X0443815Y0424680D01*
X0443679Y0424659D01*
X0443543Y0424642D01*
X0443406Y0424629D01*
X0443269Y0424620D01*
X0443132Y0424615D01*
X0442995Y0424614D01*
X0442857Y0424617D01*
X0442720Y0424624D01*
X0442583Y0424635D01*
X0442447Y0424650D01*
X0442311Y0424669D01*
X0442175Y0424691D01*
X0442040Y0424718D01*
X0441907Y0424749D01*
X0441774Y0424783D01*
X0441642Y0424821D01*
X0441511Y0424863D01*
X0441381Y0424909D01*
X0441253Y0424959D01*
X0441127Y0425012D01*
X0441002Y0425069D01*
X0440878Y0425130D01*
X0440757Y0425194D01*
X0440637Y0425261D01*
X0440520Y0425332D01*
X0440404Y0425406D01*
X0440291Y0425484D01*
X0440180Y0425565D01*
X0440071Y0425649D01*
X0439965Y0425736D01*
X0439861Y0425826D01*
X0439761Y0425920D01*
X0439662Y0426016D01*
X0439567Y0426115D01*
X0439475Y0426216D01*
X0439385Y0426320D01*
X0439299Y0426427D01*
X0439215Y0426536D01*
X0439135Y0426648D01*
X0439058Y0426762D01*
X0438985Y0426878D01*
X0438915Y0426996D01*
X0438848Y0427116D01*
X0438785Y0427238D01*
X0438725Y0427362D01*
X0438669Y0427487D01*
X0438617Y0427614D01*
X0438568Y0427743D01*
X0438524Y0427872D01*
X0438482Y0428003D01*
X0438445Y0428136D01*
X0438412Y0428269D01*
X0438382Y0428403D01*
X0438356Y0428538D01*
X0438335Y0428674D01*
X0438317Y0428810D01*
X0438303Y0428946D01*
X0438293Y0429083D01*
X0438287Y0429221D01*
X0438285Y0429358D01*
X0186698Y0238461D02*
X0186700Y0238545D01*
X0186706Y0238628D01*
X0186716Y0238711D01*
X0186730Y0238794D01*
X0186747Y0238876D01*
X0186769Y0238957D01*
X0186794Y0239036D01*
X0186823Y0239115D01*
X0186856Y0239192D01*
X0186892Y0239267D01*
X0186932Y0239341D01*
X0186975Y0239413D01*
X0187022Y0239482D01*
X0187072Y0239549D01*
X0187125Y0239614D01*
X0187181Y0239676D01*
X0187239Y0239736D01*
X0187301Y0239793D01*
X0187365Y0239846D01*
X0187432Y0239897D01*
X0187501Y0239944D01*
X0187572Y0239989D01*
X0187645Y0240029D01*
X0187720Y0240066D01*
X0187797Y0240100D01*
X0187875Y0240130D01*
X0187954Y0240156D01*
X0188035Y0240179D01*
X0188117Y0240197D01*
X0188199Y0240212D01*
X0188282Y0240223D01*
X0188365Y0240230D01*
X0188449Y0240233D01*
X0188533Y0240232D01*
X0188616Y0240227D01*
X0188700Y0240218D01*
X0188782Y0240205D01*
X0188864Y0240189D01*
X0188945Y0240168D01*
X0189026Y0240144D01*
X0189104Y0240116D01*
X0189182Y0240084D01*
X0189258Y0240048D01*
X0189332Y0240009D01*
X0189404Y0239967D01*
X0189474Y0239921D01*
X0189542Y0239872D01*
X0189607Y0239820D01*
X0189670Y0239765D01*
X0189730Y0239707D01*
X0189788Y0239646D01*
X0189842Y0239582D01*
X0189894Y0239516D01*
X0189942Y0239448D01*
X0189987Y0239377D01*
X0190028Y0239304D01*
X0190067Y0239230D01*
X0190101Y0239154D01*
X0190132Y0239076D01*
X0190159Y0238997D01*
X0190183Y0238916D01*
X0190202Y0238835D01*
X0190218Y0238753D01*
X0190230Y0238670D01*
X0190238Y0238586D01*
X0190242Y0238503D01*
X0190242Y0238419D01*
X0190238Y0238336D01*
X0190230Y0238252D01*
X0190218Y0238169D01*
X0190202Y0238087D01*
X0190183Y0238006D01*
X0190159Y0237925D01*
X0190132Y0237846D01*
X0190101Y0237768D01*
X0190067Y0237692D01*
X0190028Y0237618D01*
X0189987Y0237545D01*
X0189942Y0237474D01*
X0189894Y0237406D01*
X0189842Y0237340D01*
X0189788Y0237276D01*
X0189730Y0237215D01*
X0189670Y0237157D01*
X0189607Y0237102D01*
X0189542Y0237050D01*
X0189474Y0237001D01*
X0189404Y0236955D01*
X0189332Y0236913D01*
X0189258Y0236874D01*
X0189182Y0236838D01*
X0189104Y0236806D01*
X0189026Y0236778D01*
X0188945Y0236754D01*
X0188864Y0236733D01*
X0188782Y0236717D01*
X0188700Y0236704D01*
X0188616Y0236695D01*
X0188533Y0236690D01*
X0188449Y0236689D01*
X0188365Y0236692D01*
X0188282Y0236699D01*
X0188199Y0236710D01*
X0188117Y0236725D01*
X0188035Y0236743D01*
X0187954Y0236766D01*
X0187875Y0236792D01*
X0187797Y0236822D01*
X0187720Y0236856D01*
X0187645Y0236893D01*
X0187572Y0236933D01*
X0187501Y0236978D01*
X0187432Y0237025D01*
X0187365Y0237076D01*
X0187301Y0237129D01*
X0187239Y0237186D01*
X0187181Y0237246D01*
X0187125Y0237308D01*
X0187072Y0237373D01*
X0187022Y0237440D01*
X0186975Y0237509D01*
X0186932Y0237581D01*
X0186892Y0237655D01*
X0186856Y0237730D01*
X0186823Y0237807D01*
X0186794Y0237886D01*
X0186769Y0237965D01*
X0186747Y0238046D01*
X0186730Y0238128D01*
X0186716Y0238211D01*
X0186706Y0238294D01*
X0186700Y0238377D01*
X0186698Y0238461D01*
X0186698Y0221138D02*
X0186700Y0221222D01*
X0186706Y0221305D01*
X0186716Y0221388D01*
X0186730Y0221471D01*
X0186747Y0221553D01*
X0186769Y0221634D01*
X0186794Y0221713D01*
X0186823Y0221792D01*
X0186856Y0221869D01*
X0186892Y0221944D01*
X0186932Y0222018D01*
X0186975Y0222090D01*
X0187022Y0222159D01*
X0187072Y0222226D01*
X0187125Y0222291D01*
X0187181Y0222353D01*
X0187239Y0222413D01*
X0187301Y0222470D01*
X0187365Y0222523D01*
X0187432Y0222574D01*
X0187501Y0222621D01*
X0187572Y0222666D01*
X0187645Y0222706D01*
X0187720Y0222743D01*
X0187797Y0222777D01*
X0187875Y0222807D01*
X0187954Y0222833D01*
X0188035Y0222856D01*
X0188117Y0222874D01*
X0188199Y0222889D01*
X0188282Y0222900D01*
X0188365Y0222907D01*
X0188449Y0222910D01*
X0188533Y0222909D01*
X0188616Y0222904D01*
X0188700Y0222895D01*
X0188782Y0222882D01*
X0188864Y0222866D01*
X0188945Y0222845D01*
X0189026Y0222821D01*
X0189104Y0222793D01*
X0189182Y0222761D01*
X0189258Y0222725D01*
X0189332Y0222686D01*
X0189404Y0222644D01*
X0189474Y0222598D01*
X0189542Y0222549D01*
X0189607Y0222497D01*
X0189670Y0222442D01*
X0189730Y0222384D01*
X0189788Y0222323D01*
X0189842Y0222259D01*
X0189894Y0222193D01*
X0189942Y0222125D01*
X0189987Y0222054D01*
X0190028Y0221981D01*
X0190067Y0221907D01*
X0190101Y0221831D01*
X0190132Y0221753D01*
X0190159Y0221674D01*
X0190183Y0221593D01*
X0190202Y0221512D01*
X0190218Y0221430D01*
X0190230Y0221347D01*
X0190238Y0221263D01*
X0190242Y0221180D01*
X0190242Y0221096D01*
X0190238Y0221013D01*
X0190230Y0220929D01*
X0190218Y0220846D01*
X0190202Y0220764D01*
X0190183Y0220683D01*
X0190159Y0220602D01*
X0190132Y0220523D01*
X0190101Y0220445D01*
X0190067Y0220369D01*
X0190028Y0220295D01*
X0189987Y0220222D01*
X0189942Y0220151D01*
X0189894Y0220083D01*
X0189842Y0220017D01*
X0189788Y0219953D01*
X0189730Y0219892D01*
X0189670Y0219834D01*
X0189607Y0219779D01*
X0189542Y0219727D01*
X0189474Y0219678D01*
X0189404Y0219632D01*
X0189332Y0219590D01*
X0189258Y0219551D01*
X0189182Y0219515D01*
X0189104Y0219483D01*
X0189026Y0219455D01*
X0188945Y0219431D01*
X0188864Y0219410D01*
X0188782Y0219394D01*
X0188700Y0219381D01*
X0188616Y0219372D01*
X0188533Y0219367D01*
X0188449Y0219366D01*
X0188365Y0219369D01*
X0188282Y0219376D01*
X0188199Y0219387D01*
X0188117Y0219402D01*
X0188035Y0219420D01*
X0187954Y0219443D01*
X0187875Y0219469D01*
X0187797Y0219499D01*
X0187720Y0219533D01*
X0187645Y0219570D01*
X0187572Y0219610D01*
X0187501Y0219655D01*
X0187432Y0219702D01*
X0187365Y0219753D01*
X0187301Y0219806D01*
X0187239Y0219863D01*
X0187181Y0219923D01*
X0187125Y0219985D01*
X0187072Y0220050D01*
X0187022Y0220117D01*
X0186975Y0220186D01*
X0186932Y0220258D01*
X0186892Y0220332D01*
X0186856Y0220407D01*
X0186823Y0220484D01*
X0186794Y0220563D01*
X0186769Y0220642D01*
X0186747Y0220723D01*
X0186730Y0220805D01*
X0186716Y0220888D01*
X0186706Y0220971D01*
X0186700Y0221054D01*
X0186698Y0221138D01*
X0186942Y0181358D02*
X0186944Y0181511D01*
X0186950Y0181665D01*
X0186960Y0181818D01*
X0186974Y0181970D01*
X0186992Y0182123D01*
X0187014Y0182274D01*
X0187039Y0182425D01*
X0187069Y0182576D01*
X0187103Y0182726D01*
X0187140Y0182874D01*
X0187181Y0183022D01*
X0187226Y0183168D01*
X0187275Y0183314D01*
X0187328Y0183458D01*
X0187384Y0183600D01*
X0187444Y0183741D01*
X0187508Y0183881D01*
X0187575Y0184019D01*
X0187646Y0184155D01*
X0187721Y0184289D01*
X0187798Y0184421D01*
X0187880Y0184551D01*
X0187964Y0184679D01*
X0188052Y0184805D01*
X0188143Y0184928D01*
X0188237Y0185049D01*
X0188335Y0185167D01*
X0188435Y0185283D01*
X0188539Y0185396D01*
X0188645Y0185507D01*
X0188754Y0185615D01*
X0188866Y0185720D01*
X0188980Y0185821D01*
X0189098Y0185920D01*
X0189217Y0186016D01*
X0189339Y0186109D01*
X0189464Y0186198D01*
X0189591Y0186285D01*
X0189720Y0186367D01*
X0189851Y0186447D01*
X0189984Y0186523D01*
X0190119Y0186596D01*
X0190256Y0186665D01*
X0190395Y0186730D01*
X0190535Y0186792D01*
X0190677Y0186850D01*
X0190820Y0186905D01*
X0190965Y0186956D01*
X0191111Y0187003D01*
X0191258Y0187046D01*
X0191406Y0187085D01*
X0191555Y0187121D01*
X0191705Y0187152D01*
X0191856Y0187180D01*
X0192007Y0187204D01*
X0192160Y0187224D01*
X0192312Y0187240D01*
X0192465Y0187252D01*
X0192618Y0187260D01*
X0192771Y0187264D01*
X0192925Y0187264D01*
X0193078Y0187260D01*
X0193231Y0187252D01*
X0193384Y0187240D01*
X0193536Y0187224D01*
X0193689Y0187204D01*
X0193840Y0187180D01*
X0193991Y0187152D01*
X0194141Y0187121D01*
X0194290Y0187085D01*
X0194438Y0187046D01*
X0194585Y0187003D01*
X0194731Y0186956D01*
X0194876Y0186905D01*
X0195019Y0186850D01*
X0195161Y0186792D01*
X0195301Y0186730D01*
X0195440Y0186665D01*
X0195577Y0186596D01*
X0195712Y0186523D01*
X0195845Y0186447D01*
X0195976Y0186367D01*
X0196105Y0186285D01*
X0196232Y0186198D01*
X0196357Y0186109D01*
X0196479Y0186016D01*
X0196598Y0185920D01*
X0196716Y0185821D01*
X0196830Y0185720D01*
X0196942Y0185615D01*
X0197051Y0185507D01*
X0197157Y0185396D01*
X0197261Y0185283D01*
X0197361Y0185167D01*
X0197459Y0185049D01*
X0197553Y0184928D01*
X0197644Y0184805D01*
X0197732Y0184679D01*
X0197816Y0184551D01*
X0197898Y0184421D01*
X0197975Y0184289D01*
X0198050Y0184155D01*
X0198121Y0184019D01*
X0198188Y0183881D01*
X0198252Y0183741D01*
X0198312Y0183600D01*
X0198368Y0183458D01*
X0198421Y0183314D01*
X0198470Y0183168D01*
X0198515Y0183022D01*
X0198556Y0182874D01*
X0198593Y0182726D01*
X0198627Y0182576D01*
X0198657Y0182425D01*
X0198682Y0182274D01*
X0198704Y0182123D01*
X0198722Y0181970D01*
X0198736Y0181818D01*
X0198746Y0181665D01*
X0198752Y0181511D01*
X0198754Y0181358D01*
X0198752Y0181205D01*
X0198746Y0181051D01*
X0198736Y0180898D01*
X0198722Y0180746D01*
X0198704Y0180593D01*
X0198682Y0180442D01*
X0198657Y0180291D01*
X0198627Y0180140D01*
X0198593Y0179990D01*
X0198556Y0179842D01*
X0198515Y0179694D01*
X0198470Y0179548D01*
X0198421Y0179402D01*
X0198368Y0179258D01*
X0198312Y0179116D01*
X0198252Y0178975D01*
X0198188Y0178835D01*
X0198121Y0178697D01*
X0198050Y0178561D01*
X0197975Y0178427D01*
X0197898Y0178295D01*
X0197816Y0178165D01*
X0197732Y0178037D01*
X0197644Y0177911D01*
X0197553Y0177788D01*
X0197459Y0177667D01*
X0197361Y0177549D01*
X0197261Y0177433D01*
X0197157Y0177320D01*
X0197051Y0177209D01*
X0196942Y0177101D01*
X0196830Y0176996D01*
X0196716Y0176895D01*
X0196598Y0176796D01*
X0196479Y0176700D01*
X0196357Y0176607D01*
X0196232Y0176518D01*
X0196105Y0176431D01*
X0195976Y0176349D01*
X0195845Y0176269D01*
X0195712Y0176193D01*
X0195577Y0176120D01*
X0195440Y0176051D01*
X0195301Y0175986D01*
X0195161Y0175924D01*
X0195019Y0175866D01*
X0194876Y0175811D01*
X0194731Y0175760D01*
X0194585Y0175713D01*
X0194438Y0175670D01*
X0194290Y0175631D01*
X0194141Y0175595D01*
X0193991Y0175564D01*
X0193840Y0175536D01*
X0193689Y0175512D01*
X0193536Y0175492D01*
X0193384Y0175476D01*
X0193231Y0175464D01*
X0193078Y0175456D01*
X0192925Y0175452D01*
X0192771Y0175452D01*
X0192618Y0175456D01*
X0192465Y0175464D01*
X0192312Y0175476D01*
X0192160Y0175492D01*
X0192007Y0175512D01*
X0191856Y0175536D01*
X0191705Y0175564D01*
X0191555Y0175595D01*
X0191406Y0175631D01*
X0191258Y0175670D01*
X0191111Y0175713D01*
X0190965Y0175760D01*
X0190820Y0175811D01*
X0190677Y0175866D01*
X0190535Y0175924D01*
X0190395Y0175986D01*
X0190256Y0176051D01*
X0190119Y0176120D01*
X0189984Y0176193D01*
X0189851Y0176269D01*
X0189720Y0176349D01*
X0189591Y0176431D01*
X0189464Y0176518D01*
X0189339Y0176607D01*
X0189217Y0176700D01*
X0189098Y0176796D01*
X0188980Y0176895D01*
X0188866Y0176996D01*
X0188754Y0177101D01*
X0188645Y0177209D01*
X0188539Y0177320D01*
X0188435Y0177433D01*
X0188335Y0177549D01*
X0188237Y0177667D01*
X0188143Y0177788D01*
X0188052Y0177911D01*
X0187964Y0178037D01*
X0187880Y0178165D01*
X0187798Y0178295D01*
X0187721Y0178427D01*
X0187646Y0178561D01*
X0187575Y0178697D01*
X0187508Y0178835D01*
X0187444Y0178975D01*
X0187384Y0179116D01*
X0187328Y0179258D01*
X0187275Y0179402D01*
X0187226Y0179548D01*
X0187181Y0179694D01*
X0187140Y0179842D01*
X0187103Y0179990D01*
X0187069Y0180140D01*
X0187039Y0180291D01*
X0187014Y0180442D01*
X0186992Y0180593D01*
X0186974Y0180746D01*
X0186960Y0180898D01*
X0186950Y0181051D01*
X0186944Y0181205D01*
X0186942Y0181358D01*
D11*
X0164848Y0107358D02*
X0164848Y0331768D01*
D12*
X0300848Y0206358D02*
X0301848Y0194358D01*
X0604848Y0194358D01*
X0604848Y0206358D01*
X0300848Y0206358D01*
X0294948Y0200358D02*
X0294950Y0200512D01*
X0294956Y0200667D01*
X0294966Y0200821D01*
X0294980Y0200975D01*
X0294998Y0201128D01*
X0295019Y0201281D01*
X0295045Y0201434D01*
X0295075Y0201585D01*
X0295108Y0201736D01*
X0295146Y0201886D01*
X0295187Y0202035D01*
X0295232Y0202183D01*
X0295281Y0202329D01*
X0295334Y0202475D01*
X0295390Y0202618D01*
X0295450Y0202761D01*
X0295514Y0202901D01*
X0295581Y0203041D01*
X0295652Y0203178D01*
X0295726Y0203313D01*
X0295804Y0203447D01*
X0295885Y0203578D01*
X0295970Y0203707D01*
X0296058Y0203835D01*
X0296149Y0203959D01*
X0296243Y0204082D01*
X0296341Y0204202D01*
X0296441Y0204319D01*
X0296545Y0204434D01*
X0296651Y0204546D01*
X0296760Y0204655D01*
X0296872Y0204761D01*
X0296987Y0204865D01*
X0297104Y0204965D01*
X0297224Y0205063D01*
X0297347Y0205157D01*
X0297471Y0205248D01*
X0297599Y0205336D01*
X0297728Y0205421D01*
X0297859Y0205502D01*
X0297993Y0205580D01*
X0298128Y0205654D01*
X0298265Y0205725D01*
X0298405Y0205792D01*
X0298545Y0205856D01*
X0298688Y0205916D01*
X0298831Y0205972D01*
X0298977Y0206025D01*
X0299123Y0206074D01*
X0299271Y0206119D01*
X0299420Y0206160D01*
X0299570Y0206198D01*
X0299721Y0206231D01*
X0299872Y0206261D01*
X0300025Y0206287D01*
X0300178Y0206308D01*
X0300331Y0206326D01*
X0300485Y0206340D01*
X0300639Y0206350D01*
X0300794Y0206356D01*
X0300948Y0206358D01*
X0301102Y0206356D01*
X0301257Y0206350D01*
X0301411Y0206340D01*
X0301565Y0206326D01*
X0301718Y0206308D01*
X0301871Y0206287D01*
X0302024Y0206261D01*
X0302175Y0206231D01*
X0302326Y0206198D01*
X0302476Y0206160D01*
X0302625Y0206119D01*
X0302773Y0206074D01*
X0302919Y0206025D01*
X0303065Y0205972D01*
X0303208Y0205916D01*
X0303351Y0205856D01*
X0303491Y0205792D01*
X0303631Y0205725D01*
X0303768Y0205654D01*
X0303903Y0205580D01*
X0304037Y0205502D01*
X0304168Y0205421D01*
X0304297Y0205336D01*
X0304425Y0205248D01*
X0304549Y0205157D01*
X0304672Y0205063D01*
X0304792Y0204965D01*
X0304909Y0204865D01*
X0305024Y0204761D01*
X0305136Y0204655D01*
X0305245Y0204546D01*
X0305351Y0204434D01*
X0305455Y0204319D01*
X0305555Y0204202D01*
X0305653Y0204082D01*
X0305747Y0203959D01*
X0305838Y0203835D01*
X0305926Y0203707D01*
X0306011Y0203578D01*
X0306092Y0203447D01*
X0306170Y0203313D01*
X0306244Y0203178D01*
X0306315Y0203041D01*
X0306382Y0202901D01*
X0306446Y0202761D01*
X0306506Y0202618D01*
X0306562Y0202475D01*
X0306615Y0202329D01*
X0306664Y0202183D01*
X0306709Y0202035D01*
X0306750Y0201886D01*
X0306788Y0201736D01*
X0306821Y0201585D01*
X0306851Y0201434D01*
X0306877Y0201281D01*
X0306898Y0201128D01*
X0306916Y0200975D01*
X0306930Y0200821D01*
X0306940Y0200667D01*
X0306946Y0200512D01*
X0306948Y0200358D01*
X0306946Y0200204D01*
X0306940Y0200049D01*
X0306930Y0199895D01*
X0306916Y0199741D01*
X0306898Y0199588D01*
X0306877Y0199435D01*
X0306851Y0199282D01*
X0306821Y0199131D01*
X0306788Y0198980D01*
X0306750Y0198830D01*
X0306709Y0198681D01*
X0306664Y0198533D01*
X0306615Y0198387D01*
X0306562Y0198241D01*
X0306506Y0198098D01*
X0306446Y0197955D01*
X0306382Y0197815D01*
X0306315Y0197675D01*
X0306244Y0197538D01*
X0306170Y0197403D01*
X0306092Y0197269D01*
X0306011Y0197138D01*
X0305926Y0197009D01*
X0305838Y0196881D01*
X0305747Y0196757D01*
X0305653Y0196634D01*
X0305555Y0196514D01*
X0305455Y0196397D01*
X0305351Y0196282D01*
X0305245Y0196170D01*
X0305136Y0196061D01*
X0305024Y0195955D01*
X0304909Y0195851D01*
X0304792Y0195751D01*
X0304672Y0195653D01*
X0304549Y0195559D01*
X0304425Y0195468D01*
X0304297Y0195380D01*
X0304168Y0195295D01*
X0304037Y0195214D01*
X0303903Y0195136D01*
X0303768Y0195062D01*
X0303631Y0194991D01*
X0303491Y0194924D01*
X0303351Y0194860D01*
X0303208Y0194800D01*
X0303065Y0194744D01*
X0302919Y0194691D01*
X0302773Y0194642D01*
X0302625Y0194597D01*
X0302476Y0194556D01*
X0302326Y0194518D01*
X0302175Y0194485D01*
X0302024Y0194455D01*
X0301871Y0194429D01*
X0301718Y0194408D01*
X0301565Y0194390D01*
X0301411Y0194376D01*
X0301257Y0194366D01*
X0301102Y0194360D01*
X0300948Y0194358D01*
X0300794Y0194360D01*
X0300639Y0194366D01*
X0300485Y0194376D01*
X0300331Y0194390D01*
X0300178Y0194408D01*
X0300025Y0194429D01*
X0299872Y0194455D01*
X0299721Y0194485D01*
X0299570Y0194518D01*
X0299420Y0194556D01*
X0299271Y0194597D01*
X0299123Y0194642D01*
X0298977Y0194691D01*
X0298831Y0194744D01*
X0298688Y0194800D01*
X0298545Y0194860D01*
X0298405Y0194924D01*
X0298265Y0194991D01*
X0298128Y0195062D01*
X0297993Y0195136D01*
X0297859Y0195214D01*
X0297728Y0195295D01*
X0297599Y0195380D01*
X0297471Y0195468D01*
X0297347Y0195559D01*
X0297224Y0195653D01*
X0297104Y0195751D01*
X0296987Y0195851D01*
X0296872Y0195955D01*
X0296760Y0196061D01*
X0296651Y0196170D01*
X0296545Y0196282D01*
X0296441Y0196397D01*
X0296341Y0196514D01*
X0296243Y0196634D01*
X0296149Y0196757D01*
X0296058Y0196881D01*
X0295970Y0197009D01*
X0295885Y0197138D01*
X0295804Y0197269D01*
X0295726Y0197403D01*
X0295652Y0197538D01*
X0295581Y0197675D01*
X0295514Y0197815D01*
X0295450Y0197955D01*
X0295390Y0198098D01*
X0295334Y0198241D01*
X0295281Y0198387D01*
X0295232Y0198533D01*
X0295187Y0198681D01*
X0295146Y0198830D01*
X0295108Y0198980D01*
X0295075Y0199131D01*
X0295045Y0199282D01*
X0295019Y0199435D01*
X0294998Y0199588D01*
X0294980Y0199741D01*
X0294966Y0199895D01*
X0294956Y0200049D01*
X0294950Y0200204D01*
X0294948Y0200358D01*
X0598948Y0200358D02*
X0598950Y0200512D01*
X0598956Y0200667D01*
X0598966Y0200821D01*
X0598980Y0200975D01*
X0598998Y0201128D01*
X0599019Y0201281D01*
X0599045Y0201434D01*
X0599075Y0201585D01*
X0599108Y0201736D01*
X0599146Y0201886D01*
X0599187Y0202035D01*
X0599232Y0202183D01*
X0599281Y0202329D01*
X0599334Y0202475D01*
X0599390Y0202618D01*
X0599450Y0202761D01*
X0599514Y0202901D01*
X0599581Y0203041D01*
X0599652Y0203178D01*
X0599726Y0203313D01*
X0599804Y0203447D01*
X0599885Y0203578D01*
X0599970Y0203707D01*
X0600058Y0203835D01*
X0600149Y0203959D01*
X0600243Y0204082D01*
X0600341Y0204202D01*
X0600441Y0204319D01*
X0600545Y0204434D01*
X0600651Y0204546D01*
X0600760Y0204655D01*
X0600872Y0204761D01*
X0600987Y0204865D01*
X0601104Y0204965D01*
X0601224Y0205063D01*
X0601347Y0205157D01*
X0601471Y0205248D01*
X0601599Y0205336D01*
X0601728Y0205421D01*
X0601859Y0205502D01*
X0601993Y0205580D01*
X0602128Y0205654D01*
X0602265Y0205725D01*
X0602405Y0205792D01*
X0602545Y0205856D01*
X0602688Y0205916D01*
X0602831Y0205972D01*
X0602977Y0206025D01*
X0603123Y0206074D01*
X0603271Y0206119D01*
X0603420Y0206160D01*
X0603570Y0206198D01*
X0603721Y0206231D01*
X0603872Y0206261D01*
X0604025Y0206287D01*
X0604178Y0206308D01*
X0604331Y0206326D01*
X0604485Y0206340D01*
X0604639Y0206350D01*
X0604794Y0206356D01*
X0604948Y0206358D01*
X0605102Y0206356D01*
X0605257Y0206350D01*
X0605411Y0206340D01*
X0605565Y0206326D01*
X0605718Y0206308D01*
X0605871Y0206287D01*
X0606024Y0206261D01*
X0606175Y0206231D01*
X0606326Y0206198D01*
X0606476Y0206160D01*
X0606625Y0206119D01*
X0606773Y0206074D01*
X0606919Y0206025D01*
X0607065Y0205972D01*
X0607208Y0205916D01*
X0607351Y0205856D01*
X0607491Y0205792D01*
X0607631Y0205725D01*
X0607768Y0205654D01*
X0607903Y0205580D01*
X0608037Y0205502D01*
X0608168Y0205421D01*
X0608297Y0205336D01*
X0608425Y0205248D01*
X0608549Y0205157D01*
X0608672Y0205063D01*
X0608792Y0204965D01*
X0608909Y0204865D01*
X0609024Y0204761D01*
X0609136Y0204655D01*
X0609245Y0204546D01*
X0609351Y0204434D01*
X0609455Y0204319D01*
X0609555Y0204202D01*
X0609653Y0204082D01*
X0609747Y0203959D01*
X0609838Y0203835D01*
X0609926Y0203707D01*
X0610011Y0203578D01*
X0610092Y0203447D01*
X0610170Y0203313D01*
X0610244Y0203178D01*
X0610315Y0203041D01*
X0610382Y0202901D01*
X0610446Y0202761D01*
X0610506Y0202618D01*
X0610562Y0202475D01*
X0610615Y0202329D01*
X0610664Y0202183D01*
X0610709Y0202035D01*
X0610750Y0201886D01*
X0610788Y0201736D01*
X0610821Y0201585D01*
X0610851Y0201434D01*
X0610877Y0201281D01*
X0610898Y0201128D01*
X0610916Y0200975D01*
X0610930Y0200821D01*
X0610940Y0200667D01*
X0610946Y0200512D01*
X0610948Y0200358D01*
X0610946Y0200204D01*
X0610940Y0200049D01*
X0610930Y0199895D01*
X0610916Y0199741D01*
X0610898Y0199588D01*
X0610877Y0199435D01*
X0610851Y0199282D01*
X0610821Y0199131D01*
X0610788Y0198980D01*
X0610750Y0198830D01*
X0610709Y0198681D01*
X0610664Y0198533D01*
X0610615Y0198387D01*
X0610562Y0198241D01*
X0610506Y0198098D01*
X0610446Y0197955D01*
X0610382Y0197815D01*
X0610315Y0197675D01*
X0610244Y0197538D01*
X0610170Y0197403D01*
X0610092Y0197269D01*
X0610011Y0197138D01*
X0609926Y0197009D01*
X0609838Y0196881D01*
X0609747Y0196757D01*
X0609653Y0196634D01*
X0609555Y0196514D01*
X0609455Y0196397D01*
X0609351Y0196282D01*
X0609245Y0196170D01*
X0609136Y0196061D01*
X0609024Y0195955D01*
X0608909Y0195851D01*
X0608792Y0195751D01*
X0608672Y0195653D01*
X0608549Y0195559D01*
X0608425Y0195468D01*
X0608297Y0195380D01*
X0608168Y0195295D01*
X0608037Y0195214D01*
X0607903Y0195136D01*
X0607768Y0195062D01*
X0607631Y0194991D01*
X0607491Y0194924D01*
X0607351Y0194860D01*
X0607208Y0194800D01*
X0607065Y0194744D01*
X0606919Y0194691D01*
X0606773Y0194642D01*
X0606625Y0194597D01*
X0606476Y0194556D01*
X0606326Y0194518D01*
X0606175Y0194485D01*
X0606024Y0194455D01*
X0605871Y0194429D01*
X0605718Y0194408D01*
X0605565Y0194390D01*
X0605411Y0194376D01*
X0605257Y0194366D01*
X0605102Y0194360D01*
X0604948Y0194358D01*
X0604794Y0194360D01*
X0604639Y0194366D01*
X0604485Y0194376D01*
X0604331Y0194390D01*
X0604178Y0194408D01*
X0604025Y0194429D01*
X0603872Y0194455D01*
X0603721Y0194485D01*
X0603570Y0194518D01*
X0603420Y0194556D01*
X0603271Y0194597D01*
X0603123Y0194642D01*
X0602977Y0194691D01*
X0602831Y0194744D01*
X0602688Y0194800D01*
X0602545Y0194860D01*
X0602405Y0194924D01*
X0602265Y0194991D01*
X0602128Y0195062D01*
X0601993Y0195136D01*
X0601859Y0195214D01*
X0601728Y0195295D01*
X0601599Y0195380D01*
X0601471Y0195468D01*
X0601347Y0195559D01*
X0601224Y0195653D01*
X0601104Y0195751D01*
X0600987Y0195851D01*
X0600872Y0195955D01*
X0600760Y0196061D01*
X0600651Y0196170D01*
X0600545Y0196282D01*
X0600441Y0196397D01*
X0600341Y0196514D01*
X0600243Y0196634D01*
X0600149Y0196757D01*
X0600058Y0196881D01*
X0599970Y0197009D01*
X0599885Y0197138D01*
X0599804Y0197269D01*
X0599726Y0197403D01*
X0599652Y0197538D01*
X0599581Y0197675D01*
X0599514Y0197815D01*
X0599450Y0197955D01*
X0599390Y0198098D01*
X0599334Y0198241D01*
X0599281Y0198387D01*
X0599232Y0198533D01*
X0599187Y0198681D01*
X0599146Y0198830D01*
X0599108Y0198980D01*
X0599075Y0199131D01*
X0599045Y0199282D01*
X0599019Y0199435D01*
X0598998Y0199588D01*
X0598980Y0199741D01*
X0598966Y0199895D01*
X0598956Y0200049D01*
X0598950Y0200204D01*
X0598948Y0200358D01*
X0676659Y0107358D02*
X0676659Y0331768D01*
X0676659Y0390823D02*
X0676659Y0465626D01*
D13*
X0164848Y0465626D02*
X0164848Y0107358D01*
X0676659Y0107358D02*
X0676659Y0465626D01*
D14*
X0604948Y0200358D02*
X0300948Y0200358D01*
X0604648Y0199958D02*
X0604948Y0200358D01*
M02*
