G75*
%MOIN*%
%OFA0B0*%
%FSLAX25Y25*%
%IPPOS*%
%LPD*%
%AMOC8*
5,1,8,0,0,1.08239X$1,22.5*
%
%ADD10R,0.06706X0.05918*%
%ADD11R,0.05131X0.04737*%
%ADD12R,0.05524X0.03950*%
%ADD13R,0.05918X0.06706*%
%ADD14R,0.04737X0.05131*%
%ADD15R,0.05524X0.03556*%
%ADD16R,0.07887X0.04737*%
%ADD17R,0.05800X0.09383*%
%ADD18R,0.05500X0.03000*%
%ADD19R,0.03000X0.05500*%
%ADD20R,0.08800X0.03400*%
%ADD21R,0.06312X0.04737*%
%ADD22C,0.00460*%
%ADD23R,0.07099X0.05524*%
%ADD24R,0.02000X0.06700*%
%ADD25R,0.07900X0.09500*%
%ADD26R,0.05524X0.05524*%
%ADD27R,0.21800X0.08400*%
%ADD28R,0.03300X0.05800*%
%ADD29R,0.03950X0.04643*%
%ADD30R,0.01900X0.05700*%
%ADD31R,0.21100X0.21100*%
%ADD32C,0.04100*%
%ADD33R,0.02965X0.05524*%
%ADD34R,0.03000X0.07100*%
%ADD35C,0.06800*%
%ADD36R,0.06800X0.06800*%
%ADD37C,0.08800*%
%ADD38R,0.07690X0.12611*%
%ADD39R,0.03950X0.05524*%
%ADD40R,0.03162X0.01784*%
%ADD41R,0.10643X0.09855*%
%ADD42C,0.05359*%
%ADD43R,0.06312X0.06312*%
%ADD44R,0.09265X0.13595*%
%ADD45R,0.09265X0.04540*%
%ADD46C,0.04343*%
%ADD47R,0.09658X0.02769*%
%ADD48R,0.16548X0.08871*%
%ADD49R,0.14580X0.08871*%
%ADD50C,0.10288*%
%ADD51R,0.05800X0.12296*%
%ADD52C,0.06824*%
%ADD53C,0.12611*%
%ADD54R,0.06706X0.04737*%
%ADD55R,0.03556X0.05524*%
%ADD56C,0.03778*%
%ADD57C,0.29800*%
%ADD58C,0.04762*%
%ADD59C,0.03581*%
%ADD60C,0.04369*%
%ADD61C,0.05156*%
D10*
X0365962Y0239549D03*
X0365962Y0247029D03*
X0410320Y0292167D03*
X0410320Y0299647D03*
X0440040Y0260569D03*
X0440040Y0253088D03*
X0365314Y0337619D03*
X0365314Y0345099D03*
X0365294Y0353885D03*
X0365294Y0361366D03*
D11*
X0425177Y0393244D03*
X0431870Y0393244D03*
X0552143Y0431330D03*
X0558836Y0431330D03*
X0558974Y0441530D03*
X0552281Y0441530D03*
X0571585Y0345714D03*
X0578278Y0345714D03*
X0588389Y0345714D03*
X0595082Y0345714D03*
X0606989Y0345214D03*
X0613682Y0345214D03*
X0611978Y0305514D03*
X0605285Y0305514D03*
X0594578Y0305627D03*
X0587885Y0305627D03*
X0577619Y0305761D03*
X0570926Y0305761D03*
X0600724Y0236176D03*
X0607417Y0236176D03*
X0607417Y0227176D03*
X0600724Y0227176D03*
X0611848Y0155205D03*
X0611848Y0148512D03*
X0611848Y0137705D03*
X0611848Y0131012D03*
X0616348Y0124205D03*
X0616348Y0117512D03*
X0627348Y0125012D03*
X0627348Y0131705D03*
X0532348Y0132512D03*
X0532348Y0139205D03*
X0532348Y0147512D03*
X0532348Y0154205D03*
X0517348Y0146705D03*
X0517348Y0140012D03*
X0515848Y0130205D03*
X0515848Y0123512D03*
X0532348Y0124205D03*
X0532348Y0117512D03*
X0470848Y0119012D03*
X0470848Y0125705D03*
X0458848Y0125012D03*
X0458848Y0131705D03*
X0466348Y0144512D03*
X0466348Y0151205D03*
X0391348Y0152012D03*
X0391348Y0158705D03*
X0380848Y0152705D03*
X0380848Y0146012D03*
X0367348Y0148205D03*
X0367348Y0141512D03*
X0380848Y0137705D03*
X0380848Y0131012D03*
X0367348Y0130205D03*
X0367348Y0123512D03*
X0380848Y0122705D03*
X0380848Y0116012D03*
X0311848Y0131012D03*
X0311848Y0137705D03*
X0310348Y0146012D03*
X0310348Y0152705D03*
X0226348Y0151205D03*
X0226348Y0144512D03*
X0226348Y0136205D03*
X0226348Y0129512D03*
X0213848Y0129405D03*
X0213848Y0122712D03*
X0212448Y0139012D03*
X0212448Y0145705D03*
X0211348Y0155012D03*
X0211348Y0161705D03*
X0192518Y0316896D03*
X0185825Y0316896D03*
D12*
X0399686Y0296254D03*
X0399686Y0289168D03*
X0604645Y0220142D03*
X0604645Y0213056D03*
X0616983Y0213008D03*
X0616983Y0220095D03*
X0650270Y0232283D03*
X0659970Y0232283D03*
X0659970Y0239370D03*
X0650270Y0239370D03*
X0626870Y0259033D03*
X0626870Y0266120D03*
X0625670Y0271333D03*
X0625670Y0278420D03*
X0636270Y0278420D03*
X0636270Y0271333D03*
X0651770Y0271233D03*
X0651770Y0278320D03*
X0661670Y0278420D03*
X0661670Y0271333D03*
X0508172Y0422453D03*
X0508172Y0429539D03*
D13*
X0350858Y0305636D03*
X0343377Y0305636D03*
X0343648Y0295761D03*
X0351129Y0295761D03*
X0374880Y0298881D03*
X0382361Y0298881D03*
X0409367Y0282587D03*
X0416848Y0282587D03*
X0417226Y0270407D03*
X0409746Y0270407D03*
X0310263Y0319281D03*
X0302783Y0319281D03*
X0281954Y0365635D03*
X0274473Y0365635D03*
D14*
X0224644Y0366452D03*
X0224644Y0359759D03*
X0234848Y0246705D03*
X0234848Y0240012D03*
X0234848Y0222705D03*
X0234848Y0216012D03*
X0234195Y0162858D03*
X0227502Y0162858D03*
X0232002Y0119358D03*
X0238695Y0119358D03*
X0310002Y0117858D03*
X0316695Y0117858D03*
X0349002Y0116358D03*
X0355695Y0116358D03*
X0331695Y0165858D03*
X0325002Y0165858D03*
X0452502Y0158358D03*
X0459195Y0158358D03*
X0539502Y0161358D03*
X0546195Y0161358D03*
X0597002Y0164358D03*
X0603695Y0164358D03*
X0642970Y0257330D03*
X0642970Y0264023D03*
X0525265Y0412603D03*
X0525265Y0419296D03*
X0516566Y0419503D03*
X0516566Y0412810D03*
D15*
X0386311Y0308407D03*
X0371744Y0308407D03*
D16*
X0575703Y0376287D03*
X0575703Y0387310D03*
X0592239Y0387239D03*
X0592239Y0376215D03*
X0611081Y0376510D03*
X0611081Y0387534D03*
D17*
X0450008Y0294862D03*
X0440008Y0294862D03*
X0430008Y0294862D03*
X0430008Y0270846D03*
X0440008Y0270846D03*
X0450008Y0270846D03*
D18*
X0438357Y0322865D03*
X0438357Y0326015D03*
X0438357Y0329165D03*
X0438357Y0332314D03*
X0438357Y0335464D03*
X0438357Y0338613D03*
X0438357Y0341763D03*
X0438357Y0344913D03*
X0438357Y0348062D03*
X0438357Y0351212D03*
X0438357Y0354361D03*
X0438357Y0357511D03*
X0438357Y0360661D03*
X0438357Y0363810D03*
X0438357Y0366960D03*
X0438357Y0370109D03*
X0377257Y0370109D03*
X0377257Y0366960D03*
X0377257Y0363810D03*
X0377257Y0360661D03*
X0377257Y0357511D03*
X0377257Y0354361D03*
X0377257Y0351212D03*
X0377257Y0348062D03*
X0377257Y0344913D03*
X0377257Y0341763D03*
X0377257Y0338613D03*
X0377257Y0335464D03*
X0377257Y0332314D03*
X0377257Y0329165D03*
X0377257Y0326015D03*
X0377257Y0322865D03*
D19*
X0384185Y0315937D03*
X0387335Y0315937D03*
X0390485Y0315937D03*
X0393634Y0315937D03*
X0396784Y0315937D03*
X0399933Y0315937D03*
X0403083Y0315937D03*
X0406233Y0315937D03*
X0409382Y0315937D03*
X0412532Y0315937D03*
X0415681Y0315937D03*
X0418831Y0315937D03*
X0421981Y0315937D03*
X0425130Y0315937D03*
X0428280Y0315937D03*
X0431429Y0315937D03*
X0431429Y0377037D03*
X0428280Y0377037D03*
X0425130Y0377037D03*
X0421981Y0377037D03*
X0418831Y0377037D03*
X0415681Y0377037D03*
X0412532Y0377037D03*
X0409382Y0377037D03*
X0406233Y0377037D03*
X0403083Y0377037D03*
X0399933Y0377037D03*
X0396784Y0377037D03*
X0393634Y0377037D03*
X0390485Y0377037D03*
X0387335Y0377037D03*
X0384185Y0377037D03*
D20*
X0338802Y0342976D03*
X0338802Y0337976D03*
X0338802Y0332976D03*
X0338802Y0327976D03*
X0314602Y0327976D03*
X0314602Y0332976D03*
X0314602Y0337976D03*
X0314602Y0342976D03*
D21*
X0297703Y0335688D03*
X0289041Y0331948D03*
X0289041Y0339428D03*
D22*
X0365243Y0289870D02*
X0365243Y0288030D01*
X0359003Y0288030D01*
X0359003Y0289870D01*
X0365243Y0289870D01*
X0365243Y0288489D02*
X0359003Y0288489D01*
X0359003Y0288948D02*
X0365243Y0288948D01*
X0365243Y0289407D02*
X0359003Y0289407D01*
X0359003Y0289866D02*
X0365243Y0289866D01*
X0365243Y0287311D02*
X0365243Y0285471D01*
X0359003Y0285471D01*
X0359003Y0287311D01*
X0365243Y0287311D01*
X0365243Y0285930D02*
X0359003Y0285930D01*
X0359003Y0286389D02*
X0365243Y0286389D01*
X0365243Y0286848D02*
X0359003Y0286848D01*
X0359003Y0287307D02*
X0365243Y0287307D01*
X0365243Y0284751D02*
X0365243Y0282911D01*
X0359003Y0282911D01*
X0359003Y0284751D01*
X0365243Y0284751D01*
X0365243Y0283370D02*
X0359003Y0283370D01*
X0359003Y0283829D02*
X0365243Y0283829D01*
X0365243Y0284288D02*
X0359003Y0284288D01*
X0359003Y0284747D02*
X0365243Y0284747D01*
X0365243Y0282192D02*
X0365243Y0280352D01*
X0359003Y0280352D01*
X0359003Y0282192D01*
X0365243Y0282192D01*
X0365243Y0280811D02*
X0359003Y0280811D01*
X0359003Y0281270D02*
X0365243Y0281270D01*
X0365243Y0281729D02*
X0359003Y0281729D01*
X0359003Y0282188D02*
X0365243Y0282188D01*
X0365243Y0279633D02*
X0365243Y0277793D01*
X0359003Y0277793D01*
X0359003Y0279633D01*
X0365243Y0279633D01*
X0365243Y0278252D02*
X0359003Y0278252D01*
X0359003Y0278711D02*
X0365243Y0278711D01*
X0365243Y0279170D02*
X0359003Y0279170D01*
X0359003Y0279629D02*
X0365243Y0279629D01*
X0365243Y0277074D02*
X0365243Y0275234D01*
X0359003Y0275234D01*
X0359003Y0277074D01*
X0365243Y0277074D01*
X0365243Y0275693D02*
X0359003Y0275693D01*
X0359003Y0276152D02*
X0365243Y0276152D01*
X0365243Y0276611D02*
X0359003Y0276611D01*
X0359003Y0277070D02*
X0365243Y0277070D01*
X0365243Y0274515D02*
X0365243Y0272675D01*
X0359003Y0272675D01*
X0359003Y0274515D01*
X0365243Y0274515D01*
X0365243Y0273134D02*
X0359003Y0273134D01*
X0359003Y0273593D02*
X0365243Y0273593D01*
X0365243Y0274052D02*
X0359003Y0274052D01*
X0359003Y0274511D02*
X0365243Y0274511D01*
X0365243Y0271956D02*
X0365243Y0270116D01*
X0359003Y0270116D01*
X0359003Y0271956D01*
X0365243Y0271956D01*
X0365243Y0270575D02*
X0359003Y0270575D01*
X0359003Y0271034D02*
X0365243Y0271034D01*
X0365243Y0271493D02*
X0359003Y0271493D01*
X0359003Y0271952D02*
X0365243Y0271952D01*
X0365243Y0269397D02*
X0365243Y0267557D01*
X0359003Y0267557D01*
X0359003Y0269397D01*
X0365243Y0269397D01*
X0365243Y0268016D02*
X0359003Y0268016D01*
X0359003Y0268475D02*
X0365243Y0268475D01*
X0365243Y0268934D02*
X0359003Y0268934D01*
X0359003Y0269393D02*
X0365243Y0269393D01*
X0365243Y0266838D02*
X0365243Y0264998D01*
X0359003Y0264998D01*
X0359003Y0266838D01*
X0365243Y0266838D01*
X0365243Y0265457D02*
X0359003Y0265457D01*
X0359003Y0265916D02*
X0365243Y0265916D01*
X0365243Y0266375D02*
X0359003Y0266375D01*
X0359003Y0266834D02*
X0365243Y0266834D01*
X0365243Y0264279D02*
X0365243Y0262439D01*
X0359003Y0262439D01*
X0359003Y0264279D01*
X0365243Y0264279D01*
X0365243Y0262898D02*
X0359003Y0262898D01*
X0359003Y0263357D02*
X0365243Y0263357D01*
X0365243Y0263816D02*
X0359003Y0263816D01*
X0359003Y0264275D02*
X0365243Y0264275D01*
X0365243Y0261720D02*
X0365243Y0259880D01*
X0359003Y0259880D01*
X0359003Y0261720D01*
X0365243Y0261720D01*
X0365243Y0260339D02*
X0359003Y0260339D01*
X0359003Y0260798D02*
X0365243Y0260798D01*
X0365243Y0261257D02*
X0359003Y0261257D01*
X0359003Y0261716D02*
X0365243Y0261716D01*
X0365243Y0259161D02*
X0365243Y0257321D01*
X0359003Y0257321D01*
X0359003Y0259161D01*
X0365243Y0259161D01*
X0365243Y0257780D02*
X0359003Y0257780D01*
X0359003Y0258239D02*
X0365243Y0258239D01*
X0365243Y0258698D02*
X0359003Y0258698D01*
X0359003Y0259157D02*
X0365243Y0259157D01*
X0365243Y0256602D02*
X0365243Y0254762D01*
X0359003Y0254762D01*
X0359003Y0256602D01*
X0365243Y0256602D01*
X0365243Y0255221D02*
X0359003Y0255221D01*
X0359003Y0255680D02*
X0365243Y0255680D01*
X0365243Y0256139D02*
X0359003Y0256139D01*
X0359003Y0256598D02*
X0365243Y0256598D01*
X0393786Y0256602D02*
X0393786Y0254762D01*
X0387546Y0254762D01*
X0387546Y0256602D01*
X0393786Y0256602D01*
X0393786Y0255221D02*
X0387546Y0255221D01*
X0387546Y0255680D02*
X0393786Y0255680D01*
X0393786Y0256139D02*
X0387546Y0256139D01*
X0387546Y0256598D02*
X0393786Y0256598D01*
X0393786Y0257321D02*
X0393786Y0259161D01*
X0393786Y0257321D02*
X0387546Y0257321D01*
X0387546Y0259161D01*
X0393786Y0259161D01*
X0393786Y0257780D02*
X0387546Y0257780D01*
X0387546Y0258239D02*
X0393786Y0258239D01*
X0393786Y0258698D02*
X0387546Y0258698D01*
X0387546Y0259157D02*
X0393786Y0259157D01*
X0393786Y0259880D02*
X0393786Y0261720D01*
X0393786Y0259880D02*
X0387546Y0259880D01*
X0387546Y0261720D01*
X0393786Y0261720D01*
X0393786Y0260339D02*
X0387546Y0260339D01*
X0387546Y0260798D02*
X0393786Y0260798D01*
X0393786Y0261257D02*
X0387546Y0261257D01*
X0387546Y0261716D02*
X0393786Y0261716D01*
X0393786Y0262439D02*
X0393786Y0264279D01*
X0393786Y0262439D02*
X0387546Y0262439D01*
X0387546Y0264279D01*
X0393786Y0264279D01*
X0393786Y0262898D02*
X0387546Y0262898D01*
X0387546Y0263357D02*
X0393786Y0263357D01*
X0393786Y0263816D02*
X0387546Y0263816D01*
X0387546Y0264275D02*
X0393786Y0264275D01*
X0393786Y0264998D02*
X0393786Y0266838D01*
X0393786Y0264998D02*
X0387546Y0264998D01*
X0387546Y0266838D01*
X0393786Y0266838D01*
X0393786Y0265457D02*
X0387546Y0265457D01*
X0387546Y0265916D02*
X0393786Y0265916D01*
X0393786Y0266375D02*
X0387546Y0266375D01*
X0387546Y0266834D02*
X0393786Y0266834D01*
X0393786Y0267557D02*
X0393786Y0269397D01*
X0393786Y0267557D02*
X0387546Y0267557D01*
X0387546Y0269397D01*
X0393786Y0269397D01*
X0393786Y0268016D02*
X0387546Y0268016D01*
X0387546Y0268475D02*
X0393786Y0268475D01*
X0393786Y0268934D02*
X0387546Y0268934D01*
X0387546Y0269393D02*
X0393786Y0269393D01*
X0393786Y0270116D02*
X0393786Y0271956D01*
X0393786Y0270116D02*
X0387546Y0270116D01*
X0387546Y0271956D01*
X0393786Y0271956D01*
X0393786Y0270575D02*
X0387546Y0270575D01*
X0387546Y0271034D02*
X0393786Y0271034D01*
X0393786Y0271493D02*
X0387546Y0271493D01*
X0387546Y0271952D02*
X0393786Y0271952D01*
X0393786Y0272675D02*
X0393786Y0274515D01*
X0393786Y0272675D02*
X0387546Y0272675D01*
X0387546Y0274515D01*
X0393786Y0274515D01*
X0393786Y0273134D02*
X0387546Y0273134D01*
X0387546Y0273593D02*
X0393786Y0273593D01*
X0393786Y0274052D02*
X0387546Y0274052D01*
X0387546Y0274511D02*
X0393786Y0274511D01*
X0393786Y0275234D02*
X0393786Y0277074D01*
X0393786Y0275234D02*
X0387546Y0275234D01*
X0387546Y0277074D01*
X0393786Y0277074D01*
X0393786Y0275693D02*
X0387546Y0275693D01*
X0387546Y0276152D02*
X0393786Y0276152D01*
X0393786Y0276611D02*
X0387546Y0276611D01*
X0387546Y0277070D02*
X0393786Y0277070D01*
X0393786Y0277793D02*
X0393786Y0279633D01*
X0393786Y0277793D02*
X0387546Y0277793D01*
X0387546Y0279633D01*
X0393786Y0279633D01*
X0393786Y0278252D02*
X0387546Y0278252D01*
X0387546Y0278711D02*
X0393786Y0278711D01*
X0393786Y0279170D02*
X0387546Y0279170D01*
X0387546Y0279629D02*
X0393786Y0279629D01*
X0393786Y0280352D02*
X0393786Y0282192D01*
X0393786Y0280352D02*
X0387546Y0280352D01*
X0387546Y0282192D01*
X0393786Y0282192D01*
X0393786Y0280811D02*
X0387546Y0280811D01*
X0387546Y0281270D02*
X0393786Y0281270D01*
X0393786Y0281729D02*
X0387546Y0281729D01*
X0387546Y0282188D02*
X0393786Y0282188D01*
X0393786Y0282911D02*
X0393786Y0284751D01*
X0393786Y0282911D02*
X0387546Y0282911D01*
X0387546Y0284751D01*
X0393786Y0284751D01*
X0393786Y0283370D02*
X0387546Y0283370D01*
X0387546Y0283829D02*
X0393786Y0283829D01*
X0393786Y0284288D02*
X0387546Y0284288D01*
X0387546Y0284747D02*
X0393786Y0284747D01*
X0393786Y0285471D02*
X0393786Y0287311D01*
X0393786Y0285471D02*
X0387546Y0285471D01*
X0387546Y0287311D01*
X0393786Y0287311D01*
X0393786Y0285930D02*
X0387546Y0285930D01*
X0387546Y0286389D02*
X0393786Y0286389D01*
X0393786Y0286848D02*
X0387546Y0286848D01*
X0387546Y0287307D02*
X0393786Y0287307D01*
X0393786Y0288030D02*
X0393786Y0289870D01*
X0393786Y0288030D02*
X0387546Y0288030D01*
X0387546Y0289870D01*
X0393786Y0289870D01*
X0393786Y0288489D02*
X0387546Y0288489D01*
X0387546Y0288948D02*
X0393786Y0288948D01*
X0393786Y0289407D02*
X0387546Y0289407D01*
X0387546Y0289866D02*
X0393786Y0289866D01*
D23*
X0462040Y0348354D03*
X0462040Y0360165D03*
D24*
X0476003Y0350161D03*
X0478003Y0350161D03*
X0480003Y0350161D03*
X0481903Y0350161D03*
X0483903Y0350161D03*
X0485903Y0350161D03*
X0487803Y0350161D03*
X0489803Y0350161D03*
X0491803Y0350161D03*
X0493703Y0350161D03*
X0495703Y0350161D03*
X0497703Y0350161D03*
X0499603Y0350161D03*
X0501603Y0350161D03*
X0503603Y0350161D03*
X0505503Y0350161D03*
X0507503Y0350161D03*
X0509503Y0350161D03*
X0511403Y0350161D03*
X0513403Y0350161D03*
X0515403Y0350161D03*
X0517403Y0350161D03*
X0519303Y0350161D03*
X0521303Y0350161D03*
X0523303Y0350161D03*
X0525203Y0350161D03*
X0527203Y0350161D03*
X0529203Y0350161D03*
X0531103Y0350161D03*
X0533103Y0350161D03*
X0535103Y0350161D03*
X0537003Y0350161D03*
X0539003Y0350161D03*
X0541003Y0350161D03*
X0542903Y0350161D03*
X0544903Y0350161D03*
X0546903Y0350161D03*
X0548803Y0350161D03*
X0550803Y0350161D03*
X0552803Y0350161D03*
D25*
X0560203Y0337361D03*
X0468603Y0337361D03*
D26*
X0356525Y0248954D03*
X0356525Y0240686D03*
X0347751Y0240728D03*
X0347751Y0248995D03*
X0300485Y0375470D03*
X0292218Y0375470D03*
D27*
X0305357Y0360201D03*
X0343357Y0360201D03*
D28*
X0393617Y0308407D03*
X0397160Y0308407D03*
D29*
X0570892Y0320677D03*
X0578372Y0320677D03*
X0587992Y0320777D03*
X0595472Y0320777D03*
X0605192Y0320477D03*
X0612672Y0320477D03*
X0608932Y0328351D03*
X0591732Y0328651D03*
X0574632Y0328551D03*
X0571692Y0361177D03*
X0579172Y0361177D03*
X0588292Y0360777D03*
X0595772Y0360777D03*
X0592032Y0368651D03*
X0575432Y0369051D03*
X0606992Y0360677D03*
X0614472Y0360677D03*
X0610732Y0368551D03*
D30*
G36*
X0541167Y0377277D02*
X0539823Y0375933D01*
X0535793Y0379963D01*
X0537137Y0381307D01*
X0541167Y0377277D01*
G37*
G36*
X0539823Y0375933D02*
X0538479Y0374589D01*
X0534449Y0378619D01*
X0535793Y0379963D01*
X0539823Y0375933D01*
G37*
G36*
X0538409Y0374519D02*
X0537065Y0373175D01*
X0533035Y0377205D01*
X0534379Y0378549D01*
X0538409Y0374519D01*
G37*
G36*
X0536995Y0373105D02*
X0535651Y0371761D01*
X0531621Y0375791D01*
X0532965Y0377135D01*
X0536995Y0373105D01*
G37*
G36*
X0535651Y0371761D02*
X0534307Y0370417D01*
X0530277Y0374447D01*
X0531621Y0375791D01*
X0535651Y0371761D01*
G37*
G36*
X0534237Y0370347D02*
X0532893Y0369003D01*
X0528863Y0373033D01*
X0530207Y0374377D01*
X0534237Y0370347D01*
G37*
G36*
X0532823Y0368933D02*
X0531479Y0367589D01*
X0527449Y0371619D01*
X0528793Y0372963D01*
X0532823Y0368933D01*
G37*
G36*
X0531409Y0367519D02*
X0530065Y0366175D01*
X0526035Y0370205D01*
X0527379Y0371549D01*
X0531409Y0367519D01*
G37*
G36*
X0530065Y0366175D02*
X0528721Y0364831D01*
X0524691Y0368861D01*
X0526035Y0370205D01*
X0530065Y0366175D01*
G37*
G36*
X0528651Y0364761D02*
X0527307Y0363417D01*
X0523277Y0367447D01*
X0524621Y0368791D01*
X0528651Y0364761D01*
G37*
G36*
X0527237Y0363347D02*
X0525893Y0362003D01*
X0521863Y0366033D01*
X0523207Y0367377D01*
X0527237Y0363347D01*
G37*
G36*
X0525893Y0362003D02*
X0524549Y0360659D01*
X0520519Y0364689D01*
X0521863Y0366033D01*
X0525893Y0362003D01*
G37*
G36*
X0519317Y0366033D02*
X0520661Y0364689D01*
X0516631Y0360659D01*
X0515287Y0362003D01*
X0519317Y0366033D01*
G37*
G36*
X0517973Y0367377D02*
X0519317Y0366033D01*
X0515287Y0362003D01*
X0513943Y0363347D01*
X0517973Y0367377D01*
G37*
G36*
X0516559Y0368791D02*
X0517903Y0367447D01*
X0513873Y0363417D01*
X0512529Y0364761D01*
X0516559Y0368791D01*
G37*
G36*
X0515145Y0370205D02*
X0516489Y0368861D01*
X0512459Y0364831D01*
X0511115Y0366175D01*
X0515145Y0370205D01*
G37*
G36*
X0513801Y0371549D02*
X0515145Y0370205D01*
X0511115Y0366175D01*
X0509771Y0367519D01*
X0513801Y0371549D01*
G37*
G36*
X0512387Y0372963D02*
X0513731Y0371619D01*
X0509701Y0367589D01*
X0508357Y0368933D01*
X0512387Y0372963D01*
G37*
G36*
X0510973Y0374377D02*
X0512317Y0373033D01*
X0508287Y0369003D01*
X0506943Y0370347D01*
X0510973Y0374377D01*
G37*
G36*
X0509559Y0375791D02*
X0510903Y0374447D01*
X0506873Y0370417D01*
X0505529Y0371761D01*
X0509559Y0375791D01*
G37*
G36*
X0508215Y0377135D02*
X0509559Y0375791D01*
X0505529Y0371761D01*
X0504185Y0373105D01*
X0508215Y0377135D01*
G37*
G36*
X0506801Y0378549D02*
X0508145Y0377205D01*
X0504115Y0373175D01*
X0502771Y0374519D01*
X0506801Y0378549D01*
G37*
G36*
X0505387Y0379963D02*
X0506731Y0378619D01*
X0502701Y0374589D01*
X0501357Y0375933D01*
X0505387Y0379963D01*
G37*
G36*
X0504043Y0381307D02*
X0505387Y0379963D01*
X0501357Y0375933D01*
X0500013Y0377277D01*
X0504043Y0381307D01*
G37*
G36*
X0505387Y0382509D02*
X0504043Y0381165D01*
X0500013Y0385195D01*
X0501357Y0386539D01*
X0505387Y0382509D01*
G37*
G36*
X0506731Y0383853D02*
X0505387Y0382509D01*
X0501357Y0386539D01*
X0502701Y0387883D01*
X0506731Y0383853D01*
G37*
G36*
X0508145Y0385267D02*
X0506801Y0383923D01*
X0502771Y0387953D01*
X0504115Y0389297D01*
X0508145Y0385267D01*
G37*
G36*
X0509559Y0386681D02*
X0508215Y0385337D01*
X0504185Y0389367D01*
X0505529Y0390711D01*
X0509559Y0386681D01*
G37*
G36*
X0510903Y0388025D02*
X0509559Y0386681D01*
X0505529Y0390711D01*
X0506873Y0392055D01*
X0510903Y0388025D01*
G37*
G36*
X0512317Y0389439D02*
X0510973Y0388095D01*
X0506943Y0392125D01*
X0508287Y0393469D01*
X0512317Y0389439D01*
G37*
G36*
X0513731Y0390853D02*
X0512387Y0389509D01*
X0508357Y0393539D01*
X0509701Y0394883D01*
X0513731Y0390853D01*
G37*
G36*
X0515145Y0392268D02*
X0513801Y0390924D01*
X0509771Y0394954D01*
X0511115Y0396298D01*
X0515145Y0392268D01*
G37*
G36*
X0516489Y0393611D02*
X0515145Y0392267D01*
X0511115Y0396297D01*
X0512459Y0397641D01*
X0516489Y0393611D01*
G37*
G36*
X0517903Y0395025D02*
X0516559Y0393681D01*
X0512529Y0397711D01*
X0513873Y0399055D01*
X0517903Y0395025D01*
G37*
G36*
X0519317Y0396439D02*
X0517973Y0395095D01*
X0513943Y0399125D01*
X0515287Y0400469D01*
X0519317Y0396439D01*
G37*
G36*
X0520661Y0397783D02*
X0519317Y0396439D01*
X0515287Y0400469D01*
X0516631Y0401813D01*
X0520661Y0397783D01*
G37*
G36*
X0524549Y0401813D02*
X0525893Y0400469D01*
X0521863Y0396439D01*
X0520519Y0397783D01*
X0524549Y0401813D01*
G37*
G36*
X0525893Y0400469D02*
X0527237Y0399125D01*
X0523207Y0395095D01*
X0521863Y0396439D01*
X0525893Y0400469D01*
G37*
G36*
X0527307Y0399055D02*
X0528651Y0397711D01*
X0524621Y0393681D01*
X0523277Y0395025D01*
X0527307Y0399055D01*
G37*
G36*
X0528721Y0397641D02*
X0530065Y0396297D01*
X0526035Y0392267D01*
X0524691Y0393611D01*
X0528721Y0397641D01*
G37*
G36*
X0530065Y0396298D02*
X0531409Y0394954D01*
X0527379Y0390924D01*
X0526035Y0392268D01*
X0530065Y0396298D01*
G37*
G36*
X0531479Y0394883D02*
X0532823Y0393539D01*
X0528793Y0389509D01*
X0527449Y0390853D01*
X0531479Y0394883D01*
G37*
G36*
X0532893Y0393469D02*
X0534237Y0392125D01*
X0530207Y0388095D01*
X0528863Y0389439D01*
X0532893Y0393469D01*
G37*
G36*
X0534307Y0392055D02*
X0535651Y0390711D01*
X0531621Y0386681D01*
X0530277Y0388025D01*
X0534307Y0392055D01*
G37*
G36*
X0535651Y0390711D02*
X0536995Y0389367D01*
X0532965Y0385337D01*
X0531621Y0386681D01*
X0535651Y0390711D01*
G37*
G36*
X0537065Y0389297D02*
X0538409Y0387953D01*
X0534379Y0383923D01*
X0533035Y0385267D01*
X0537065Y0389297D01*
G37*
G36*
X0538479Y0387883D02*
X0539823Y0386539D01*
X0535793Y0382509D01*
X0534449Y0383853D01*
X0538479Y0387883D01*
G37*
G36*
X0539823Y0386539D02*
X0541167Y0385195D01*
X0537137Y0381165D01*
X0535793Y0382509D01*
X0539823Y0386539D01*
G37*
D31*
G36*
X0505671Y0381236D02*
X0520590Y0396155D01*
X0535509Y0381236D01*
X0520590Y0366317D01*
X0505671Y0381236D01*
G37*
D32*
X0509276Y0381236D03*
X0514933Y0386893D03*
X0520590Y0392550D03*
X0526954Y0386186D03*
X0531904Y0381236D03*
X0526247Y0375579D03*
X0521297Y0380529D03*
X0515640Y0374872D03*
X0520590Y0369922D03*
D33*
X0534636Y0431357D03*
X0542117Y0431357D03*
X0542117Y0441594D03*
X0538377Y0441594D03*
X0534636Y0441594D03*
D34*
X0478460Y0392324D03*
X0473460Y0392324D03*
X0468460Y0392324D03*
X0463460Y0392324D03*
X0458460Y0392324D03*
X0453460Y0392324D03*
X0448460Y0392324D03*
X0448460Y0372324D03*
X0453460Y0372324D03*
X0458460Y0372324D03*
X0463460Y0372324D03*
X0468460Y0372324D03*
X0473460Y0372324D03*
X0478460Y0372324D03*
D35*
X0425490Y0153302D03*
X0416018Y0153302D03*
X0407814Y0148566D03*
X0403078Y0140362D03*
X0403074Y0130890D03*
X0407814Y0122686D03*
X0416018Y0117946D03*
X0425490Y0117946D03*
X0433694Y0122686D03*
X0438430Y0130890D03*
X0433694Y0148566D03*
X0553078Y0140362D03*
X0557814Y0148566D03*
X0566018Y0153302D03*
X0575490Y0153302D03*
X0583694Y0148566D03*
X0588430Y0130890D03*
X0583694Y0122686D03*
X0575490Y0117946D03*
X0566018Y0117946D03*
X0557814Y0122686D03*
X0553074Y0130890D03*
X0288430Y0130890D03*
X0283694Y0122686D03*
X0275490Y0117946D03*
X0266018Y0117946D03*
X0257814Y0122686D03*
X0253074Y0130890D03*
X0253078Y0140362D03*
X0257814Y0148566D03*
X0266018Y0153302D03*
X0275490Y0153302D03*
X0283694Y0148566D03*
D36*
X0288430Y0140362D03*
X0438430Y0140362D03*
X0588430Y0140362D03*
D37*
X0570754Y0135626D03*
X0420754Y0135626D03*
X0270754Y0135626D03*
D38*
X0625209Y0304142D03*
X0651685Y0304142D03*
D39*
X0600714Y0256476D03*
X0593627Y0256476D03*
X0593627Y0247476D03*
X0600714Y0247476D03*
X0630651Y0215213D03*
X0637737Y0215213D03*
D40*
X0642719Y0230687D03*
X0642719Y0232655D03*
X0642719Y0234624D03*
X0642719Y0236592D03*
X0642719Y0238561D03*
X0642719Y0240529D03*
X0642719Y0242498D03*
X0642719Y0244466D03*
X0623822Y0244466D03*
X0623822Y0242498D03*
X0623822Y0240529D03*
X0623822Y0238561D03*
X0623822Y0236592D03*
X0623822Y0234624D03*
X0623822Y0232655D03*
X0623822Y0230687D03*
D41*
X0591035Y0291676D03*
X0574106Y0291676D03*
D42*
X0264258Y0297512D03*
X0258588Y0297512D03*
X0252919Y0297512D03*
X0247250Y0297512D03*
X0250085Y0302827D03*
X0255754Y0302827D03*
X0261423Y0302827D03*
X0261423Y0292197D03*
X0255754Y0292197D03*
X0250085Y0292197D03*
X0252919Y0286882D03*
X0258588Y0286882D03*
D43*
X0252712Y0359302D03*
X0237751Y0359302D03*
D44*
X0185880Y0348786D03*
D45*
X0208714Y0349731D03*
X0208714Y0359731D03*
X0208714Y0339731D03*
D46*
X0188470Y0238461D03*
X0188470Y0221138D03*
D47*
X0197624Y0223500D03*
X0197624Y0226650D03*
X0197624Y0229799D03*
X0197624Y0232949D03*
X0197624Y0236098D03*
D48*
X0180990Y0249189D03*
X0180990Y0210409D03*
D49*
X0197722Y0210409D03*
X0197722Y0249189D03*
D50*
X0216667Y0427358D03*
X0269029Y0427358D03*
X0390667Y0429358D03*
X0443029Y0429358D03*
X0572667Y0429358D03*
X0625029Y0429358D03*
D51*
X0616565Y0407823D03*
X0604754Y0407823D03*
X0592943Y0407823D03*
X0581132Y0407823D03*
X0434565Y0407823D03*
X0422754Y0407823D03*
X0410943Y0407823D03*
X0399132Y0407823D03*
X0260565Y0405823D03*
X0248754Y0405823D03*
X0236943Y0405823D03*
X0225132Y0405823D03*
D52*
X0209856Y0187264D03*
X0209856Y0175453D03*
X0631840Y0177264D03*
X0631840Y0165453D03*
D53*
X0648848Y0171358D03*
X0192848Y0181358D03*
D54*
X0204833Y0287799D03*
X0204833Y0296461D03*
D55*
X0205730Y0303130D03*
X0205730Y0317697D03*
D56*
X0199100Y0316807D03*
X0185714Y0300272D03*
X0212705Y0249291D03*
X0206974Y0240429D03*
X0211305Y0223106D03*
X0211699Y0210508D03*
X0234848Y0207358D03*
X0250848Y0199358D03*
X0222848Y0177358D03*
X0239848Y0125358D03*
X0318785Y0130587D03*
X0477691Y0144466D03*
X0596848Y0221358D03*
X0592848Y0227358D03*
X0586848Y0247358D03*
X0588581Y0256177D03*
X0618848Y0271358D03*
X0636848Y0265358D03*
X0651966Y0266413D03*
X0662009Y0264620D03*
X0629182Y0253798D03*
X0650848Y0225358D03*
X0660848Y0227358D03*
X0638848Y0221358D03*
X0628848Y0187358D03*
X0622848Y0145358D03*
X0456581Y0269563D03*
X0433903Y0279024D03*
X0412763Y0262764D03*
X0402848Y0265358D03*
X0397525Y0272713D03*
X0399494Y0284524D03*
X0372414Y0276154D03*
X0369963Y0281804D03*
X0372360Y0269925D03*
X0370008Y0262947D03*
X0372848Y0249358D03*
X0343982Y0255390D03*
X0343982Y0279406D03*
X0347919Y0288461D03*
X0364848Y0307813D03*
X0376848Y0317358D03*
X0384848Y0327358D03*
X0388848Y0331358D03*
X0396848Y0335358D03*
X0385714Y0352634D03*
X0386502Y0357358D03*
X0395163Y0365232D03*
X0406263Y0368884D03*
X0406187Y0360114D03*
X0400281Y0354209D03*
X0432565Y0346335D03*
X0447525Y0342791D03*
X0454612Y0340823D03*
X0452644Y0348303D03*
X0431818Y0368121D03*
X0440383Y0375584D03*
X0455771Y0385576D03*
X0463403Y0386764D03*
X0469463Y0382284D03*
X0473313Y0379012D03*
X0463982Y0378303D03*
X0482763Y0377164D03*
X0481643Y0367623D03*
X0498707Y0343579D03*
X0511305Y0342791D03*
X0526659Y0343579D03*
X0545089Y0341930D03*
X0555448Y0358458D03*
X0545917Y0391867D03*
X0545757Y0395787D03*
X0545237Y0401547D03*
X0538537Y0401547D03*
X0533187Y0396297D03*
X0539757Y0392407D03*
X0525437Y0405147D03*
X0542117Y0418879D03*
X0558848Y0425358D03*
X0582848Y0421358D03*
X0546738Y0447516D03*
X0501462Y0419169D03*
X0483563Y0397984D03*
X0468392Y0398157D03*
X0458876Y0397977D03*
X0417998Y0393185D03*
X0410848Y0423358D03*
X0422848Y0433358D03*
X0424848Y0441358D03*
X0360518Y0367201D03*
X0356848Y0339358D03*
X0351069Y0332949D03*
X0347919Y0337673D03*
X0342585Y0312692D03*
X0304612Y0335705D03*
X0302644Y0312083D03*
X0274297Y0356177D03*
X0307368Y0376052D03*
X0245588Y0392337D03*
X0239622Y0392219D03*
X0224848Y0417358D03*
X0222848Y0451358D03*
X0236848Y0451358D03*
X0249848Y0451358D03*
X0262848Y0451358D03*
X0219573Y0349484D03*
X0234848Y0253358D03*
X0405963Y0307964D03*
X0439003Y0308204D03*
X0450013Y0324484D03*
X0484140Y0341610D03*
X0577840Y0313264D03*
X0582848Y0317358D03*
X0594376Y0312476D03*
X0600848Y0315759D03*
X0612092Y0312870D03*
X0618848Y0317358D03*
D57*
X0192407Y0134917D03*
X0649100Y0134917D03*
X0649100Y0438067D03*
X0192407Y0438067D03*
D58*
X0207368Y0332949D03*
X0622848Y0225358D03*
X0642848Y0249358D03*
D59*
X0432565Y0335311D03*
X0225431Y0372319D03*
D60*
X0501069Y0429799D03*
X0516423Y0425469D03*
X0538077Y0447516D03*
X0565636Y0441217D03*
D61*
X0196344Y0300272D03*
M02*
