%
M48
M72
T01C0.0118
T02C0.0130
T03C0.0138
T04C0.0197
T05C0.0236
T06C0.0256
T07C0.0276
T08C0.0315
T09C0.0354
T10C0.0402
T11C0.0949
T12C0.1181
T13C0.2500
%
T01
X43256Y33531
X22543Y37232
T02
X50928Y38124
X51493Y38689
X52059Y39255
X52695Y38619
X53190Y38124
X52625Y37558
X52130Y38053
X51564Y37487
X52059Y36992
T03
X53976Y39241
X54592Y39187
X54576Y39579
X54524Y40155
X53854Y40155
X53319Y39630
X52544Y40515
X54212Y41888
X55885Y42536
X58285Y42136
X54674Y44752
X50146Y41917
X48356Y39798
X46839Y39816
X45888Y39798
X46340Y38676
X46946Y38228
X47331Y37901
X46398Y37830
X45577Y38558
X44038Y37558
X43182Y36812
X45264Y34830
X44753Y34279
X45461Y34082
X45001Y32448
X43900Y30820
X40596Y30796
X37685Y31736
X38485Y32736
X38885Y33136
X39685Y33536
X38571Y35263
X38650Y35736
X39516Y36523
X40626Y36888
X40619Y36011
X40028Y35421
X43256Y34633
X48414Y34161
X49871Y34358
X51130Y34279
X52666Y34358
X54509Y34193
X55545Y35846
X58285Y31736
X57784Y31326
X59438Y31248
X60085Y31576
X61209Y31287
X61885Y31736
X61885Y27136
X63685Y26536
X65197Y26641
X66201Y26462
X62918Y25380
X65085Y22536
X66085Y22736
X63885Y22136
X62885Y18736
X59685Y22136
X59285Y22736
X58685Y24736
X58858Y25618
X45658Y26956
X43390Y27902
X41276Y26276
X40285Y26536
X39753Y27271
X39949Y28452
X37241Y27615
X36996Y28180
X37236Y26993
X37001Y26295
X37285Y24936
X34398Y25539
X34398Y27941
X34792Y28846
X36485Y30781
X34259Y31269
X35107Y33295
X34792Y33767
X35685Y33936
X36052Y36720
X30737Y37605
X27430Y35618
X30461Y33570
X30264Y31208
X21957Y34948
X19910Y31681
X18571Y30027
X21270Y24929
X20697Y24043
X21130Y22311
X21170Y21051
X23485Y20736
X25085Y19936
X22285Y17736
X23985Y12536
X31879Y13059
X47769Y14447
X62285Y14536
X48164Y36762
X48276Y37716
X41800Y39319
X41085Y42336
X42285Y43336
X42485Y44136
X26285Y45136
X24985Y45136
X23685Y45136
X22285Y45136
X22485Y41736
X23962Y39222
X24559Y39234
X23485Y25336
T04
X50107Y42980
X51642Y42547
X53808Y44752
X56564Y44122
T05
X64285Y24936
X62285Y22536
X20737Y33295
T06
X25008Y30283
X25575Y30283
X26142Y30283
X25859Y29751
X26426Y29751
X26142Y29220
X25575Y29220
X25008Y29220
X24725Y29751
X25292Y29751
X25292Y28688
X25859Y28688
T07
X19634Y30027
T08
X26602Y15330
X27549Y15330
X28369Y14857
X28843Y14036
X28843Y13089
X28369Y12269
X27549Y11795
X26602Y11795
X25781Y12269
X25307Y13089
X25308Y14036
X25781Y14857
X27075Y13563
X40307Y13089
X40308Y14036
X40781Y14857
X41602Y15330
X42549Y15330
X43369Y14857
X43843Y14036
X43843Y13089
X43369Y12269
X42549Y11795
X41602Y11795
X40781Y12269
X42075Y13563
X55307Y13089
X55308Y14036
X55781Y14857
X56602Y15330
X57549Y15330
X58369Y14857
X58843Y14036
X58843Y13089
X58369Y12269
X57549Y11795
X56602Y11795
X55781Y12269
X57075Y13563
T09
X18847Y22114
X18847Y23846
T10
X20986Y18726
X20986Y17545
X63184Y17726
X63184Y16545
T11
X62503Y42936
X57267Y42936
X44303Y42936
X39067Y42936
X26903Y42736
X21667Y42736
T12
X19285Y18136
X64885Y17136
T13
X19241Y13492
X64910Y13492
X64910Y43807
X19241Y43807
M30
