G75*
%MOIN*%
%OFA0B0*%
%FSLAX25Y25*%
%IPPOS*%
%LPD*%
%AMOC8*
5,1,8,0,0,1.08239X$1,22.5*
%
%ADD10C,0.04100*%
%ADD11C,0.06800*%
%ADD12R,0.06800X0.06800*%
%ADD13C,0.08800*%
%ADD14C,0.05359*%
%ADD15C,0.04343*%
%ADD16C,0.10288*%
%ADD17C,0.06824*%
%ADD18C,0.12611*%
%ADD19C,0.03778*%
%ADD20C,0.29800*%
%ADD21C,0.04762*%
%ADD22C,0.03581*%
%ADD23C,0.04369*%
%ADD24C,0.05156*%
D10*
X0520590Y0369922D03*
X0515640Y0374872D03*
X0521297Y0380529D03*
X0526247Y0375579D03*
X0531904Y0381236D03*
X0526954Y0386186D03*
X0520590Y0392550D03*
X0514933Y0386893D03*
X0509276Y0381236D03*
D11*
X0566018Y0153302D03*
X0575490Y0153302D03*
X0583694Y0148566D03*
X0588430Y0130890D03*
X0583694Y0122686D03*
X0575490Y0117946D03*
X0566018Y0117946D03*
X0557814Y0122686D03*
X0553074Y0130890D03*
X0553078Y0140362D03*
X0557814Y0148566D03*
X0438430Y0130890D03*
X0433694Y0122686D03*
X0425490Y0117946D03*
X0416018Y0117946D03*
X0407814Y0122686D03*
X0403074Y0130890D03*
X0403078Y0140362D03*
X0407814Y0148566D03*
X0416018Y0153302D03*
X0425490Y0153302D03*
X0433694Y0148566D03*
X0288430Y0130890D03*
X0283694Y0122686D03*
X0275490Y0117946D03*
X0266018Y0117946D03*
X0257814Y0122686D03*
X0253074Y0130890D03*
X0253078Y0140362D03*
X0257814Y0148566D03*
X0266018Y0153302D03*
X0275490Y0153302D03*
X0283694Y0148566D03*
D12*
X0288430Y0140362D03*
X0438430Y0140362D03*
X0588430Y0140362D03*
D13*
X0570754Y0135626D03*
X0420754Y0135626D03*
X0270754Y0135626D03*
D14*
X0258588Y0286882D03*
X0252919Y0286882D03*
X0250085Y0292197D03*
X0255754Y0292197D03*
X0261423Y0292197D03*
X0258588Y0297512D03*
X0252919Y0297512D03*
X0247250Y0297512D03*
X0250085Y0302827D03*
X0255754Y0302827D03*
X0261423Y0302827D03*
X0264258Y0297512D03*
D15*
X0188470Y0238461D03*
X0188470Y0221138D03*
D16*
X0216667Y0427358D03*
X0269029Y0427358D03*
X0390667Y0429358D03*
X0443029Y0429358D03*
X0572667Y0429358D03*
X0625029Y0429358D03*
D17*
X0631840Y0177264D03*
X0631840Y0165453D03*
X0209856Y0175453D03*
X0209856Y0187264D03*
D18*
X0192848Y0181358D03*
X0648848Y0171358D03*
D19*
X0628848Y0187358D03*
X0638848Y0221358D03*
X0650848Y0225358D03*
X0660848Y0227358D03*
X0629182Y0253798D03*
X0636848Y0265358D03*
X0651966Y0266413D03*
X0662009Y0264620D03*
X0618848Y0271358D03*
X0588581Y0256177D03*
X0586848Y0247358D03*
X0592848Y0227358D03*
X0596848Y0221358D03*
X0622848Y0145358D03*
X0477691Y0144466D03*
X0318785Y0130587D03*
X0239848Y0125358D03*
X0222848Y0177358D03*
X0250848Y0199358D03*
X0234848Y0207358D03*
X0211699Y0210508D03*
X0211305Y0223106D03*
X0206974Y0240429D03*
X0212705Y0249291D03*
X0234848Y0253358D03*
X0185714Y0300272D03*
X0199100Y0316807D03*
X0219573Y0349484D03*
X0274297Y0356177D03*
X0304612Y0335705D03*
X0302644Y0312083D03*
X0342585Y0312692D03*
X0364848Y0307813D03*
X0376848Y0317358D03*
X0384848Y0327358D03*
X0388848Y0331358D03*
X0396848Y0335358D03*
X0385714Y0352634D03*
X0386502Y0357358D03*
X0395163Y0365232D03*
X0406263Y0368884D03*
X0406187Y0360114D03*
X0400281Y0354209D03*
X0432565Y0346335D03*
X0447525Y0342791D03*
X0454612Y0340823D03*
X0452644Y0348303D03*
X0431818Y0368121D03*
X0440383Y0375584D03*
X0455771Y0385576D03*
X0463403Y0386764D03*
X0469463Y0382284D03*
X0473313Y0379012D03*
X0463982Y0378303D03*
X0482763Y0377164D03*
X0481643Y0367623D03*
X0498707Y0343579D03*
X0511305Y0342791D03*
X0526659Y0343579D03*
X0545089Y0341930D03*
X0555448Y0358458D03*
X0545917Y0391867D03*
X0545757Y0395787D03*
X0545237Y0401547D03*
X0538537Y0401547D03*
X0533187Y0396297D03*
X0539757Y0392407D03*
X0525437Y0405147D03*
X0542117Y0418879D03*
X0558848Y0425358D03*
X0582848Y0421358D03*
X0546738Y0447516D03*
X0501462Y0419169D03*
X0483563Y0397984D03*
X0468392Y0398157D03*
X0458876Y0397977D03*
X0417998Y0393185D03*
X0410848Y0423358D03*
X0422848Y0433358D03*
X0424848Y0441358D03*
X0360518Y0367201D03*
X0356848Y0339358D03*
X0351069Y0332949D03*
X0347919Y0337673D03*
X0307368Y0376052D03*
X0245588Y0392337D03*
X0239622Y0392219D03*
X0224848Y0417358D03*
X0222848Y0451358D03*
X0236848Y0451358D03*
X0249848Y0451358D03*
X0262848Y0451358D03*
X0450013Y0324484D03*
X0439003Y0308204D03*
X0405963Y0307964D03*
X0399494Y0284524D03*
X0397525Y0272713D03*
X0402848Y0265358D03*
X0412763Y0262764D03*
X0433903Y0279024D03*
X0456581Y0269563D03*
X0372360Y0269925D03*
X0372414Y0276154D03*
X0369963Y0281804D03*
X0347919Y0288461D03*
X0343982Y0279406D03*
X0370008Y0262947D03*
X0372848Y0249358D03*
X0343982Y0255390D03*
X0484140Y0341610D03*
X0577840Y0313264D03*
X0582848Y0317358D03*
X0594376Y0312476D03*
X0600848Y0315759D03*
X0612092Y0312870D03*
X0618848Y0317358D03*
D20*
X0192407Y0134917D03*
X0649100Y0134917D03*
X0649100Y0438067D03*
X0192407Y0438067D03*
D21*
X0207368Y0332949D03*
X0622848Y0225358D03*
X0642848Y0249358D03*
D22*
X0432565Y0335311D03*
X0225431Y0372319D03*
D23*
X0501069Y0429799D03*
X0516423Y0425469D03*
X0538077Y0447516D03*
X0565636Y0441217D03*
D24*
X0196344Y0300272D03*
M02*
